<?xml version="1.0" encoding="utf-8" standalone="no"?>
<!DOCTYPE svg PUBLIC "-//W3C//DTD SVG 1.1//EN"
  "http://www.w3.org/Graphics/SVG/1.1/DTD/svg11.dtd">
<!-- Created with matplotlib (https://matplotlib.org/) -->
<svg height="288pt" version="1.1" viewBox="0 0 432 288" width="432pt" xmlns="http://www.w3.org/2000/svg" xmlns:xlink="http://www.w3.org/1999/xlink">
 <metadata>
  <rdf:RDF xmlns:cc="http://creativecommons.org/ns#" xmlns:dc="http://purl.org/dc/elements/1.1/" xmlns:rdf="http://www.w3.org/1999/02/22-rdf-syntax-ns#">
   <cc:Work>
    <dc:type rdf:resource="http://purl.org/dc/dcmitype/StillImage"/>
    <dc:date>2022-05-25T10:30:49.798321</dc:date>
    <dc:format>image/svg+xml</dc:format>
    <dc:creator>
     <cc:Agent>
      <dc:title>Matplotlib v3.3.2, https://matplotlib.org/</dc:title>
     </cc:Agent>
    </dc:creator>
   </cc:Work>
  </rdf:RDF>
 </metadata>
 <defs>
  <style type="text/css">*{stroke-linecap:butt;stroke-linejoin:round;}</style>
 </defs>
 <g id="figure_1">
  <g id="patch_1">
   <path d="M 0 288 
L 432 288 
L 432 0 
L 0 0 
z
" style="fill:#ffffff;"/>
  </g>
  <g id="axes_1">
   <g id="patch_2">
    <path d="M 54 133.396364 
L 388.8 133.396364 
L 388.8 34.56 
L 54 34.56 
z
" style="fill:#ffffff;"/>
   </g>
   <g id="matplotlib.axis_1"/>
   <g id="matplotlib.axis_2">
    <g id="ytick_1">
     <g id="line2d_1">
      <defs>
       <path d="M 0 0 
L -3.5 0 
" id="mb2cd3ab6a4" style="stroke:#000000;stroke-width:0.8;"/>
      </defs>
      <g>
       <use style="stroke:#000000;stroke-width:0.8;" x="54" xlink:href="#mb2cd3ab6a4" y="126.506813"/>
      </g>
     </g>
     <g id="text_1">
      <!-- −2 -->
      <g transform="translate(32.257812 130.306032)scale(0.1 -0.1)">
       <defs>
        <path d="M 10.59375 35.5 
L 73.1875 35.5 
L 73.1875 27.203125 
L 10.59375 27.203125 
z
" id="DejaVuSans-8722"/>
        <path d="M 19.1875 8.296875 
L 53.609375 8.296875 
L 53.609375 0 
L 7.328125 0 
L 7.328125 8.296875 
Q 12.9375 14.109375 22.625 23.890625 
Q 32.328125 33.6875 34.8125 36.53125 
Q 39.546875 41.84375 41.421875 45.53125 
Q 43.3125 49.21875 43.3125 52.78125 
Q 43.3125 58.59375 39.234375 62.25 
Q 35.15625 65.921875 28.609375 65.921875 
Q 23.96875 65.921875 18.8125 64.3125 
Q 13.671875 62.703125 7.8125 59.421875 
L 7.8125 69.390625 
Q 13.765625 71.78125 18.9375 73 
Q 24.125 74.21875 28.421875 74.21875 
Q 39.75 74.21875 46.484375 68.546875 
Q 53.21875 62.890625 53.21875 53.421875 
Q 53.21875 48.921875 51.53125 44.890625 
Q 49.859375 40.875 45.40625 35.40625 
Q 44.1875 33.984375 37.640625 27.21875 
Q 31.109375 20.453125 19.1875 8.296875 
z
" id="DejaVuSans-50"/>
       </defs>
       <use xlink:href="#DejaVuSans-8722"/>
       <use x="83.789062" xlink:href="#DejaVuSans-50"/>
      </g>
     </g>
    </g>
    <g id="ytick_2">
     <g id="line2d_2">
      <g>
       <use style="stroke:#000000;stroke-width:0.8;" x="54" xlink:href="#mb2cd3ab6a4" y="94.992819"/>
      </g>
     </g>
     <g id="text_2">
      <!-- 0 -->
      <g transform="translate(40.6375 98.792038)scale(0.1 -0.1)">
       <defs>
        <path d="M 31.78125 66.40625 
Q 24.171875 66.40625 20.328125 58.90625 
Q 16.5 51.421875 16.5 36.375 
Q 16.5 21.390625 20.328125 13.890625 
Q 24.171875 6.390625 31.78125 6.390625 
Q 39.453125 6.390625 43.28125 13.890625 
Q 47.125 21.390625 47.125 36.375 
Q 47.125 51.421875 43.28125 58.90625 
Q 39.453125 66.40625 31.78125 66.40625 
z
M 31.78125 74.21875 
Q 44.046875 74.21875 50.515625 64.515625 
Q 56.984375 54.828125 56.984375 36.375 
Q 56.984375 17.96875 50.515625 8.265625 
Q 44.046875 -1.421875 31.78125 -1.421875 
Q 19.53125 -1.421875 13.0625 8.265625 
Q 6.59375 17.96875 6.59375 36.375 
Q 6.59375 54.828125 13.0625 64.515625 
Q 19.53125 74.21875 31.78125 74.21875 
z
" id="DejaVuSans-48"/>
       </defs>
       <use xlink:href="#DejaVuSans-48"/>
      </g>
     </g>
    </g>
    <g id="ytick_3">
     <g id="line2d_3">
      <g>
       <use style="stroke:#000000;stroke-width:0.8;" x="54" xlink:href="#mb2cd3ab6a4" y="63.478825"/>
      </g>
     </g>
     <g id="text_3">
      <!-- 2 -->
      <g transform="translate(40.6375 67.278043)scale(0.1 -0.1)">
       <use xlink:href="#DejaVuSans-50"/>
      </g>
     </g>
    </g>
    <g id="text_4">
     <!-- Radial Stress [Pa] -->
     <g transform="translate(26.178125 127.717244)rotate(-90)scale(0.1 -0.1)">
      <defs>
       <path d="M 44.390625 34.1875 
Q 47.5625 33.109375 50.5625 29.59375 
Q 53.5625 26.078125 56.59375 19.921875 
L 66.609375 0 
L 56 0 
L 46.6875 18.703125 
Q 43.0625 26.03125 39.671875 28.421875 
Q 36.28125 30.8125 30.421875 30.8125 
L 19.671875 30.8125 
L 19.671875 0 
L 9.8125 0 
L 9.8125 72.90625 
L 32.078125 72.90625 
Q 44.578125 72.90625 50.734375 67.671875 
Q 56.890625 62.453125 56.890625 51.90625 
Q 56.890625 45.015625 53.6875 40.46875 
Q 50.484375 35.9375 44.390625 34.1875 
z
M 19.671875 64.796875 
L 19.671875 38.921875 
L 32.078125 38.921875 
Q 39.203125 38.921875 42.84375 42.21875 
Q 46.484375 45.515625 46.484375 51.90625 
Q 46.484375 58.296875 42.84375 61.546875 
Q 39.203125 64.796875 32.078125 64.796875 
z
" id="DejaVuSans-82"/>
       <path d="M 34.28125 27.484375 
Q 23.390625 27.484375 19.1875 25 
Q 14.984375 22.515625 14.984375 16.5 
Q 14.984375 11.71875 18.140625 8.90625 
Q 21.296875 6.109375 26.703125 6.109375 
Q 34.1875 6.109375 38.703125 11.40625 
Q 43.21875 16.703125 43.21875 25.484375 
L 43.21875 27.484375 
z
M 52.203125 31.203125 
L 52.203125 0 
L 43.21875 0 
L 43.21875 8.296875 
Q 40.140625 3.328125 35.546875 0.953125 
Q 30.953125 -1.421875 24.3125 -1.421875 
Q 15.921875 -1.421875 10.953125 3.296875 
Q 6 8.015625 6 15.921875 
Q 6 25.140625 12.171875 29.828125 
Q 18.359375 34.515625 30.609375 34.515625 
L 43.21875 34.515625 
L 43.21875 35.40625 
Q 43.21875 41.609375 39.140625 45 
Q 35.0625 48.390625 27.6875 48.390625 
Q 23 48.390625 18.546875 47.265625 
Q 14.109375 46.140625 10.015625 43.890625 
L 10.015625 52.203125 
Q 14.9375 54.109375 19.578125 55.046875 
Q 24.21875 56 28.609375 56 
Q 40.484375 56 46.34375 49.84375 
Q 52.203125 43.703125 52.203125 31.203125 
z
" id="DejaVuSans-97"/>
       <path d="M 45.40625 46.390625 
L 45.40625 75.984375 
L 54.390625 75.984375 
L 54.390625 0 
L 45.40625 0 
L 45.40625 8.203125 
Q 42.578125 3.328125 38.25 0.953125 
Q 33.9375 -1.421875 27.875 -1.421875 
Q 17.96875 -1.421875 11.734375 6.484375 
Q 5.515625 14.40625 5.515625 27.296875 
Q 5.515625 40.1875 11.734375 48.09375 
Q 17.96875 56 27.875 56 
Q 33.9375 56 38.25 53.625 
Q 42.578125 51.265625 45.40625 46.390625 
z
M 14.796875 27.296875 
Q 14.796875 17.390625 18.875 11.75 
Q 22.953125 6.109375 30.078125 6.109375 
Q 37.203125 6.109375 41.296875 11.75 
Q 45.40625 17.390625 45.40625 27.296875 
Q 45.40625 37.203125 41.296875 42.84375 
Q 37.203125 48.484375 30.078125 48.484375 
Q 22.953125 48.484375 18.875 42.84375 
Q 14.796875 37.203125 14.796875 27.296875 
z
" id="DejaVuSans-100"/>
       <path d="M 9.421875 54.6875 
L 18.40625 54.6875 
L 18.40625 0 
L 9.421875 0 
z
M 9.421875 75.984375 
L 18.40625 75.984375 
L 18.40625 64.59375 
L 9.421875 64.59375 
z
" id="DejaVuSans-105"/>
       <path d="M 9.421875 75.984375 
L 18.40625 75.984375 
L 18.40625 0 
L 9.421875 0 
z
" id="DejaVuSans-108"/>
       <path id="DejaVuSans-32"/>
       <path d="M 53.515625 70.515625 
L 53.515625 60.890625 
Q 47.90625 63.578125 42.921875 64.890625 
Q 37.9375 66.21875 33.296875 66.21875 
Q 25.25 66.21875 20.875 63.09375 
Q 16.5 59.96875 16.5 54.203125 
Q 16.5 49.359375 19.40625 46.890625 
Q 22.3125 44.4375 30.421875 42.921875 
L 36.375 41.703125 
Q 47.40625 39.59375 52.65625 34.296875 
Q 57.90625 29 57.90625 20.125 
Q 57.90625 9.515625 50.796875 4.046875 
Q 43.703125 -1.421875 29.984375 -1.421875 
Q 24.8125 -1.421875 18.96875 -0.25 
Q 13.140625 0.921875 6.890625 3.21875 
L 6.890625 13.375 
Q 12.890625 10.015625 18.65625 8.296875 
Q 24.421875 6.59375 29.984375 6.59375 
Q 38.421875 6.59375 43.015625 9.90625 
Q 47.609375 13.234375 47.609375 19.390625 
Q 47.609375 24.75 44.3125 27.78125 
Q 41.015625 30.8125 33.5 32.328125 
L 27.484375 33.5 
Q 16.453125 35.6875 11.515625 40.375 
Q 6.59375 45.0625 6.59375 53.421875 
Q 6.59375 63.09375 13.40625 68.65625 
Q 20.21875 74.21875 32.171875 74.21875 
Q 37.3125 74.21875 42.625 73.28125 
Q 47.953125 72.359375 53.515625 70.515625 
z
" id="DejaVuSans-83"/>
       <path d="M 18.3125 70.21875 
L 18.3125 54.6875 
L 36.8125 54.6875 
L 36.8125 47.703125 
L 18.3125 47.703125 
L 18.3125 18.015625 
Q 18.3125 11.328125 20.140625 9.421875 
Q 21.96875 7.515625 27.59375 7.515625 
L 36.8125 7.515625 
L 36.8125 0 
L 27.59375 0 
Q 17.1875 0 13.234375 3.875 
Q 9.28125 7.765625 9.28125 18.015625 
L 9.28125 47.703125 
L 2.6875 47.703125 
L 2.6875 54.6875 
L 9.28125 54.6875 
L 9.28125 70.21875 
z
" id="DejaVuSans-116"/>
       <path d="M 41.109375 46.296875 
Q 39.59375 47.171875 37.8125 47.578125 
Q 36.03125 48 33.890625 48 
Q 26.265625 48 22.1875 43.046875 
Q 18.109375 38.09375 18.109375 28.8125 
L 18.109375 0 
L 9.078125 0 
L 9.078125 54.6875 
L 18.109375 54.6875 
L 18.109375 46.1875 
Q 20.953125 51.171875 25.484375 53.578125 
Q 30.03125 56 36.53125 56 
Q 37.453125 56 38.578125 55.875 
Q 39.703125 55.765625 41.0625 55.515625 
z
" id="DejaVuSans-114"/>
       <path d="M 56.203125 29.59375 
L 56.203125 25.203125 
L 14.890625 25.203125 
Q 15.484375 15.921875 20.484375 11.0625 
Q 25.484375 6.203125 34.421875 6.203125 
Q 39.59375 6.203125 44.453125 7.46875 
Q 49.3125 8.734375 54.109375 11.28125 
L 54.109375 2.78125 
Q 49.265625 0.734375 44.1875 -0.34375 
Q 39.109375 -1.421875 33.890625 -1.421875 
Q 20.796875 -1.421875 13.15625 6.1875 
Q 5.515625 13.8125 5.515625 26.8125 
Q 5.515625 40.234375 12.765625 48.109375 
Q 20.015625 56 32.328125 56 
Q 43.359375 56 49.78125 48.890625 
Q 56.203125 41.796875 56.203125 29.59375 
z
M 47.21875 32.234375 
Q 47.125 39.59375 43.09375 43.984375 
Q 39.0625 48.390625 32.421875 48.390625 
Q 24.90625 48.390625 20.390625 44.140625 
Q 15.875 39.890625 15.1875 32.171875 
z
" id="DejaVuSans-101"/>
       <path d="M 44.28125 53.078125 
L 44.28125 44.578125 
Q 40.484375 46.53125 36.375 47.5 
Q 32.28125 48.484375 27.875 48.484375 
Q 21.1875 48.484375 17.84375 46.4375 
Q 14.5 44.390625 14.5 40.28125 
Q 14.5 37.15625 16.890625 35.375 
Q 19.28125 33.59375 26.515625 31.984375 
L 29.59375 31.296875 
Q 39.15625 29.25 43.1875 25.515625 
Q 47.21875 21.78125 47.21875 15.09375 
Q 47.21875 7.46875 41.1875 3.015625 
Q 35.15625 -1.421875 24.609375 -1.421875 
Q 20.21875 -1.421875 15.453125 -0.5625 
Q 10.6875 0.296875 5.421875 2 
L 5.421875 11.28125 
Q 10.40625 8.6875 15.234375 7.390625 
Q 20.0625 6.109375 24.8125 6.109375 
Q 31.15625 6.109375 34.5625 8.28125 
Q 37.984375 10.453125 37.984375 14.40625 
Q 37.984375 18.0625 35.515625 20.015625 
Q 33.0625 21.96875 24.703125 23.78125 
L 21.578125 24.515625 
Q 13.234375 26.265625 9.515625 29.90625 
Q 5.8125 33.546875 5.8125 39.890625 
Q 5.8125 47.609375 11.28125 51.796875 
Q 16.75 56 26.8125 56 
Q 31.78125 56 36.171875 55.265625 
Q 40.578125 54.546875 44.28125 53.078125 
z
" id="DejaVuSans-115"/>
       <path d="M 8.59375 75.984375 
L 29.296875 75.984375 
L 29.296875 69 
L 17.578125 69 
L 17.578125 -6.203125 
L 29.296875 -6.203125 
L 29.296875 -13.1875 
L 8.59375 -13.1875 
z
" id="DejaVuSans-91"/>
       <path d="M 19.671875 64.796875 
L 19.671875 37.40625 
L 32.078125 37.40625 
Q 38.96875 37.40625 42.71875 40.96875 
Q 46.484375 44.53125 46.484375 51.125 
Q 46.484375 57.671875 42.71875 61.234375 
Q 38.96875 64.796875 32.078125 64.796875 
z
M 9.8125 72.90625 
L 32.078125 72.90625 
Q 44.34375 72.90625 50.609375 67.359375 
Q 56.890625 61.8125 56.890625 51.125 
Q 56.890625 40.328125 50.609375 34.8125 
Q 44.34375 29.296875 32.078125 29.296875 
L 19.671875 29.296875 
L 19.671875 0 
L 9.8125 0 
z
" id="DejaVuSans-80"/>
       <path d="M 30.421875 75.984375 
L 30.421875 -13.1875 
L 9.71875 -13.1875 
L 9.71875 -6.203125 
L 21.390625 -6.203125 
L 21.390625 69 
L 9.71875 69 
L 9.71875 75.984375 
z
" id="DejaVuSans-93"/>
      </defs>
      <use xlink:href="#DejaVuSans-82"/>
      <use x="67.232422" xlink:href="#DejaVuSans-97"/>
      <use x="128.511719" xlink:href="#DejaVuSans-100"/>
      <use x="191.988281" xlink:href="#DejaVuSans-105"/>
      <use x="219.771484" xlink:href="#DejaVuSans-97"/>
      <use x="281.050781" xlink:href="#DejaVuSans-108"/>
      <use x="308.833984" xlink:href="#DejaVuSans-32"/>
      <use x="340.621094" xlink:href="#DejaVuSans-83"/>
      <use x="404.097656" xlink:href="#DejaVuSans-116"/>
      <use x="443.306641" xlink:href="#DejaVuSans-114"/>
      <use x="482.169922" xlink:href="#DejaVuSans-101"/>
      <use x="543.693359" xlink:href="#DejaVuSans-115"/>
      <use x="595.792969" xlink:href="#DejaVuSans-115"/>
      <use x="647.892578" xlink:href="#DejaVuSans-32"/>
      <use x="679.679688" xlink:href="#DejaVuSans-91"/>
      <use x="718.693359" xlink:href="#DejaVuSans-80"/>
      <use x="774.496094" xlink:href="#DejaVuSans-97"/>
      <use x="835.775391" xlink:href="#DejaVuSans-93"/>
     </g>
    </g>
    <g id="text_5">
     <!-- 1e7 -->
     <g transform="translate(54 31.56)scale(0.1 -0.1)">
      <defs>
       <path d="M 12.40625 8.296875 
L 28.515625 8.296875 
L 28.515625 63.921875 
L 10.984375 60.40625 
L 10.984375 69.390625 
L 28.421875 72.90625 
L 38.28125 72.90625 
L 38.28125 8.296875 
L 54.390625 8.296875 
L 54.390625 0 
L 12.40625 0 
z
" id="DejaVuSans-49"/>
       <path d="M 8.203125 72.90625 
L 55.078125 72.90625 
L 55.078125 68.703125 
L 28.609375 0 
L 18.3125 0 
L 43.21875 64.59375 
L 8.203125 64.59375 
z
" id="DejaVuSans-55"/>
      </defs>
      <use xlink:href="#DejaVuSans-49"/>
      <use x="63.623047" xlink:href="#DejaVuSans-101"/>
      <use x="125.146484" xlink:href="#DejaVuSans-55"/>
     </g>
    </g>
   </g>
   <g id="line2d_4">
    <path clip-path="url(#p5822061ff9)" d="M 69.218182 39.052562 
L 70.356769 39.054078 
L 71.495357 39.058566 
L 72.633945 39.066027 
L 73.772532 39.076461 
L 74.91112 39.089867 
L 76.049708 39.106246 
L 77.188295 39.125598 
L 78.326883 39.147922 
L 79.46547 39.173219 
L 80.604058 39.201488 
L 81.742646 39.23273 
L 82.881233 39.266945 
L 84.019821 39.304132 
L 85.158409 39.344292 
L 86.296996 39.387425 
L 87.435584 39.43353 
L 88.574171 39.482608 
L 89.712759 39.534658 
L 90.851347 39.589682 
L 91.989934 39.647677 
L 93.128522 39.708646 
L 94.26711 39.772587 
L 95.405697 39.839501 
L 96.544285 39.909387 
L 97.682872 39.982246 
L 98.82146 40.058077 
L 99.960048 40.136882 
L 101.098635 40.218658 
L 102.237223 40.303408 
L 103.375811 40.39113 
L 104.514398 40.481825 
L 105.652986 40.575492 
L 106.791573 40.672132 
L 107.930161 40.771745 
L 109.068749 40.87433 
L 110.207336 40.979888 
L 111.345924 41.088419 
L 112.484512 41.199922 
L 113.623099 41.314398 
L 114.761687 41.431846 
L 115.900274 41.552267 
L 117.038862 41.675661 
L 118.17745 41.802027 
L 119.316037 41.931366 
L 120.454625 42.063678 
L 121.593213 42.198962 
L 122.7318 42.337219 
L 123.870388 42.478449 
L 125.008975 42.622651 
L 126.147563 42.769826 
L 127.286151 42.919973 
L 128.424738 43.073093 
L 129.563326 43.229186 
L 130.701914 43.388251 
L 131.840501 43.550289 
L 132.979089 43.7153 
L 134.117676 43.883283 
L 135.256264 44.054239 
L 136.394852 44.228167 
L 137.533439 44.405068 
L 138.672027 44.584942 
L 139.810615 44.767789 
L 140.949202 44.953608 
L 142.08779 45.142399 
L 143.226377 45.334164 
L 144.364965 45.528901 
L 145.503553 45.72661 
L 146.64214 45.927292 
L 147.780728 46.130947 
L 148.919316 46.337575 
L 150.057903 46.547175 
L 151.196491 46.759748 
L 152.335078 46.975293 
L 153.473666 47.193811 
L 154.612254 47.415302 
L 155.750841 47.639765 
L 156.889429 47.867201 
L 158.028017 48.097609 
L 159.166604 48.33099 
L 160.305192 48.567344 
L 161.443779 48.806671 
L 162.582367 49.04897 
L 163.720955 49.294241 
L 164.859542 49.542486 
L 165.99813 49.793703 
L 167.136718 50.047892 
L 168.275305 50.305055 
L 169.413893 50.56519 
L 170.55248 50.828297 
L 171.691068 51.094377 
L 172.829656 51.36343 
L 173.968243 51.635455 
L 175.106831 51.910453 
L 176.245419 52.188424 
L 177.384006 52.469367 
L 178.522594 52.753283 
L 179.661181 53.040172 
L 180.799769 53.330033 
L 181.938357 53.622867 
" style="fill:none;stroke:#1f77b4;stroke-linecap:square;stroke-width:1.5;"/>
   </g>
   <g id="line2d_5">
    <path clip-path="url(#p5822061ff9)" d="M 181.938357 53.622867 
L 183.190928 53.969613 
L 184.4435 54.318874 
L 185.696072 54.670693 
L 186.948643 55.02511 
L 188.201215 55.382161 
L 189.453787 55.741883 
L 190.706358 56.104309 
L 191.95893 56.469473 
L 193.211501 56.837404 
L 194.464073 57.208131 
L 195.716645 57.581682 
L 196.969216 57.958083 
L 198.221788 58.33736 
L 199.47436 58.719536 
L 200.726931 59.104633 
L 201.979503 59.492674 
L 203.232075 59.883678 
L 204.484646 60.277667 
L 205.737218 60.674657 
L 206.98979 61.074668 
L 208.242361 61.477716 
L 209.494933 61.883818 
L 210.747504 62.29299 
L 212.000076 62.705245 
L 213.252648 63.120599 
L 214.505219 63.539066 
L 215.757791 63.960657 
L 217.010363 64.385387 
L 218.262934 64.813266 
L 219.515506 65.244307 
L 220.768078 65.678521 
L 222.020649 66.115917 
L 223.273221 66.556507 
L 224.525793 67.0003 
L 225.778364 67.447305 
L 227.030936 67.897531 
L 228.283507 68.350988 
L 229.536079 68.807683 
L 230.788651 69.267624 
L 232.041222 69.730819 
L 233.293794 70.197275 
L 234.546366 70.667001 
L 235.798937 71.140001 
L 237.051509 71.616283 
L 238.304081 72.095854 
L 239.556652 72.578719 
L 240.809224 73.064885 
L 242.061796 73.554356 
L 243.314367 74.047139 
L 244.566939 74.543239 
L 245.81951 75.042661 
L 247.072082 75.545409 
L 248.324654 76.051489 
L 249.577225 76.560905 
L 250.829797 77.073661 
L 252.082369 77.589762 
L 253.33494 78.109213 
L 254.587512 78.632016 
L 255.840084 79.158176 
L 257.092655 79.687696 
L 258.345227 80.22058 
L 259.597799 80.756833 
L 260.85037 81.296456 
L 262.102942 81.839453 
L 263.355514 82.385828 
L 264.608085 82.935583 
L 265.860657 83.488721 
L 267.113228 84.045246 
L 268.3658 84.60516 
L 269.618372 85.168465 
L 270.870943 85.735165 
L 272.123515 86.305262 
L 273.376087 86.878758 
L 274.628658 87.455656 
L 275.88123 88.035958 
L 277.133802 88.619666 
L 278.386373 89.206783 
L 279.638945 89.79731 
L 280.891517 90.391249 
L 282.144088 90.988603 
L 283.39666 91.589374 
L 284.649231 92.193563 
L 285.901803 92.801172 
L 287.154375 93.412203 
L 288.406946 94.026657 
L 289.659518 94.644537 
L 290.91209 95.265844 
L 292.164661 95.890579 
L 293.417233 96.518745 
L 294.669805 97.150341 
L 295.922376 97.785371 
L 297.174948 98.423835 
L 298.42752 99.065735 
L 299.680091 99.711071 
L 300.932663 100.359847 
L 302.185234 101.012061 
L 303.437806 101.667717 
L 304.690378 102.326814 
L 305.942949 102.989355 
" style="fill:none;stroke:#ff7f0e;stroke-linecap:square;stroke-width:1.5;"/>
   </g>
   <g id="line2d_6">
    <path clip-path="url(#p5822061ff9)" d="M 305.942949 102.989355 
L 306.39843 103.233795 
L 306.853911 103.478569 
L 307.309391 103.723676 
L 307.764872 103.969118 
L 308.220352 104.214895 
L 308.675833 104.461008 
L 309.131314 104.707457 
L 309.586794 104.954244 
L 310.042275 105.20137 
L 310.497755 105.448834 
L 310.953236 105.696638 
L 311.408717 105.944783 
L 311.864197 106.193268 
L 312.319678 106.442096 
L 312.775158 106.691266 
L 313.230639 106.940779 
L 313.68612 107.190636 
L 314.1416 107.440838 
L 314.597081 107.691384 
L 315.052561 107.942277 
L 315.508042 108.193517 
L 315.963523 108.445104 
L 316.419003 108.697038 
L 316.874484 108.949322 
L 317.329964 109.201954 
L 317.785445 109.454936 
L 318.240926 109.708269 
L 318.696406 109.961953 
L 319.151887 110.215988 
L 319.607367 110.470376 
L 320.062848 110.725117 
L 320.518329 110.980211 
L 320.973809 111.235659 
L 321.42929 111.491462 
L 321.88477 111.74762 
L 322.340251 112.004134 
L 322.795732 112.261005 
L 323.251212 112.518232 
L 323.706693 112.775817 
L 324.162173 113.03376 
L 324.617654 113.292062 
L 325.073135 113.550723 
L 325.528615 113.809743 
L 325.984096 114.069124 
L 326.439576 114.328866 
L 326.895057 114.588969 
L 327.350538 114.849434 
L 327.806018 115.110261 
L 328.261499 115.371451 
L 328.716979 115.633005 
L 329.17246 115.894922 
L 329.62794 116.157204 
L 330.083421 116.419851 
L 330.538902 116.682863 
L 330.994382 116.946241 
L 331.449863 117.209985 
L 331.905343 117.474096 
L 332.360824 117.738575 
L 332.816305 118.003421 
L 333.271785 118.268636 
L 333.727266 118.534219 
L 334.182746 118.800171 
L 334.638227 119.066493 
L 335.093708 119.333186 
L 335.549188 119.600248 
L 336.004669 119.867682 
L 336.460149 120.135487 
L 336.91563 120.403664 
L 337.371111 120.672213 
L 337.826591 120.941135 
L 338.282072 121.21043 
L 338.737552 121.480099 
L 339.193033 121.750141 
L 339.648514 122.020558 
L 340.103994 122.29135 
L 340.559475 122.562517 
L 341.014955 122.834059 
L 341.470436 123.105978 
L 341.925917 123.378273 
L 342.381397 123.650945 
L 342.836878 123.923994 
L 343.292358 124.19742 
L 343.747839 124.471225 
L 344.20332 124.745408 
L 344.6588 125.019969 
L 345.114281 125.29491 
L 345.569761 125.57023 
L 346.025242 125.84593 
L 346.480723 126.12201 
L 346.936203 126.398471 
L 347.391684 126.675313 
L 347.847164 126.952536 
L 348.302645 127.23014 
L 348.758126 127.508127 
L 349.213606 127.786496 
L 349.669087 128.065247 
L 350.124567 128.344382 
L 350.580048 128.6239 
L 351.035529 128.903802 
" style="fill:none;stroke:#2ca02c;stroke-linecap:square;stroke-width:1.5;"/>
   </g>
   <g id="line2d_7">
    <path clip-path="url(#p5822061ff9)" d="M 351.035529 128.903802 
L 351.263269 128.505705 
L 351.491009 128.108965 
L 351.718749 127.713574 
L 351.94649 127.319524 
L 352.17423 126.926808 
L 352.40197 126.535418 
L 352.629711 126.145345 
L 352.857451 125.756582 
L 353.085191 125.369122 
L 353.312932 124.982957 
L 353.540672 124.598079 
L 353.768412 124.21448 
L 353.996152 123.832155 
L 354.223893 123.451094 
L 354.451633 123.07129 
L 354.679373 122.692737 
L 354.907114 122.315426 
L 355.134854 121.939351 
L 355.362594 121.564505 
L 355.590335 121.19088 
L 355.818075 120.818469 
L 356.045815 120.447266 
L 356.273555 120.077262 
L 356.501296 119.708452 
L 356.729036 119.340827 
L 356.956776 118.974382 
L 357.184517 118.60911 
L 357.412257 118.245003 
L 357.639997 117.882055 
L 357.867738 117.520259 
L 358.095478 117.159609 
L 358.323218 116.800097 
L 358.550958 116.441718 
L 358.778699 116.084464 
L 359.006439 115.728329 
L 359.234179 115.373307 
L 359.46192 115.019391 
L 359.68966 114.666575 
L 359.9174 114.314853 
L 360.145141 113.964217 
L 360.372881 113.614662 
L 360.600621 113.266182 
L 360.828361 112.91877 
L 361.056102 112.572421 
L 361.283842 112.227127 
L 361.511582 111.882883 
L 361.739323 111.539683 
L 361.967063 111.197521 
L 362.194803 110.85639 
L 362.422544 110.516286 
L 362.650284 110.177201 
L 362.878024 109.839131 
L 363.105764 109.502068 
L 363.333505 109.166008 
L 363.561245 108.830945 
L 363.788985 108.496872 
L 364.016726 108.163785 
L 364.244466 107.831677 
L 364.472206 107.500542 
L 364.699947 107.170376 
L 364.927687 106.841173 
L 365.155427 106.512927 
L 365.383167 106.185632 
L 365.610908 105.859283 
L 365.838648 105.533875 
L 366.066388 105.209402 
L 366.294129 104.885859 
L 366.521869 104.56324 
L 366.749609 104.241541 
L 366.97735 103.920755 
L 367.20509 103.600878 
L 367.43283 103.281905 
L 367.66057 102.96383 
L 367.888311 102.646647 
L 368.116051 102.330353 
L 368.343791 102.014941 
L 368.571532 101.700407 
L 368.799272 101.386746 
L 369.027012 101.073952 
L 369.254753 100.762021 
L 369.482493 100.450948 
L 369.710233 100.140728 
L 369.937973 99.831355 
L 370.165714 99.522826 
L 370.393454 99.215134 
L 370.621194 98.908276 
L 370.848935 98.602247 
L 371.076675 98.297041 
L 371.304415 97.992655 
L 371.532155 97.689083 
L 371.759896 97.38632 
L 371.987636 97.084363 
L 372.215376 96.783206 
L 372.443117 96.482845 
L 372.670857 96.183275 
L 372.898597 95.884492 
L 373.126338 95.586492 
L 373.354078 95.289269 
L 373.581818 94.992819 
" style="fill:none;stroke:#d62728;stroke-linecap:square;stroke-width:1.5;"/>
   </g>
   <g id="patch_3">
    <path d="M 54 133.396364 
L 54 34.56 
" style="fill:none;stroke:#000000;stroke-linecap:square;stroke-linejoin:miter;stroke-width:0.8;"/>
   </g>
   <g id="patch_4">
    <path d="M 388.8 133.396364 
L 388.8 34.56 
" style="fill:none;stroke:#000000;stroke-linecap:square;stroke-linejoin:miter;stroke-width:0.8;"/>
   </g>
   <g id="patch_5">
    <path d="M 54 133.396364 
L 388.8 133.396364 
" style="fill:none;stroke:#000000;stroke-linecap:square;stroke-linejoin:miter;stroke-width:0.8;"/>
   </g>
   <g id="patch_6">
    <path d="M 54 34.56 
L 388.8 34.56 
" style="fill:none;stroke:#000000;stroke-linecap:square;stroke-linejoin:miter;stroke-width:0.8;"/>
   </g>
  </g>
  <g id="axes_2">
   <g id="patch_7">
    <path d="M 54 252 
L 388.8 252 
L 388.8 153.163636 
L 54 153.163636 
z
" style="fill:#ffffff;"/>
   </g>
   <g id="matplotlib.axis_3">
    <g id="xtick_1">
     <g id="line2d_8">
      <defs>
       <path d="M 0 0 
L 0 3.5 
" id="m73f73cd928" style="stroke:#000000;stroke-width:0.8;"/>
      </defs>
      <g>
       <use style="stroke:#000000;stroke-width:0.8;" x="69.206909" xlink:href="#m73f73cd928" y="252"/>
      </g>
     </g>
     <g id="text_6">
      <!-- 0.000 -->
      <g transform="translate(54.892846 266.598437)scale(0.1 -0.1)">
       <defs>
        <path d="M 10.6875 12.40625 
L 21 12.40625 
L 21 0 
L 10.6875 0 
z
" id="DejaVuSans-46"/>
       </defs>
       <use xlink:href="#DejaVuSans-48"/>
       <use x="63.623047" xlink:href="#DejaVuSans-46"/>
       <use x="95.410156" xlink:href="#DejaVuSans-48"/>
       <use x="159.033203" xlink:href="#DejaVuSans-48"/>
       <use x="222.65625" xlink:href="#DejaVuSans-48"/>
      </g>
     </g>
    </g>
    <g id="xtick_2">
     <g id="line2d_9">
      <g>
       <use style="stroke:#000000;stroke-width:0.8;" x="114.299488" xlink:href="#m73f73cd928" y="252"/>
      </g>
     </g>
     <g id="text_7">
      <!-- 0.002 -->
      <g transform="translate(99.985425 266.598437)scale(0.1 -0.1)">
       <use xlink:href="#DejaVuSans-48"/>
       <use x="63.623047" xlink:href="#DejaVuSans-46"/>
       <use x="95.410156" xlink:href="#DejaVuSans-48"/>
       <use x="159.033203" xlink:href="#DejaVuSans-48"/>
       <use x="222.65625" xlink:href="#DejaVuSans-50"/>
      </g>
     </g>
    </g>
    <g id="xtick_3">
     <g id="line2d_10">
      <g>
       <use style="stroke:#000000;stroke-width:0.8;" x="159.392067" xlink:href="#m73f73cd928" y="252"/>
      </g>
     </g>
     <g id="text_8">
      <!-- 0.004 -->
      <g transform="translate(145.078005 266.598437)scale(0.1 -0.1)">
       <defs>
        <path d="M 37.796875 64.3125 
L 12.890625 25.390625 
L 37.796875 25.390625 
z
M 35.203125 72.90625 
L 47.609375 72.90625 
L 47.609375 25.390625 
L 58.015625 25.390625 
L 58.015625 17.1875 
L 47.609375 17.1875 
L 47.609375 0 
L 37.796875 0 
L 37.796875 17.1875 
L 4.890625 17.1875 
L 4.890625 26.703125 
z
" id="DejaVuSans-52"/>
       </defs>
       <use xlink:href="#DejaVuSans-48"/>
       <use x="63.623047" xlink:href="#DejaVuSans-46"/>
       <use x="95.410156" xlink:href="#DejaVuSans-48"/>
       <use x="159.033203" xlink:href="#DejaVuSans-48"/>
       <use x="222.65625" xlink:href="#DejaVuSans-52"/>
      </g>
     </g>
    </g>
    <g id="xtick_4">
     <g id="line2d_11">
      <g>
       <use style="stroke:#000000;stroke-width:0.8;" x="204.484646" xlink:href="#m73f73cd928" y="252"/>
      </g>
     </g>
     <g id="text_9">
      <!-- 0.006 -->
      <g transform="translate(190.170584 266.598437)scale(0.1 -0.1)">
       <defs>
        <path d="M 33.015625 40.375 
Q 26.375 40.375 22.484375 35.828125 
Q 18.609375 31.296875 18.609375 23.390625 
Q 18.609375 15.53125 22.484375 10.953125 
Q 26.375 6.390625 33.015625 6.390625 
Q 39.65625 6.390625 43.53125 10.953125 
Q 47.40625 15.53125 47.40625 23.390625 
Q 47.40625 31.296875 43.53125 35.828125 
Q 39.65625 40.375 33.015625 40.375 
z
M 52.59375 71.296875 
L 52.59375 62.3125 
Q 48.875 64.0625 45.09375 64.984375 
Q 41.3125 65.921875 37.59375 65.921875 
Q 27.828125 65.921875 22.671875 59.328125 
Q 17.53125 52.734375 16.796875 39.40625 
Q 19.671875 43.65625 24.015625 45.921875 
Q 28.375 48.1875 33.59375 48.1875 
Q 44.578125 48.1875 50.953125 41.515625 
Q 57.328125 34.859375 57.328125 23.390625 
Q 57.328125 12.15625 50.6875 5.359375 
Q 44.046875 -1.421875 33.015625 -1.421875 
Q 20.359375 -1.421875 13.671875 8.265625 
Q 6.984375 17.96875 6.984375 36.375 
Q 6.984375 53.65625 15.1875 63.9375 
Q 23.390625 74.21875 37.203125 74.21875 
Q 40.921875 74.21875 44.703125 73.484375 
Q 48.484375 72.75 52.59375 71.296875 
z
" id="DejaVuSans-54"/>
       </defs>
       <use xlink:href="#DejaVuSans-48"/>
       <use x="63.623047" xlink:href="#DejaVuSans-46"/>
       <use x="95.410156" xlink:href="#DejaVuSans-48"/>
       <use x="159.033203" xlink:href="#DejaVuSans-48"/>
       <use x="222.65625" xlink:href="#DejaVuSans-54"/>
      </g>
     </g>
    </g>
    <g id="xtick_5">
     <g id="line2d_12">
      <g>
       <use style="stroke:#000000;stroke-width:0.8;" x="249.577225" xlink:href="#m73f73cd928" y="252"/>
      </g>
     </g>
     <g id="text_10">
      <!-- 0.008 -->
      <g transform="translate(235.263163 266.598437)scale(0.1 -0.1)">
       <defs>
        <path d="M 31.78125 34.625 
Q 24.75 34.625 20.71875 30.859375 
Q 16.703125 27.09375 16.703125 20.515625 
Q 16.703125 13.921875 20.71875 10.15625 
Q 24.75 6.390625 31.78125 6.390625 
Q 38.8125 6.390625 42.859375 10.171875 
Q 46.921875 13.96875 46.921875 20.515625 
Q 46.921875 27.09375 42.890625 30.859375 
Q 38.875 34.625 31.78125 34.625 
z
M 21.921875 38.8125 
Q 15.578125 40.375 12.03125 44.71875 
Q 8.5 49.078125 8.5 55.328125 
Q 8.5 64.0625 14.71875 69.140625 
Q 20.953125 74.21875 31.78125 74.21875 
Q 42.671875 74.21875 48.875 69.140625 
Q 55.078125 64.0625 55.078125 55.328125 
Q 55.078125 49.078125 51.53125 44.71875 
Q 48 40.375 41.703125 38.8125 
Q 48.828125 37.15625 52.796875 32.3125 
Q 56.78125 27.484375 56.78125 20.515625 
Q 56.78125 9.90625 50.3125 4.234375 
Q 43.84375 -1.421875 31.78125 -1.421875 
Q 19.734375 -1.421875 13.25 4.234375 
Q 6.78125 9.90625 6.78125 20.515625 
Q 6.78125 27.484375 10.78125 32.3125 
Q 14.796875 37.15625 21.921875 38.8125 
z
M 18.3125 54.390625 
Q 18.3125 48.734375 21.84375 45.5625 
Q 25.390625 42.390625 31.78125 42.390625 
Q 38.140625 42.390625 41.71875 45.5625 
Q 45.3125 48.734375 45.3125 54.390625 
Q 45.3125 60.0625 41.71875 63.234375 
Q 38.140625 66.40625 31.78125 66.40625 
Q 25.390625 66.40625 21.84375 63.234375 
Q 18.3125 60.0625 18.3125 54.390625 
z
" id="DejaVuSans-56"/>
       </defs>
       <use xlink:href="#DejaVuSans-48"/>
       <use x="63.623047" xlink:href="#DejaVuSans-46"/>
       <use x="95.410156" xlink:href="#DejaVuSans-48"/>
       <use x="159.033203" xlink:href="#DejaVuSans-48"/>
       <use x="222.65625" xlink:href="#DejaVuSans-56"/>
      </g>
     </g>
    </g>
    <g id="xtick_6">
     <g id="line2d_13">
      <g>
       <use style="stroke:#000000;stroke-width:0.8;" x="294.669805" xlink:href="#m73f73cd928" y="252"/>
      </g>
     </g>
     <g id="text_11">
      <!-- 0.010 -->
      <g transform="translate(280.355742 266.598437)scale(0.1 -0.1)">
       <use xlink:href="#DejaVuSans-48"/>
       <use x="63.623047" xlink:href="#DejaVuSans-46"/>
       <use x="95.410156" xlink:href="#DejaVuSans-48"/>
       <use x="159.033203" xlink:href="#DejaVuSans-49"/>
       <use x="222.65625" xlink:href="#DejaVuSans-48"/>
      </g>
     </g>
    </g>
    <g id="xtick_7">
     <g id="line2d_14">
      <g>
       <use style="stroke:#000000;stroke-width:0.8;" x="339.762384" xlink:href="#m73f73cd928" y="252"/>
      </g>
     </g>
     <g id="text_12">
      <!-- 0.012 -->
      <g transform="translate(325.448321 266.598437)scale(0.1 -0.1)">
       <use xlink:href="#DejaVuSans-48"/>
       <use x="63.623047" xlink:href="#DejaVuSans-46"/>
       <use x="95.410156" xlink:href="#DejaVuSans-48"/>
       <use x="159.033203" xlink:href="#DejaVuSans-49"/>
       <use x="222.65625" xlink:href="#DejaVuSans-50"/>
      </g>
     </g>
    </g>
    <g id="xtick_8">
     <g id="line2d_15">
      <g>
       <use style="stroke:#000000;stroke-width:0.8;" x="384.854963" xlink:href="#m73f73cd928" y="252"/>
      </g>
     </g>
     <g id="text_13">
      <!-- 0.014 -->
      <g transform="translate(370.5409 266.598437)scale(0.1 -0.1)">
       <use xlink:href="#DejaVuSans-48"/>
       <use x="63.623047" xlink:href="#DejaVuSans-46"/>
       <use x="95.410156" xlink:href="#DejaVuSans-48"/>
       <use x="159.033203" xlink:href="#DejaVuSans-49"/>
       <use x="222.65625" xlink:href="#DejaVuSans-52"/>
      </g>
     </g>
    </g>
    <g id="text_14">
     <!-- Radial Position [m] -->
     <g transform="translate(174.54375 280.276562)scale(0.1 -0.1)">
      <defs>
       <path d="M 30.609375 48.390625 
Q 23.390625 48.390625 19.1875 42.75 
Q 14.984375 37.109375 14.984375 27.296875 
Q 14.984375 17.484375 19.15625 11.84375 
Q 23.34375 6.203125 30.609375 6.203125 
Q 37.796875 6.203125 41.984375 11.859375 
Q 46.1875 17.53125 46.1875 27.296875 
Q 46.1875 37.015625 41.984375 42.703125 
Q 37.796875 48.390625 30.609375 48.390625 
z
M 30.609375 56 
Q 42.328125 56 49.015625 48.375 
Q 55.71875 40.765625 55.71875 27.296875 
Q 55.71875 13.875 49.015625 6.21875 
Q 42.328125 -1.421875 30.609375 -1.421875 
Q 18.84375 -1.421875 12.171875 6.21875 
Q 5.515625 13.875 5.515625 27.296875 
Q 5.515625 40.765625 12.171875 48.375 
Q 18.84375 56 30.609375 56 
z
" id="DejaVuSans-111"/>
       <path d="M 54.890625 33.015625 
L 54.890625 0 
L 45.90625 0 
L 45.90625 32.71875 
Q 45.90625 40.484375 42.875 44.328125 
Q 39.84375 48.1875 33.796875 48.1875 
Q 26.515625 48.1875 22.3125 43.546875 
Q 18.109375 38.921875 18.109375 30.90625 
L 18.109375 0 
L 9.078125 0 
L 9.078125 54.6875 
L 18.109375 54.6875 
L 18.109375 46.1875 
Q 21.34375 51.125 25.703125 53.5625 
Q 30.078125 56 35.796875 56 
Q 45.21875 56 50.046875 50.171875 
Q 54.890625 44.34375 54.890625 33.015625 
z
" id="DejaVuSans-110"/>
       <path d="M 52 44.1875 
Q 55.375 50.25 60.0625 53.125 
Q 64.75 56 71.09375 56 
Q 79.640625 56 84.28125 50.015625 
Q 88.921875 44.046875 88.921875 33.015625 
L 88.921875 0 
L 79.890625 0 
L 79.890625 32.71875 
Q 79.890625 40.578125 77.09375 44.375 
Q 74.3125 48.1875 68.609375 48.1875 
Q 61.625 48.1875 57.5625 43.546875 
Q 53.515625 38.921875 53.515625 30.90625 
L 53.515625 0 
L 44.484375 0 
L 44.484375 32.71875 
Q 44.484375 40.625 41.703125 44.40625 
Q 38.921875 48.1875 33.109375 48.1875 
Q 26.21875 48.1875 22.15625 43.53125 
Q 18.109375 38.875 18.109375 30.90625 
L 18.109375 0 
L 9.078125 0 
L 9.078125 54.6875 
L 18.109375 54.6875 
L 18.109375 46.1875 
Q 21.1875 51.21875 25.484375 53.609375 
Q 29.78125 56 35.6875 56 
Q 41.65625 56 45.828125 52.96875 
Q 50 49.953125 52 44.1875 
z
" id="DejaVuSans-109"/>
      </defs>
      <use xlink:href="#DejaVuSans-82"/>
      <use x="67.232422" xlink:href="#DejaVuSans-97"/>
      <use x="128.511719" xlink:href="#DejaVuSans-100"/>
      <use x="191.988281" xlink:href="#DejaVuSans-105"/>
      <use x="219.771484" xlink:href="#DejaVuSans-97"/>
      <use x="281.050781" xlink:href="#DejaVuSans-108"/>
      <use x="308.833984" xlink:href="#DejaVuSans-32"/>
      <use x="340.621094" xlink:href="#DejaVuSans-80"/>
      <use x="397.298828" xlink:href="#DejaVuSans-111"/>
      <use x="458.480469" xlink:href="#DejaVuSans-115"/>
      <use x="510.580078" xlink:href="#DejaVuSans-105"/>
      <use x="538.363281" xlink:href="#DejaVuSans-116"/>
      <use x="577.572266" xlink:href="#DejaVuSans-105"/>
      <use x="605.355469" xlink:href="#DejaVuSans-111"/>
      <use x="666.537109" xlink:href="#DejaVuSans-110"/>
      <use x="729.916016" xlink:href="#DejaVuSans-32"/>
      <use x="761.703125" xlink:href="#DejaVuSans-91"/>
      <use x="800.716797" xlink:href="#DejaVuSans-109"/>
      <use x="898.128906" xlink:href="#DejaVuSans-93"/>
     </g>
    </g>
   </g>
   <g id="matplotlib.axis_4">
    <g id="ytick_4">
     <g id="line2d_16">
      <g>
       <use style="stroke:#000000;stroke-width:0.8;" x="54" xlink:href="#mb2cd3ab6a4" y="246.446005"/>
      </g>
     </g>
     <g id="text_15">
      <!-- 0 -->
      <g transform="translate(40.6375 250.245224)scale(0.1 -0.1)">
       <use xlink:href="#DejaVuSans-48"/>
      </g>
     </g>
    </g>
    <g id="ytick_5">
     <g id="line2d_17">
      <g>
       <use style="stroke:#000000;stroke-width:0.8;" x="54" xlink:href="#mb2cd3ab6a4" y="218.914957"/>
      </g>
     </g>
     <g id="text_16">
      <!-- 1 -->
      <g transform="translate(40.6375 222.714176)scale(0.1 -0.1)">
       <use xlink:href="#DejaVuSans-49"/>
      </g>
     </g>
    </g>
    <g id="ytick_6">
     <g id="line2d_18">
      <g>
       <use style="stroke:#000000;stroke-width:0.8;" x="54" xlink:href="#mb2cd3ab6a4" y="191.383909"/>
      </g>
     </g>
     <g id="text_17">
      <!-- 2 -->
      <g transform="translate(40.6375 195.183127)scale(0.1 -0.1)">
       <use xlink:href="#DejaVuSans-50"/>
      </g>
     </g>
    </g>
    <g id="ytick_7">
     <g id="line2d_19">
      <g>
       <use style="stroke:#000000;stroke-width:0.8;" x="54" xlink:href="#mb2cd3ab6a4" y="163.852861"/>
      </g>
     </g>
     <g id="text_18">
      <!-- 3 -->
      <g transform="translate(40.6375 167.652079)scale(0.1 -0.1)">
       <defs>
        <path d="M 40.578125 39.3125 
Q 47.65625 37.796875 51.625 33 
Q 55.609375 28.21875 55.609375 21.1875 
Q 55.609375 10.40625 48.1875 4.484375 
Q 40.765625 -1.421875 27.09375 -1.421875 
Q 22.515625 -1.421875 17.65625 -0.515625 
Q 12.796875 0.390625 7.625 2.203125 
L 7.625 11.71875 
Q 11.71875 9.328125 16.59375 8.109375 
Q 21.484375 6.890625 26.8125 6.890625 
Q 36.078125 6.890625 40.9375 10.546875 
Q 45.796875 14.203125 45.796875 21.1875 
Q 45.796875 27.640625 41.28125 31.265625 
Q 36.765625 34.90625 28.71875 34.90625 
L 20.21875 34.90625 
L 20.21875 43.015625 
L 29.109375 43.015625 
Q 36.375 43.015625 40.234375 45.921875 
Q 44.09375 48.828125 44.09375 54.296875 
Q 44.09375 59.90625 40.109375 62.90625 
Q 36.140625 65.921875 28.71875 65.921875 
Q 24.65625 65.921875 20.015625 65.03125 
Q 15.375 64.15625 9.8125 62.3125 
L 9.8125 71.09375 
Q 15.4375 72.65625 20.34375 73.4375 
Q 25.25 74.21875 29.59375 74.21875 
Q 40.828125 74.21875 47.359375 69.109375 
Q 53.90625 64.015625 53.90625 55.328125 
Q 53.90625 49.265625 50.4375 45.09375 
Q 46.96875 40.921875 40.578125 39.3125 
z
" id="DejaVuSans-51"/>
       </defs>
       <use xlink:href="#DejaVuSans-51"/>
      </g>
     </g>
    </g>
    <g id="text_19">
     <!-- Tangential Stress [Pa] -->
     <g transform="translate(34.557812 256.562287)rotate(-90)scale(0.1 -0.1)">
      <defs>
       <path d="M -0.296875 72.90625 
L 61.375 72.90625 
L 61.375 64.59375 
L 35.5 64.59375 
L 35.5 0 
L 25.59375 0 
L 25.59375 64.59375 
L -0.296875 64.59375 
z
" id="DejaVuSans-84"/>
       <path d="M 45.40625 27.984375 
Q 45.40625 37.75 41.375 43.109375 
Q 37.359375 48.484375 30.078125 48.484375 
Q 22.859375 48.484375 18.828125 43.109375 
Q 14.796875 37.75 14.796875 27.984375 
Q 14.796875 18.265625 18.828125 12.890625 
Q 22.859375 7.515625 30.078125 7.515625 
Q 37.359375 7.515625 41.375 12.890625 
Q 45.40625 18.265625 45.40625 27.984375 
z
M 54.390625 6.78125 
Q 54.390625 -7.171875 48.1875 -13.984375 
Q 42 -20.796875 29.203125 -20.796875 
Q 24.46875 -20.796875 20.265625 -20.09375 
Q 16.0625 -19.390625 12.109375 -17.921875 
L 12.109375 -9.1875 
Q 16.0625 -11.328125 19.921875 -12.34375 
Q 23.78125 -13.375 27.78125 -13.375 
Q 36.625 -13.375 41.015625 -8.765625 
Q 45.40625 -4.15625 45.40625 5.171875 
L 45.40625 9.625 
Q 42.625 4.78125 38.28125 2.390625 
Q 33.9375 0 27.875 0 
Q 17.828125 0 11.671875 7.65625 
Q 5.515625 15.328125 5.515625 27.984375 
Q 5.515625 40.671875 11.671875 48.328125 
Q 17.828125 56 27.875 56 
Q 33.9375 56 38.28125 53.609375 
Q 42.625 51.21875 45.40625 46.390625 
L 45.40625 54.6875 
L 54.390625 54.6875 
z
" id="DejaVuSans-103"/>
      </defs>
      <use xlink:href="#DejaVuSans-84"/>
      <use x="44.583984" xlink:href="#DejaVuSans-97"/>
      <use x="105.863281" xlink:href="#DejaVuSans-110"/>
      <use x="169.242188" xlink:href="#DejaVuSans-103"/>
      <use x="232.71875" xlink:href="#DejaVuSans-101"/>
      <use x="294.242188" xlink:href="#DejaVuSans-110"/>
      <use x="357.621094" xlink:href="#DejaVuSans-116"/>
      <use x="396.830078" xlink:href="#DejaVuSans-105"/>
      <use x="424.613281" xlink:href="#DejaVuSans-97"/>
      <use x="485.892578" xlink:href="#DejaVuSans-108"/>
      <use x="513.675781" xlink:href="#DejaVuSans-32"/>
      <use x="545.462891" xlink:href="#DejaVuSans-83"/>
      <use x="608.939453" xlink:href="#DejaVuSans-116"/>
      <use x="648.148438" xlink:href="#DejaVuSans-114"/>
      <use x="687.011719" xlink:href="#DejaVuSans-101"/>
      <use x="748.535156" xlink:href="#DejaVuSans-115"/>
      <use x="800.634766" xlink:href="#DejaVuSans-115"/>
      <use x="852.734375" xlink:href="#DejaVuSans-32"/>
      <use x="884.521484" xlink:href="#DejaVuSans-91"/>
      <use x="923.535156" xlink:href="#DejaVuSans-80"/>
      <use x="979.337891" xlink:href="#DejaVuSans-97"/>
      <use x="1040.617188" xlink:href="#DejaVuSans-93"/>
     </g>
    </g>
    <g id="text_20">
     <!-- 1e8 -->
     <g transform="translate(54 150.163636)scale(0.1 -0.1)">
      <use xlink:href="#DejaVuSans-49"/>
      <use x="63.623047" xlink:href="#DejaVuSans-101"/>
      <use x="125.146484" xlink:href="#DejaVuSans-56"/>
     </g>
    </g>
   </g>
   <g id="line2d_20">
    <path clip-path="url(#p76521c1023)" d="M 69.218182 236.671973 
L 70.356769 236.67215 
L 71.495357 236.672673 
L 72.633945 236.673542 
L 73.772532 236.674757 
L 74.91112 236.676319 
L 76.049708 236.678226 
L 77.188295 236.680481 
L 78.326883 236.683081 
L 79.46547 236.686028 
L 80.604058 236.68932 
L 81.742646 236.69296 
L 82.881233 236.696945 
L 84.019821 236.701277 
L 85.158409 236.705955 
L 86.296996 236.710979 
L 87.435584 236.716349 
L 88.574171 236.722066 
L 89.712759 236.728129 
L 90.851347 236.734538 
L 91.989934 236.741293 
L 93.128522 236.748395 
L 94.26711 236.755843 
L 95.405697 236.763637 
L 96.544285 236.771778 
L 97.682872 236.780265 
L 98.82146 236.789098 
L 99.960048 236.798277 
L 101.098635 236.807802 
L 102.237223 236.817674 
L 103.375811 236.827892 
L 104.514398 236.838456 
L 105.652986 236.849367 
L 106.791573 236.860624 
L 107.930161 236.872227 
L 109.068749 236.884176 
L 110.207336 236.896472 
L 111.345924 236.909114 
L 112.484512 236.922102 
L 113.623099 236.935436 
L 114.761687 236.949117 
L 115.900274 236.963143 
L 117.038862 236.977517 
L 118.17745 236.992236 
L 119.316037 237.007302 
L 120.454625 237.022713 
L 121.593213 237.038472 
L 122.7318 237.054576 
L 123.870388 237.071027 
L 125.008975 237.087824 
L 126.147563 237.104967 
L 127.286151 237.122456 
L 128.424738 237.140292 
L 129.563326 237.158474 
L 130.701914 237.177002 
L 131.840501 237.195877 
L 132.979089 237.215097 
L 134.117676 237.234664 
L 135.256264 237.254578 
L 136.394852 237.274837 
L 137.533439 237.295443 
L 138.672027 237.316395 
L 139.810615 237.337693 
L 140.949202 237.359338 
L 142.08779 237.381328 
L 143.226377 237.403665 
L 144.364965 237.426349 
L 145.503553 237.449378 
L 146.64214 237.472754 
L 147.780728 237.496476 
L 148.919316 237.520545 
L 150.057903 237.544959 
L 151.196491 237.56972 
L 152.335078 237.594827 
L 153.473666 237.620281 
L 154.612254 237.64608 
L 155.750841 237.672226 
L 156.889429 237.698718 
L 158.028017 237.725557 
L 159.166604 237.752741 
L 160.305192 237.780272 
L 161.443779 237.808149 
L 162.582367 237.836373 
L 163.720955 237.864942 
L 164.859542 237.893858 
L 165.99813 237.923121 
L 167.136718 237.952729 
L 168.275305 237.982684 
L 169.413893 238.012985 
L 170.55248 238.043632 
L 171.691068 238.074625 
L 172.829656 238.105965 
L 173.968243 238.137651 
L 175.106831 238.169683 
L 176.245419 238.202062 
L 177.384006 238.234787 
L 178.522594 238.267858 
L 179.661181 238.301275 
L 180.799769 238.335039 
L 181.938357 238.369148 
" style="fill:none;stroke:#1f77b4;stroke-linecap:square;stroke-width:1.5;"/>
   </g>
   <g id="line2d_21">
    <path clip-path="url(#p76521c1023)" d="M 181.938357 238.876719 
L 183.190928 238.908296 
L 184.4435 238.940451 
L 185.696072 238.973178 
L 186.948643 239.006469 
L 188.201215 239.040319 
L 189.453787 239.07472 
L 190.706358 239.109667 
L 191.95893 239.145154 
L 193.211501 239.181176 
L 194.464073 239.217728 
L 195.716645 239.254804 
L 196.969216 239.292401 
L 198.221788 239.330514 
L 199.47436 239.369139 
L 200.726931 239.408272 
L 201.979503 239.447908 
L 203.232075 239.488046 
L 204.484646 239.52868 
L 205.737218 239.569808 
L 206.98979 239.611427 
L 208.242361 239.653533 
L 209.494933 239.696124 
L 210.747504 239.739197 
L 212.000076 239.78275 
L 213.252648 239.82678 
L 214.505219 239.871284 
L 215.757791 239.91626 
L 217.010363 239.961707 
L 218.262934 240.007621 
L 219.515506 240.054002 
L 220.768078 240.100847 
L 222.020649 240.148153 
L 223.273221 240.195921 
L 224.525793 240.244147 
L 225.778364 240.29283 
L 227.030936 240.341968 
L 228.283507 240.391561 
L 229.536079 240.441606 
L 230.788651 240.492102 
L 232.041222 240.543048 
L 233.293794 240.594443 
L 234.546366 240.646284 
L 235.798937 240.698572 
L 237.051509 240.751305 
L 238.304081 240.804482 
L 239.556652 240.858101 
L 240.809224 240.912162 
L 242.061796 240.966664 
L 243.314367 241.021605 
L 244.566939 241.076986 
L 245.81951 241.132804 
L 247.072082 241.189059 
L 248.324654 241.245751 
L 249.577225 241.302878 
L 250.829797 241.36044 
L 252.082369 241.418436 
L 253.33494 241.476865 
L 254.587512 241.535726 
L 255.840084 241.59502 
L 257.092655 241.654744 
L 258.345227 241.714899 
L 259.597799 241.775484 
L 260.85037 241.836499 
L 262.102942 241.897942 
L 263.355514 241.959814 
L 264.608085 242.022113 
L 265.860657 242.084839 
L 267.113228 242.147992 
L 268.3658 242.211572 
L 269.618372 242.275577 
L 270.870943 242.340007 
L 272.123515 242.404862 
L 273.376087 242.470142 
L 274.628658 242.535845 
L 275.88123 242.601973 
L 277.133802 242.668523 
L 278.386373 242.735496 
L 279.638945 242.802892 
L 280.891517 242.87071 
L 282.144088 242.938949 
L 283.39666 243.00761 
L 284.649231 243.076692 
L 285.901803 243.146195 
L 287.154375 243.216118 
L 288.406946 243.286462 
L 289.659518 243.357225 
L 290.91209 243.428408 
L 292.164661 243.50001 
L 293.417233 243.572031 
L 294.669805 243.644472 
L 295.922376 243.71733 
L 297.174948 243.790607 
L 298.42752 243.864302 
L 299.680091 243.938415 
L 300.932663 244.012945 
L 302.185234 244.087893 
L 303.437806 244.163258 
L 304.690378 244.23904 
L 305.942949 244.315239 
" style="fill:none;stroke:#ff7f0e;stroke-linecap:square;stroke-width:1.5;"/>
   </g>
   <g id="line2d_22">
    <path clip-path="url(#p76521c1023)" d="M 305.942949 245.228362 
L 306.39843 245.248491 
L 306.853911 245.268683 
L 307.309391 245.288937 
L 307.764872 245.309253 
L 308.220352 245.329632 
L 308.675833 245.350072 
L 309.131314 245.370575 
L 309.586794 245.39114 
L 310.042275 245.411766 
L 310.497755 245.432453 
L 310.953236 245.453203 
L 311.408717 245.474013 
L 311.864197 245.494885 
L 312.319678 245.515817 
L 312.775158 245.536811 
L 313.230639 245.557865 
L 313.68612 245.578981 
L 314.1416 245.600156 
L 314.597081 245.621392 
L 315.052561 245.642689 
L 315.508042 245.664046 
L 315.963523 245.685463 
L 316.419003 245.706939 
L 316.874484 245.728476 
L 317.329964 245.750073 
L 317.785445 245.771729 
L 318.240926 245.793445 
L 318.696406 245.81522 
L 319.151887 245.837054 
L 319.607367 245.858948 
L 320.062848 245.880901 
L 320.518329 245.902913 
L 320.973809 245.924984 
L 321.42929 245.947113 
L 321.88477 245.969301 
L 322.340251 245.991548 
L 322.795732 246.013854 
L 323.251212 246.036218 
L 323.706693 246.05864 
L 324.162173 246.08112 
L 324.617654 246.103659 
L 325.073135 246.126255 
L 325.528615 246.14891 
L 325.984096 246.171622 
L 326.439576 246.194392 
L 326.895057 246.21722 
L 327.350538 246.240105 
L 327.806018 246.263048 
L 328.261499 246.286048 
L 328.716979 246.309105 
L 329.17246 246.33222 
L 329.62794 246.355392 
L 330.083421 246.378621 
L 330.538902 246.401906 
L 330.994382 246.425249 
L 331.449863 246.448648 
L 331.905343 246.472104 
L 332.360824 246.495617 
L 332.816305 246.519186 
L 333.271785 246.542812 
L 333.727266 246.566493 
L 334.182746 246.590232 
L 334.638227 246.614026 
L 335.093708 246.637877 
L 335.549188 246.661783 
L 336.004669 246.685746 
L 336.460149 246.709764 
L 336.91563 246.733839 
L 337.371111 246.757969 
L 337.826591 246.782154 
L 338.282072 246.806396 
L 338.737552 246.830692 
L 339.193033 246.855045 
L 339.648514 246.879452 
L 340.103994 246.903915 
L 340.559475 246.928433 
L 341.014955 246.953007 
L 341.470436 246.977635 
L 341.925917 247.002318 
L 342.381397 247.027057 
L 342.836878 247.05185 
L 343.292358 247.076698 
L 343.747839 247.101601 
L 344.20332 247.126558 
L 344.6588 247.15157 
L 345.114281 247.176637 
L 345.569761 247.201758 
L 346.025242 247.226934 
L 346.480723 247.252163 
L 346.936203 247.277448 
L 347.391684 247.302786 
L 347.847164 247.328179 
L 348.302645 247.353625 
L 348.758126 247.379126 
L 349.213606 247.404681 
L 349.669087 247.430289 
L 350.124567 247.455952 
L 350.580048 247.481668 
L 351.035529 247.507438 
" style="fill:none;stroke:#2ca02c;stroke-linecap:square;stroke-width:1.5;"/>
   </g>
   <g id="line2d_23">
    <path clip-path="url(#p76521c1023)" d="M 351.035529 157.656198 
L 351.263269 157.797766 
L 351.491009 157.938309 
L 351.718749 158.077831 
L 351.94649 158.216339 
L 352.17423 158.353837 
L 352.40197 158.49033 
L 352.629711 158.625824 
L 352.857451 158.760323 
L 353.085191 158.893832 
L 353.312932 159.026358 
L 353.540672 159.157903 
L 353.768412 159.288474 
L 353.996152 159.418075 
L 354.223893 159.546712 
L 354.451633 159.674388 
L 354.679373 159.801109 
L 354.907114 159.926879 
L 355.134854 160.051703 
L 355.362594 160.175587 
L 355.590335 160.298534 
L 355.818075 160.420549 
L 356.045815 160.541637 
L 356.273555 160.661803 
L 356.501296 160.781051 
L 356.729036 160.899385 
L 356.956776 161.01681 
L 357.184517 161.133331 
L 357.412257 161.248952 
L 357.639997 161.363677 
L 357.867738 161.477511 
L 358.095478 161.590458 
L 358.323218 161.702523 
L 358.550958 161.81371 
L 358.778699 161.924022 
L 359.006439 162.033466 
L 359.234179 162.142043 
L 359.46192 162.24976 
L 359.68966 162.35662 
L 359.9174 162.462626 
L 360.145141 162.567785 
L 360.372881 162.672098 
L 360.600621 162.775571 
L 360.828361 162.878208 
L 361.056102 162.980012 
L 361.283842 163.080988 
L 361.511582 163.18114 
L 361.739323 163.280471 
L 361.967063 163.378985 
L 362.194803 163.476687 
L 362.422544 163.573581 
L 362.650284 163.669669 
L 362.878024 163.764957 
L 363.105764 163.859447 
L 363.333505 163.953144 
L 363.561245 164.046051 
L 363.788985 164.138173 
L 364.016726 164.229512 
L 364.244466 164.320073 
L 364.472206 164.40986 
L 364.699947 164.498875 
L 364.927687 164.587123 
L 365.155427 164.674607 
L 365.383167 164.76133 
L 365.610908 164.847297 
L 365.838648 164.932511 
L 366.066388 165.016976 
L 366.294129 165.100694 
L 366.521869 165.18367 
L 366.749609 165.265907 
L 366.97735 165.347408 
L 367.20509 165.428177 
L 367.43283 165.508217 
L 367.66057 165.587532 
L 367.888311 165.666125 
L 368.116051 165.743999 
L 368.343791 165.821157 
L 368.571532 165.897603 
L 368.799272 165.973341 
L 369.027012 166.048373 
L 369.254753 166.122703 
L 369.482493 166.196334 
L 369.710233 166.269269 
L 369.937973 166.341511 
L 370.165714 166.413064 
L 370.393454 166.48393 
L 370.621194 166.554114 
L 370.848935 166.623617 
L 371.076675 166.692443 
L 371.304415 166.760595 
L 371.532155 166.828077 
L 371.759896 166.89489 
L 371.987636 166.961039 
L 372.215376 167.026526 
L 372.443117 167.091355 
L 372.670857 167.155527 
L 372.898597 167.219047 
L 373.126338 167.281917 
L 373.354078 167.344139 
L 373.581818 167.405718 
" style="fill:none;stroke:#d62728;stroke-linecap:square;stroke-width:1.5;"/>
   </g>
   <g id="patch_8">
    <path d="M 54 252 
L 54 153.163636 
" style="fill:none;stroke:#000000;stroke-linecap:square;stroke-linejoin:miter;stroke-width:0.8;"/>
   </g>
   <g id="patch_9">
    <path d="M 388.8 252 
L 388.8 153.163636 
" style="fill:none;stroke:#000000;stroke-linecap:square;stroke-linejoin:miter;stroke-width:0.8;"/>
   </g>
   <g id="patch_10">
    <path d="M 54 252 
L 388.8 252 
" style="fill:none;stroke:#000000;stroke-linecap:square;stroke-linejoin:miter;stroke-width:0.8;"/>
   </g>
   <g id="patch_11">
    <path d="M 54 153.163636 
L 388.8 153.163636 
" style="fill:none;stroke:#000000;stroke-linecap:square;stroke-linejoin:miter;stroke-width:0.8;"/>
   </g>
  </g>
 </g>
 <defs>
  <clipPath id="p5822061ff9">
   <rect height="98.836364" width="334.8" x="54" y="34.56"/>
  </clipPath>
  <clipPath id="p76521c1023">
   <rect height="98.836364" width="334.8" x="54" y="153.163636"/>
  </clipPath>
 </defs>
</svg>
