<?xml version="1.0" encoding="UTF-8" standalone="no"?>
<svg
   xmlns:dc="http://purl.org/dc/elements/1.1/"
   xmlns:cc="http://creativecommons.org/ns#"
   xmlns:rdf="http://www.w3.org/1999/02/22-rdf-syntax-ns#"
   xmlns:svg="http://www.w3.org/2000/svg"
   xmlns="http://www.w3.org/2000/svg"
   xmlns:sodipodi="http://sodipodi.sourceforge.net/DTD/sodipodi-0.dtd"
   xmlns:inkscape="http://www.inkscape.org/namespaces/inkscape"
   width="54mm"
   height="57mm"
   viewBox="0 0 54 57"
   version="1.1"
   id="svg8"
   inkscape:version="1.0.1 (3bc2e813f5, 2020-09-07)"
   sodipodi:docname="CrossSectHollowCylinder.svg">
  <defs
     id="defs2">
    <marker
       inkscape:isstock="true"
       style="overflow:visible"
       id="marker18500"
       refX="0"
       refY="0"
       orient="auto"
       inkscape:stockid="Arrow2Lstart">
      <path
         transform="matrix(1.1,0,0,1.1,1.1,0)"
         d="M 8.7185878,4.0337352 -2.2072895,0.01601326 8.7185884,-4.0017078 c -1.7454984,2.3720609 -1.7354408,5.6174519 -6e-7,8.035443 z"
         style="fill:#000000;fill-opacity:1;fill-rule:evenodd;stroke:#000000;stroke-width:0.625;stroke-linejoin:round;stroke-opacity:1"
         id="path18498"
         inkscape:connector-curvature="0" />
    </marker>
    <marker
       inkscape:stockid="Arrow2Lstart"
       orient="auto"
       refY="0"
       refX="0"
       id="marker14872"
       style="overflow:visible"
       inkscape:isstock="true"
       inkscape:collect="always">
      <path
         inkscape:connector-curvature="0"
         id="path14870"
         style="fill:#000000;fill-opacity:1;fill-rule:evenodd;stroke:#000000;stroke-width:0.625;stroke-linejoin:round;stroke-opacity:1"
         d="M 8.7185878,4.0337352 -2.2072895,0.01601326 8.7185884,-4.0017078 c -1.7454984,2.3720609 -1.7354408,5.6174519 -6e-7,8.035443 z"
         transform="matrix(1.1,0,0,1.1,1.1,0)" />
    </marker>
    <marker
       inkscape:isstock="true"
       style="overflow:visible"
       id="marker13462"
       refX="0"
       refY="0"
       orient="auto"
       inkscape:stockid="Arrow2Lstart"
       inkscape:collect="always">
      <path
         transform="matrix(1.1,0,0,1.1,1.1,0)"
         d="M 8.7185878,4.0337352 -2.2072895,0.01601326 8.7185884,-4.0017078 c -1.7454984,2.3720609 -1.7354408,5.6174519 -6e-7,8.035443 z"
         style="fill:#000000;fill-opacity:1;fill-rule:evenodd;stroke:#000000;stroke-width:0.625;stroke-linejoin:round;stroke-opacity:1"
         id="path13460"
         inkscape:connector-curvature="0" />
    </marker>
    <marker
       inkscape:stockid="Arrow1Lstart"
       orient="auto"
       refY="0"
       refX="0"
       id="Arrow1Lstart"
       style="overflow:visible"
       inkscape:isstock="true">
      <path
         id="path4524"
         d="M 0,0 5,-5 -12.5,0 5,5 Z"
         style="fill:#000000;fill-opacity:1;fill-rule:evenodd;stroke:#000000;stroke-width:1pt;stroke-opacity:1"
         transform="matrix(0.8,0,0,0.8,10,0)" />
    </marker>
    <marker
       inkscape:stockid="Arrow1Lend"
       orient="auto"
       refY="0"
       refX="0"
       id="Arrow1Lend"
       style="overflow:visible"
       inkscape:isstock="true">
      <path
         id="path4527"
         d="M 0,0 5,-5 -12.5,0 5,5 Z"
         style="fill:#000000;fill-opacity:1;fill-rule:evenodd;stroke:#000000;stroke-width:1pt;stroke-opacity:1"
         transform="matrix(-0.8,0,0,-0.8,-10,0)" />
    </marker>
    <marker
       inkscape:isstock="true"
       style="overflow:visible"
       id="marker3389"
       refX="0"
       refY="0"
       orient="auto"
       inkscape:stockid="Arrow2Lstart"
       inkscape:collect="always">
      <path
         transform="matrix(1.1,0,0,1.1,1.1,0)"
         d="M 8.7185878,4.0337352 -2.2072895,0.01601326 8.7185884,-4.0017078 c -1.7454984,2.3720609 -1.7354408,5.6174519 -6e-7,8.035443 z"
         style="fill:#ff0000;fill-opacity:1;fill-rule:evenodd;stroke:#ff0000;stroke-width:0.625;stroke-linejoin:round;stroke-opacity:1"
         id="path3387"
         inkscape:connector-curvature="0" />
    </marker>
    <marker
       inkscape:isstock="true"
       style="overflow:visible"
       id="marker3389-5"
       refX="0"
       refY="0"
       orient="auto"
       inkscape:stockid="Arrow2Lstart"
       inkscape:collect="always">
      <path
         transform="matrix(1.1,0,0,1.1,1.1,0)"
         d="M 8.7185878,4.0337352 -2.2072895,0.01601326 8.7185884,-4.0017078 c -1.7454984,2.3720609 -1.7354408,5.6174519 -6e-7,8.035443 z"
         style="fill:#ff0000;fill-opacity:1;fill-rule:evenodd;stroke:#ff0000;stroke-width:0.625;stroke-linejoin:round;stroke-opacity:1"
         id="path3387-7"
         inkscape:connector-curvature="0" />
    </marker>
    <marker
       inkscape:isstock="true"
       style="overflow:visible"
       id="marker1671"
       refX="0"
       refY="0"
       orient="auto"
       inkscape:stockid="Arrow2Lstart">
      <path
         transform="matrix(1.1,0,0,1.1,1.1,0)"
         d="M 8.7185878,4.0337352 -2.2072895,0.01601326 8.7185884,-4.0017078 c -1.7454984,2.3720609 -1.7354408,5.6174519 -6e-7,8.035443 z"
         style="fill:#000000;fill-opacity:1;fill-rule:evenodd;stroke:#000000;stroke-width:0.625;stroke-linejoin:round;stroke-opacity:1"
         id="path1669"
         inkscape:connector-curvature="0" />
    </marker>
    <marker
       inkscape:stockid="Arrow2Lstart"
       orient="auto"
       refY="0"
       refX="0"
       id="marker12708"
       style="overflow:visible"
       inkscape:isstock="true">
      <path
         inkscape:connector-curvature="0"
         id="path12706"
         style="fill:#000000;fill-opacity:1;fill-rule:evenodd;stroke:#000000;stroke-width:0.625;stroke-linejoin:round;stroke-opacity:1"
         d="M 8.7185878,4.0337352 -2.2072895,0.01601326 8.7185884,-4.0017078 c -1.7454984,2.3720609 -1.7354408,5.6174519 -6e-7,8.035443 z"
         transform="matrix(1.1,0,0,1.1,1.1,0)" />
    </marker>
  </defs>
  <sodipodi:namedview
     id="base"
     pagecolor="#ffffff"
     bordercolor="#666666"
     borderopacity="1.0"
     inkscape:pageopacity="0.0"
     inkscape:pageshadow="2"
     inkscape:zoom="3.959798"
     inkscape:cx="44.685492"
     inkscape:cy="101.09343"
     inkscape:document-units="mm"
     inkscape:current-layer="layer1"
     showgrid="false"
     inkscape:window-width="1920"
     inkscape:window-height="1051"
     inkscape:window-x="-9"
     inkscape:window-y="-9"
     inkscape:window-maximized="1"
     inkscape:document-rotation="0" />
  <metadata
     id="metadata5">
    <rdf:RDF>
      <cc:Work
         rdf:about="">
        <dc:format>image/svg+xml</dc:format>
        <dc:type
           rdf:resource="http://purl.org/dc/dcmitype/StillImage" />
        <dc:title />
      </cc:Work>
    </rdf:RDF>
  </metadata>
  <g
     inkscape:label="Layer 1"
     inkscape:groupmode="layer"
     id="layer1">
    <path
       inkscape:export-ydpi="1000"
       inkscape:export-xdpi="1000"
       sodipodi:nodetypes="ccc"
       id="path1561"
       inkscape:connector-curvature="0"
       d="m 26.258863,12.831505 10e-6,3.323712 7e-6,3.369415"
       style="opacity:1;vector-effect:none;fill:none;fill-opacity:1;stroke:#ff0000;stroke-width:0.10486;stroke-linecap:butt;stroke-linejoin:round;stroke-miterlimit:4;stroke-dasharray:none;stroke-dashoffset:0;stroke-opacity:1;marker-start:url(#marker3389)"
       inkscape:export-filename="C:\Users\sulpak.kz\Downloads\UW-Madison\RA\Linear Motor\final parametrization\linear motor mover (rotor).png" />
    <path
       inkscape:export-ydpi="1000"
       inkscape:export-xdpi="1000"
       sodipodi:nodetypes="ccc"
       id="path1561-9"
       inkscape:connector-curvature="0"
       d="m 32.883146,19.524611 -3.289517,1.1e-5 -3.334749,10e-6"
       style="opacity:1;vector-effect:none;fill:none;fill-opacity:1;stroke:#ff0000;stroke-width:0.10486;stroke-linecap:butt;stroke-linejoin:round;stroke-miterlimit:4;stroke-dasharray:none;stroke-dashoffset:0;stroke-opacity:1;marker-start:url(#marker3389-5)"
       inkscape:export-filename="C:\Users\sulpak.kz\Downloads\UW-Madison\RA\Linear Motor\final parametrization\linear motor mover (rotor).png" />
    <ellipse
       style="fill:none;fill-opacity:1;stroke:#000000;stroke-width:0.20972;stroke-miterlimit:4;stroke-dasharray:none;stroke-opacity:1"
       id="path8164"
       cx="27.021929"
       cy="17.727354"
       inkscape:export-xdpi="1000"
       inkscape:export-ydpi="1000"
       rx="10.797166"
       ry="10.909406" />
    <ellipse
       cy="17.709743"
       cx="27.074207"
       id="circle8166"
       style="fill:none;fill-opacity:1;stroke:#000000;stroke-width:0.20972;stroke-miterlimit:4;stroke-dasharray:none;stroke-opacity:1"
       inkscape:export-xdpi="1000"
       inkscape:export-ydpi="1000"
       rx="12.802569"
       ry="12.935657" />
    <path
       inkscape:export-ydpi="1000"
       inkscape:export-xdpi="1000"
       sodipodi:nodetypes="ccccc"
       id="path13458"
       inkscape:connector-curvature="0"
       d="m 35.816003,11.835462 -0.133389,0.08759 -0.111582,0.07315 -0.661476,0.434041 -0.984346,0.66556"
       style="opacity:1;vector-effect:none;fill:none;fill-opacity:1;stroke:#000000;stroke-width:0.10486;stroke-linecap:butt;stroke-linejoin:round;stroke-miterlimit:4;stroke-dasharray:none;stroke-dashoffset:0;stroke-opacity:1;marker-start:url(#marker13462)"
       inkscape:export-filename="C:\Users\sulpak.kz\Downloads\UW-Madison\RA\Linear Motor\final parametrization\linear motor mover (rotor).png" />
    <path
       inkscape:export-filename="C:\Users\sulpak.kz\Downloads\UW-Madison\RA\Linear Motor\final parametrization\linear motor mover (rotor).png"
       style="opacity:1;vector-effect:none;fill:none;fill-opacity:1;stroke:#000000;stroke-width:0.10486;stroke-linecap:butt;stroke-linejoin:round;stroke-miterlimit:4;stroke-dasharray:none;stroke-dashoffset:0;stroke-opacity:1;marker-start:url(#marker14872)"
       d="m 38.037704,10.560395 0.133393,-0.08759 0.11158,-0.07315 0.661477,-0.4340419 0.984345,-0.66556"
       inkscape:connector-curvature="0"
       id="path14868"
       sodipodi:nodetypes="ccccc"
       inkscape:export-xdpi="1000"
       inkscape:export-ydpi="1000" />
    <path
       style="fill:none;fill-opacity:1;stroke:none;stroke-width:0.0350324"
       d="m 25.892031,30.358662 c -2.978292,-0.313513 -5.630248,-1.578673 -7.703201,-3.674944 -2.114803,-2.138588 -3.388729,-4.913511 -3.642994,-7.935321 -0.05255,-0.62446 -0.02363,-2.083838 0.05214,-2.630276 0.343169,-2.475389 1.279496,-4.661158 2.779914,-6.4894659 1.850136,-2.2544522 4.416191,-3.8045921 7.239834,-4.3735385 0.899587,-0.1812605 1.38759,-0.2268296 2.441837,-0.2280154 1.208165,-0.00137 1.94529,0.084534 3.021223,0.3520332 1.753777,0.4360325 3.453586,1.2844228 4.872678,2.4320011 0.498042,0.4027534 1.525253,1.4403276 1.913948,1.9332596 1.296267,1.6438849 2.171956,3.5664659 2.56153,5.6238589 0.243935,1.288265 0.276254,2.826488 0.08716,4.148012 -0.491294,3.433396 -2.365773,6.540889 -5.146677,8.532112 -1.79236,1.283392 -3.83151,2.063318 -6.002918,2.295969 -0.529513,0.05674 -1.991169,0.06519 -2.474469,0.0143 z m 1.777437,-1.547332 c 2.557778,-0.173907 4.817527,-1.12753 6.706906,-2.830339 1.792193,-1.615222 3.052721,-3.906262 3.469694,-6.306262 0.149267,-0.859158 0.20199,-2.155868 0.12119,-2.980651 -0.31243,-3.189191 -1.898514,-6.01487 -4.449356,-7.9267339 -1.474906,-1.1054453 -3.301942,-1.8341129 -5.20368,-2.0753575 -0.48177,-0.061113 -2.093486,-0.061429 -2.579023,-5.586e-4 -2.339597,0.2935806 -4.537002,1.3239628 -6.203595,2.9089281 -1.008864,0.9594489 -1.747738,1.9666589 -2.353045,3.2075979 -0.604629,1.239548 -0.926882,2.341618 -1.079346,3.691212 -0.06467,0.572411 -0.07294,1.738281 -0.01645,2.318541 0.52572,5.400944 4.870177,9.647234 10.223659,9.992645 0.620521,0.04004 0.786141,0.04015 1.363056,8.35e-4 z"
       id="path18028"
       inkscape:connector-curvature="0"
       inkscape:export-xdpi="1000"
       inkscape:export-ydpi="1000" />
    <path
       style="fill:none;fill-opacity:1;stroke:none;stroke-width:0.0350324"
       d="m 25.892031,30.358662 c -2.978292,-0.313513 -5.630248,-1.578673 -7.703201,-3.674944 -2.114803,-2.138588 -3.388729,-4.913511 -3.642994,-7.935321 -0.05255,-0.62446 -0.02363,-2.083838 0.05214,-2.630276 0.343169,-2.475389 1.279496,-4.661158 2.779914,-6.4894659 1.850136,-2.2544522 4.416191,-3.8045921 7.239834,-4.3735385 0.899587,-0.1812605 1.38759,-0.2268296 2.441837,-0.2280154 1.208165,-0.00137 1.94529,0.084534 3.021223,0.3520332 1.753777,0.4360325 3.453586,1.2844228 4.872678,2.4320011 0.498042,0.4027534 1.525253,1.4403276 1.913948,1.9332596 1.296267,1.6438849 2.171956,3.5664659 2.56153,5.6238589 0.243935,1.288265 0.276254,2.826488 0.08716,4.148012 -0.491294,3.433396 -2.365773,6.540889 -5.146677,8.532112 -1.79236,1.283392 -3.83151,2.063318 -6.002918,2.295969 -0.529513,0.05674 -1.991169,0.06519 -2.474469,0.0143 z m 1.777437,-1.547332 c 2.557778,-0.173907 4.817527,-1.12753 6.706906,-2.830339 1.792193,-1.615222 3.052721,-3.906262 3.469694,-6.306262 0.149267,-0.859158 0.20199,-2.155868 0.12119,-2.980651 -0.31243,-3.189191 -1.898514,-6.01487 -4.449356,-7.9267339 -1.474906,-1.1054453 -3.301942,-1.8341129 -5.20368,-2.0753575 -0.48177,-0.061113 -2.093486,-0.061429 -2.579023,-5.586e-4 -2.339597,0.2935806 -4.537002,1.3239628 -6.203595,2.9089281 -1.008864,0.9594489 -1.747738,1.9666589 -2.353045,3.2075979 -0.604629,1.239548 -0.926882,2.341618 -1.079346,3.691212 -0.06467,0.572411 -0.07294,1.738281 -0.01645,2.318541 0.52572,5.400944 4.870177,9.647234 10.223659,9.992645 0.620521,0.04004 0.786141,0.04015 1.363056,8.35e-4 z"
       id="path18030"
       inkscape:connector-curvature="0"
       inkscape:export-xdpi="1000"
       inkscape:export-ydpi="1000" />
    <path
       inkscape:export-ydpi="1000"
       inkscape:export-xdpi="1000"
       sodipodi:nodetypes="ccccc"
       id="path18496"
       inkscape:connector-curvature="0"
       d="M 34.112588,28.218172 33.558519,27.613999 33.095057,27.109432 30.347508,24.115506 26.25888,19.524632"
       style="opacity:1;vector-effect:none;fill:none;fill-opacity:1;stroke:#000000;stroke-width:0.10486;stroke-linecap:butt;stroke-linejoin:round;stroke-miterlimit:4;stroke-dasharray:none;stroke-dashoffset:0;stroke-opacity:1;marker-start:url(#marker18500)"
       inkscape:export-filename="C:\Users\sulpak.kz\Downloads\UW-Madison\RA\Linear Motor\final parametrization\linear motor mover (rotor).png" />
    <text
       xml:space="preserve"
       style="font-size:2.82223px;line-height:1.25;font-family:sans-serif;stroke-width:0.264583"
       x="41.359959"
       y="12.027128"
       id="text937"><tspan
         sodipodi:role="line"
         id="tspan935"
         x="41.359959"
         y="12.027128"
         style="stroke-width:0.264583" /></text>
    <text
       xml:space="preserve"
       style="font-style:italic;font-size:2.82223px;line-height:1.25;font-family:'Times New Roman';-inkscape-font-specification:'Times New Roman, Italic';stroke-width:0.264583"
       x="38.553631"
       y="16.804571"
       id="text941"><tspan
         sodipodi:role="line"
         id="tspan939"
         x="0"
         y="0"
         style="stroke-width:0.264583"><tspan
           style="font-size:65%;baseline-shift:sub"
           id="tspan943" /></tspan></text>
    <text
       xml:space="preserve"
       style="font-style:italic;font-size:2.95939px;line-height:1.25;font-family:'Times New Roman';-inkscape-font-specification:'Times New Roman, Italic';stroke-width:0.277442"
       x="23.907961"
       y="12.465364"
       id="text973"
       transform="scale(0.99484252,1.0051842)"><tspan
         sodipodi:role="line"
         id="tspan971"
         x="23.907961"
         y="12.465364"
         style="stroke-width:0.277442">y</tspan></text>
    <text
       xml:space="preserve"
       style="font-style:italic;font-size:2.95939px;line-height:1.25;font-family:'Times New Roman';-inkscape-font-specification:'Times New Roman, Italic';stroke-width:0.277442"
       x="32.806175"
       y="21.573771"
       id="text977"
       transform="scale(0.99484252,1.0051842)"><tspan
         sodipodi:role="line"
         id="tspan975"
         x="32.806175"
         y="21.573771"
         style="stroke-width:0.277442">x</tspan></text>
    <text
       xml:space="preserve"
       style="font-style:italic;font-size:2.82223px;line-height:1.25;font-family:'Times New Roman';-inkscape-font-specification:'Times New Roman, Italic';stroke-width:0.264583"
       x="39.121578"
       y="16.771164"
       id="text981"><tspan
         sodipodi:role="line"
         id="tspan979"
         x="39.121578"
         y="16.771164"
         style="stroke-width:0.264583" /></text>
    <text
       xml:space="preserve"
       style="font-style:italic;font-size:2.82223px;line-height:1.25;font-family:'Times New Roman';-inkscape-font-specification:'Times New Roman, Italic';stroke-width:0.264583"
       x="23.319267"
       y="8.7530775"
       id="text985"><tspan
         sodipodi:role="line"
         id="tspan983"
         x="23.319267"
         y="8.7530775"
         style="stroke-width:0.264583" /></text>
    <text
       xml:space="preserve"
       style="font-style:italic;font-size:2.95939px;line-height:1.25;font-family:'Times New Roman';-inkscape-font-specification:'Times New Roman, Italic';stroke-width:0.277442"
       x="40.158134"
       y="8.5259371"
       id="text973-0"
       transform="scale(0.99484253,1.0051842)"><tspan
         sodipodi:role="line"
         id="tspan971-6"
         x="40.158134"
         y="8.5259371"
         style="stroke-width:0.277442">t<tspan
   style="font-size:1.9236px;baseline-shift:sub;stroke-width:0.277442"
   id="tspan1005" /></tspan></text>
    <text
       xml:space="preserve"
       style="font-style:italic;font-size:2.95939px;line-height:1.25;font-family:'Times New Roman';-inkscape-font-specification:'Times New Roman, Italic';stroke-width:0.277442"
       x="34.849815"
       y="29.773861"
       id="text973-0-7"
       transform="scale(0.99484253,1.0051842)"><tspan
         sodipodi:role="line"
         id="tspan971-6-2"
         x="34.849815"
         y="29.773861"
         style="stroke-width:0.277442">r<tspan
   style="font-size:1.9236px;baseline-shift:sub;stroke-width:0.277442"
   id="tspan1005-0">o</tspan></tspan></text>
  </g>
</svg>
