<?xml version="1.0" encoding="UTF-8" standalone="no"?>
<svg
   xmlns:dc="http://purl.org/dc/elements/1.1/"
   xmlns:cc="http://creativecommons.org/ns#"
   xmlns:rdf="http://www.w3.org/1999/02/22-rdf-syntax-ns#"
   xmlns:svg="http://www.w3.org/2000/svg"
   xmlns="http://www.w3.org/2000/svg"
   xmlns:sodipodi="http://sodipodi.sourceforge.net/DTD/sodipodi-0.dtd"
   xmlns:inkscape="http://www.inkscape.org/namespaces/inkscape"
   width="54mm"
   height="57mm"
   viewBox="0 0 54 57"
   version="1.1"
   id="svg8"
   inkscape:version="1.0.1 (3bc2e813f5, 2020-09-07)"
   sodipodi:docname="CrossSectHollowCylinder.svg">
  <defs
     id="defs2">
    <marker
       inkscape:isstock="true"
       style="overflow:visible"
       id="marker18500"
       refX="0"
       refY="0"
       orient="auto"
       inkscape:stockid="Arrow2Lstart">
      <path
         transform="matrix(1.1,0,0,1.1,1.1,0)"
         d="M 8.7185878,4.0337352 -2.2072895,0.01601326 8.7185884,-4.0017078 c -1.7454984,2.3720609 -1.7354408,5.6174519 -6e-7,8.035443 z"
         style="fill:#9c9c9c;fill-opacity:1;fill-rule:evenodd;stroke:#9c9c9c;stroke-width:0.625;stroke-linejoin:round;stroke-opacity:1"
         id="path18498"
         inkscape:connector-curvature="0" />
    </marker>
    <marker
       inkscape:stockid="Arrow2Lstart"
       orient="auto"
       refY="0"
       refX="0"
       id="marker14872"
       style="overflow:visible"
       inkscape:isstock="true"
       inkscape:collect="always">
      <path
         inkscape:connector-curvature="0"
         id="path14870"
         style="fill:#9c9c9c;fill-opacity:1;fill-rule:evenodd;stroke:#9c9c9c;stroke-width:0.625;stroke-linejoin:round;stroke-opacity:1"
         d="M 8.7185878,4.0337352 -2.2072895,0.01601326 8.7185884,-4.0017078 c -1.7454984,2.3720609 -1.7354408,5.6174519 -6e-7,8.035443 z"
         transform="matrix(1.1,0,0,1.1,1.1,0)" />
    </marker>
    <marker
       inkscape:isstock="true"
       style="overflow:visible"
       id="marker13462"
       refX="0"
       refY="0"
       orient="auto"
       inkscape:stockid="Arrow2Lstart"
       inkscape:collect="always">
      <path
         transform="matrix(1.1,0,0,1.1,1.1,0)"
         d="M 8.7185878,4.0337352 -2.2072895,0.01601326 8.7185884,-4.0017078 c -1.7454984,2.3720609 -1.7354408,5.6174519 -6e-7,8.035443 z"
         style="fill:#9c9c9c;fill-opacity:1;fill-rule:evenodd;stroke:#9c9c9c;stroke-width:0.625;stroke-linejoin:round;stroke-opacity:1"
         id="path13460"
         inkscape:connector-curvature="0" />
    </marker>
    <marker
       inkscape:stockid="Arrow1Lstart"
       orient="auto"
       refY="0"
       refX="0"
       id="Arrow1Lstart"
       style="overflow:visible"
       inkscape:isstock="true">
      <path
         id="path4524"
         d="M 0,0 5,-5 -12.5,0 5,5 Z"
         style="fill:#000000;fill-opacity:1;fill-rule:evenodd;stroke:#000000;stroke-width:1pt;stroke-opacity:1"
         transform="matrix(0.8,0,0,0.8,10,0)" />
    </marker>
    <marker
       inkscape:stockid="Arrow1Lend"
       orient="auto"
       refY="0"
       refX="0"
       id="Arrow1Lend"
       style="overflow:visible"
       inkscape:isstock="true">
      <path
         id="path4527"
         d="M 0,0 5,-5 -12.5,0 5,5 Z"
         style="fill:#000000;fill-opacity:1;fill-rule:evenodd;stroke:#000000;stroke-width:1pt;stroke-opacity:1"
         transform="matrix(-0.8,0,0,-0.8,-10,0)" />
    </marker>
    <marker
       inkscape:isstock="true"
       style="overflow:visible"
       id="marker3389"
       refX="0"
       refY="0"
       orient="auto"
       inkscape:stockid="Arrow2Lstart"
       inkscape:collect="always">
      <path
         transform="matrix(1.1,0,0,1.1,1.1,0)"
         d="M 8.7185878,4.0337352 -2.2072895,0.01601326 8.7185884,-4.0017078 c -1.7454984,2.3720609 -1.7354408,5.6174519 -6e-7,8.035443 z"
         style="fill:#ff0000;fill-opacity:1;fill-rule:evenodd;stroke:#ff0000;stroke-width:0.625;stroke-linejoin:round;stroke-opacity:1"
         id="path3387"
         inkscape:connector-curvature="0" />
    </marker>
    <marker
       inkscape:isstock="true"
       style="overflow:visible"
       id="marker3389-5"
       refX="0"
       refY="0"
       orient="auto"
       inkscape:stockid="Arrow2Lstart"
       inkscape:collect="always">
      <path
         transform="matrix(1.1,0,0,1.1,1.1,0)"
         d="M 8.7185878,4.0337352 -2.2072895,0.01601326 8.7185884,-4.0017078 c -1.7454984,2.3720609 -1.7354408,5.6174519 -6e-7,8.035443 z"
         style="fill:#ff0000;fill-opacity:1;fill-rule:evenodd;stroke:#ff0000;stroke-width:0.625;stroke-linejoin:round;stroke-opacity:1"
         id="path3387-7"
         inkscape:connector-curvature="0" />
    </marker>
    <marker
       inkscape:isstock="true"
       style="overflow:visible"
       id="marker1671"
       refX="0"
       refY="0"
       orient="auto"
       inkscape:stockid="Arrow2Lstart">
      <path
         transform="matrix(1.1,0,0,1.1,1.1,0)"
         d="M 8.7185878,4.0337352 -2.2072895,0.01601326 8.7185884,-4.0017078 c -1.7454984,2.3720609 -1.7354408,5.6174519 -6e-7,8.035443 z"
         style="fill:#000000;fill-opacity:1;fill-rule:evenodd;stroke:#000000;stroke-width:0.625;stroke-linejoin:round;stroke-opacity:1"
         id="path1669"
         inkscape:connector-curvature="0" />
    </marker>
    <marker
       inkscape:stockid="Arrow2Lstart"
       orient="auto"
       refY="0"
       refX="0"
       id="marker12708"
       style="overflow:visible"
       inkscape:isstock="true">
      <path
         inkscape:connector-curvature="0"
         id="path12706"
         style="fill:#000000;fill-opacity:1;fill-rule:evenodd;stroke:#000000;stroke-width:0.625;stroke-linejoin:round;stroke-opacity:1"
         d="M 8.7185878,4.0337352 -2.2072895,0.01601326 8.7185884,-4.0017078 c -1.7454984,2.3720609 -1.7354408,5.6174519 -6e-7,8.035443 z"
         transform="matrix(1.1,0,0,1.1,1.1,0)" />
    </marker>
  </defs>
  <sodipodi:namedview
     id="base"
     pagecolor="#ffffff"
     bordercolor="#666666"
     borderopacity="1.0"
     inkscape:pageopacity="0.0"
     inkscape:pageshadow="2"
     inkscape:zoom="5.6"
     inkscape:cx="187.6252"
     inkscape:cy="591.34009"
     inkscape:document-units="mm"
     inkscape:current-layer="layer1"
     showgrid="false"
     inkscape:window-width="1920"
     inkscape:window-height="1051"
     inkscape:window-x="-9"
     inkscape:window-y="-9"
     inkscape:window-maximized="1"
     inkscape:document-rotation="0" />
  <metadata
     id="metadata5">
    <rdf:RDF>
      <cc:Work
         rdf:about="">
        <dc:format>image/svg+xml</dc:format>
        <dc:type
           rdf:resource="http://purl.org/dc/dcmitype/StillImage" />
        <dc:title></dc:title>
      </cc:Work>
    </rdf:RDF>
  </metadata>
  <g
     inkscape:label="Layer 1"
     inkscape:groupmode="layer"
     id="layer1">
    <path
       inkscape:export-ydpi="1000"
       inkscape:export-xdpi="1000"
       sodipodi:nodetypes="ccc"
       id="path1561"
       inkscape:connector-curvature="0"
       d="m 53.925144,155.54656 9e-6,3.15332 7e-6,3.19668"
       style="opacity:1;vector-effect:none;fill:none;fill-opacity:1;stroke:#ff0000;stroke-width:0.1;stroke-linecap:butt;stroke-linejoin:round;stroke-miterlimit:4;stroke-dasharray:none;stroke-dashoffset:0;stroke-opacity:1;marker-start:url(#marker3389)"
       inkscape:export-filename="C:\Users\sulpak.kz\Downloads\UW-Madison\RA\Linear Motor\final parametrization\linear motor mover (rotor).png" />
    <path
       inkscape:export-ydpi="1000"
       inkscape:export-xdpi="1000"
       sodipodi:nodetypes="ccc"
       id="path1561-9"
       inkscape:connector-curvature="0"
       d="m 60.27516,161.89654 -3.15332,1e-5 -3.19668,1e-5"
       style="opacity:1;vector-effect:none;fill:none;fill-opacity:1;stroke:#ff0000;stroke-width:0.1;stroke-linecap:butt;stroke-linejoin:round;stroke-miterlimit:4;stroke-dasharray:none;stroke-dashoffset:0;stroke-opacity:1;marker-start:url(#marker3389-5)"
       inkscape:export-filename="C:\Users\sulpak.kz\Downloads\UW-Madison\RA\Linear Motor\final parametrization\linear motor mover (rotor).png" />
    <text
       inkscape:export-ydpi="1000"
       inkscape:export-xdpi="1000"
       xml:space="preserve"
       style="font-style:normal;font-variant:normal;font-weight:normal;font-stretch:normal;font-size:5.64444px;line-height:1.25;font-family:'Times New Roman';-inkscape-font-specification:'Times New Roman, Normal';font-variant-ligatures:normal;font-variant-caps:normal;font-variant-numeric:normal;font-feature-settings:normal;text-align:start;letter-spacing:0px;word-spacing:0px;writing-mode:lr-tb;text-anchor:start;fill:#000000;fill-opacity:1;stroke:#000000;stroke-width:0.065;stroke-miterlimit:4;stroke-dasharray:none;stroke-opacity:1"
       x="51.550213"
       y="155.42969"
       id="text1479"
       inkscape:export-filename="C:\Users\sulpak.kz\Downloads\UW-Madison\RA\Linear Motor\final parametrization\linear motor mover (rotor).png"><tspan
         sodipodi:role="line"
         id="tspan1477"
         x="51.550213"
         y="155.42969"
         style="font-style:italic;font-weight:normal;font-size:2.82222px;line-height:1.25;stroke:#000000;stroke-width:0.065;stroke-miterlimit:4;stroke-dasharray:none;stroke-opacity:1">y</tspan></text>
    <text
       inkscape:export-ydpi="1000"
       inkscape:export-xdpi="1000"
       xml:space="preserve"
       style="font-style:normal;font-variant:normal;font-weight:normal;font-stretch:normal;font-size:5.64444px;line-height:1.25;font-family:'Times New Roman';-inkscape-font-specification:'Times New Roman, Normal';font-variant-ligatures:normal;font-variant-caps:normal;font-variant-numeric:normal;font-feature-settings:normal;text-align:start;letter-spacing:0px;word-spacing:0px;writing-mode:lr-tb;text-anchor:start;fill:#000000;fill-opacity:1;stroke:#000000;stroke-width:0.065;stroke-miterlimit:4;stroke-dasharray:none;stroke-opacity:1"
       x="59.663345"
       y="164.12965"
       id="text1479-4"
       inkscape:export-filename="C:\Users\sulpak.kz\Downloads\UW-Madison\RA\Linear Motor\final parametrization\linear motor mover (rotor).png"><tspan
         sodipodi:role="line"
         id="tspan1477-3"
         x="59.663345"
         y="164.12965"
         style="font-style:italic;font-weight:normal;font-size:2.82222px;line-height:1.25;stroke:#000000;stroke-width:0.065;stroke-miterlimit:4;stroke-dasharray:none;stroke-opacity:1">x</tspan></text>
    <circle
       style="fill:none;fill-opacity:1;stroke:#000000;stroke-width:0.344949;stroke-miterlimit:4;stroke-dasharray:none;stroke-opacity:1"
       id="path8164"
       cx="54.656616"
       cy="160.19142"
       r="10.350128"
       inkscape:export-xdpi="1000"
       inkscape:export-ydpi="1000" />
    <circle
       r="12.272502"
       cy="160.17471"
       cx="54.70673"
       id="circle8166"
       style="fill:none;fill-opacity:1;stroke:#000000;stroke-width:0.409018;stroke-miterlimit:4;stroke-dasharray:none;stroke-opacity:1"
       inkscape:export-xdpi="1000"
       inkscape:export-ydpi="1000" />
    <text
       inkscape:export-ydpi="1000"
       inkscape:export-xdpi="1000"
       xml:space="preserve"
       style="font-style:normal;font-variant:normal;font-weight:normal;font-stretch:normal;font-size:5.64444px;line-height:1.25;font-family:'Times New Roman';-inkscape-font-specification:'Times New Roman, Normal';font-variant-ligatures:normal;font-variant-caps:normal;font-variant-numeric:normal;font-feature-settings:normal;text-align:start;letter-spacing:0px;word-spacing:0px;writing-mode:lr-tb;text-anchor:start;fill:#000000;fill-opacity:1;stroke:#000000;stroke-width:0.065;stroke-miterlimit:4;stroke-dasharray:none;stroke-opacity:1"
       x="55.931374"
       y="167.49516"
       id="text1479-4-0"
       inkscape:export-filename="C:\Users\sulpak.kz\Downloads\UW-Madison\RA\Linear Motor\final parametrization\linear motor mover (rotor).png"><tspan
         sodipodi:role="line"
         id="tspan1477-3-5"
         x="55.931374"
         y="167.49516"
         style="font-style:italic;font-weight:normal;font-size:2.82222px;line-height:1.25;stroke:#000000;stroke-width:0.065;stroke-miterlimit:4;stroke-dasharray:none;stroke-opacity:1">r<tspan
   style="font-size:65%;baseline-shift:sub"
   id="tspan12692">o</tspan></tspan></text>
    <path
       inkscape:export-ydpi="1000"
       inkscape:export-xdpi="1000"
       sodipodi:nodetypes="ccccc"
       id="path13458"
       inkscape:connector-curvature="0"
       d="m 63.086587,154.60158 -0.127866,0.0831 -0.106962,0.0694 -0.634089,0.41179 -0.943591,0.63144"
       style="opacity:1;vector-effect:none;fill:none;fill-opacity:1;stroke:#9c9c9c;stroke-width:0.1;stroke-linecap:butt;stroke-linejoin:round;stroke-miterlimit:4;stroke-dasharray:none;stroke-dashoffset:0;stroke-opacity:1;marker-start:url(#marker13462)"
       inkscape:export-filename="C:\Users\sulpak.kz\Downloads\UW-Madison\RA\Linear Motor\final parametrization\linear motor mover (rotor).png" />
    <path
       inkscape:export-filename="C:\Users\sulpak.kz\Downloads\UW-Madison\RA\Linear Motor\final parametrization\linear motor mover (rotor).png"
       style="opacity:1;vector-effect:none;fill:none;fill-opacity:1;stroke:#9c9c9c;stroke-width:0.1;stroke-linecap:butt;stroke-linejoin:round;stroke-miterlimit:4;stroke-dasharray:none;stroke-dashoffset:0;stroke-opacity:1;marker-start:url(#marker14872)"
       d="m 65.216303,153.39188 0.12787,-0.0831 0.10696,-0.0694 0.63409,-0.41179 0.94359,-0.63144"
       inkscape:connector-curvature="0"
       id="path14868"
       sodipodi:nodetypes="ccccc"
       inkscape:export-xdpi="1000"
       inkscape:export-ydpi="1000" />
    <text
       inkscape:export-filename="C:\Users\sulpak.kz\Downloads\UW-Madison\RA\Linear Motor\final parametrization\linear motor mover (rotor).png"
       id="text15286"
       y="151.12489"
       x="64.96843"
       style="font-style:normal;font-variant:normal;font-weight:normal;font-stretch:normal;font-size:5.64444px;line-height:1.25;font-family:'Times New Roman';-inkscape-font-specification:'Times New Roman, Normal';font-variant-ligatures:normal;font-variant-caps:normal;font-variant-numeric:normal;font-feature-settings:normal;text-align:start;letter-spacing:0px;word-spacing:0px;writing-mode:lr-tb;text-anchor:start;fill:#000000;fill-opacity:1;stroke:#000000;stroke-width:0.065;stroke-miterlimit:4;stroke-dasharray:none;stroke-opacity:1"
       xml:space="preserve"
       inkscape:export-xdpi="1000"
       inkscape:export-ydpi="1000"><tspan
         style="font-style:italic;font-weight:normal;font-size:2.82222px;line-height:1.25;stroke:#000000;stroke-width:0.065;stroke-miterlimit:4;stroke-dasharray:none;stroke-opacity:1"
         y="151.12489"
         x="64.96843"
         id="tspan15284"
         sodipodi:role="line">d<tspan
   style="font-size:65%;baseline-shift:sub"
   id="tspan15288">a</tspan></tspan></text>
    <path
       style="fill:none;fill-opacity:1;stroke:none;stroke-width:0.126269"
       d="m 202.48252,650.74083 c -10.79048,-1.12418 -20.39863,-5.66075 -27.90903,-13.17749 -7.66202,-7.66848 -12.27751,-17.61871 -13.19872,-28.45422 -0.19036,-2.23917 -0.0856,-7.47216 0.18891,-9.43156 1.24332,-8.87617 4.63567,-16.71383 10.07175,-23.26972 6.70312,-8.08394 16.00005,-13.64238 26.23023,-15.68249 3.25924,-0.64996 5.0273,-0.81336 8.84688,-0.81761 4.37723,-0.005 7.04787,0.30311 10.94602,1.26231 6.35401,1.56351 12.51249,4.60564 17.65392,8.72059 1.80443,1.44418 5.52606,5.16468 6.93432,6.93222 4.69643,5.89459 7.86909,12.78852 9.28053,20.16585 0.88379,4.61942 1.00088,10.13513 0.31576,14.87381 -1.77998,12.31136 -8.5713,23.45411 -18.64663,30.59417 -6.4938,4.60195 -13.88173,7.39858 -21.74883,8.23281 -1.91845,0.20344 -7.21409,0.23376 -8.96511,0.0513 z m 6.43973,-5.54837 c 9.26694,-0.62359 17.45411,-4.04306 24.29941,-10.14894 6.49319,-5.79181 11.06014,-14.00695 12.57085,-22.61279 0.5408,-3.08074 0.73182,-7.73044 0.43908,-10.68792 -1.13195,-11.4357 -6.8784,-21.56793 -16.12021,-28.42343 -5.34365,-3.96387 -11.96308,-6.5767 -18.85316,-7.44175 -1.74547,-0.21914 -7.58479,-0.22026 -9.34391,-0.002 -8.47646,1.05271 -16.43775,4.74742 -22.47589,10.43074 -3.65516,3.44036 -6.33213,7.05198 -8.52518,11.5017 -2.1906,4.44473 -3.35814,8.3965 -3.91052,13.23583 -0.23428,2.05253 -0.26427,6.23307 -0.0596,8.31375 1.90471,19.36653 17.64486,34.59274 37.04076,35.8313 2.24817,0.14357 2.84822,0.14397 4.93841,0.003 z"
       id="path18028"
       inkscape:connector-curvature="0"
       transform="scale(0.26458333)"
       inkscape:export-xdpi="1000"
       inkscape:export-ydpi="1000" />
    <path
       style="fill:none;fill-opacity:1;stroke:none;stroke-width:0.126269"
       d="m 202.48252,650.74083 c -10.79048,-1.12418 -20.39863,-5.66075 -27.90903,-13.17749 -7.66202,-7.66848 -12.27751,-17.61871 -13.19872,-28.45422 -0.19036,-2.23917 -0.0856,-7.47216 0.18891,-9.43156 1.24332,-8.87617 4.63567,-16.71383 10.07175,-23.26972 6.70312,-8.08394 16.00005,-13.64238 26.23023,-15.68249 3.25924,-0.64996 5.0273,-0.81336 8.84688,-0.81761 4.37723,-0.005 7.04787,0.30311 10.94602,1.26231 6.35401,1.56351 12.51249,4.60564 17.65392,8.72059 1.80443,1.44418 5.52606,5.16468 6.93432,6.93222 4.69643,5.89459 7.86909,12.78852 9.28053,20.16585 0.88379,4.61942 1.00088,10.13513 0.31576,14.87381 -1.77998,12.31136 -8.5713,23.45411 -18.64663,30.59417 -6.4938,4.60195 -13.88173,7.39858 -21.74883,8.23281 -1.91845,0.20344 -7.21409,0.23376 -8.96511,0.0513 z m 6.43973,-5.54837 c 9.26694,-0.62359 17.45411,-4.04306 24.29941,-10.14894 6.49319,-5.79181 11.06014,-14.00695 12.57085,-22.61279 0.5408,-3.08074 0.73182,-7.73044 0.43908,-10.68792 -1.13195,-11.4357 -6.8784,-21.56793 -16.12021,-28.42343 -5.34365,-3.96387 -11.96308,-6.5767 -18.85316,-7.44175 -1.74547,-0.21914 -7.58479,-0.22026 -9.34391,-0.002 -8.47646,1.05271 -16.43775,4.74742 -22.47589,10.43074 -3.65516,3.44036 -6.33213,7.05198 -8.52518,11.5017 -2.1906,4.44473 -3.35814,8.3965 -3.91052,13.23583 -0.23428,2.05253 -0.26427,6.23307 -0.0596,8.31375 1.90471,19.36653 17.64486,34.59274 37.04076,35.8313 2.24817,0.14357 2.84822,0.14397 4.93841,0.003 z"
       id="path18030"
       inkscape:connector-curvature="0"
       transform="scale(0.26458333)"
       inkscape:export-xdpi="1000"
       inkscape:export-ydpi="1000" />
    <path
       style="fill:#dcdbdb;fill-opacity:0.963203;stroke:#020000;stroke-width:0.0334128;stroke-opacity:1"
       d="m 53.573499,172.17517 c -2.854981,-0.29752 -5.397137,-1.49811 -7.384264,-3.48741 -2.027242,-2.02946 -3.248424,-4.66278 -3.492161,-7.53039 -0.05037,-0.59259 -0.02265,-1.9775 0.04998,-2.49605 0.328962,-2.34907 1.226521,-4.4233 2.664818,-6.15831 1.773533,-2.13941 4.233346,-3.61045 6.940081,-4.15036 0.862341,-0.17201 1.33014,-0.21525 2.340737,-0.21638 1.158142,-0.001 1.864749,0.0802 2.896135,0.33407 1.681165,0.41378 3.310596,1.21888 4.670933,2.3079 0.477422,0.3822 1.462103,1.36682 1.834705,1.8346 1.242597,1.56 2.08203,3.38447 2.455474,5.33688 0.233836,1.22252 0.264816,2.68225 0.08354,3.93634 -0.470953,3.25819 -2.267823,6.20711 -4.933587,8.09672 -1.718151,1.2179 -3.672874,1.95803 -5.754378,2.1788 -0.50759,0.0538 -1.908728,0.0619 -2.372019,0.0136 z m 1.703846,-1.46837 c 2.451877,-0.16504 4.618066,-1.07 6.429218,-2.68591 1.71799,-1.5328 2.926329,-3.70693 3.326038,-5.98446 0.143086,-0.81531 0.193627,-2.04585 0.116173,-2.82855 -0.299495,-3.02644 -1.81991,-5.70793 -4.265139,-7.52223 -1.413841,-1.04904 -3.165231,-1.74052 -4.988232,-1.96945 -0.461822,-0.058 -2.006809,-0.0583 -2.472242,-5.3e-4 -2.24273,0.2786 -4.349155,1.2564 -5.946746,2.76048 -0.967095,0.91049 -1.675376,1.8663 -2.255621,3.04392 -0.579596,1.17629 -0.888508,2.22212 -1.034658,3.50285 -0.06199,0.5432 -0.06992,1.64958 -0.01577,2.20023 0.503954,5.12533 4.668535,9.15493 9.800367,9.48272 0.594829,0.038 0.753592,0.0381 1.306621,7.9e-4 z"
       id="path18032"
       inkscape:connector-curvature="0"
       inkscape:export-xdpi="1000"
       inkscape:export-ydpi="1000" />
    <path
       inkscape:export-ydpi="1000"
       inkscape:export-xdpi="1000"
       sodipodi:nodetypes="ccccc"
       id="path18496"
       inkscape:connector-curvature="0"
       d="m 61.453699,170.14442 -0.531128,-0.5732 -0.444274,-0.4787 -2.633791,-2.84044 -3.919346,-4.35552"
       style="opacity:1;vector-effect:none;fill:none;fill-opacity:1;stroke:#9c9c9c;stroke-width:0.1;stroke-linecap:butt;stroke-linejoin:round;stroke-miterlimit:4;stroke-dasharray:none;stroke-dashoffset:0;stroke-opacity:1;marker-start:url(#marker18500)"
       inkscape:export-filename="C:\Users\sulpak.kz\Downloads\UW-Madison\RA\Linear Motor\final parametrization\linear motor mover (rotor).png" />
  </g>
</svg>
