<?xml version="1.0" encoding="utf-8" standalone="no"?>
<!DOCTYPE svg PUBLIC "-//W3C//DTD SVG 1.1//EN"
  "http://www.w3.org/Graphics/SVG/1.1/DTD/svg11.dtd">
<!-- Created with matplotlib (https://matplotlib.org/) -->
<svg height="288pt" version="1.1" viewBox="0 0 432 288" width="432pt" xmlns="http://www.w3.org/2000/svg" xmlns:xlink="http://www.w3.org/1999/xlink">
 <metadata>
  <rdf:RDF xmlns:cc="http://creativecommons.org/ns#" xmlns:dc="http://purl.org/dc/elements/1.1/" xmlns:rdf="http://www.w3.org/1999/02/22-rdf-syntax-ns#">
   <cc:Work>
    <dc:type rdf:resource="http://purl.org/dc/dcmitype/StillImage"/>
    <dc:date>2022-05-24T14:30:36.765968</dc:date>
    <dc:format>image/svg+xml</dc:format>
    <dc:creator>
     <cc:Agent>
      <dc:title>Matplotlib v3.3.2, https://matplotlib.org/</dc:title>
     </cc:Agent>
    </dc:creator>
   </cc:Work>
  </rdf:RDF>
 </metadata>
 <defs>
  <style type="text/css">*{stroke-linecap:butt;stroke-linejoin:round;}</style>
 </defs>
 <g id="figure_1">
  <g id="patch_1">
   <path d="M 0 288 
L 432 288 
L 432 0 
L 0 0 
z
" style="fill:#ffffff;"/>
  </g>
  <g id="axes_1">
   <g id="patch_2">
    <path d="M 54 133.396364 
L 388.8 133.396364 
L 388.8 34.56 
L 54 34.56 
z
" style="fill:#ffffff;"/>
   </g>
   <g id="matplotlib.axis_1"/>
   <g id="matplotlib.axis_2">
    <g id="ytick_1">
     <g id="line2d_1">
      <defs>
       <path d="M 0 0 
L -3.5 0 
" id="mb8a4ee2b40" style="stroke:#000000;stroke-width:0.8;"/>
      </defs>
      <g>
       <use style="stroke:#000000;stroke-width:0.8;" x="54" xlink:href="#mb8a4ee2b40" y="102.857433"/>
      </g>
     </g>
     <g id="text_1">
      <!-- 0 -->
      <g transform="translate(40.6375 106.656652)scale(0.1 -0.1)">
       <defs>
        <path d="M 31.78125 66.40625 
Q 24.171875 66.40625 20.328125 58.90625 
Q 16.5 51.421875 16.5 36.375 
Q 16.5 21.390625 20.328125 13.890625 
Q 24.171875 6.390625 31.78125 6.390625 
Q 39.453125 6.390625 43.28125 13.890625 
Q 47.125 21.390625 47.125 36.375 
Q 47.125 51.421875 43.28125 58.90625 
Q 39.453125 66.40625 31.78125 66.40625 
z
M 31.78125 74.21875 
Q 44.046875 74.21875 50.515625 64.515625 
Q 56.984375 54.828125 56.984375 36.375 
Q 56.984375 17.96875 50.515625 8.265625 
Q 44.046875 -1.421875 31.78125 -1.421875 
Q 19.53125 -1.421875 13.0625 8.265625 
Q 6.59375 17.96875 6.59375 36.375 
Q 6.59375 54.828125 13.0625 64.515625 
Q 19.53125 74.21875 31.78125 74.21875 
z
" id="DejaVuSans-48"/>
       </defs>
       <use xlink:href="#DejaVuSans-48"/>
      </g>
     </g>
    </g>
    <g id="ytick_2">
     <g id="line2d_2">
      <g>
       <use style="stroke:#000000;stroke-width:0.8;" x="54" xlink:href="#mb8a4ee2b40" y="71.497363"/>
      </g>
     </g>
     <g id="text_2">
      <!-- 2 -->
      <g transform="translate(40.6375 75.296582)scale(0.1 -0.1)">
       <defs>
        <path d="M 19.1875 8.296875 
L 53.609375 8.296875 
L 53.609375 0 
L 7.328125 0 
L 7.328125 8.296875 
Q 12.9375 14.109375 22.625 23.890625 
Q 32.328125 33.6875 34.8125 36.53125 
Q 39.546875 41.84375 41.421875 45.53125 
Q 43.3125 49.21875 43.3125 52.78125 
Q 43.3125 58.59375 39.234375 62.25 
Q 35.15625 65.921875 28.609375 65.921875 
Q 23.96875 65.921875 18.8125 64.3125 
Q 13.671875 62.703125 7.8125 59.421875 
L 7.8125 69.390625 
Q 13.765625 71.78125 18.9375 73 
Q 24.125 74.21875 28.421875 74.21875 
Q 39.75 74.21875 46.484375 68.546875 
Q 53.21875 62.890625 53.21875 53.421875 
Q 53.21875 48.921875 51.53125 44.890625 
Q 49.859375 40.875 45.40625 35.40625 
Q 44.1875 33.984375 37.640625 27.21875 
Q 31.109375 20.453125 19.1875 8.296875 
z
" id="DejaVuSans-50"/>
       </defs>
       <use xlink:href="#DejaVuSans-50"/>
      </g>
     </g>
    </g>
    <g id="ytick_3">
     <g id="line2d_3">
      <g>
       <use style="stroke:#000000;stroke-width:0.8;" x="54" xlink:href="#mb8a4ee2b40" y="40.137294"/>
      </g>
     </g>
     <g id="text_3">
      <!-- 4 -->
      <g transform="translate(40.6375 43.936513)scale(0.1 -0.1)">
       <defs>
        <path d="M 37.796875 64.3125 
L 12.890625 25.390625 
L 37.796875 25.390625 
z
M 35.203125 72.90625 
L 47.609375 72.90625 
L 47.609375 25.390625 
L 58.015625 25.390625 
L 58.015625 17.1875 
L 47.609375 17.1875 
L 47.609375 0 
L 37.796875 0 
L 37.796875 17.1875 
L 4.890625 17.1875 
L 4.890625 26.703125 
z
" id="DejaVuSans-52"/>
       </defs>
       <use xlink:href="#DejaVuSans-52"/>
      </g>
     </g>
    </g>
    <g id="text_4">
     <!-- Radial Stress [Pa] -->
     <g transform="translate(34.557812 127.717244)rotate(-90)scale(0.1 -0.1)">
      <defs>
       <path d="M 44.390625 34.1875 
Q 47.5625 33.109375 50.5625 29.59375 
Q 53.5625 26.078125 56.59375 19.921875 
L 66.609375 0 
L 56 0 
L 46.6875 18.703125 
Q 43.0625 26.03125 39.671875 28.421875 
Q 36.28125 30.8125 30.421875 30.8125 
L 19.671875 30.8125 
L 19.671875 0 
L 9.8125 0 
L 9.8125 72.90625 
L 32.078125 72.90625 
Q 44.578125 72.90625 50.734375 67.671875 
Q 56.890625 62.453125 56.890625 51.90625 
Q 56.890625 45.015625 53.6875 40.46875 
Q 50.484375 35.9375 44.390625 34.1875 
z
M 19.671875 64.796875 
L 19.671875 38.921875 
L 32.078125 38.921875 
Q 39.203125 38.921875 42.84375 42.21875 
Q 46.484375 45.515625 46.484375 51.90625 
Q 46.484375 58.296875 42.84375 61.546875 
Q 39.203125 64.796875 32.078125 64.796875 
z
" id="DejaVuSans-82"/>
       <path d="M 34.28125 27.484375 
Q 23.390625 27.484375 19.1875 25 
Q 14.984375 22.515625 14.984375 16.5 
Q 14.984375 11.71875 18.140625 8.90625 
Q 21.296875 6.109375 26.703125 6.109375 
Q 34.1875 6.109375 38.703125 11.40625 
Q 43.21875 16.703125 43.21875 25.484375 
L 43.21875 27.484375 
z
M 52.203125 31.203125 
L 52.203125 0 
L 43.21875 0 
L 43.21875 8.296875 
Q 40.140625 3.328125 35.546875 0.953125 
Q 30.953125 -1.421875 24.3125 -1.421875 
Q 15.921875 -1.421875 10.953125 3.296875 
Q 6 8.015625 6 15.921875 
Q 6 25.140625 12.171875 29.828125 
Q 18.359375 34.515625 30.609375 34.515625 
L 43.21875 34.515625 
L 43.21875 35.40625 
Q 43.21875 41.609375 39.140625 45 
Q 35.0625 48.390625 27.6875 48.390625 
Q 23 48.390625 18.546875 47.265625 
Q 14.109375 46.140625 10.015625 43.890625 
L 10.015625 52.203125 
Q 14.9375 54.109375 19.578125 55.046875 
Q 24.21875 56 28.609375 56 
Q 40.484375 56 46.34375 49.84375 
Q 52.203125 43.703125 52.203125 31.203125 
z
" id="DejaVuSans-97"/>
       <path d="M 45.40625 46.390625 
L 45.40625 75.984375 
L 54.390625 75.984375 
L 54.390625 0 
L 45.40625 0 
L 45.40625 8.203125 
Q 42.578125 3.328125 38.25 0.953125 
Q 33.9375 -1.421875 27.875 -1.421875 
Q 17.96875 -1.421875 11.734375 6.484375 
Q 5.515625 14.40625 5.515625 27.296875 
Q 5.515625 40.1875 11.734375 48.09375 
Q 17.96875 56 27.875 56 
Q 33.9375 56 38.25 53.625 
Q 42.578125 51.265625 45.40625 46.390625 
z
M 14.796875 27.296875 
Q 14.796875 17.390625 18.875 11.75 
Q 22.953125 6.109375 30.078125 6.109375 
Q 37.203125 6.109375 41.296875 11.75 
Q 45.40625 17.390625 45.40625 27.296875 
Q 45.40625 37.203125 41.296875 42.84375 
Q 37.203125 48.484375 30.078125 48.484375 
Q 22.953125 48.484375 18.875 42.84375 
Q 14.796875 37.203125 14.796875 27.296875 
z
" id="DejaVuSans-100"/>
       <path d="M 9.421875 54.6875 
L 18.40625 54.6875 
L 18.40625 0 
L 9.421875 0 
z
M 9.421875 75.984375 
L 18.40625 75.984375 
L 18.40625 64.59375 
L 9.421875 64.59375 
z
" id="DejaVuSans-105"/>
       <path d="M 9.421875 75.984375 
L 18.40625 75.984375 
L 18.40625 0 
L 9.421875 0 
z
" id="DejaVuSans-108"/>
       <path id="DejaVuSans-32"/>
       <path d="M 53.515625 70.515625 
L 53.515625 60.890625 
Q 47.90625 63.578125 42.921875 64.890625 
Q 37.9375 66.21875 33.296875 66.21875 
Q 25.25 66.21875 20.875 63.09375 
Q 16.5 59.96875 16.5 54.203125 
Q 16.5 49.359375 19.40625 46.890625 
Q 22.3125 44.4375 30.421875 42.921875 
L 36.375 41.703125 
Q 47.40625 39.59375 52.65625 34.296875 
Q 57.90625 29 57.90625 20.125 
Q 57.90625 9.515625 50.796875 4.046875 
Q 43.703125 -1.421875 29.984375 -1.421875 
Q 24.8125 -1.421875 18.96875 -0.25 
Q 13.140625 0.921875 6.890625 3.21875 
L 6.890625 13.375 
Q 12.890625 10.015625 18.65625 8.296875 
Q 24.421875 6.59375 29.984375 6.59375 
Q 38.421875 6.59375 43.015625 9.90625 
Q 47.609375 13.234375 47.609375 19.390625 
Q 47.609375 24.75 44.3125 27.78125 
Q 41.015625 30.8125 33.5 32.328125 
L 27.484375 33.5 
Q 16.453125 35.6875 11.515625 40.375 
Q 6.59375 45.0625 6.59375 53.421875 
Q 6.59375 63.09375 13.40625 68.65625 
Q 20.21875 74.21875 32.171875 74.21875 
Q 37.3125 74.21875 42.625 73.28125 
Q 47.953125 72.359375 53.515625 70.515625 
z
" id="DejaVuSans-83"/>
       <path d="M 18.3125 70.21875 
L 18.3125 54.6875 
L 36.8125 54.6875 
L 36.8125 47.703125 
L 18.3125 47.703125 
L 18.3125 18.015625 
Q 18.3125 11.328125 20.140625 9.421875 
Q 21.96875 7.515625 27.59375 7.515625 
L 36.8125 7.515625 
L 36.8125 0 
L 27.59375 0 
Q 17.1875 0 13.234375 3.875 
Q 9.28125 7.765625 9.28125 18.015625 
L 9.28125 47.703125 
L 2.6875 47.703125 
L 2.6875 54.6875 
L 9.28125 54.6875 
L 9.28125 70.21875 
z
" id="DejaVuSans-116"/>
       <path d="M 41.109375 46.296875 
Q 39.59375 47.171875 37.8125 47.578125 
Q 36.03125 48 33.890625 48 
Q 26.265625 48 22.1875 43.046875 
Q 18.109375 38.09375 18.109375 28.8125 
L 18.109375 0 
L 9.078125 0 
L 9.078125 54.6875 
L 18.109375 54.6875 
L 18.109375 46.1875 
Q 20.953125 51.171875 25.484375 53.578125 
Q 30.03125 56 36.53125 56 
Q 37.453125 56 38.578125 55.875 
Q 39.703125 55.765625 41.0625 55.515625 
z
" id="DejaVuSans-114"/>
       <path d="M 56.203125 29.59375 
L 56.203125 25.203125 
L 14.890625 25.203125 
Q 15.484375 15.921875 20.484375 11.0625 
Q 25.484375 6.203125 34.421875 6.203125 
Q 39.59375 6.203125 44.453125 7.46875 
Q 49.3125 8.734375 54.109375 11.28125 
L 54.109375 2.78125 
Q 49.265625 0.734375 44.1875 -0.34375 
Q 39.109375 -1.421875 33.890625 -1.421875 
Q 20.796875 -1.421875 13.15625 6.1875 
Q 5.515625 13.8125 5.515625 26.8125 
Q 5.515625 40.234375 12.765625 48.109375 
Q 20.015625 56 32.328125 56 
Q 43.359375 56 49.78125 48.890625 
Q 56.203125 41.796875 56.203125 29.59375 
z
M 47.21875 32.234375 
Q 47.125 39.59375 43.09375 43.984375 
Q 39.0625 48.390625 32.421875 48.390625 
Q 24.90625 48.390625 20.390625 44.140625 
Q 15.875 39.890625 15.1875 32.171875 
z
" id="DejaVuSans-101"/>
       <path d="M 44.28125 53.078125 
L 44.28125 44.578125 
Q 40.484375 46.53125 36.375 47.5 
Q 32.28125 48.484375 27.875 48.484375 
Q 21.1875 48.484375 17.84375 46.4375 
Q 14.5 44.390625 14.5 40.28125 
Q 14.5 37.15625 16.890625 35.375 
Q 19.28125 33.59375 26.515625 31.984375 
L 29.59375 31.296875 
Q 39.15625 29.25 43.1875 25.515625 
Q 47.21875 21.78125 47.21875 15.09375 
Q 47.21875 7.46875 41.1875 3.015625 
Q 35.15625 -1.421875 24.609375 -1.421875 
Q 20.21875 -1.421875 15.453125 -0.5625 
Q 10.6875 0.296875 5.421875 2 
L 5.421875 11.28125 
Q 10.40625 8.6875 15.234375 7.390625 
Q 20.0625 6.109375 24.8125 6.109375 
Q 31.15625 6.109375 34.5625 8.28125 
Q 37.984375 10.453125 37.984375 14.40625 
Q 37.984375 18.0625 35.515625 20.015625 
Q 33.0625 21.96875 24.703125 23.78125 
L 21.578125 24.515625 
Q 13.234375 26.265625 9.515625 29.90625 
Q 5.8125 33.546875 5.8125 39.890625 
Q 5.8125 47.609375 11.28125 51.796875 
Q 16.75 56 26.8125 56 
Q 31.78125 56 36.171875 55.265625 
Q 40.578125 54.546875 44.28125 53.078125 
z
" id="DejaVuSans-115"/>
       <path d="M 8.59375 75.984375 
L 29.296875 75.984375 
L 29.296875 69 
L 17.578125 69 
L 17.578125 -6.203125 
L 29.296875 -6.203125 
L 29.296875 -13.1875 
L 8.59375 -13.1875 
z
" id="DejaVuSans-91"/>
       <path d="M 19.671875 64.796875 
L 19.671875 37.40625 
L 32.078125 37.40625 
Q 38.96875 37.40625 42.71875 40.96875 
Q 46.484375 44.53125 46.484375 51.125 
Q 46.484375 57.671875 42.71875 61.234375 
Q 38.96875 64.796875 32.078125 64.796875 
z
M 9.8125 72.90625 
L 32.078125 72.90625 
Q 44.34375 72.90625 50.609375 67.359375 
Q 56.890625 61.8125 56.890625 51.125 
Q 56.890625 40.328125 50.609375 34.8125 
Q 44.34375 29.296875 32.078125 29.296875 
L 19.671875 29.296875 
L 19.671875 0 
L 9.8125 0 
z
" id="DejaVuSans-80"/>
       <path d="M 30.421875 75.984375 
L 30.421875 -13.1875 
L 9.71875 -13.1875 
L 9.71875 -6.203125 
L 21.390625 -6.203125 
L 21.390625 69 
L 9.71875 69 
L 9.71875 75.984375 
z
" id="DejaVuSans-93"/>
      </defs>
      <use xlink:href="#DejaVuSans-82"/>
      <use x="67.232422" xlink:href="#DejaVuSans-97"/>
      <use x="128.511719" xlink:href="#DejaVuSans-100"/>
      <use x="191.988281" xlink:href="#DejaVuSans-105"/>
      <use x="219.771484" xlink:href="#DejaVuSans-97"/>
      <use x="281.050781" xlink:href="#DejaVuSans-108"/>
      <use x="308.833984" xlink:href="#DejaVuSans-32"/>
      <use x="340.621094" xlink:href="#DejaVuSans-83"/>
      <use x="404.097656" xlink:href="#DejaVuSans-116"/>
      <use x="443.306641" xlink:href="#DejaVuSans-114"/>
      <use x="482.169922" xlink:href="#DejaVuSans-101"/>
      <use x="543.693359" xlink:href="#DejaVuSans-115"/>
      <use x="595.792969" xlink:href="#DejaVuSans-115"/>
      <use x="647.892578" xlink:href="#DejaVuSans-32"/>
      <use x="679.679688" xlink:href="#DejaVuSans-91"/>
      <use x="718.693359" xlink:href="#DejaVuSans-80"/>
      <use x="774.496094" xlink:href="#DejaVuSans-97"/>
      <use x="835.775391" xlink:href="#DejaVuSans-93"/>
     </g>
    </g>
    <g id="text_5">
     <!-- 1e7 -->
     <g transform="translate(54 31.56)scale(0.1 -0.1)">
      <defs>
       <path d="M 12.40625 8.296875 
L 28.515625 8.296875 
L 28.515625 63.921875 
L 10.984375 60.40625 
L 10.984375 69.390625 
L 28.421875 72.90625 
L 38.28125 72.90625 
L 38.28125 8.296875 
L 54.390625 8.296875 
L 54.390625 0 
L 12.40625 0 
z
" id="DejaVuSans-49"/>
       <path d="M 8.203125 72.90625 
L 55.078125 72.90625 
L 55.078125 68.703125 
L 28.609375 0 
L 18.3125 0 
L 43.21875 64.59375 
L 8.203125 64.59375 
z
" id="DejaVuSans-55"/>
      </defs>
      <use xlink:href="#DejaVuSans-49"/>
      <use x="63.623047" xlink:href="#DejaVuSans-101"/>
      <use x="125.146484" xlink:href="#DejaVuSans-55"/>
     </g>
    </g>
   </g>
   <g id="line2d_4">
    <path clip-path="url(#p31067ec70a)" d="M 69.218182 39.052562 
L 70.431848 39.05407 
L 71.645515 39.058537 
L 72.859182 39.065961 
L 74.072848 39.076344 
L 75.286515 39.089685 
L 76.500182 39.105984 
L 77.713848 39.125241 
L 78.927515 39.147456 
L 80.141181 39.172629 
L 81.354848 39.200761 
L 82.568515 39.23185 
L 83.782181 39.265898 
L 84.995848 39.302903 
L 86.209515 39.342867 
L 87.423181 39.385789 
L 88.636848 39.431669 
L 89.850515 39.480507 
L 91.064181 39.532304 
L 92.277848 39.587058 
L 93.491514 39.644771 
L 94.705181 39.705441 
L 95.918848 39.76907 
L 97.132514 39.835657 
L 98.346181 39.905202 
L 99.559848 39.977705 
L 100.773514 40.053166 
L 101.987181 40.131585 
L 103.200847 40.212963 
L 104.414514 40.297298 
L 105.628181 40.384592 
L 106.841847 40.474844 
L 108.055514 40.568054 
L 109.269181 40.664222 
L 110.482847 40.763348 
L 111.696514 40.865432 
L 112.91018 40.970474 
L 114.123847 41.078475 
L 115.337514 41.189433 
L 116.55118 41.30335 
L 117.764847 41.420225 
L 118.978514 41.540058 
L 120.19218 41.662849 
L 121.405847 41.788598 
L 122.619514 41.917305 
L 123.83318 42.048971 
L 125.046847 42.183594 
L 126.260513 42.321176 
L 127.47418 42.461716 
L 128.687847 42.605213 
L 129.901513 42.751669 
L 131.11518 42.901083 
L 132.328847 43.053456 
L 133.542513 43.208786 
L 134.75618 43.367074 
L 135.969846 43.528321 
L 137.183513 43.692525 
L 138.39718 43.859688 
L 139.610846 44.029809 
L 140.824513 44.202888 
L 142.03818 44.378925 
L 143.251846 44.55792 
L 144.465513 44.739874 
L 145.67918 44.924785 
L 146.892846 45.112655 
L 148.106513 45.303482 
L 149.320179 45.497268 
L 150.533846 45.694012 
L 151.747513 45.893714 
L 152.961179 46.096374 
L 154.174846 46.301992 
L 155.388513 46.510569 
L 156.602179 46.722103 
L 157.815846 46.936596 
L 159.029512 47.154046 
L 160.243179 47.374455 
L 161.456846 47.597822 
L 162.670512 47.824147 
L 163.884179 48.05343 
L 165.097846 48.285672 
L 166.311512 48.520871 
L 167.525179 48.759028 
L 168.738845 49.000144 
L 169.952512 49.244218 
L 171.166179 49.49125 
L 172.379845 49.74124 
L 173.593512 49.994188 
L 174.807179 50.250094 
L 176.020845 50.508958 
L 177.234512 50.770781 
L 178.448179 51.035561 
L 179.661845 51.3033 
L 180.875512 51.573996 
L 182.089178 51.847651 
L 183.302845 52.124264 
L 184.516512 52.403835 
L 185.730178 52.686365 
L 186.943845 52.971852 
L 188.157512 53.260297 
L 189.371178 53.551701 
" style="fill:none;stroke:#1f77b4;stroke-linecap:square;stroke-width:1.5;"/>
   </g>
   <g id="line2d_5">
    <path clip-path="url(#p31067ec70a)" d="M 189.371178 53.551701 
L 190.706345 53.901934 
L 192.041512 54.254502 
L 193.376679 54.609455 
L 194.711845 54.966838 
L 196.047012 55.326695 
L 197.382179 55.689069 
L 198.717346 56.053999 
L 200.052513 56.421521 
L 201.387679 56.791673 
L 202.722846 57.164488 
L 204.058013 57.539997 
L 205.39318 57.918232 
L 206.728347 58.299222 
L 208.063514 58.682995 
L 209.39868 59.069576 
L 210.733847 59.458992 
L 212.069014 59.851266 
L 213.404181 60.246421 
L 214.739348 60.644479 
L 216.074514 61.04546 
L 217.409681 61.449386 
L 218.744848 61.856275 
L 220.080015 62.266144 
L 221.415182 62.679012 
L 222.750348 63.094896 
L 224.085515 63.51381 
L 225.420682 63.935772 
L 226.755849 64.360794 
L 228.091016 64.788891 
L 229.426182 65.220077 
L 230.761349 65.654364 
L 232.096516 66.091765 
L 233.431683 66.532291 
L 234.76685 66.975955 
L 236.102017 67.422767 
L 237.437183 67.872737 
L 238.77235 68.325875 
L 240.107517 68.782192 
L 241.442684 69.241697 
L 242.777851 69.704397 
L 244.113017 70.170303 
L 245.448184 70.639423 
L 246.783351 71.111764 
L 248.118518 71.587334 
L 249.453685 72.06614 
L 250.788851 72.548191 
L 252.124018 73.033491 
L 253.459185 73.522049 
L 254.794352 74.01387 
L 256.129519 74.508962 
L 257.464685 75.007328 
L 258.799852 75.508976 
L 260.135019 76.013911 
L 261.470186 76.522139 
L 262.805353 77.033663 
L 264.14052 77.54849 
L 265.475686 78.066625 
L 266.810853 78.588071 
L 268.14602 79.112833 
L 269.481187 79.640917 
L 270.816354 80.172325 
L 272.15152 80.707062 
L 273.486687 81.245132 
L 274.821854 81.786539 
L 276.157021 82.331286 
L 277.492188 82.879377 
L 278.827354 83.430816 
L 280.162521 83.985605 
L 281.497688 84.543748 
L 282.832855 85.105249 
L 284.168022 85.67011 
L 285.503188 86.238333 
L 286.838355 86.809923 
L 288.173522 87.384882 
L 289.508689 87.963212 
L 290.843856 88.544916 
L 292.179023 89.129997 
L 293.514189 89.718457 
L 294.849356 90.310298 
L 296.184523 90.905523 
L 297.51969 91.504134 
L 298.854857 92.106133 
L 300.190023 92.711522 
L 301.52519 93.320304 
L 302.860357 93.93248 
L 304.195524 94.548052 
L 305.530691 95.167023 
L 306.865857 95.789393 
L 308.201024 96.415166 
L 309.536191 97.044341 
L 310.871358 97.676922 
L 312.206525 98.31291 
L 313.541691 98.952306 
L 314.876858 99.595112 
L 316.212025 100.24133 
L 317.547192 100.890961 
L 318.882359 101.544006 
L 320.217526 102.200466 
L 321.552692 102.860344 
" style="fill:none;stroke:#ff7f0e;stroke-linecap:square;stroke-width:1.5;"/>
   </g>
   <g id="line2d_6">
    <path clip-path="url(#p31067ec70a)" d="M 321.552692 102.860344 
L 322.038208 103.106922 
L 322.523723 103.353812 
L 323.009238 103.601015 
L 323.494753 103.848532 
L 323.980268 104.096364 
L 324.465784 104.344511 
L 324.951299 104.592976 
L 325.436814 104.841757 
L 325.922329 105.090858 
L 326.407844 105.340277 
L 326.89336 105.590017 
L 327.378875 105.840078 
L 327.86439 106.090461 
L 328.349905 106.341166 
L 328.83542 106.592195 
L 329.320936 106.843548 
L 329.806451 107.095227 
L 330.291966 107.347231 
L 330.777481 107.599562 
L 331.262996 107.852221 
L 331.748512 108.105208 
L 332.234027 108.358524 
L 332.719542 108.61217 
L 333.205057 108.866147 
L 333.690572 109.120455 
L 334.176088 109.375095 
L 334.661603 109.630068 
L 335.147118 109.885374 
L 335.632633 110.141015 
L 336.118148 110.396991 
L 336.603664 110.653303 
L 337.089179 110.909952 
L 337.574694 111.166937 
L 338.060209 111.42426 
L 338.545724 111.681922 
L 339.03124 111.939923 
L 339.516755 112.198264 
L 340.00227 112.456946 
L 340.487785 112.715969 
L 340.9733 112.975334 
L 341.458816 113.235041 
L 341.944331 113.495092 
L 342.429846 113.755486 
L 342.915361 114.016225 
L 343.400877 114.277309 
L 343.886392 114.538739 
L 344.371907 114.800515 
L 344.857422 115.062638 
L 345.342937 115.325108 
L 345.828453 115.587927 
L 346.313968 115.851095 
L 346.799483 116.114612 
L 347.284998 116.378478 
L 347.770513 116.642696 
L 348.256029 116.907264 
L 348.741544 117.172185 
L 349.227059 117.437457 
L 349.712574 117.703082 
L 350.198089 117.969061 
L 350.683605 118.235393 
L 351.16912 118.50208 
L 351.654635 118.769122 
L 352.14015 119.03652 
L 352.625665 119.304273 
L 353.111181 119.572384 
L 353.596696 119.840851 
L 354.082211 120.109676 
L 354.567726 120.378859 
L 355.053241 120.648401 
L 355.538757 120.918302 
L 356.024272 121.188562 
L 356.509787 121.459183 
L 356.995302 121.730165 
L 357.480817 122.001507 
L 357.966333 122.273212 
L 358.451848 122.545278 
L 358.937363 122.817707 
L 359.422878 123.090499 
L 359.908393 123.363655 
L 360.393909 123.637174 
L 360.879424 123.911059 
L 361.364939 124.185308 
L 361.850454 124.459922 
L 362.335969 124.734902 
L 362.821485 125.010249 
L 363.307 125.285962 
L 363.792515 125.562043 
L 364.27803 125.838491 
L 364.763545 126.115307 
L 365.249061 126.392491 
L 365.734576 126.670045 
L 366.220091 126.947967 
L 366.705606 127.22626 
L 367.191121 127.504922 
L 367.676637 127.783956 
L 368.162152 128.06336 
L 368.647667 128.343135 
L 369.133182 128.623282 
L 369.618697 128.903802 
" style="fill:none;stroke:#2ca02c;stroke-linecap:square;stroke-width:1.5;"/>
   </g>
   <g id="line2d_7">
    <path clip-path="url(#p31067ec70a)" d="M 369.618697 128.903802 
L 369.658729 128.635206 
L 369.698761 128.366726 
L 369.738792 128.098362 
L 369.778824 127.830115 
L 369.818855 127.561983 
L 369.858887 127.293967 
L 369.898918 127.026067 
L 369.93895 126.758282 
L 369.978981 126.490612 
L 370.019013 126.223058 
L 370.059044 125.955618 
L 370.099076 125.688294 
L 370.139107 125.421085 
L 370.179139 125.15399 
L 370.21917 124.88701 
L 370.259202 124.620145 
L 370.299233 124.353393 
L 370.339265 124.086756 
L 370.379296 123.820234 
L 370.419328 123.553825 
L 370.459359 123.28753 
L 370.499391 123.021349 
L 370.539423 122.755281 
L 370.579454 122.489327 
L 370.619486 122.223486 
L 370.659517 121.957759 
L 370.699549 121.692145 
L 370.73958 121.426643 
L 370.779612 121.161255 
L 370.819643 120.895979 
L 370.859675 120.630816 
L 370.899706 120.365766 
L 370.939738 120.100828 
L 370.979769 119.836002 
L 371.019801 119.571288 
L 371.059832 119.306687 
L 371.099864 119.042197 
L 371.139895 118.777819 
L 371.179927 118.513553 
L 371.219958 118.249398 
L 371.25999 117.985355 
L 371.300021 117.721423 
L 371.340053 117.457602 
L 371.380084 117.193893 
L 371.420116 116.930294 
L 371.460148 116.666806 
L 371.500179 116.403429 
L 371.540211 116.140162 
L 371.580242 115.877006 
L 371.620274 115.613961 
L 371.660305 115.351025 
L 371.700337 115.0882 
L 371.740368 114.825484 
L 371.7804 114.562879 
L 371.820431 114.300383 
L 371.860463 114.037997 
L 371.900494 113.77572 
L 371.940526 113.513553 
L 371.980557 113.251495 
L 372.020589 112.989546 
L 372.06062 112.727706 
L 372.100652 112.465975 
L 372.140683 112.204353 
L 372.180715 111.94284 
L 372.220746 111.681435 
L 372.260778 111.420138 
L 372.300809 111.15895 
L 372.340841 110.89787 
L 372.380873 110.636899 
L 372.420904 110.376035 
L 372.460936 110.115279 
L 372.500967 109.854631 
L 372.540999 109.59409 
L 372.58103 109.333657 
L 372.621062 109.073332 
L 372.661093 108.813113 
L 372.701125 108.553002 
L 372.741156 108.292998 
L 372.781188 108.033101 
L 372.821219 107.77331 
L 372.861251 107.513627 
L 372.901282 107.25405 
L 372.941314 106.994579 
L 372.981345 106.735215 
L 373.021377 106.475956 
L 373.061408 106.216804 
L 373.10144 105.957758 
L 373.141471 105.698818 
L 373.181503 105.439984 
L 373.221534 105.181255 
L 373.261566 104.922632 
L 373.301598 104.664115 
L 373.341629 104.405702 
L 373.381661 104.147395 
L 373.421692 103.889193 
L 373.461724 103.631096 
L 373.501755 103.373104 
L 373.541787 103.115216 
L 373.581818 102.857433 
" style="fill:none;stroke:#d62728;stroke-linecap:square;stroke-width:1.5;"/>
   </g>
   <g id="patch_3">
    <path d="M 54 133.396364 
L 54 34.56 
" style="fill:none;stroke:#000000;stroke-linecap:square;stroke-linejoin:miter;stroke-width:0.8;"/>
   </g>
   <g id="patch_4">
    <path d="M 388.8 133.396364 
L 388.8 34.56 
" style="fill:none;stroke:#000000;stroke-linecap:square;stroke-linejoin:miter;stroke-width:0.8;"/>
   </g>
   <g id="patch_5">
    <path d="M 54 133.396364 
L 388.8 133.396364 
" style="fill:none;stroke:#000000;stroke-linecap:square;stroke-linejoin:miter;stroke-width:0.8;"/>
   </g>
   <g id="patch_6">
    <path d="M 54 34.56 
L 388.8 34.56 
" style="fill:none;stroke:#000000;stroke-linecap:square;stroke-linejoin:miter;stroke-width:0.8;"/>
   </g>
  </g>
  <g id="axes_2">
   <g id="patch_7">
    <path d="M 54 252 
L 388.8 252 
L 388.8 153.163636 
L 54 153.163636 
z
" style="fill:#ffffff;"/>
   </g>
   <g id="matplotlib.axis_3">
    <g id="xtick_1">
     <g id="line2d_8">
      <defs>
       <path d="M 0 0 
L 0 3.5 
" id="mdb5b2e522f" style="stroke:#000000;stroke-width:0.8;"/>
      </defs>
      <g>
       <use style="stroke:#000000;stroke-width:0.8;" x="69.206165" xlink:href="#mdb5b2e522f" y="252"/>
      </g>
     </g>
     <g id="text_6">
      <!-- 0.000 -->
      <g transform="translate(54.892103 266.598437)scale(0.1 -0.1)">
       <defs>
        <path d="M 10.6875 12.40625 
L 21 12.40625 
L 21 0 
L 10.6875 0 
z
" id="DejaVuSans-46"/>
       </defs>
       <use xlink:href="#DejaVuSans-48"/>
       <use x="63.623047" xlink:href="#DejaVuSans-46"/>
       <use x="95.410156" xlink:href="#DejaVuSans-48"/>
       <use x="159.033203" xlink:href="#DejaVuSans-48"/>
       <use x="222.65625" xlink:href="#DejaVuSans-48"/>
      </g>
     </g>
    </g>
    <g id="xtick_2">
     <g id="line2d_9">
      <g>
       <use style="stroke:#000000;stroke-width:0.8;" x="117.27217" xlink:href="#mdb5b2e522f" y="252"/>
      </g>
     </g>
     <g id="text_7">
      <!-- 0.002 -->
      <g transform="translate(102.958108 266.598437)scale(0.1 -0.1)">
       <use xlink:href="#DejaVuSans-48"/>
       <use x="63.623047" xlink:href="#DejaVuSans-46"/>
       <use x="95.410156" xlink:href="#DejaVuSans-48"/>
       <use x="159.033203" xlink:href="#DejaVuSans-48"/>
       <use x="222.65625" xlink:href="#DejaVuSans-50"/>
      </g>
     </g>
    </g>
    <g id="xtick_3">
     <g id="line2d_10">
      <g>
       <use style="stroke:#000000;stroke-width:0.8;" x="165.338176" xlink:href="#mdb5b2e522f" y="252"/>
      </g>
     </g>
     <g id="text_8">
      <!-- 0.004 -->
      <g transform="translate(151.024113 266.598437)scale(0.1 -0.1)">
       <use xlink:href="#DejaVuSans-48"/>
       <use x="63.623047" xlink:href="#DejaVuSans-46"/>
       <use x="95.410156" xlink:href="#DejaVuSans-48"/>
       <use x="159.033203" xlink:href="#DejaVuSans-48"/>
       <use x="222.65625" xlink:href="#DejaVuSans-52"/>
      </g>
     </g>
    </g>
    <g id="xtick_4">
     <g id="line2d_11">
      <g>
       <use style="stroke:#000000;stroke-width:0.8;" x="213.404181" xlink:href="#mdb5b2e522f" y="252"/>
      </g>
     </g>
     <g id="text_9">
      <!-- 0.006 -->
      <g transform="translate(199.090118 266.598437)scale(0.1 -0.1)">
       <defs>
        <path d="M 33.015625 40.375 
Q 26.375 40.375 22.484375 35.828125 
Q 18.609375 31.296875 18.609375 23.390625 
Q 18.609375 15.53125 22.484375 10.953125 
Q 26.375 6.390625 33.015625 6.390625 
Q 39.65625 6.390625 43.53125 10.953125 
Q 47.40625 15.53125 47.40625 23.390625 
Q 47.40625 31.296875 43.53125 35.828125 
Q 39.65625 40.375 33.015625 40.375 
z
M 52.59375 71.296875 
L 52.59375 62.3125 
Q 48.875 64.0625 45.09375 64.984375 
Q 41.3125 65.921875 37.59375 65.921875 
Q 27.828125 65.921875 22.671875 59.328125 
Q 17.53125 52.734375 16.796875 39.40625 
Q 19.671875 43.65625 24.015625 45.921875 
Q 28.375 48.1875 33.59375 48.1875 
Q 44.578125 48.1875 50.953125 41.515625 
Q 57.328125 34.859375 57.328125 23.390625 
Q 57.328125 12.15625 50.6875 5.359375 
Q 44.046875 -1.421875 33.015625 -1.421875 
Q 20.359375 -1.421875 13.671875 8.265625 
Q 6.984375 17.96875 6.984375 36.375 
Q 6.984375 53.65625 15.1875 63.9375 
Q 23.390625 74.21875 37.203125 74.21875 
Q 40.921875 74.21875 44.703125 73.484375 
Q 48.484375 72.75 52.59375 71.296875 
z
" id="DejaVuSans-54"/>
       </defs>
       <use xlink:href="#DejaVuSans-48"/>
       <use x="63.623047" xlink:href="#DejaVuSans-46"/>
       <use x="95.410156" xlink:href="#DejaVuSans-48"/>
       <use x="159.033203" xlink:href="#DejaVuSans-48"/>
       <use x="222.65625" xlink:href="#DejaVuSans-54"/>
      </g>
     </g>
    </g>
    <g id="xtick_5">
     <g id="line2d_12">
      <g>
       <use style="stroke:#000000;stroke-width:0.8;" x="261.470186" xlink:href="#mdb5b2e522f" y="252"/>
      </g>
     </g>
     <g id="text_10">
      <!-- 0.008 -->
      <g transform="translate(247.156123 266.598437)scale(0.1 -0.1)">
       <defs>
        <path d="M 31.78125 34.625 
Q 24.75 34.625 20.71875 30.859375 
Q 16.703125 27.09375 16.703125 20.515625 
Q 16.703125 13.921875 20.71875 10.15625 
Q 24.75 6.390625 31.78125 6.390625 
Q 38.8125 6.390625 42.859375 10.171875 
Q 46.921875 13.96875 46.921875 20.515625 
Q 46.921875 27.09375 42.890625 30.859375 
Q 38.875 34.625 31.78125 34.625 
z
M 21.921875 38.8125 
Q 15.578125 40.375 12.03125 44.71875 
Q 8.5 49.078125 8.5 55.328125 
Q 8.5 64.0625 14.71875 69.140625 
Q 20.953125 74.21875 31.78125 74.21875 
Q 42.671875 74.21875 48.875 69.140625 
Q 55.078125 64.0625 55.078125 55.328125 
Q 55.078125 49.078125 51.53125 44.71875 
Q 48 40.375 41.703125 38.8125 
Q 48.828125 37.15625 52.796875 32.3125 
Q 56.78125 27.484375 56.78125 20.515625 
Q 56.78125 9.90625 50.3125 4.234375 
Q 43.84375 -1.421875 31.78125 -1.421875 
Q 19.734375 -1.421875 13.25 4.234375 
Q 6.78125 9.90625 6.78125 20.515625 
Q 6.78125 27.484375 10.78125 32.3125 
Q 14.796875 37.15625 21.921875 38.8125 
z
M 18.3125 54.390625 
Q 18.3125 48.734375 21.84375 45.5625 
Q 25.390625 42.390625 31.78125 42.390625 
Q 38.140625 42.390625 41.71875 45.5625 
Q 45.3125 48.734375 45.3125 54.390625 
Q 45.3125 60.0625 41.71875 63.234375 
Q 38.140625 66.40625 31.78125 66.40625 
Q 25.390625 66.40625 21.84375 63.234375 
Q 18.3125 60.0625 18.3125 54.390625 
z
" id="DejaVuSans-56"/>
       </defs>
       <use xlink:href="#DejaVuSans-48"/>
       <use x="63.623047" xlink:href="#DejaVuSans-46"/>
       <use x="95.410156" xlink:href="#DejaVuSans-48"/>
       <use x="159.033203" xlink:href="#DejaVuSans-48"/>
       <use x="222.65625" xlink:href="#DejaVuSans-56"/>
      </g>
     </g>
    </g>
    <g id="xtick_6">
     <g id="line2d_13">
      <g>
       <use style="stroke:#000000;stroke-width:0.8;" x="309.536191" xlink:href="#mdb5b2e522f" y="252"/>
      </g>
     </g>
     <g id="text_11">
      <!-- 0.010 -->
      <g transform="translate(295.222129 266.598437)scale(0.1 -0.1)">
       <use xlink:href="#DejaVuSans-48"/>
       <use x="63.623047" xlink:href="#DejaVuSans-46"/>
       <use x="95.410156" xlink:href="#DejaVuSans-48"/>
       <use x="159.033203" xlink:href="#DejaVuSans-49"/>
       <use x="222.65625" xlink:href="#DejaVuSans-48"/>
      </g>
     </g>
    </g>
    <g id="xtick_7">
     <g id="line2d_14">
      <g>
       <use style="stroke:#000000;stroke-width:0.8;" x="357.602196" xlink:href="#mdb5b2e522f" y="252"/>
      </g>
     </g>
     <g id="text_12">
      <!-- 0.012 -->
      <g transform="translate(343.288134 266.598437)scale(0.1 -0.1)">
       <use xlink:href="#DejaVuSans-48"/>
       <use x="63.623047" xlink:href="#DejaVuSans-46"/>
       <use x="95.410156" xlink:href="#DejaVuSans-48"/>
       <use x="159.033203" xlink:href="#DejaVuSans-49"/>
       <use x="222.65625" xlink:href="#DejaVuSans-50"/>
      </g>
     </g>
    </g>
    <g id="text_13">
     <!-- Radial Position [m] -->
     <g transform="translate(174.54375 280.276562)scale(0.1 -0.1)">
      <defs>
       <path d="M 30.609375 48.390625 
Q 23.390625 48.390625 19.1875 42.75 
Q 14.984375 37.109375 14.984375 27.296875 
Q 14.984375 17.484375 19.15625 11.84375 
Q 23.34375 6.203125 30.609375 6.203125 
Q 37.796875 6.203125 41.984375 11.859375 
Q 46.1875 17.53125 46.1875 27.296875 
Q 46.1875 37.015625 41.984375 42.703125 
Q 37.796875 48.390625 30.609375 48.390625 
z
M 30.609375 56 
Q 42.328125 56 49.015625 48.375 
Q 55.71875 40.765625 55.71875 27.296875 
Q 55.71875 13.875 49.015625 6.21875 
Q 42.328125 -1.421875 30.609375 -1.421875 
Q 18.84375 -1.421875 12.171875 6.21875 
Q 5.515625 13.875 5.515625 27.296875 
Q 5.515625 40.765625 12.171875 48.375 
Q 18.84375 56 30.609375 56 
z
" id="DejaVuSans-111"/>
       <path d="M 54.890625 33.015625 
L 54.890625 0 
L 45.90625 0 
L 45.90625 32.71875 
Q 45.90625 40.484375 42.875 44.328125 
Q 39.84375 48.1875 33.796875 48.1875 
Q 26.515625 48.1875 22.3125 43.546875 
Q 18.109375 38.921875 18.109375 30.90625 
L 18.109375 0 
L 9.078125 0 
L 9.078125 54.6875 
L 18.109375 54.6875 
L 18.109375 46.1875 
Q 21.34375 51.125 25.703125 53.5625 
Q 30.078125 56 35.796875 56 
Q 45.21875 56 50.046875 50.171875 
Q 54.890625 44.34375 54.890625 33.015625 
z
" id="DejaVuSans-110"/>
       <path d="M 52 44.1875 
Q 55.375 50.25 60.0625 53.125 
Q 64.75 56 71.09375 56 
Q 79.640625 56 84.28125 50.015625 
Q 88.921875 44.046875 88.921875 33.015625 
L 88.921875 0 
L 79.890625 0 
L 79.890625 32.71875 
Q 79.890625 40.578125 77.09375 44.375 
Q 74.3125 48.1875 68.609375 48.1875 
Q 61.625 48.1875 57.5625 43.546875 
Q 53.515625 38.921875 53.515625 30.90625 
L 53.515625 0 
L 44.484375 0 
L 44.484375 32.71875 
Q 44.484375 40.625 41.703125 44.40625 
Q 38.921875 48.1875 33.109375 48.1875 
Q 26.21875 48.1875 22.15625 43.53125 
Q 18.109375 38.875 18.109375 30.90625 
L 18.109375 0 
L 9.078125 0 
L 9.078125 54.6875 
L 18.109375 54.6875 
L 18.109375 46.1875 
Q 21.1875 51.21875 25.484375 53.609375 
Q 29.78125 56 35.6875 56 
Q 41.65625 56 45.828125 52.96875 
Q 50 49.953125 52 44.1875 
z
" id="DejaVuSans-109"/>
      </defs>
      <use xlink:href="#DejaVuSans-82"/>
      <use x="67.232422" xlink:href="#DejaVuSans-97"/>
      <use x="128.511719" xlink:href="#DejaVuSans-100"/>
      <use x="191.988281" xlink:href="#DejaVuSans-105"/>
      <use x="219.771484" xlink:href="#DejaVuSans-97"/>
      <use x="281.050781" xlink:href="#DejaVuSans-108"/>
      <use x="308.833984" xlink:href="#DejaVuSans-32"/>
      <use x="340.621094" xlink:href="#DejaVuSans-80"/>
      <use x="397.298828" xlink:href="#DejaVuSans-111"/>
      <use x="458.480469" xlink:href="#DejaVuSans-115"/>
      <use x="510.580078" xlink:href="#DejaVuSans-105"/>
      <use x="538.363281" xlink:href="#DejaVuSans-116"/>
      <use x="577.572266" xlink:href="#DejaVuSans-105"/>
      <use x="605.355469" xlink:href="#DejaVuSans-111"/>
      <use x="666.537109" xlink:href="#DejaVuSans-110"/>
      <use x="729.916016" xlink:href="#DejaVuSans-32"/>
      <use x="761.703125" xlink:href="#DejaVuSans-91"/>
      <use x="800.716797" xlink:href="#DejaVuSans-109"/>
      <use x="898.128906" xlink:href="#DejaVuSans-93"/>
     </g>
    </g>
   </g>
   <g id="matplotlib.axis_4">
    <g id="ytick_4">
     <g id="line2d_15">
      <g>
       <use style="stroke:#000000;stroke-width:0.8;" x="54" xlink:href="#mb8a4ee2b40" y="247.526332"/>
      </g>
     </g>
     <g id="text_14">
      <!-- 0.0 -->
      <g transform="translate(31.096875 251.325551)scale(0.1 -0.1)">
       <use xlink:href="#DejaVuSans-48"/>
       <use x="63.623047" xlink:href="#DejaVuSans-46"/>
       <use x="95.410156" xlink:href="#DejaVuSans-48"/>
      </g>
     </g>
    </g>
    <g id="ytick_5">
     <g id="line2d_16">
      <g>
       <use style="stroke:#000000;stroke-width:0.8;" x="54" xlink:href="#mb8a4ee2b40" y="212.960864"/>
      </g>
     </g>
     <g id="text_15">
      <!-- 0.5 -->
      <g transform="translate(31.096875 216.760083)scale(0.1 -0.1)">
       <defs>
        <path d="M 10.796875 72.90625 
L 49.515625 72.90625 
L 49.515625 64.59375 
L 19.828125 64.59375 
L 19.828125 46.734375 
Q 21.96875 47.46875 24.109375 47.828125 
Q 26.265625 48.1875 28.421875 48.1875 
Q 40.625 48.1875 47.75 41.5 
Q 54.890625 34.8125 54.890625 23.390625 
Q 54.890625 11.625 47.5625 5.09375 
Q 40.234375 -1.421875 26.90625 -1.421875 
Q 22.3125 -1.421875 17.546875 -0.640625 
Q 12.796875 0.140625 7.71875 1.703125 
L 7.71875 11.625 
Q 12.109375 9.234375 16.796875 8.0625 
Q 21.484375 6.890625 26.703125 6.890625 
Q 35.15625 6.890625 40.078125 11.328125 
Q 45.015625 15.765625 45.015625 23.390625 
Q 45.015625 31 40.078125 35.4375 
Q 35.15625 39.890625 26.703125 39.890625 
Q 22.75 39.890625 18.8125 39.015625 
Q 14.890625 38.140625 10.796875 36.28125 
z
" id="DejaVuSans-53"/>
       </defs>
       <use xlink:href="#DejaVuSans-48"/>
       <use x="63.623047" xlink:href="#DejaVuSans-46"/>
       <use x="95.410156" xlink:href="#DejaVuSans-53"/>
      </g>
     </g>
    </g>
    <g id="ytick_6">
     <g id="line2d_17">
      <g>
       <use style="stroke:#000000;stroke-width:0.8;" x="54" xlink:href="#mb8a4ee2b40" y="178.395396"/>
      </g>
     </g>
     <g id="text_16">
      <!-- 1.0 -->
      <g transform="translate(31.096875 182.194614)scale(0.1 -0.1)">
       <use xlink:href="#DejaVuSans-49"/>
       <use x="63.623047" xlink:href="#DejaVuSans-46"/>
       <use x="95.410156" xlink:href="#DejaVuSans-48"/>
      </g>
     </g>
    </g>
    <g id="text_17">
     <!-- Tangential Stress [Pa] -->
     <g transform="translate(25.017187 256.562287)rotate(-90)scale(0.1 -0.1)">
      <defs>
       <path d="M -0.296875 72.90625 
L 61.375 72.90625 
L 61.375 64.59375 
L 35.5 64.59375 
L 35.5 0 
L 25.59375 0 
L 25.59375 64.59375 
L -0.296875 64.59375 
z
" id="DejaVuSans-84"/>
       <path d="M 45.40625 27.984375 
Q 45.40625 37.75 41.375 43.109375 
Q 37.359375 48.484375 30.078125 48.484375 
Q 22.859375 48.484375 18.828125 43.109375 
Q 14.796875 37.75 14.796875 27.984375 
Q 14.796875 18.265625 18.828125 12.890625 
Q 22.859375 7.515625 30.078125 7.515625 
Q 37.359375 7.515625 41.375 12.890625 
Q 45.40625 18.265625 45.40625 27.984375 
z
M 54.390625 6.78125 
Q 54.390625 -7.171875 48.1875 -13.984375 
Q 42 -20.796875 29.203125 -20.796875 
Q 24.46875 -20.796875 20.265625 -20.09375 
Q 16.0625 -19.390625 12.109375 -17.921875 
L 12.109375 -9.1875 
Q 16.0625 -11.328125 19.921875 -12.34375 
Q 23.78125 -13.375 27.78125 -13.375 
Q 36.625 -13.375 41.015625 -8.765625 
Q 45.40625 -4.15625 45.40625 5.171875 
L 45.40625 9.625 
Q 42.625 4.78125 38.28125 2.390625 
Q 33.9375 0 27.875 0 
Q 17.828125 0 11.671875 7.65625 
Q 5.515625 15.328125 5.515625 27.984375 
Q 5.515625 40.671875 11.671875 48.328125 
Q 17.828125 56 27.875 56 
Q 33.9375 56 38.28125 53.609375 
Q 42.625 51.21875 45.40625 46.390625 
L 45.40625 54.6875 
L 54.390625 54.6875 
z
" id="DejaVuSans-103"/>
      </defs>
      <use xlink:href="#DejaVuSans-84"/>
      <use x="44.583984" xlink:href="#DejaVuSans-97"/>
      <use x="105.863281" xlink:href="#DejaVuSans-110"/>
      <use x="169.242188" xlink:href="#DejaVuSans-103"/>
      <use x="232.71875" xlink:href="#DejaVuSans-101"/>
      <use x="294.242188" xlink:href="#DejaVuSans-110"/>
      <use x="357.621094" xlink:href="#DejaVuSans-116"/>
      <use x="396.830078" xlink:href="#DejaVuSans-105"/>
      <use x="424.613281" xlink:href="#DejaVuSans-97"/>
      <use x="485.892578" xlink:href="#DejaVuSans-108"/>
      <use x="513.675781" xlink:href="#DejaVuSans-32"/>
      <use x="545.462891" xlink:href="#DejaVuSans-83"/>
      <use x="608.939453" xlink:href="#DejaVuSans-116"/>
      <use x="648.148438" xlink:href="#DejaVuSans-114"/>
      <use x="687.011719" xlink:href="#DejaVuSans-101"/>
      <use x="748.535156" xlink:href="#DejaVuSans-115"/>
      <use x="800.634766" xlink:href="#DejaVuSans-115"/>
      <use x="852.734375" xlink:href="#DejaVuSans-32"/>
      <use x="884.521484" xlink:href="#DejaVuSans-91"/>
      <use x="923.535156" xlink:href="#DejaVuSans-80"/>
      <use x="979.337891" xlink:href="#DejaVuSans-97"/>
      <use x="1040.617188" xlink:href="#DejaVuSans-93"/>
     </g>
    </g>
    <g id="text_18">
     <!-- 1e9 -->
     <g transform="translate(54 150.163636)scale(0.1 -0.1)">
      <defs>
       <path d="M 10.984375 1.515625 
L 10.984375 10.5 
Q 14.703125 8.734375 18.5 7.8125 
Q 22.3125 6.890625 25.984375 6.890625 
Q 35.75 6.890625 40.890625 13.453125 
Q 46.046875 20.015625 46.78125 33.40625 
Q 43.953125 29.203125 39.59375 26.953125 
Q 35.25 24.703125 29.984375 24.703125 
Q 19.046875 24.703125 12.671875 31.3125 
Q 6.296875 37.9375 6.296875 49.421875 
Q 6.296875 60.640625 12.9375 67.421875 
Q 19.578125 74.21875 30.609375 74.21875 
Q 43.265625 74.21875 49.921875 64.515625 
Q 56.59375 54.828125 56.59375 36.375 
Q 56.59375 19.140625 48.40625 8.859375 
Q 40.234375 -1.421875 26.421875 -1.421875 
Q 22.703125 -1.421875 18.890625 -0.6875 
Q 15.09375 0.046875 10.984375 1.515625 
z
M 30.609375 32.421875 
Q 37.25 32.421875 41.125 36.953125 
Q 45.015625 41.5 45.015625 49.421875 
Q 45.015625 57.28125 41.125 61.84375 
Q 37.25 66.40625 30.609375 66.40625 
Q 23.96875 66.40625 20.09375 61.84375 
Q 16.21875 57.28125 16.21875 49.421875 
Q 16.21875 41.5 20.09375 36.953125 
Q 23.96875 32.421875 30.609375 32.421875 
z
" id="DejaVuSans-57"/>
      </defs>
      <use xlink:href="#DejaVuSans-49"/>
      <use x="63.623047" xlink:href="#DejaVuSans-101"/>
      <use x="125.146484" xlink:href="#DejaVuSans-57"/>
     </g>
    </g>
   </g>
   <g id="line2d_18">
    <path clip-path="url(#pbc54887505)" d="M 69.218182 244.713271 
L 70.431848 244.713315 
L 71.645515 244.713446 
L 72.859182 244.713664 
L 74.072848 244.71397 
L 75.286515 244.714362 
L 76.500182 244.714841 
L 77.713848 244.715407 
L 78.927515 244.71606 
L 80.141181 244.7168 
L 81.354848 244.717627 
L 82.568515 244.71854 
L 83.782181 244.719541 
L 84.995848 244.720629 
L 86.209515 244.721803 
L 87.423181 244.723065 
L 88.636848 244.724414 
L 89.850515 244.725849 
L 91.064181 244.727371 
L 92.277848 244.728981 
L 93.491514 244.730677 
L 94.705181 244.73246 
L 95.918848 244.734331 
L 97.132514 244.736288 
L 98.346181 244.738332 
L 99.559848 244.740463 
L 100.773514 244.742681 
L 101.987181 244.744986 
L 103.200847 244.747378 
L 104.414514 244.749856 
L 105.628181 244.752422 
L 106.841847 244.755075 
L 108.055514 244.757815 
L 109.269181 244.760641 
L 110.482847 244.763555 
L 111.696514 244.766555 
L 112.91018 244.769643 
L 114.123847 244.772817 
L 115.337514 244.776078 
L 116.55118 244.779427 
L 117.764847 244.782862 
L 118.978514 244.786384 
L 120.19218 244.789993 
L 121.405847 244.793689 
L 122.619514 244.797472 
L 123.83318 244.801342 
L 125.046847 244.805299 
L 126.260513 244.809343 
L 127.47418 244.813474 
L 128.687847 244.817691 
L 129.901513 244.821996 
L 131.11518 244.826388 
L 132.328847 244.830866 
L 133.542513 244.835432 
L 134.75618 244.840084 
L 135.969846 244.844824 
L 137.183513 244.84965 
L 138.39718 244.854563 
L 139.610846 244.859564 
L 140.824513 244.864651 
L 142.03818 244.869825 
L 143.251846 244.875086 
L 144.465513 244.880434 
L 145.67918 244.885869 
L 146.892846 244.891391 
L 148.106513 244.897 
L 149.320179 244.902696 
L 150.533846 244.908478 
L 151.747513 244.914348 
L 152.961179 244.920305 
L 154.174846 244.926348 
L 155.388513 244.932479 
L 156.602179 244.938696 
L 157.815846 244.945001 
L 159.029512 244.951392 
L 160.243179 244.957871 
L 161.456846 244.964436 
L 162.670512 244.971088 
L 163.884179 244.977827 
L 165.097846 244.984653 
L 166.311512 244.991566 
L 167.525179 244.998566 
L 168.738845 245.005653 
L 169.952512 245.012827 
L 171.166179 245.020088 
L 172.379845 245.027436 
L 173.593512 245.034871 
L 174.807179 245.042392 
L 176.020845 245.050001 
L 177.234512 245.057697 
L 178.448179 245.065479 
L 179.661845 245.073349 
L 180.875512 245.081305 
L 182.089178 245.089348 
L 183.302845 245.097479 
L 184.516512 245.105696 
L 185.730178 245.114 
L 186.943845 245.122391 
L 188.157512 245.130869 
L 189.371178 245.139434 
" style="fill:none;stroke:#1f77b4;stroke-linecap:square;stroke-width:1.5;"/>
   </g>
   <g id="line2d_19">
    <path clip-path="url(#pbc54887505)" d="M 189.371178 245.287786 
L 190.706345 245.295487 
L 192.041512 245.30334 
L 193.376679 245.311344 
L 194.711845 245.319496 
L 196.047012 245.327795 
L 197.382179 245.336239 
L 198.717346 245.344826 
L 200.052513 245.353554 
L 201.387679 245.362422 
L 202.722846 245.371429 
L 204.058013 245.380572 
L 205.39318 245.389851 
L 206.728347 245.399264 
L 208.063514 245.40881 
L 209.39868 245.418488 
L 210.733847 245.428296 
L 212.069014 245.438235 
L 213.404181 245.448302 
L 214.739348 245.458496 
L 216.074514 245.468818 
L 217.409681 245.479266 
L 218.744848 245.489838 
L 220.080015 245.500535 
L 221.415182 245.511355 
L 222.750348 245.522298 
L 224.085515 245.533364 
L 225.420682 245.54455 
L 226.755849 245.555858 
L 228.091016 245.567285 
L 229.426182 245.578832 
L 230.761349 245.590498 
L 232.096516 245.602283 
L 233.431683 245.614185 
L 234.76685 245.626205 
L 236.102017 245.638341 
L 237.437183 245.650594 
L 238.77235 245.662964 
L 240.107517 245.675448 
L 241.442684 245.688048 
L 242.777851 245.700763 
L 244.113017 245.713592 
L 245.448184 245.726535 
L 246.783351 245.739592 
L 248.118518 245.752762 
L 249.453685 245.766045 
L 250.788851 245.779441 
L 252.124018 245.792949 
L 253.459185 245.80657 
L 254.794352 245.820302 
L 256.129519 245.834146 
L 257.464685 245.848101 
L 258.799852 245.862167 
L 260.135019 245.876344 
L 261.470186 245.890631 
L 262.805353 245.905029 
L 264.14052 245.919537 
L 265.475686 245.934154 
L 266.810853 245.948882 
L 268.14602 245.963719 
L 269.481187 245.978665 
L 270.816354 245.993721 
L 272.15152 246.008885 
L 273.486687 246.024158 
L 274.821854 246.03954 
L 276.157021 246.05503 
L 277.492188 246.070628 
L 278.827354 246.086335 
L 280.162521 246.102149 
L 281.497688 246.118072 
L 282.832855 246.134102 
L 284.168022 246.150239 
L 285.503188 246.166484 
L 286.838355 246.182837 
L 288.173522 246.199296 
L 289.508689 246.215863 
L 290.843856 246.232536 
L 292.179023 246.249317 
L 293.514189 246.266204 
L 294.849356 246.283198 
L 296.184523 246.300298 
L 297.51969 246.317505 
L 298.854857 246.334818 
L 300.190023 246.352237 
L 301.52519 246.369763 
L 302.860357 246.387394 
L 304.195524 246.405132 
L 305.530691 246.422975 
L 306.865857 246.440924 
L 308.201024 246.458979 
L 309.536191 246.47714 
L 310.871358 246.495406 
L 312.206525 246.513777 
L 313.541691 246.532254 
L 314.876858 246.550837 
L 316.212025 246.569525 
L 317.547192 246.588318 
L 318.882359 246.607216 
L 320.217526 246.626219 
L 321.552692 246.645327 
" style="fill:none;stroke:#ff7f0e;stroke-linecap:square;stroke-width:1.5;"/>
   </g>
   <g id="line2d_20">
    <path clip-path="url(#pbc54887505)" d="M 321.552692 246.946426 
L 322.038208 246.951334 
L 322.523723 246.956258 
L 323.009238 246.961199 
L 323.494753 246.966156 
L 323.980268 246.97113 
L 324.465784 246.97612 
L 324.951299 246.981126 
L 325.436814 246.986149 
L 325.922329 246.991188 
L 326.407844 246.996243 
L 326.89336 247.001314 
L 327.378875 247.006402 
L 327.86439 247.011506 
L 328.349905 247.016625 
L 328.83542 247.021761 
L 329.320936 247.026913 
L 329.806451 247.032081 
L 330.291966 247.037265 
L 330.777481 247.042465 
L 331.262996 247.047681 
L 331.748512 247.052912 
L 332.234027 247.05816 
L 332.719542 247.063423 
L 333.205057 247.068702 
L 333.690572 247.073996 
L 334.176088 247.079307 
L 334.661603 247.084633 
L 335.147118 247.089974 
L 335.632633 247.095331 
L 336.118148 247.100704 
L 336.603664 247.106093 
L 337.089179 247.111496 
L 337.574694 247.116916 
L 338.060209 247.12235 
L 338.545724 247.1278 
L 339.03124 247.133266 
L 339.516755 247.138746 
L 340.00227 247.144243 
L 340.487785 247.149754 
L 340.9733 247.155281 
L 341.458816 247.160822 
L 341.944331 247.16638 
L 342.429846 247.171952 
L 342.915361 247.177539 
L 343.400877 247.183142 
L 343.886392 247.188759 
L 344.371907 247.194392 
L 344.857422 247.200039 
L 345.342937 247.205702 
L 345.828453 247.21138 
L 346.313968 247.217072 
L 346.799483 247.22278 
L 347.284998 247.228502 
L 347.770513 247.23424 
L 348.256029 247.239992 
L 348.741544 247.245759 
L 349.227059 247.251541 
L 349.712574 247.257337 
L 350.198089 247.263148 
L 350.683605 247.268974 
L 351.16912 247.274815 
L 351.654635 247.280671 
L 352.14015 247.286541 
L 352.625665 247.292425 
L 353.111181 247.298325 
L 353.596696 247.304239 
L 354.082211 247.310167 
L 354.567726 247.31611 
L 355.053241 247.322067 
L 355.538757 247.328039 
L 356.024272 247.334026 
L 356.509787 247.340027 
L 356.995302 247.346042 
L 357.480817 247.352072 
L 357.966333 247.358116 
L 358.451848 247.364175 
L 358.937363 247.370247 
L 359.422878 247.376335 
L 359.908393 247.382436 
L 360.393909 247.388552 
L 360.879424 247.394682 
L 361.364939 247.400826 
L 361.850454 247.406984 
L 362.335969 247.413157 
L 362.821485 247.419344 
L 363.307 247.425545 
L 363.792515 247.43176 
L 364.27803 247.437989 
L 364.763545 247.444233 
L 365.249061 247.45049 
L 365.734576 247.456762 
L 366.220091 247.463047 
L 366.705606 247.469347 
L 367.191121 247.47566 
L 367.676637 247.481988 
L 368.162152 247.48833 
L 368.647667 247.494685 
L 369.133182 247.501055 
L 369.618697 247.507438 
" style="fill:none;stroke:#2ca02c;stroke-linecap:square;stroke-width:1.5;"/>
   </g>
   <g id="line2d_21">
    <path clip-path="url(#pbc54887505)" d="M 369.618697 157.656198 
L 369.658729 157.670427 
L 369.698761 157.68463 
L 369.738792 157.698806 
L 369.778824 157.712956 
L 369.818855 157.72708 
L 369.858887 157.741178 
L 369.898918 157.755249 
L 369.93895 157.769294 
L 369.978981 157.783314 
L 370.019013 157.797307 
L 370.059044 157.811273 
L 370.099076 157.825214 
L 370.139107 157.839129 
L 370.179139 157.853018 
L 370.21917 157.86688 
L 370.259202 157.880717 
L 370.299233 157.894527 
L 370.339265 157.908312 
L 370.379296 157.922071 
L 370.419328 157.935804 
L 370.459359 157.94951 
L 370.499391 157.963191 
L 370.539423 157.976847 
L 370.579454 157.990476 
L 370.619486 158.004079 
L 370.659517 158.017657 
L 370.699549 158.031209 
L 370.73958 158.044735 
L 370.779612 158.058235 
L 370.819643 158.071709 
L 370.859675 158.085158 
L 370.899706 158.098581 
L 370.939738 158.111979 
L 370.979769 158.125351 
L 371.019801 158.138697 
L 371.059832 158.152017 
L 371.099864 158.165312 
L 371.139895 158.178582 
L 371.179927 158.191826 
L 371.219958 158.205044 
L 371.25999 158.218237 
L 371.300021 158.231404 
L 371.340053 158.244546 
L 371.380084 158.257662 
L 371.420116 158.270753 
L 371.460148 158.283818 
L 371.500179 158.296859 
L 371.540211 158.309873 
L 371.580242 158.322863 
L 371.620274 158.335827 
L 371.660305 158.348765 
L 371.700337 158.361679 
L 371.740368 158.374567 
L 371.7804 158.387429 
L 371.820431 158.400267 
L 371.860463 158.413079 
L 371.900494 158.425866 
L 371.940526 158.438628 
L 371.980557 158.451365 
L 372.020589 158.464077 
L 372.06062 158.476763 
L 372.100652 158.489424 
L 372.140683 158.502061 
L 372.180715 158.514672 
L 372.220746 158.527258 
L 372.260778 158.539819 
L 372.300809 158.552355 
L 372.340841 158.564866 
L 372.380873 158.577352 
L 372.420904 158.589813 
L 372.460936 158.602249 
L 372.500967 158.614661 
L 372.540999 158.627047 
L 372.58103 158.639408 
L 372.621062 158.651745 
L 372.661093 158.664057 
L 372.701125 158.676344 
L 372.741156 158.688606 
L 372.781188 158.700843 
L 372.821219 158.713056 
L 372.861251 158.725243 
L 372.901282 158.737406 
L 372.941314 158.749545 
L 372.981345 158.761658 
L 373.021377 158.773747 
L 373.061408 158.785811 
L 373.10144 158.797851 
L 373.141471 158.809866 
L 373.181503 158.821856 
L 373.221534 158.833822 
L 373.261566 158.845763 
L 373.301598 158.85768 
L 373.341629 158.869572 
L 373.381661 158.88144 
L 373.421692 158.893283 
L 373.461724 158.905101 
L 373.501755 158.916896 
L 373.541787 158.928665 
L 373.581818 158.940411 
" style="fill:none;stroke:#d62728;stroke-linecap:square;stroke-width:1.5;"/>
   </g>
   <g id="patch_8">
    <path d="M 54 252 
L 54 153.163636 
" style="fill:none;stroke:#000000;stroke-linecap:square;stroke-linejoin:miter;stroke-width:0.8;"/>
   </g>
   <g id="patch_9">
    <path d="M 388.8 252 
L 388.8 153.163636 
" style="fill:none;stroke:#000000;stroke-linecap:square;stroke-linejoin:miter;stroke-width:0.8;"/>
   </g>
   <g id="patch_10">
    <path d="M 54 252 
L 388.8 252 
" style="fill:none;stroke:#000000;stroke-linecap:square;stroke-linejoin:miter;stroke-width:0.8;"/>
   </g>
   <g id="patch_11">
    <path d="M 54 153.163636 
L 388.8 153.163636 
" style="fill:none;stroke:#000000;stroke-linecap:square;stroke-linejoin:miter;stroke-width:0.8;"/>
   </g>
  </g>
 </g>
 <defs>
  <clipPath id="p31067ec70a">
   <rect height="98.836364" width="334.8" x="54" y="34.56"/>
  </clipPath>
  <clipPath id="pbc54887505">
   <rect height="98.836364" width="334.8" x="54" y="153.163636"/>
  </clipPath>
 </defs>
</svg>
