<?xml version="1.0" encoding="utf-8" standalone="no"?>
<!DOCTYPE svg PUBLIC "-//W3C//DTD SVG 1.1//EN"
  "http://www.w3.org/Graphics/SVG/1.1/DTD/svg11.dtd">
<svg xmlns:xlink="http://www.w3.org/1999/xlink" width="460.8pt" height="345.6pt" viewBox="0 0 460.8 345.6" xmlns="http://www.w3.org/2000/svg" version="1.1">
 <metadata>
  <rdf:RDF xmlns:dc="http://purl.org/dc/elements/1.1/" xmlns:cc="http://creativecommons.org/ns#" xmlns:rdf="http://www.w3.org/1999/02/22-rdf-syntax-ns#">
   <cc:Work>
    <dc:type rdf:resource="http://purl.org/dc/dcmitype/StillImage"/>
    <dc:date>2023-03-25T12:30:29.370883</dc:date>
    <dc:format>image/svg+xml</dc:format>
    <dc:creator>
     <cc:Agent>
      <dc:title>Matplotlib v3.5.1, https://matplotlib.org/</dc:title>
     </cc:Agent>
    </dc:creator>
   </cc:Work>
  </rdf:RDF>
 </metadata>
 <defs>
  <style type="text/css">*{stroke-linejoin: round; stroke-linecap: butt}</style>
 </defs>
 <g id="figure_1">
  <g id="patch_1">
   <path d="M 0 345.6 
L 460.8 345.6 
L 460.8 0 
L 0 0 
z
" style="fill: #ffffff"/>
  </g>
  <g id="axes_1">
   <g id="patch_2">
    <path d="M 57.6 307.584 
L 414.72 307.584 
L 414.72 41.472 
L 57.6 41.472 
z
" style="fill: #ffffff"/>
   </g>
   <g id="matplotlib.axis_1">
    <g id="xtick_1">
     <g id="line2d_1">
      <path d="M 73.832727 307.584 
L 73.832727 41.472 
" clip-path="url(#pa344b3d14d)" style="fill: none; stroke-dasharray: 3.2,0.8,0.5,0.8; stroke-dashoffset: 0; stroke: #a9a9a9; stroke-width: 0.5"/>
     </g>
     <g id="line2d_2">
      <defs>
       <path id="m4a8dd39395" d="M 0 0 
L 0 3.5 
" style="stroke: #000000; stroke-width: 0.8"/>
      </defs>
      <g>
       <use xlink:href="#m4a8dd39395" x="73.832727" y="307.584" style="stroke: #000000; stroke-width: 0.8"/>
      </g>
     </g>
     <g id="text_1">
      <!-- 0 -->
      <g transform="translate(70.651477 322.182437)scale(0.1 -0.1)">
       <defs>
        <path id="DejaVuSans-30" d="M 2034 4250 
Q 1547 4250 1301 3770 
Q 1056 3291 1056 2328 
Q 1056 1369 1301 889 
Q 1547 409 2034 409 
Q 2525 409 2770 889 
Q 3016 1369 3016 2328 
Q 3016 3291 2770 3770 
Q 2525 4250 2034 4250 
z
M 2034 4750 
Q 2819 4750 3233 4129 
Q 3647 3509 3647 2328 
Q 3647 1150 3233 529 
Q 2819 -91 2034 -91 
Q 1250 -91 836 529 
Q 422 1150 422 2328 
Q 422 3509 836 4129 
Q 1250 4750 2034 4750 
z
" transform="scale(0.015625)"/>
       </defs>
       <use xlink:href="#DejaVuSans-30"/>
      </g>
     </g>
    </g>
    <g id="xtick_2">
     <g id="line2d_3">
      <path d="M 119.049238 307.584 
L 119.049238 41.472 
" clip-path="url(#pa344b3d14d)" style="fill: none; stroke-dasharray: 3.2,0.8,0.5,0.8; stroke-dashoffset: 0; stroke: #a9a9a9; stroke-width: 0.5"/>
     </g>
     <g id="line2d_4">
      <g>
       <use xlink:href="#m4a8dd39395" x="119.049238" y="307.584" style="stroke: #000000; stroke-width: 0.8"/>
      </g>
     </g>
     <g id="text_2">
      <!-- 50 -->
      <g transform="translate(112.686738 322.182437)scale(0.1 -0.1)">
       <defs>
        <path id="DejaVuSans-35" d="M 691 4666 
L 3169 4666 
L 3169 4134 
L 1269 4134 
L 1269 2991 
Q 1406 3038 1543 3061 
Q 1681 3084 1819 3084 
Q 2600 3084 3056 2656 
Q 3513 2228 3513 1497 
Q 3513 744 3044 326 
Q 2575 -91 1722 -91 
Q 1428 -91 1123 -41 
Q 819 9 494 109 
L 494 744 
Q 775 591 1075 516 
Q 1375 441 1709 441 
Q 2250 441 2565 725 
Q 2881 1009 2881 1497 
Q 2881 1984 2565 2268 
Q 2250 2553 1709 2553 
Q 1456 2553 1204 2497 
Q 953 2441 691 2322 
L 691 4666 
z
" transform="scale(0.015625)"/>
       </defs>
       <use xlink:href="#DejaVuSans-35"/>
       <use xlink:href="#DejaVuSans-30" x="63.623047"/>
      </g>
     </g>
    </g>
    <g id="xtick_3">
     <g id="line2d_5">
      <path d="M 164.265748 307.584 
L 164.265748 41.472 
" clip-path="url(#pa344b3d14d)" style="fill: none; stroke-dasharray: 3.2,0.8,0.5,0.8; stroke-dashoffset: 0; stroke: #a9a9a9; stroke-width: 0.5"/>
     </g>
     <g id="line2d_6">
      <g>
       <use xlink:href="#m4a8dd39395" x="164.265748" y="307.584" style="stroke: #000000; stroke-width: 0.8"/>
      </g>
     </g>
     <g id="text_3">
      <!-- 100 -->
      <g transform="translate(154.721998 322.182437)scale(0.1 -0.1)">
       <defs>
        <path id="DejaVuSans-31" d="M 794 531 
L 1825 531 
L 1825 4091 
L 703 3866 
L 703 4441 
L 1819 4666 
L 2450 4666 
L 2450 531 
L 3481 531 
L 3481 0 
L 794 0 
L 794 531 
z
" transform="scale(0.015625)"/>
       </defs>
       <use xlink:href="#DejaVuSans-31"/>
       <use xlink:href="#DejaVuSans-30" x="63.623047"/>
       <use xlink:href="#DejaVuSans-30" x="127.246094"/>
      </g>
     </g>
    </g>
    <g id="xtick_4">
     <g id="line2d_7">
      <path d="M 209.482259 307.584 
L 209.482259 41.472 
" clip-path="url(#pa344b3d14d)" style="fill: none; stroke-dasharray: 3.2,0.8,0.5,0.8; stroke-dashoffset: 0; stroke: #a9a9a9; stroke-width: 0.5"/>
     </g>
     <g id="line2d_8">
      <g>
       <use xlink:href="#m4a8dd39395" x="209.482259" y="307.584" style="stroke: #000000; stroke-width: 0.8"/>
      </g>
     </g>
     <g id="text_4">
      <!-- 150 -->
      <g transform="translate(199.938509 322.182437)scale(0.1 -0.1)">
       <use xlink:href="#DejaVuSans-31"/>
       <use xlink:href="#DejaVuSans-35" x="63.623047"/>
       <use xlink:href="#DejaVuSans-30" x="127.246094"/>
      </g>
     </g>
    </g>
    <g id="xtick_5">
     <g id="line2d_9">
      <path d="M 254.698769 307.584 
L 254.698769 41.472 
" clip-path="url(#pa344b3d14d)" style="fill: none; stroke-dasharray: 3.2,0.8,0.5,0.8; stroke-dashoffset: 0; stroke: #a9a9a9; stroke-width: 0.5"/>
     </g>
     <g id="line2d_10">
      <g>
       <use xlink:href="#m4a8dd39395" x="254.698769" y="307.584" style="stroke: #000000; stroke-width: 0.8"/>
      </g>
     </g>
     <g id="text_5">
      <!-- 200 -->
      <g transform="translate(245.155019 322.182437)scale(0.1 -0.1)">
       <defs>
        <path id="DejaVuSans-32" d="M 1228 531 
L 3431 531 
L 3431 0 
L 469 0 
L 469 531 
Q 828 903 1448 1529 
Q 2069 2156 2228 2338 
Q 2531 2678 2651 2914 
Q 2772 3150 2772 3378 
Q 2772 3750 2511 3984 
Q 2250 4219 1831 4219 
Q 1534 4219 1204 4116 
Q 875 4013 500 3803 
L 500 4441 
Q 881 4594 1212 4672 
Q 1544 4750 1819 4750 
Q 2544 4750 2975 4387 
Q 3406 4025 3406 3419 
Q 3406 3131 3298 2873 
Q 3191 2616 2906 2266 
Q 2828 2175 2409 1742 
Q 1991 1309 1228 531 
z
" transform="scale(0.015625)"/>
       </defs>
       <use xlink:href="#DejaVuSans-32"/>
       <use xlink:href="#DejaVuSans-30" x="63.623047"/>
       <use xlink:href="#DejaVuSans-30" x="127.246094"/>
      </g>
     </g>
    </g>
    <g id="xtick_6">
     <g id="line2d_11">
      <path d="M 299.91528 307.584 
L 299.91528 41.472 
" clip-path="url(#pa344b3d14d)" style="fill: none; stroke-dasharray: 3.2,0.8,0.5,0.8; stroke-dashoffset: 0; stroke: #a9a9a9; stroke-width: 0.5"/>
     </g>
     <g id="line2d_12">
      <g>
       <use xlink:href="#m4a8dd39395" x="299.91528" y="307.584" style="stroke: #000000; stroke-width: 0.8"/>
      </g>
     </g>
     <g id="text_6">
      <!-- 250 -->
      <g transform="translate(290.37153 322.182437)scale(0.1 -0.1)">
       <use xlink:href="#DejaVuSans-32"/>
       <use xlink:href="#DejaVuSans-35" x="63.623047"/>
       <use xlink:href="#DejaVuSans-30" x="127.246094"/>
      </g>
     </g>
    </g>
    <g id="xtick_7">
     <g id="line2d_13">
      <path d="M 345.13179 307.584 
L 345.13179 41.472 
" clip-path="url(#pa344b3d14d)" style="fill: none; stroke-dasharray: 3.2,0.8,0.5,0.8; stroke-dashoffset: 0; stroke: #a9a9a9; stroke-width: 0.5"/>
     </g>
     <g id="line2d_14">
      <g>
       <use xlink:href="#m4a8dd39395" x="345.13179" y="307.584" style="stroke: #000000; stroke-width: 0.8"/>
      </g>
     </g>
     <g id="text_7">
      <!-- 300 -->
      <g transform="translate(335.58804 322.182437)scale(0.1 -0.1)">
       <defs>
        <path id="DejaVuSans-33" d="M 2597 2516 
Q 3050 2419 3304 2112 
Q 3559 1806 3559 1356 
Q 3559 666 3084 287 
Q 2609 -91 1734 -91 
Q 1441 -91 1130 -33 
Q 819 25 488 141 
L 488 750 
Q 750 597 1062 519 
Q 1375 441 1716 441 
Q 2309 441 2620 675 
Q 2931 909 2931 1356 
Q 2931 1769 2642 2001 
Q 2353 2234 1838 2234 
L 1294 2234 
L 1294 2753 
L 1863 2753 
Q 2328 2753 2575 2939 
Q 2822 3125 2822 3475 
Q 2822 3834 2567 4026 
Q 2313 4219 1838 4219 
Q 1578 4219 1281 4162 
Q 984 4106 628 3988 
L 628 4550 
Q 988 4650 1302 4700 
Q 1616 4750 1894 4750 
Q 2613 4750 3031 4423 
Q 3450 4097 3450 3541 
Q 3450 3153 3228 2886 
Q 3006 2619 2597 2516 
z
" transform="scale(0.015625)"/>
       </defs>
       <use xlink:href="#DejaVuSans-33"/>
       <use xlink:href="#DejaVuSans-30" x="63.623047"/>
       <use xlink:href="#DejaVuSans-30" x="127.246094"/>
      </g>
     </g>
    </g>
    <g id="xtick_8">
     <g id="line2d_15">
      <path d="M 390.348301 307.584 
L 390.348301 41.472 
" clip-path="url(#pa344b3d14d)" style="fill: none; stroke-dasharray: 3.2,0.8,0.5,0.8; stroke-dashoffset: 0; stroke: #a9a9a9; stroke-width: 0.5"/>
     </g>
     <g id="line2d_16">
      <g>
       <use xlink:href="#m4a8dd39395" x="390.348301" y="307.584" style="stroke: #000000; stroke-width: 0.8"/>
      </g>
     </g>
     <g id="text_8">
      <!-- 350 -->
      <g transform="translate(380.804551 322.182437)scale(0.1 -0.1)">
       <use xlink:href="#DejaVuSans-33"/>
       <use xlink:href="#DejaVuSans-35" x="63.623047"/>
       <use xlink:href="#DejaVuSans-30" x="127.246094"/>
      </g>
     </g>
    </g>
    <g id="text_9">
     <!-- $\alpha$ [deg] -->
     <g transform="translate(217.91 335.862125)scale(0.1 -0.1)">
      <defs>
       <path id="DejaVuSans-Oblique-3b1" d="M 2619 1628 
L 2622 2350 
Q 2625 3088 2069 3091 
Q 1653 3094 1394 2747 
Q 1069 2319 959 1747 
Q 825 1059 994 731 
Q 1169 397 1547 397 
Q 1966 397 2319 1063 
L 2619 1628 
z
M 2166 3578 
Q 3141 3594 3128 2584 
Q 3128 2584 3616 3500 
L 4128 3500 
L 3119 1603 
L 3109 919 
Q 3109 766 3194 638 
Q 3291 488 3391 488 
L 3669 488 
L 3575 0 
L 3228 0 
Q 2934 0 2722 263 
Q 2622 394 2619 669 
Q 2416 334 2066 50 
Q 1900 -81 1453 -78 
Q 722 -72 456 397 
Q 184 884 353 1747 
Q 534 2675 1009 3097 
Q 1544 3569 2166 3578 
z
" transform="scale(0.015625)"/>
       <path id="DejaVuSans-20" transform="scale(0.015625)"/>
       <path id="DejaVuSans-5b" d="M 550 4863 
L 1875 4863 
L 1875 4416 
L 1125 4416 
L 1125 -397 
L 1875 -397 
L 1875 -844 
L 550 -844 
L 550 4863 
z
" transform="scale(0.015625)"/>
       <path id="DejaVuSans-64" d="M 2906 2969 
L 2906 4863 
L 3481 4863 
L 3481 0 
L 2906 0 
L 2906 525 
Q 2725 213 2448 61 
Q 2172 -91 1784 -91 
Q 1150 -91 751 415 
Q 353 922 353 1747 
Q 353 2572 751 3078 
Q 1150 3584 1784 3584 
Q 2172 3584 2448 3432 
Q 2725 3281 2906 2969 
z
M 947 1747 
Q 947 1113 1208 752 
Q 1469 391 1925 391 
Q 2381 391 2643 752 
Q 2906 1113 2906 1747 
Q 2906 2381 2643 2742 
Q 2381 3103 1925 3103 
Q 1469 3103 1208 2742 
Q 947 2381 947 1747 
z
" transform="scale(0.015625)"/>
       <path id="DejaVuSans-65" d="M 3597 1894 
L 3597 1613 
L 953 1613 
Q 991 1019 1311 708 
Q 1631 397 2203 397 
Q 2534 397 2845 478 
Q 3156 559 3463 722 
L 3463 178 
Q 3153 47 2828 -22 
Q 2503 -91 2169 -91 
Q 1331 -91 842 396 
Q 353 884 353 1716 
Q 353 2575 817 3079 
Q 1281 3584 2069 3584 
Q 2775 3584 3186 3129 
Q 3597 2675 3597 1894 
z
M 3022 2063 
Q 3016 2534 2758 2815 
Q 2500 3097 2075 3097 
Q 1594 3097 1305 2825 
Q 1016 2553 972 2059 
L 3022 2063 
z
" transform="scale(0.015625)"/>
       <path id="DejaVuSans-67" d="M 2906 1791 
Q 2906 2416 2648 2759 
Q 2391 3103 1925 3103 
Q 1463 3103 1205 2759 
Q 947 2416 947 1791 
Q 947 1169 1205 825 
Q 1463 481 1925 481 
Q 2391 481 2648 825 
Q 2906 1169 2906 1791 
z
M 3481 434 
Q 3481 -459 3084 -895 
Q 2688 -1331 1869 -1331 
Q 1566 -1331 1297 -1286 
Q 1028 -1241 775 -1147 
L 775 -588 
Q 1028 -725 1275 -790 
Q 1522 -856 1778 -856 
Q 2344 -856 2625 -561 
Q 2906 -266 2906 331 
L 2906 616 
Q 2728 306 2450 153 
Q 2172 0 1784 0 
Q 1141 0 747 490 
Q 353 981 353 1791 
Q 353 2603 747 3093 
Q 1141 3584 1784 3584 
Q 2172 3584 2450 3431 
Q 2728 3278 2906 2969 
L 2906 3500 
L 3481 3500 
L 3481 434 
z
" transform="scale(0.015625)"/>
       <path id="DejaVuSans-5d" d="M 1947 4863 
L 1947 -844 
L 622 -844 
L 622 -397 
L 1369 -397 
L 1369 4416 
L 622 4416 
L 622 4863 
L 1947 4863 
z
" transform="scale(0.015625)"/>
      </defs>
      <use xlink:href="#DejaVuSans-Oblique-3b1" transform="translate(0 0.015625)"/>
      <use xlink:href="#DejaVuSans-20" transform="translate(65.917969 0.015625)"/>
      <use xlink:href="#DejaVuSans-5b" transform="translate(97.705078 0.015625)"/>
      <use xlink:href="#DejaVuSans-64" transform="translate(136.71875 0.015625)"/>
      <use xlink:href="#DejaVuSans-65" transform="translate(200.195312 0.015625)"/>
      <use xlink:href="#DejaVuSans-67" transform="translate(261.71875 0.015625)"/>
      <use xlink:href="#DejaVuSans-5d" transform="translate(325.195312 0.015625)"/>
     </g>
    </g>
   </g>
   <g id="matplotlib.axis_2">
    <g id="ytick_1">
     <g id="line2d_17">
      <path d="M 57.6 280.9728 
L 414.72 280.9728 
" clip-path="url(#pa344b3d14d)" style="fill: none; stroke-dasharray: 3.2,0.8,0.5,0.8; stroke-dashoffset: 0; stroke: #a9a9a9; stroke-width: 0.5"/>
     </g>
     <g id="line2d_18">
      <defs>
       <path id="me24ccaf8b6" d="M 0 0 
L -3.5 0 
" style="stroke: #000000; stroke-width: 0.8"/>
      </defs>
      <g>
       <use xlink:href="#me24ccaf8b6" x="57.6" y="280.9728" style="stroke: #000000; stroke-width: 0.8"/>
      </g>
     </g>
     <g id="text_10">
      <!-- −0.6 -->
      <g transform="translate(26.317187 284.772019)scale(0.1 -0.1)">
       <defs>
        <path id="DejaVuSans-2212" d="M 678 2272 
L 4684 2272 
L 4684 1741 
L 678 1741 
L 678 2272 
z
" transform="scale(0.015625)"/>
        <path id="DejaVuSans-2e" d="M 684 794 
L 1344 794 
L 1344 0 
L 684 0 
L 684 794 
z
" transform="scale(0.015625)"/>
        <path id="DejaVuSans-36" d="M 2113 2584 
Q 1688 2584 1439 2293 
Q 1191 2003 1191 1497 
Q 1191 994 1439 701 
Q 1688 409 2113 409 
Q 2538 409 2786 701 
Q 3034 994 3034 1497 
Q 3034 2003 2786 2293 
Q 2538 2584 2113 2584 
z
M 3366 4563 
L 3366 3988 
Q 3128 4100 2886 4159 
Q 2644 4219 2406 4219 
Q 1781 4219 1451 3797 
Q 1122 3375 1075 2522 
Q 1259 2794 1537 2939 
Q 1816 3084 2150 3084 
Q 2853 3084 3261 2657 
Q 3669 2231 3669 1497 
Q 3669 778 3244 343 
Q 2819 -91 2113 -91 
Q 1303 -91 875 529 
Q 447 1150 447 2328 
Q 447 3434 972 4092 
Q 1497 4750 2381 4750 
Q 2619 4750 2861 4703 
Q 3103 4656 3366 4563 
z
" transform="scale(0.015625)"/>
       </defs>
       <use xlink:href="#DejaVuSans-2212"/>
       <use xlink:href="#DejaVuSans-30" x="83.789062"/>
       <use xlink:href="#DejaVuSans-2e" x="147.412109"/>
       <use xlink:href="#DejaVuSans-36" x="179.199219"/>
      </g>
     </g>
    </g>
    <g id="ytick_2">
     <g id="line2d_19">
      <path d="M 57.6 245.4912 
L 414.72 245.4912 
" clip-path="url(#pa344b3d14d)" style="fill: none; stroke-dasharray: 3.2,0.8,0.5,0.8; stroke-dashoffset: 0; stroke: #a9a9a9; stroke-width: 0.5"/>
     </g>
     <g id="line2d_20">
      <g>
       <use xlink:href="#me24ccaf8b6" x="57.6" y="245.4912" style="stroke: #000000; stroke-width: 0.8"/>
      </g>
     </g>
     <g id="text_11">
      <!-- −0.4 -->
      <g transform="translate(26.317187 249.290419)scale(0.1 -0.1)">
       <defs>
        <path id="DejaVuSans-34" d="M 2419 4116 
L 825 1625 
L 2419 1625 
L 2419 4116 
z
M 2253 4666 
L 3047 4666 
L 3047 1625 
L 3713 1625 
L 3713 1100 
L 3047 1100 
L 3047 0 
L 2419 0 
L 2419 1100 
L 313 1100 
L 313 1709 
L 2253 4666 
z
" transform="scale(0.015625)"/>
       </defs>
       <use xlink:href="#DejaVuSans-2212"/>
       <use xlink:href="#DejaVuSans-30" x="83.789062"/>
       <use xlink:href="#DejaVuSans-2e" x="147.412109"/>
       <use xlink:href="#DejaVuSans-34" x="179.199219"/>
      </g>
     </g>
    </g>
    <g id="ytick_3">
     <g id="line2d_21">
      <path d="M 57.6 210.0096 
L 414.72 210.0096 
" clip-path="url(#pa344b3d14d)" style="fill: none; stroke-dasharray: 3.2,0.8,0.5,0.8; stroke-dashoffset: 0; stroke: #a9a9a9; stroke-width: 0.5"/>
     </g>
     <g id="line2d_22">
      <g>
       <use xlink:href="#me24ccaf8b6" x="57.6" y="210.0096" style="stroke: #000000; stroke-width: 0.8"/>
      </g>
     </g>
     <g id="text_12">
      <!-- −0.2 -->
      <g transform="translate(26.317187 213.808819)scale(0.1 -0.1)">
       <use xlink:href="#DejaVuSans-2212"/>
       <use xlink:href="#DejaVuSans-30" x="83.789062"/>
       <use xlink:href="#DejaVuSans-2e" x="147.412109"/>
       <use xlink:href="#DejaVuSans-32" x="179.199219"/>
      </g>
     </g>
    </g>
    <g id="ytick_4">
     <g id="line2d_23">
      <path d="M 57.6 174.528 
L 414.72 174.528 
" clip-path="url(#pa344b3d14d)" style="fill: none; stroke-dasharray: 3.2,0.8,0.5,0.8; stroke-dashoffset: 0; stroke: #a9a9a9; stroke-width: 0.5"/>
     </g>
     <g id="line2d_24">
      <g>
       <use xlink:href="#me24ccaf8b6" x="57.6" y="174.528" style="stroke: #000000; stroke-width: 0.8"/>
      </g>
     </g>
     <g id="text_13">
      <!-- 0.0 -->
      <g transform="translate(34.696875 178.327219)scale(0.1 -0.1)">
       <use xlink:href="#DejaVuSans-30"/>
       <use xlink:href="#DejaVuSans-2e" x="63.623047"/>
       <use xlink:href="#DejaVuSans-30" x="95.410156"/>
      </g>
     </g>
    </g>
    <g id="ytick_5">
     <g id="line2d_25">
      <path d="M 57.6 139.0464 
L 414.72 139.0464 
" clip-path="url(#pa344b3d14d)" style="fill: none; stroke-dasharray: 3.2,0.8,0.5,0.8; stroke-dashoffset: 0; stroke: #a9a9a9; stroke-width: 0.5"/>
     </g>
     <g id="line2d_26">
      <g>
       <use xlink:href="#me24ccaf8b6" x="57.6" y="139.0464" style="stroke: #000000; stroke-width: 0.8"/>
      </g>
     </g>
     <g id="text_14">
      <!-- 0.2 -->
      <g transform="translate(34.696875 142.845619)scale(0.1 -0.1)">
       <use xlink:href="#DejaVuSans-30"/>
       <use xlink:href="#DejaVuSans-2e" x="63.623047"/>
       <use xlink:href="#DejaVuSans-32" x="95.410156"/>
      </g>
     </g>
    </g>
    <g id="ytick_6">
     <g id="line2d_27">
      <path d="M 57.6 103.5648 
L 414.72 103.5648 
" clip-path="url(#pa344b3d14d)" style="fill: none; stroke-dasharray: 3.2,0.8,0.5,0.8; stroke-dashoffset: 0; stroke: #a9a9a9; stroke-width: 0.5"/>
     </g>
     <g id="line2d_28">
      <g>
       <use xlink:href="#me24ccaf8b6" x="57.6" y="103.5648" style="stroke: #000000; stroke-width: 0.8"/>
      </g>
     </g>
     <g id="text_15">
      <!-- 0.4 -->
      <g transform="translate(34.696875 107.364019)scale(0.1 -0.1)">
       <use xlink:href="#DejaVuSans-30"/>
       <use xlink:href="#DejaVuSans-2e" x="63.623047"/>
       <use xlink:href="#DejaVuSans-34" x="95.410156"/>
      </g>
     </g>
    </g>
    <g id="ytick_7">
     <g id="line2d_29">
      <path d="M 57.6 68.0832 
L 414.72 68.0832 
" clip-path="url(#pa344b3d14d)" style="fill: none; stroke-dasharray: 3.2,0.8,0.5,0.8; stroke-dashoffset: 0; stroke: #a9a9a9; stroke-width: 0.5"/>
     </g>
     <g id="line2d_30">
      <g>
       <use xlink:href="#me24ccaf8b6" x="57.6" y="68.0832" style="stroke: #000000; stroke-width: 0.8"/>
      </g>
     </g>
     <g id="text_16">
      <!-- 0.6 -->
      <g transform="translate(34.696875 71.882419)scale(0.1 -0.1)">
       <use xlink:href="#DejaVuSans-30"/>
       <use xlink:href="#DejaVuSans-2e" x="63.623047"/>
       <use xlink:href="#DejaVuSans-36" x="95.410156"/>
      </g>
     </g>
    </g>
    <g id="text_17">
     <!-- $B$ [T] -->
     <g transform="translate(20.2375 186.528)rotate(-90)scale(0.1 -0.1)">
      <defs>
       <path id="DejaVuSans-Oblique-42" d="M 1081 4666 
L 2694 4666 
Q 3350 4666 3675 4422 
Q 4000 4178 4000 3688 
Q 4000 3238 3720 2911 
Q 3441 2584 2988 2516 
Q 3375 2428 3569 2181 
Q 3763 1934 3763 1522 
Q 3763 819 3242 409 
Q 2722 0 1819 0 
L 172 0 
L 1081 4666 
z
M 1234 2228 
L 903 519 
L 1919 519 
Q 2491 519 2800 781 
Q 3109 1044 3109 1522 
Q 3109 1891 2904 2059 
Q 2700 2228 2247 2228 
L 1234 2228 
z
M 1606 4147 
L 1331 2741 
L 2272 2741 
Q 2775 2741 3058 2959 
Q 3341 3178 3341 3566 
Q 3341 3869 3150 4008 
Q 2959 4147 2541 4147 
L 1606 4147 
z
" transform="scale(0.015625)"/>
       <path id="DejaVuSans-54" d="M -19 4666 
L 3928 4666 
L 3928 4134 
L 2272 4134 
L 2272 0 
L 1638 0 
L 1638 4134 
L -19 4134 
L -19 4666 
z
" transform="scale(0.015625)"/>
      </defs>
      <use xlink:href="#DejaVuSans-Oblique-42" transform="translate(0 0.015625)"/>
      <use xlink:href="#DejaVuSans-20" transform="translate(68.603516 0.015625)"/>
      <use xlink:href="#DejaVuSans-5b" transform="translate(100.390625 0.015625)"/>
      <use xlink:href="#DejaVuSans-54" transform="translate(139.404297 0.015625)"/>
      <use xlink:href="#DejaVuSans-5d" transform="translate(200.488281 0.015625)"/>
     </g>
    </g>
   </g>
   <g id="line2d_31">
    <path d="M 73.832727 173.974897 
L 74.737057 174.079645 
L 75.641388 174.910504 
L 76.545718 175.088589 
L 77.450048 174.345072 
L 78.354378 173.922361 
L 80.163039 175.111303 
L 81.067369 174.747812 
L 81.971699 174.028926 
L 82.876029 174.143818 
L 83.78036 174.891512 
L 84.68469 175.030707 
L 85.58902 174.336706 
L 86.49335 173.963269 
L 88.302011 175.092731 
L 89.206341 174.719294 
L 90.110671 174.025293 
L 91.015001 174.164488 
L 91.919331 174.912182 
L 92.823662 175.027074 
L 93.727992 174.308188 
L 94.632322 173.944697 
L 96.440983 175.133639 
L 97.345313 174.710928 
L 98.249643 173.967411 
L 99.153973 174.145496 
L 100.058303 174.976355 
L 100.962634 175.081103 
L 101.866964 174.252905 
L 102.771294 173.853289 
L 104.579954 175.257777 
L 105.484285 174.729079 
L 106.388615 173.823423 
L 107.292945 174.063412 
L 108.197275 175.118358 
L 109.101605 175.240069 
L 110.005936 174.143818 
L 110.910266 173.612686 
L 112.718926 175.572478 
L 113.623257 174.812226 
L 114.527587 173.459486 
L 115.431917 173.807075 
L 116.336247 175.48244 
L 117.240577 175.72757 
L 118.144908 173.864068 
L 119.049238 172.833193 
L 120.857898 176.706442 
L 121.762228 175.234668 
L 122.666559 171.906941 
L 123.570889 172.394584 
L 124.475219 177.521769 
L 125.379549 179.581323 
L 126.283879 171.258015 
L 127.18821 156.717424 
L 127.241681 346.6 
M 128.943304 346.6 
L 128.99687 156.358318 
L 129.9012 171.079939 
L 130.805531 179.864981 
L 131.709861 177.850465 
L 132.614191 172.253427 
L 133.518521 171.48044 
L 134.422851 175.182599 
L 135.327182 177.156627 
L 137.135842 172.449011 
L 138.040172 173.372891 
L 138.944502 175.947547 
L 139.848833 176.15611 
L 140.753163 173.850133 
L 141.657493 172.67728 
L 143.466153 176.347404 
L 144.370484 175.44484 
L 145.274814 173.009379 
L 146.179144 172.833193 
L 147.083474 175.442916 
L 147.987805 176.936814 
L 148.892135 174.599296 
L 149.796465 171.505088 
L 150.700795 172.859066 
L 151.605125 178.033393 
L 152.509456 179.304392 
L 153.413786 170.697435 
L 154.318116 156.806673 
L 154.371554 346.6 
M 156.073242 346.6 
L 156.126776 156.442329 
L 157.031107 170.583304 
L 157.935437 179.634142 
L 158.839767 178.251546 
L 159.744097 172.595663 
L 160.648427 171.202365 
L 161.552758 174.77008 
L 162.457088 177.296799 
L 163.361418 175.383287 
L 164.265748 172.449011 
L 165.170079 172.948753 
L 166.074409 175.816977 
L 166.978739 176.526919 
L 167.883069 174.091301 
L 168.787399 172.390973 
L 169.69173 174.091301 
L 170.59606 176.526919 
L 171.50039 175.816977 
L 172.40472 172.948753 
L 173.30905 172.449011 
L 174.213381 175.383287 
L 175.117711 177.296799 
L 176.022041 174.77008 
L 176.926371 171.202365 
L 177.830701 172.595663 
L 178.735032 178.251546 
L 179.639362 179.634142 
L 180.543692 170.583304 
L 181.448022 156.442329 
L 181.501557 346.6 
M 183.203244 346.6 
L 183.256683 156.806673 
L 184.161013 170.697435 
L 185.065343 179.304392 
L 185.969673 178.033393 
L 186.874004 172.859066 
L 187.778334 171.505088 
L 188.682664 174.599296 
L 189.586994 176.936814 
L 190.491324 175.442916 
L 191.395655 172.833193 
L 192.299985 173.009379 
L 193.204315 175.44484 
L 194.108645 176.347404 
L 195.917306 172.67728 
L 196.821636 173.850133 
L 197.725966 176.15611 
L 198.630296 175.947547 
L 199.534626 173.372891 
L 200.438957 172.449011 
L 202.247617 177.156627 
L 203.151947 175.182599 
L 204.056278 171.48044 
L 204.960608 172.253427 
L 205.864938 177.850465 
L 206.769268 179.864981 
L 207.673598 171.079939 
L 208.577929 156.358318 
L 208.631495 346.6 
M 210.333118 346.6 
L 210.386589 156.717424 
L 211.290919 171.258015 
L 212.195249 179.581323 
L 213.09958 177.521769 
L 214.00391 172.394584 
L 214.90824 171.906941 
L 215.81257 175.234668 
L 216.7169 176.706442 
L 218.525561 172.833193 
L 219.429891 173.864068 
L 220.334221 175.72757 
L 221.238552 175.48244 
L 222.142882 173.807075 
L 223.047212 173.459486 
L 223.951542 174.812226 
L 224.855872 175.572478 
L 226.664533 173.612686 
L 227.568863 174.143818 
L 228.473193 175.240069 
L 229.377523 175.118358 
L 230.281854 174.063412 
L 231.186184 173.823423 
L 232.090514 174.729079 
L 232.994844 175.257777 
L 234.803505 173.853289 
L 235.707835 174.252905 
L 236.612165 175.081103 
L 237.516495 174.976355 
L 238.420826 174.145496 
L 239.325156 173.967411 
L 240.229486 174.710928 
L 241.133816 175.133639 
L 242.942477 173.944697 
L 243.846807 174.308188 
L 244.751137 175.027074 
L 245.655467 174.912182 
L 246.559797 174.164488 
L 247.464128 174.025293 
L 248.368458 174.719294 
L 249.272788 175.092731 
L 251.081448 173.963269 
L 251.985779 174.336706 
L 252.890109 175.030707 
L 253.794439 174.891512 
L 254.698769 174.143818 
L 255.6031 174.028926 
L 256.50743 174.747812 
L 257.41176 175.111303 
L 259.22042 173.922361 
L 260.124751 174.345072 
L 261.029081 175.088589 
L 261.933411 174.910504 
L 262.837741 174.079645 
L 263.742071 173.974897 
L 264.646402 174.803095 
L 265.550732 175.202711 
L 267.359392 173.798223 
L 268.263722 174.326921 
L 269.168053 175.232577 
L 270.072383 174.992588 
L 270.976713 173.937642 
L 271.881043 173.815931 
L 272.785374 174.912182 
L 273.689704 175.443314 
L 275.498364 173.483522 
L 276.402694 174.243774 
L 277.307025 175.596514 
L 278.211355 175.248925 
L 279.115685 173.57356 
L 280.020015 173.32843 
L 280.924345 175.191932 
L 281.828676 176.222807 
L 283.637336 172.349558 
L 284.541666 173.821332 
L 285.445996 177.149059 
L 286.350327 176.661416 
L 287.254657 171.534231 
L 288.158987 169.474677 
L 289.063317 177.797985 
L 289.967648 192.338576 
L 290.022092 -1 
M 291.721769 -1 
L 291.776308 192.697682 
L 292.680638 177.976061 
L 293.584968 169.191019 
L 294.489299 171.205535 
L 295.393629 176.802573 
L 296.297959 177.57556 
L 297.202289 173.873401 
L 298.106619 171.899373 
L 299.91528 176.606989 
L 300.81961 175.683109 
L 301.72394 173.108453 
L 302.62827 172.89989 
L 303.532601 175.205867 
L 304.436931 176.37872 
L 306.245591 172.708596 
L 307.149921 173.61116 
L 308.054252 176.046621 
L 308.958582 176.222807 
L 309.862912 173.613084 
L 310.767242 172.119186 
L 311.671573 174.456704 
L 312.575903 177.550912 
L 313.480233 176.196934 
L 314.384563 171.022607 
L 315.288893 169.751608 
L 316.193224 178.358565 
L 317.097554 192.249327 
L 317.151965 -1 
M 318.851706 -1 
L 318.906214 192.613671 
L 319.810544 178.472696 
L 320.714875 169.421858 
L 321.619205 170.804454 
L 322.523535 176.460337 
L 323.427865 177.853635 
L 324.332195 174.28592 
L 325.236526 171.759201 
L 326.140856 173.672713 
L 327.045186 176.606989 
L 327.949516 176.107247 
L 328.853847 173.239023 
L 329.758177 172.529081 
L 330.662507 174.964699 
L 331.566837 176.665027 
L 332.471167 174.964699 
L 333.375498 172.529081 
L 334.279828 173.239023 
L 335.184158 176.107247 
L 336.088488 176.606989 
L 336.992818 173.672713 
L 337.897149 171.759201 
L 338.801479 174.28592 
L 339.705809 177.853635 
L 340.610139 176.460337 
L 341.514469 170.804454 
L 342.4188 169.421858 
L 343.32313 178.472696 
L 344.22746 192.613671 
L 344.281968 -1 
M 345.981709 -1 
L 346.036121 192.249327 
L 346.940451 178.358565 
L 347.844781 169.751608 
L 348.749111 171.022607 
L 349.653441 176.196934 
L 350.557772 177.550912 
L 351.462102 174.456704 
L 352.366432 172.119186 
L 353.270762 173.613084 
L 354.175092 176.222807 
L 355.079423 176.046621 
L 355.983753 173.61116 
L 356.888083 172.708596 
L 358.696743 176.37872 
L 359.601074 175.205867 
L 360.505404 172.89989 
L 361.409734 173.108453 
L 362.314064 175.683109 
L 363.218395 176.606989 
L 365.027055 171.899373 
L 365.931385 173.873401 
L 366.835715 177.57556 
L 367.740046 176.802573 
L 368.644376 171.205535 
L 369.548706 169.191019 
L 370.453036 177.976061 
L 371.357366 192.697682 
L 371.411906 -1 
M 373.111583 -1 
L 373.166027 192.338576 
L 374.070357 177.797985 
L 374.974687 169.474677 
L 375.879017 171.534231 
L 376.783348 176.661416 
L 377.687678 177.149059 
L 378.592008 173.821332 
L 379.496338 172.349558 
L 381.304999 176.222807 
L 382.209329 175.191932 
L 383.113659 173.32843 
L 384.017989 173.57356 
L 384.92232 175.248925 
L 385.82665 175.596514 
L 386.73098 174.243774 
L 387.63531 173.483522 
L 389.443971 175.443314 
L 390.348301 174.912182 
L 391.252631 173.815931 
L 392.156961 173.937642 
L 393.061291 174.992588 
L 393.965622 175.232577 
L 394.869952 174.326921 
L 395.774282 173.798223 
L 397.582943 175.202711 
L 398.487273 174.803095 
L 398.487273 174.803095 
" clip-path="url(#pa344b3d14d)" style="fill: none; stroke: #ff7f0e; stroke-width: 1.5; stroke-linecap: square"/>
   </g>
   <g id="line2d_32">
    <path d="M 73.832727 75.214614 
L 96.440983 75.212276 
L 122.666559 75.222103 
L 126.283879 75.024285 
L 127.18821 71.317787 
L 128.99687 128.765775 
L 129.9012 125.057233 
L 130.805531 124.878192 
L 136.231512 124.882642 
L 147.987805 124.871476 
L 152.509456 124.864096 
L 153.413786 124.680839 
L 154.318116 120.972422 
L 156.126776 178.426256 
L 157.031107 174.715652 
L 157.935437 174.533369 
L 163.361418 174.540692 
L 180.543692 174.340348 
L 181.448022 170.629744 
L 183.256683 228.083578 
L 184.161013 224.375161 
L 185.065343 224.191904 
L 191.395655 224.191364 
L 198.630296 224.192523 
L 206.769268 224.177808 
L 207.673598 223.998767 
L 208.577929 220.290225 
L 210.386589 277.738213 
L 211.290919 274.031715 
L 212.195249 273.852387 
L 218.525561 273.844607 
L 228.473193 273.840803 
L 246.559797 273.845626 
L 272.785374 273.838857 
L 289.063317 274.031715 
L 289.967648 277.738213 
L 291.776308 220.290225 
L 292.680638 223.998767 
L 293.584968 224.177808 
L 299.01095 224.173358 
L 310.767242 224.184524 
L 315.288893 224.191904 
L 316.193224 224.375161 
L 317.097554 228.083578 
L 318.906214 170.629744 
L 319.810544 174.340348 
L 320.714875 174.522631 
L 326.140856 174.515308 
L 343.32313 174.715652 
L 344.22746 178.426256 
L 346.036121 120.972422 
L 346.940451 124.680839 
L 347.844781 124.864096 
L 354.175092 124.864636 
L 361.409734 124.863477 
L 369.548706 124.878192 
L 370.453036 125.057233 
L 371.357366 128.765775 
L 373.166027 71.317787 
L 374.070357 75.024285 
L 374.974687 75.203613 
L 381.304999 75.211393 
L 391.252631 75.215197 
L 398.487273 75.216042 
L 398.487273 75.216042 
" clip-path="url(#pa344b3d14d)" style="fill: none; stroke: #1f77b4; stroke-width: 1.5; stroke-linecap: square"/>
   </g>
   <g id="patch_3">
    <path d="M 57.6 307.584 
L 57.6 41.472 
" style="fill: none; stroke: #000000; stroke-width: 0.8; stroke-linejoin: miter; stroke-linecap: square"/>
   </g>
   <g id="patch_4">
    <path d="M 414.72 307.584 
L 414.72 41.472 
" style="fill: none; stroke: #000000; stroke-width: 0.8; stroke-linejoin: miter; stroke-linecap: square"/>
   </g>
   <g id="patch_5">
    <path d="M 57.6 307.584 
L 414.72 307.584 
" style="fill: none; stroke: #000000; stroke-width: 0.8; stroke-linejoin: miter; stroke-linecap: square"/>
   </g>
   <g id="patch_6">
    <path d="M 57.6 41.472 
L 414.72 41.472 
" style="fill: none; stroke: #000000; stroke-width: 0.8; stroke-linejoin: miter; stroke-linecap: square"/>
   </g>
   <g id="text_18">
    <!-- $B_n$ and $B_{tan}$ across airgap -->
    <g transform="translate(160.62 35.472)scale(0.12 -0.12)">
     <defs>
      <path id="DejaVuSans-Oblique-6e" d="M 3566 2113 
L 3156 0 
L 2578 0 
L 2988 2091 
Q 3016 2238 3031 2350 
Q 3047 2463 3047 2528 
Q 3047 2791 2881 2937 
Q 2716 3084 2419 3084 
Q 1956 3084 1622 2776 
Q 1288 2469 1184 1941 
L 800 0 
L 225 0 
L 903 3500 
L 1478 3500 
L 1363 2950 
Q 1603 3253 1940 3418 
Q 2278 3584 2650 3584 
Q 3113 3584 3367 3334 
Q 3622 3084 3622 2631 
Q 3622 2519 3608 2391 
Q 3594 2263 3566 2113 
z
" transform="scale(0.015625)"/>
      <path id="DejaVuSans-61" d="M 2194 1759 
Q 1497 1759 1228 1600 
Q 959 1441 959 1056 
Q 959 750 1161 570 
Q 1363 391 1709 391 
Q 2188 391 2477 730 
Q 2766 1069 2766 1631 
L 2766 1759 
L 2194 1759 
z
M 3341 1997 
L 3341 0 
L 2766 0 
L 2766 531 
Q 2569 213 2275 61 
Q 1981 -91 1556 -91 
Q 1019 -91 701 211 
Q 384 513 384 1019 
Q 384 1609 779 1909 
Q 1175 2209 1959 2209 
L 2766 2209 
L 2766 2266 
Q 2766 2663 2505 2880 
Q 2244 3097 1772 3097 
Q 1472 3097 1187 3025 
Q 903 2953 641 2809 
L 641 3341 
Q 956 3463 1253 3523 
Q 1550 3584 1831 3584 
Q 2591 3584 2966 3190 
Q 3341 2797 3341 1997 
z
" transform="scale(0.015625)"/>
      <path id="DejaVuSans-6e" d="M 3513 2113 
L 3513 0 
L 2938 0 
L 2938 2094 
Q 2938 2591 2744 2837 
Q 2550 3084 2163 3084 
Q 1697 3084 1428 2787 
Q 1159 2491 1159 1978 
L 1159 0 
L 581 0 
L 581 3500 
L 1159 3500 
L 1159 2956 
Q 1366 3272 1645 3428 
Q 1925 3584 2291 3584 
Q 2894 3584 3203 3211 
Q 3513 2838 3513 2113 
z
" transform="scale(0.015625)"/>
      <path id="DejaVuSans-Oblique-74" d="M 2706 3500 
L 2619 3053 
L 1472 3053 
L 1100 1153 
Q 1081 1047 1072 975 
Q 1063 903 1063 863 
Q 1063 663 1183 572 
Q 1303 481 1569 481 
L 2150 481 
L 2053 0 
L 1503 0 
Q 991 0 739 200 
Q 488 400 488 806 
Q 488 878 497 964 
Q 506 1050 525 1153 
L 897 3053 
L 409 3053 
L 500 3500 
L 978 3500 
L 1172 4494 
L 1747 4494 
L 1556 3500 
L 2706 3500 
z
" transform="scale(0.015625)"/>
      <path id="DejaVuSans-Oblique-61" d="M 3438 1997 
L 3047 0 
L 2472 0 
L 2578 531 
Q 2325 219 2001 64 
Q 1678 -91 1281 -91 
Q 834 -91 548 182 
Q 263 456 263 884 
Q 263 1497 752 1853 
Q 1241 2209 2100 2209 
L 2900 2209 
L 2931 2363 
Q 2938 2388 2941 2417 
Q 2944 2447 2944 2509 
Q 2944 2788 2717 2942 
Q 2491 3097 2081 3097 
Q 1800 3097 1504 3025 
Q 1209 2953 897 2809 
L 997 3341 
Q 1322 3463 1633 3523 
Q 1944 3584 2234 3584 
Q 2853 3584 3176 3315 
Q 3500 3047 3500 2534 
Q 3500 2431 3484 2292 
Q 3469 2153 3438 1997 
z
M 2816 1759 
L 2241 1759 
Q 1534 1759 1195 1570 
Q 856 1381 856 984 
Q 856 709 1029 553 
Q 1203 397 1509 397 
Q 1978 397 2328 733 
Q 2678 1069 2791 1631 
L 2816 1759 
z
" transform="scale(0.015625)"/>
      <path id="DejaVuSans-63" d="M 3122 3366 
L 3122 2828 
Q 2878 2963 2633 3030 
Q 2388 3097 2138 3097 
Q 1578 3097 1268 2742 
Q 959 2388 959 1747 
Q 959 1106 1268 751 
Q 1578 397 2138 397 
Q 2388 397 2633 464 
Q 2878 531 3122 666 
L 3122 134 
Q 2881 22 2623 -34 
Q 2366 -91 2075 -91 
Q 1284 -91 818 406 
Q 353 903 353 1747 
Q 353 2603 823 3093 
Q 1294 3584 2113 3584 
Q 2378 3584 2631 3529 
Q 2884 3475 3122 3366 
z
" transform="scale(0.015625)"/>
      <path id="DejaVuSans-72" d="M 2631 2963 
Q 2534 3019 2420 3045 
Q 2306 3072 2169 3072 
Q 1681 3072 1420 2755 
Q 1159 2438 1159 1844 
L 1159 0 
L 581 0 
L 581 3500 
L 1159 3500 
L 1159 2956 
Q 1341 3275 1631 3429 
Q 1922 3584 2338 3584 
Q 2397 3584 2469 3576 
Q 2541 3569 2628 3553 
L 2631 2963 
z
" transform="scale(0.015625)"/>
      <path id="DejaVuSans-6f" d="M 1959 3097 
Q 1497 3097 1228 2736 
Q 959 2375 959 1747 
Q 959 1119 1226 758 
Q 1494 397 1959 397 
Q 2419 397 2687 759 
Q 2956 1122 2956 1747 
Q 2956 2369 2687 2733 
Q 2419 3097 1959 3097 
z
M 1959 3584 
Q 2709 3584 3137 3096 
Q 3566 2609 3566 1747 
Q 3566 888 3137 398 
Q 2709 -91 1959 -91 
Q 1206 -91 779 398 
Q 353 888 353 1747 
Q 353 2609 779 3096 
Q 1206 3584 1959 3584 
z
" transform="scale(0.015625)"/>
      <path id="DejaVuSans-73" d="M 2834 3397 
L 2834 2853 
Q 2591 2978 2328 3040 
Q 2066 3103 1784 3103 
Q 1356 3103 1142 2972 
Q 928 2841 928 2578 
Q 928 2378 1081 2264 
Q 1234 2150 1697 2047 
L 1894 2003 
Q 2506 1872 2764 1633 
Q 3022 1394 3022 966 
Q 3022 478 2636 193 
Q 2250 -91 1575 -91 
Q 1294 -91 989 -36 
Q 684 19 347 128 
L 347 722 
Q 666 556 975 473 
Q 1284 391 1588 391 
Q 1994 391 2212 530 
Q 2431 669 2431 922 
Q 2431 1156 2273 1281 
Q 2116 1406 1581 1522 
L 1381 1569 
Q 847 1681 609 1914 
Q 372 2147 372 2553 
Q 372 3047 722 3315 
Q 1072 3584 1716 3584 
Q 2034 3584 2315 3537 
Q 2597 3491 2834 3397 
z
" transform="scale(0.015625)"/>
      <path id="DejaVuSans-69" d="M 603 3500 
L 1178 3500 
L 1178 0 
L 603 0 
L 603 3500 
z
M 603 4863 
L 1178 4863 
L 1178 4134 
L 603 4134 
L 603 4863 
z
" transform="scale(0.015625)"/>
      <path id="DejaVuSans-70" d="M 1159 525 
L 1159 -1331 
L 581 -1331 
L 581 3500 
L 1159 3500 
L 1159 2969 
Q 1341 3281 1617 3432 
Q 1894 3584 2278 3584 
Q 2916 3584 3314 3078 
Q 3713 2572 3713 1747 
Q 3713 922 3314 415 
Q 2916 -91 2278 -91 
Q 1894 -91 1617 61 
Q 1341 213 1159 525 
z
M 3116 1747 
Q 3116 2381 2855 2742 
Q 2594 3103 2138 3103 
Q 1681 3103 1420 2742 
Q 1159 2381 1159 1747 
Q 1159 1113 1420 752 
Q 1681 391 2138 391 
Q 2594 391 2855 752 
Q 3116 1113 3116 1747 
z
" transform="scale(0.015625)"/>
     </defs>
     <use xlink:href="#DejaVuSans-Oblique-42" transform="translate(0 0.015625)"/>
     <use xlink:href="#DejaVuSans-Oblique-6e" transform="translate(68.603516 -16.390625)scale(0.7)"/>
     <use xlink:href="#DejaVuSans-20" transform="translate(115.703125 0.015625)"/>
     <use xlink:href="#DejaVuSans-61" transform="translate(147.490234 0.015625)"/>
     <use xlink:href="#DejaVuSans-6e" transform="translate(208.769531 0.015625)"/>
     <use xlink:href="#DejaVuSans-64" transform="translate(272.148438 0.015625)"/>
     <use xlink:href="#DejaVuSans-20" transform="translate(335.625 0.015625)"/>
     <use xlink:href="#DejaVuSans-Oblique-42" transform="translate(367.412109 0.015625)"/>
     <use xlink:href="#DejaVuSans-Oblique-74" transform="translate(436.015625 -16.390625)scale(0.7)"/>
     <use xlink:href="#DejaVuSans-Oblique-61" transform="translate(463.461914 -16.390625)scale(0.7)"/>
     <use xlink:href="#DejaVuSans-Oblique-6e" transform="translate(506.357422 -16.390625)scale(0.7)"/>
     <use xlink:href="#DejaVuSans-20" transform="translate(553.457031 0.015625)"/>
     <use xlink:href="#DejaVuSans-61" transform="translate(585.244141 0.015625)"/>
     <use xlink:href="#DejaVuSans-63" transform="translate(646.523438 0.015625)"/>
     <use xlink:href="#DejaVuSans-72" transform="translate(701.503906 0.015625)"/>
     <use xlink:href="#DejaVuSans-6f" transform="translate(742.617188 0.015625)"/>
     <use xlink:href="#DejaVuSans-73" transform="translate(803.798828 0.015625)"/>
     <use xlink:href="#DejaVuSans-73" transform="translate(855.898438 0.015625)"/>
     <use xlink:href="#DejaVuSans-20" transform="translate(907.998047 0.015625)"/>
     <use xlink:href="#DejaVuSans-61" transform="translate(939.785156 0.015625)"/>
     <use xlink:href="#DejaVuSans-69" transform="translate(1001.064453 0.015625)"/>
     <use xlink:href="#DejaVuSans-72" transform="translate(1028.847656 0.015625)"/>
     <use xlink:href="#DejaVuSans-67" transform="translate(1069.960938 0.015625)"/>
     <use xlink:href="#DejaVuSans-61" transform="translate(1133.4375 0.015625)"/>
     <use xlink:href="#DejaVuSans-70" transform="translate(1194.716797 0.015625)"/>
    </g>
   </g>
   <g id="legend_1">
    <g id="patch_7">
     <path d="M 63.2 71.357 
L 103.76 71.357 
Q 105.36 71.357 105.36 69.757 
L 105.36 47.072 
Q 105.36 45.472 103.76 45.472 
L 63.2 45.472 
Q 61.6 45.472 61.6 47.072 
L 61.6 69.757 
Q 61.6 71.357 63.2 71.357 
z
" style="fill: #ffffff; opacity: 0.8; stroke: #cccccc; stroke-linejoin: miter"/>
    </g>
    <g id="line2d_33">
     <path d="M 64.8 51.95075 
L 72.8 51.95075 
L 80.8 51.95075 
" style="fill: none; stroke: #ff7f0e; stroke-width: 1.5; stroke-linecap: square"/>
    </g>
    <g id="text_19">
     <!-- $B_n$ -->
     <g transform="translate(87.2 54.75075)scale(0.08 -0.08)">
      <use xlink:href="#DejaVuSans-Oblique-42" transform="translate(0 0.09375)"/>
      <use xlink:href="#DejaVuSans-Oblique-6e" transform="translate(68.603516 -16.3125)scale(0.7)"/>
     </g>
    </g>
    <g id="line2d_34">
     <path d="M 64.8 63.69325 
L 72.8 63.69325 
L 80.8 63.69325 
" style="fill: none; stroke: #1f77b4; stroke-width: 1.5; stroke-linecap: square"/>
    </g>
    <g id="text_20">
     <!-- $B_{tan}$ -->
     <g transform="translate(87.2 66.49325)scale(0.08 -0.08)">
      <use xlink:href="#DejaVuSans-Oblique-42" transform="translate(0 0.09375)"/>
      <use xlink:href="#DejaVuSans-Oblique-74" transform="translate(68.603516 -16.3125)scale(0.7)"/>
      <use xlink:href="#DejaVuSans-Oblique-61" transform="translate(96.049805 -16.3125)scale(0.7)"/>
      <use xlink:href="#DejaVuSans-Oblique-6e" transform="translate(138.945312 -16.3125)scale(0.7)"/>
     </g>
    </g>
   </g>
  </g>
 </g>
 <defs>
  <clipPath id="pa344b3d14d">
   <rect x="57.6" y="41.472" width="357.12" height="266.112"/>
  </clipPath>
 </defs>
</svg>
