<?xml version="1.0" encoding="utf-8" standalone="no"?>
<!DOCTYPE svg PUBLIC "-//W3C//DTD SVG 1.1//EN"
  "http://www.w3.org/Graphics/SVG/1.1/DTD/svg11.dtd">
<svg xmlns:xlink="http://www.w3.org/1999/xlink" width="460.8pt" height="345.6pt" viewBox="0 0 460.8 345.6" xmlns="http://www.w3.org/2000/svg" version="1.1">
 <metadata>
  <rdf:RDF xmlns:dc="http://purl.org/dc/elements/1.1/" xmlns:cc="http://creativecommons.org/ns#" xmlns:rdf="http://www.w3.org/1999/02/22-rdf-syntax-ns#">
   <cc:Work>
    <dc:type rdf:resource="http://purl.org/dc/dcmitype/StillImage"/>
    <dc:date>2022-12-28T16:58:43.806190</dc:date>
    <dc:format>image/svg+xml</dc:format>
    <dc:creator>
     <cc:Agent>
      <dc:title>Matplotlib v3.5.1, https://matplotlib.org/</dc:title>
     </cc:Agent>
    </dc:creator>
   </cc:Work>
  </rdf:RDF>
 </metadata>
 <defs>
  <style type="text/css">*{stroke-linejoin: round; stroke-linecap: butt}</style>
 </defs>
 <g id="figure_1">
  <g id="patch_1">
   <path d="M 0 345.6 
L 460.8 345.6 
L 460.8 0 
L 0 0 
z
" style="fill: #ffffff"/>
  </g>
  <g id="axes_1">
   <g id="patch_2">
    <path d="M 57.6 119.740235 
L 414.72 119.740235 
L 414.72 41.472 
L 57.6 41.472 
z
" style="fill: #ffffff"/>
   </g>
   <g id="matplotlib.axis_1"/>
   <g id="matplotlib.axis_2">
    <g id="ytick_1">
     <g id="line2d_1">
      <defs>
       <path id="mebb9c94a0b" d="M 0 0 
L -3.5 0 
" style="stroke: #000000; stroke-width: 0.8"/>
      </defs>
      <g>
       <use xlink:href="#mebb9c94a0b" x="57.6" y="104.086588" style="stroke: #000000; stroke-width: 0.8"/>
      </g>
     </g>
     <g id="text_1">
      <!-- 0 -->
      <g transform="translate(44.2375 107.885807)scale(0.1 -0.1)">
       <defs>
        <path id="DejaVuSans-30" d="M 2034 4250 
Q 1547 4250 1301 3770 
Q 1056 3291 1056 2328 
Q 1056 1369 1301 889 
Q 1547 409 2034 409 
Q 2525 409 2770 889 
Q 3016 1369 3016 2328 
Q 3016 3291 2770 3770 
Q 2525 4250 2034 4250 
z
M 2034 4750 
Q 2819 4750 3233 4129 
Q 3647 3509 3647 2328 
Q 3647 1150 3233 529 
Q 2819 -91 2034 -91 
Q 1250 -91 836 529 
Q 422 1150 422 2328 
Q 422 3509 836 4129 
Q 1250 4750 2034 4750 
z
" transform="scale(0.015625)"/>
       </defs>
       <use xlink:href="#DejaVuSans-30"/>
      </g>
     </g>
    </g>
    <g id="ytick_2">
     <g id="line2d_2">
      <g>
       <use xlink:href="#mebb9c94a0b" x="57.6" y="72.779294" style="stroke: #000000; stroke-width: 0.8"/>
      </g>
     </g>
     <g id="text_2">
      <!-- 10 -->
      <g transform="translate(37.875 76.578513)scale(0.1 -0.1)">
       <defs>
        <path id="DejaVuSans-31" d="M 794 531 
L 1825 531 
L 1825 4091 
L 703 3866 
L 703 4441 
L 1819 4666 
L 2450 4666 
L 2450 531 
L 3481 531 
L 3481 0 
L 794 0 
L 794 531 
z
" transform="scale(0.015625)"/>
       </defs>
       <use xlink:href="#DejaVuSans-31"/>
       <use xlink:href="#DejaVuSans-30" x="63.623047"/>
      </g>
     </g>
    </g>
    <g id="ytick_3">
     <g id="line2d_3">
      <g>
       <use xlink:href="#mebb9c94a0b" x="57.6" y="41.472" style="stroke: #000000; stroke-width: 0.8"/>
      </g>
     </g>
     <g id="text_3">
      <!-- 20 -->
      <g transform="translate(37.875 45.271219)scale(0.1 -0.1)">
       <defs>
        <path id="DejaVuSans-32" d="M 1228 531 
L 3431 531 
L 3431 0 
L 469 0 
L 469 531 
Q 828 903 1448 1529 
Q 2069 2156 2228 2338 
Q 2531 2678 2651 2914 
Q 2772 3150 2772 3378 
Q 2772 3750 2511 3984 
Q 2250 4219 1831 4219 
Q 1534 4219 1204 4116 
Q 875 4013 500 3803 
L 500 4441 
Q 881 4594 1212 4672 
Q 1544 4750 1819 4750 
Q 2544 4750 2975 4387 
Q 3406 4025 3406 3419 
Q 3406 3131 3298 2873 
Q 3191 2616 2906 2266 
Q 2828 2175 2409 1742 
Q 1991 1309 1228 531 
z
" transform="scale(0.015625)"/>
       </defs>
       <use xlink:href="#DejaVuSans-32"/>
       <use xlink:href="#DejaVuSans-30" x="63.623047"/>
      </g>
     </g>
    </g>
    <g id="text_4">
     <!-- Force components -->
     <g transform="translate(31.795312 126.609243)rotate(-90)scale(0.1 -0.1)">
      <defs>
       <path id="DejaVuSans-46" d="M 628 4666 
L 3309 4666 
L 3309 4134 
L 1259 4134 
L 1259 2759 
L 3109 2759 
L 3109 2228 
L 1259 2228 
L 1259 0 
L 628 0 
L 628 4666 
z
" transform="scale(0.015625)"/>
       <path id="DejaVuSans-6f" d="M 1959 3097 
Q 1497 3097 1228 2736 
Q 959 2375 959 1747 
Q 959 1119 1226 758 
Q 1494 397 1959 397 
Q 2419 397 2687 759 
Q 2956 1122 2956 1747 
Q 2956 2369 2687 2733 
Q 2419 3097 1959 3097 
z
M 1959 3584 
Q 2709 3584 3137 3096 
Q 3566 2609 3566 1747 
Q 3566 888 3137 398 
Q 2709 -91 1959 -91 
Q 1206 -91 779 398 
Q 353 888 353 1747 
Q 353 2609 779 3096 
Q 1206 3584 1959 3584 
z
" transform="scale(0.015625)"/>
       <path id="DejaVuSans-72" d="M 2631 2963 
Q 2534 3019 2420 3045 
Q 2306 3072 2169 3072 
Q 1681 3072 1420 2755 
Q 1159 2438 1159 1844 
L 1159 0 
L 581 0 
L 581 3500 
L 1159 3500 
L 1159 2956 
Q 1341 3275 1631 3429 
Q 1922 3584 2338 3584 
Q 2397 3584 2469 3576 
Q 2541 3569 2628 3553 
L 2631 2963 
z
" transform="scale(0.015625)"/>
       <path id="DejaVuSans-63" d="M 3122 3366 
L 3122 2828 
Q 2878 2963 2633 3030 
Q 2388 3097 2138 3097 
Q 1578 3097 1268 2742 
Q 959 2388 959 1747 
Q 959 1106 1268 751 
Q 1578 397 2138 397 
Q 2388 397 2633 464 
Q 2878 531 3122 666 
L 3122 134 
Q 2881 22 2623 -34 
Q 2366 -91 2075 -91 
Q 1284 -91 818 406 
Q 353 903 353 1747 
Q 353 2603 823 3093 
Q 1294 3584 2113 3584 
Q 2378 3584 2631 3529 
Q 2884 3475 3122 3366 
z
" transform="scale(0.015625)"/>
       <path id="DejaVuSans-65" d="M 3597 1894 
L 3597 1613 
L 953 1613 
Q 991 1019 1311 708 
Q 1631 397 2203 397 
Q 2534 397 2845 478 
Q 3156 559 3463 722 
L 3463 178 
Q 3153 47 2828 -22 
Q 2503 -91 2169 -91 
Q 1331 -91 842 396 
Q 353 884 353 1716 
Q 353 2575 817 3079 
Q 1281 3584 2069 3584 
Q 2775 3584 3186 3129 
Q 3597 2675 3597 1894 
z
M 3022 2063 
Q 3016 2534 2758 2815 
Q 2500 3097 2075 3097 
Q 1594 3097 1305 2825 
Q 1016 2553 972 2059 
L 3022 2063 
z
" transform="scale(0.015625)"/>
       <path id="DejaVuSans-20" transform="scale(0.015625)"/>
       <path id="DejaVuSans-6d" d="M 3328 2828 
Q 3544 3216 3844 3400 
Q 4144 3584 4550 3584 
Q 5097 3584 5394 3201 
Q 5691 2819 5691 2113 
L 5691 0 
L 5113 0 
L 5113 2094 
Q 5113 2597 4934 2840 
Q 4756 3084 4391 3084 
Q 3944 3084 3684 2787 
Q 3425 2491 3425 1978 
L 3425 0 
L 2847 0 
L 2847 2094 
Q 2847 2600 2669 2842 
Q 2491 3084 2119 3084 
Q 1678 3084 1418 2786 
Q 1159 2488 1159 1978 
L 1159 0 
L 581 0 
L 581 3500 
L 1159 3500 
L 1159 2956 
Q 1356 3278 1631 3431 
Q 1906 3584 2284 3584 
Q 2666 3584 2933 3390 
Q 3200 3197 3328 2828 
z
" transform="scale(0.015625)"/>
       <path id="DejaVuSans-70" d="M 1159 525 
L 1159 -1331 
L 581 -1331 
L 581 3500 
L 1159 3500 
L 1159 2969 
Q 1341 3281 1617 3432 
Q 1894 3584 2278 3584 
Q 2916 3584 3314 3078 
Q 3713 2572 3713 1747 
Q 3713 922 3314 415 
Q 2916 -91 2278 -91 
Q 1894 -91 1617 61 
Q 1341 213 1159 525 
z
M 3116 1747 
Q 3116 2381 2855 2742 
Q 2594 3103 2138 3103 
Q 1681 3103 1420 2742 
Q 1159 2381 1159 1747 
Q 1159 1113 1420 752 
Q 1681 391 2138 391 
Q 2594 391 2855 752 
Q 3116 1113 3116 1747 
z
" transform="scale(0.015625)"/>
       <path id="DejaVuSans-6e" d="M 3513 2113 
L 3513 0 
L 2938 0 
L 2938 2094 
Q 2938 2591 2744 2837 
Q 2550 3084 2163 3084 
Q 1697 3084 1428 2787 
Q 1159 2491 1159 1978 
L 1159 0 
L 581 0 
L 581 3500 
L 1159 3500 
L 1159 2956 
Q 1366 3272 1645 3428 
Q 1925 3584 2291 3584 
Q 2894 3584 3203 3211 
Q 3513 2838 3513 2113 
z
" transform="scale(0.015625)"/>
       <path id="DejaVuSans-74" d="M 1172 4494 
L 1172 3500 
L 2356 3500 
L 2356 3053 
L 1172 3053 
L 1172 1153 
Q 1172 725 1289 603 
Q 1406 481 1766 481 
L 2356 481 
L 2356 0 
L 1766 0 
Q 1100 0 847 248 
Q 594 497 594 1153 
L 594 3053 
L 172 3053 
L 172 3500 
L 594 3500 
L 594 4494 
L 1172 4494 
z
" transform="scale(0.015625)"/>
       <path id="DejaVuSans-73" d="M 2834 3397 
L 2834 2853 
Q 2591 2978 2328 3040 
Q 2066 3103 1784 3103 
Q 1356 3103 1142 2972 
Q 928 2841 928 2578 
Q 928 2378 1081 2264 
Q 1234 2150 1697 2047 
L 1894 2003 
Q 2506 1872 2764 1633 
Q 3022 1394 3022 966 
Q 3022 478 2636 193 
Q 2250 -91 1575 -91 
Q 1294 -91 989 -36 
Q 684 19 347 128 
L 347 722 
Q 666 556 975 473 
Q 1284 391 1588 391 
Q 1994 391 2212 530 
Q 2431 669 2431 922 
Q 2431 1156 2273 1281 
Q 2116 1406 1581 1522 
L 1381 1569 
Q 847 1681 609 1914 
Q 372 2147 372 2553 
Q 372 3047 722 3315 
Q 1072 3584 1716 3584 
Q 2034 3584 2315 3537 
Q 2597 3491 2834 3397 
z
" transform="scale(0.015625)"/>
      </defs>
      <use xlink:href="#DejaVuSans-46"/>
      <use xlink:href="#DejaVuSans-6f" x="53.894531"/>
      <use xlink:href="#DejaVuSans-72" x="115.076172"/>
      <use xlink:href="#DejaVuSans-63" x="153.939453"/>
      <use xlink:href="#DejaVuSans-65" x="208.919922"/>
      <use xlink:href="#DejaVuSans-20" x="270.443359"/>
      <use xlink:href="#DejaVuSans-63" x="302.230469"/>
      <use xlink:href="#DejaVuSans-6f" x="357.210938"/>
      <use xlink:href="#DejaVuSans-6d" x="418.392578"/>
      <use xlink:href="#DejaVuSans-70" x="515.804688"/>
      <use xlink:href="#DejaVuSans-6f" x="579.28125"/>
      <use xlink:href="#DejaVuSans-6e" x="640.462891"/>
      <use xlink:href="#DejaVuSans-65" x="703.841797"/>
      <use xlink:href="#DejaVuSans-6e" x="765.365234"/>
      <use xlink:href="#DejaVuSans-74" x="828.744141"/>
      <use xlink:href="#DejaVuSans-73" x="867.953125"/>
     </g>
    </g>
   </g>
   <g id="line2d_4">
    <path d="M 57.6 47.733459 
L 61.207273 47.809021 
L 64.814545 48.034491 
L 68.421818 48.406241 
L 72.029091 48.918289 
L 75.636364 49.562397 
L 79.243636 50.328201 
L 82.850909 51.203378 
L 86.458182 52.173846 
L 90.065455 53.223991 
L 93.672727 54.336915 
L 97.28 55.494711 
L 100.887273 56.678749 
L 104.494545 57.869978 
L 108.101818 59.04923 
L 111.709091 60.197531 
L 115.316364 61.296404 
L 118.923636 62.328169 
L 122.530909 63.276222 
L 126.138182 64.125311 
L 129.745455 64.861773 
L 133.352727 65.473757 
L 136.96 65.951417 
L 140.567273 66.287067 
L 144.174545 66.475307 
L 147.781818 66.513107 
L 151.389091 66.399859 
L 154.996364 66.137386 
L 158.603636 65.72991 
L 162.210909 65.183989 
L 165.818182 64.508406 
L 169.425455 63.714031 
L 173.032727 62.813647 
L 176.64 61.821741 
L 180.247273 60.754273 
L 183.854545 59.628419 
L 187.461818 58.462295 
L 191.069091 57.274663 
L 194.676364 56.084634 
L 198.283636 54.911355 
L 201.890909 53.773704 
L 205.498182 52.689988 
L 209.105455 51.677643 
L 212.712727 50.752959 
L 216.32 49.930813 
L 219.927273 49.224436 
L 223.534545 48.645191 
L 227.141818 48.2024 
L 230.749091 47.903188 
L 234.356364 47.752368 
L 237.963636 47.752368 
L 241.570909 47.903188 
L 245.178182 48.2024 
L 248.785455 48.645191 
L 252.392727 49.224436 
L 256 49.930813 
L 259.607273 50.752959 
L 263.214545 51.677643 
L 266.821818 52.689988 
L 270.429091 53.773704 
L 274.036364 54.911355 
L 277.643636 56.084634 
L 281.250909 57.274663 
L 284.858182 58.462295 
L 288.465455 59.628419 
L 292.072727 60.754273 
L 295.68 61.821741 
L 299.287273 62.813647 
L 302.894545 63.714031 
L 306.501818 64.508406 
L 310.109091 65.183989 
L 313.716364 65.72991 
L 317.323636 66.137386 
L 320.930909 66.399859 
L 324.538182 66.513107 
L 328.145455 66.475307 
L 331.752727 66.287067 
L 335.36 65.951417 
L 338.967273 65.473757 
L 342.574545 64.861773 
L 346.181818 64.125311 
L 349.789091 63.276222 
L 353.396364 62.328169 
L 357.003636 61.296404 
L 360.610909 60.197531 
L 364.218182 59.04923 
L 367.825455 57.869978 
L 371.432727 56.678749 
L 375.04 55.494711 
L 378.647273 54.336915 
L 382.254545 53.223991 
L 385.861818 52.173846 
L 389.469091 51.203378 
L 393.076364 50.328201 
L 396.683636 49.562397 
L 400.290909 48.918289 
L 403.898182 48.406241 
L 407.505455 48.034491 
L 411.112727 47.809021 
L 414.72 47.733459 
" clip-path="url(#p622a3f7456)" style="fill: none; stroke: #1f77b4; stroke-width: 1.5; stroke-linecap: square"/>
   </g>
   <g id="line2d_5">
    <path d="M 57.6 104.086588 
L 61.207273 102.897608 
L 64.814545 101.727759 
L 68.421818 100.595864 
L 72.029091 99.520137 
L 75.636364 98.517885 
L 79.243636 97.605236 
L 82.850909 96.796875 
L 86.458182 96.105807 
L 90.065455 95.543153 
L 93.672727 95.117967 
L 97.28 94.837088 
L 100.887273 94.705038 
L 104.494545 94.723941 
L 108.101818 94.893491 
L 111.709091 95.210963 
L 115.316364 95.671246 
L 118.923636 96.266935 
L 122.530909 96.988446 
L 126.138182 97.824168 
L 129.745455 98.760655 
L 133.352727 99.782838 
L 136.96 100.874271 
L 140.567273 102.01739 
L 144.174545 103.193804 
L 147.781818 104.384583 
L 151.389091 105.570567 
L 154.996364 106.732673 
L 158.603636 107.852203 
L 162.210909 108.911143 
L 165.818182 109.892454 
L 169.425455 110.780346 
L 173.032727 111.560533 
L 176.64 112.220462 
L 180.247273 112.749513 
L 183.854545 113.139175 
L 187.461818 113.383178 
L 191.069091 113.477594 
L 194.676364 113.420906 
L 198.283636 113.214025 
L 201.890909 112.860281 
L 205.498182 112.365364 
L 209.105455 111.737239 
L 212.712727 110.986012 
L 216.32 110.12377 
L 219.927273 109.164389 
L 223.534545 108.123303 
L 227.141818 107.017265 
L 230.749091 105.864072 
L 234.356364 104.682278 
L 237.963636 103.490899 
L 241.570909 102.309105 
L 245.178182 101.155911 
L 248.785455 100.049874 
L 252.392727 99.008788 
L 256 98.049406 
L 259.607273 97.187165 
L 263.214545 96.435938 
L 266.821818 95.807812 
L 270.429091 95.312896 
L 274.036364 94.959151 
L 277.643636 94.75227 
L 281.250909 94.695582 
L 284.858182 94.789999 
L 288.465455 95.034001 
L 292.072727 95.423663 
L 295.68 95.952715 
L 299.287273 96.612643 
L 302.894545 97.39283 
L 306.501818 98.280723 
L 310.109091 99.262033 
L 313.716364 100.320973 
L 317.323636 101.440503 
L 320.930909 102.602609 
L 324.538182 103.788594 
L 328.145455 104.979372 
L 331.752727 106.155786 
L 335.36 107.298906 
L 338.967273 108.390338 
L 342.574545 109.412521 
L 346.181818 110.349008 
L 349.789091 111.18473 
L 353.396364 111.906241 
L 357.003636 112.50193 
L 360.610909 112.962214 
L 364.218182 113.279685 
L 367.825455 113.449236 
L 371.432727 113.468138 
L 375.04 113.336088 
L 378.647273 113.05521 
L 382.254545 112.630023 
L 385.861818 112.067369 
L 389.469091 111.376302 
L 393.076364 110.56794 
L 396.683636 109.655291 
L 400.290909 108.65304 
L 403.898182 107.577312 
L 407.505455 106.445417 
L 411.112727 105.275568 
L 414.72 104.086588 
" clip-path="url(#p622a3f7456)" style="fill: none; stroke: #ff7f0e; stroke-width: 1.5; stroke-linecap: square"/>
   </g>
   <g id="line2d_6">
    <path d="M 57.6 57.031725 
L 61.207273 57.031725 
L 64.814545 57.031725 
L 68.421818 57.031725 
L 72.029091 57.031725 
L 75.636364 57.031725 
L 79.243636 57.031725 
L 82.850909 57.031725 
L 86.458182 57.031725 
L 90.065455 57.031725 
L 93.672727 57.031725 
L 97.28 57.031725 
L 100.887273 57.031725 
L 104.494545 57.031725 
L 108.101818 57.031725 
L 111.709091 57.031725 
L 115.316364 57.031725 
L 118.923636 57.031725 
L 122.530909 57.031725 
L 126.138182 57.031725 
L 129.745455 57.031725 
L 133.352727 57.031725 
L 136.96 57.031725 
L 140.567273 57.031725 
L 144.174545 57.031725 
L 147.781818 57.031725 
L 151.389091 57.031725 
L 154.996364 57.031725 
L 158.603636 57.031725 
L 162.210909 57.031725 
L 165.818182 57.031725 
L 169.425455 57.031725 
L 173.032727 57.031725 
L 176.64 57.031725 
L 180.247273 57.031725 
L 183.854545 57.031725 
L 187.461818 57.031725 
L 191.069091 57.031725 
L 194.676364 57.031725 
L 198.283636 57.031725 
L 201.890909 57.031725 
L 205.498182 57.031725 
L 209.105455 57.031725 
L 212.712727 57.031725 
L 216.32 57.031725 
L 219.927273 57.031725 
L 223.534545 57.031725 
L 227.141818 57.031725 
L 230.749091 57.031725 
L 234.356364 57.031725 
L 237.963636 57.031725 
L 241.570909 57.031725 
L 245.178182 57.031725 
L 248.785455 57.031725 
L 252.392727 57.031725 
L 256 57.031725 
L 259.607273 57.031725 
L 263.214545 57.031725 
L 266.821818 57.031725 
L 270.429091 57.031725 
L 274.036364 57.031725 
L 277.643636 57.031725 
L 281.250909 57.031725 
L 284.858182 57.031725 
L 288.465455 57.031725 
L 292.072727 57.031725 
L 295.68 57.031725 
L 299.287273 57.031725 
L 302.894545 57.031725 
L 306.501818 57.031725 
L 310.109091 57.031725 
L 313.716364 57.031725 
L 317.323636 57.031725 
L 320.930909 57.031725 
L 324.538182 57.031725 
L 328.145455 57.031725 
L 331.752727 57.031725 
L 335.36 57.031725 
L 338.967273 57.031725 
L 342.574545 57.031725 
L 346.181818 57.031725 
L 349.789091 57.031725 
L 353.396364 57.031725 
L 357.003636 57.031725 
L 360.610909 57.031725 
L 364.218182 57.031725 
L 367.825455 57.031725 
L 371.432727 57.031725 
L 375.04 57.031725 
L 378.647273 57.031725 
L 382.254545 57.031725 
L 385.861818 57.031725 
L 389.469091 57.031725 
L 393.076364 57.031725 
L 396.683636 57.031725 
L 400.290909 57.031725 
L 403.898182 57.031725 
L 407.505455 57.031725 
L 411.112727 57.031725 
L 414.72 57.031725 
" clip-path="url(#p622a3f7456)" style="fill: none; stroke-dasharray: 5.55,2.4; stroke-dashoffset: 0; stroke: #1f77b4; stroke-width: 1.5"/>
   </g>
   <g id="line2d_7">
    <path d="M 57.6 104.086588 
L 61.207273 104.086588 
L 64.814545 104.086588 
L 68.421818 104.086588 
L 72.029091 104.086588 
L 75.636364 104.086588 
L 79.243636 104.086588 
L 82.850909 104.086588 
L 86.458182 104.086588 
L 90.065455 104.086588 
L 93.672727 104.086588 
L 97.28 104.086588 
L 100.887273 104.086588 
L 104.494545 104.086588 
L 108.101818 104.086588 
L 111.709091 104.086588 
L 115.316364 104.086588 
L 118.923636 104.086588 
L 122.530909 104.086588 
L 126.138182 104.086588 
L 129.745455 104.086588 
L 133.352727 104.086588 
L 136.96 104.086588 
L 140.567273 104.086588 
L 144.174545 104.086588 
L 147.781818 104.086588 
L 151.389091 104.086588 
L 154.996364 104.086588 
L 158.603636 104.086588 
L 162.210909 104.086588 
L 165.818182 104.086588 
L 169.425455 104.086588 
L 173.032727 104.086588 
L 176.64 104.086588 
L 180.247273 104.086588 
L 183.854545 104.086588 
L 187.461818 104.086588 
L 191.069091 104.086588 
L 194.676364 104.086588 
L 198.283636 104.086588 
L 201.890909 104.086588 
L 205.498182 104.086588 
L 209.105455 104.086588 
L 212.712727 104.086588 
L 216.32 104.086588 
L 219.927273 104.086588 
L 223.534545 104.086588 
L 227.141818 104.086588 
L 230.749091 104.086588 
L 234.356364 104.086588 
L 237.963636 104.086588 
L 241.570909 104.086588 
L 245.178182 104.086588 
L 248.785455 104.086588 
L 252.392727 104.086588 
L 256 104.086588 
L 259.607273 104.086588 
L 263.214545 104.086588 
L 266.821818 104.086588 
L 270.429091 104.086588 
L 274.036364 104.086588 
L 277.643636 104.086588 
L 281.250909 104.086588 
L 284.858182 104.086588 
L 288.465455 104.086588 
L 292.072727 104.086588 
L 295.68 104.086588 
L 299.287273 104.086588 
L 302.894545 104.086588 
L 306.501818 104.086588 
L 310.109091 104.086588 
L 313.716364 104.086588 
L 317.323636 104.086588 
L 320.930909 104.086588 
L 324.538182 104.086588 
L 328.145455 104.086588 
L 331.752727 104.086588 
L 335.36 104.086588 
L 338.967273 104.086588 
L 342.574545 104.086588 
L 346.181818 104.086588 
L 349.789091 104.086588 
L 353.396364 104.086588 
L 357.003636 104.086588 
L 360.610909 104.086588 
L 364.218182 104.086588 
L 367.825455 104.086588 
L 371.432727 104.086588 
L 375.04 104.086588 
L 378.647273 104.086588 
L 382.254545 104.086588 
L 385.861818 104.086588 
L 389.469091 104.086588 
L 393.076364 104.086588 
L 396.683636 104.086588 
L 400.290909 104.086588 
L 403.898182 104.086588 
L 407.505455 104.086588 
L 411.112727 104.086588 
L 414.72 104.086588 
" clip-path="url(#p622a3f7456)" style="fill: none; stroke-dasharray: 5.55,2.4; stroke-dashoffset: 0; stroke: #ff7f0e; stroke-width: 1.5"/>
   </g>
   <g id="patch_3">
    <path d="M 57.6 119.740235 
L 57.6 41.472 
" style="fill: none; stroke: #000000; stroke-width: 0.8; stroke-linejoin: miter; stroke-linecap: square"/>
   </g>
   <g id="patch_4">
    <path d="M 414.72 119.740235 
L 414.72 41.472 
" style="fill: none; stroke: #000000; stroke-width: 0.8; stroke-linejoin: miter; stroke-linecap: square"/>
   </g>
   <g id="patch_5">
    <path d="M 57.6 119.740235 
L 414.72 119.740235 
" style="fill: none; stroke: #000000; stroke-width: 0.8; stroke-linejoin: miter; stroke-linecap: square"/>
   </g>
   <g id="patch_6">
    <path d="M 57.6 41.472 
L 414.72 41.472 
" style="fill: none; stroke: #000000; stroke-width: 0.8; stroke-linejoin: miter; stroke-linecap: square"/>
   </g>
   <g id="legend_1">
    <g id="patch_7">
     <path d="M 365.52 97.294399 
L 407.72 97.294399 
Q 409.72 97.294399 409.72 95.294399 
L 409.72 65.917836 
Q 409.72 63.917836 407.72 63.917836 
L 365.52 63.917836 
Q 363.52 63.917836 363.52 65.917836 
L 363.52 95.294399 
Q 363.52 97.294399 365.52 97.294399 
z
" style="fill: #ffffff; opacity: 0.8; stroke: #cccccc; stroke-linejoin: miter"/>
    </g>
    <g id="line2d_8">
     <path d="M 367.52 72.016274 
L 377.52 72.016274 
L 387.52 72.016274 
" style="fill: none; stroke: #1f77b4; stroke-width: 1.5; stroke-linecap: square"/>
    </g>
    <g id="text_5">
     <!-- $F_x$ -->
     <g transform="translate(395.52 75.516274)scale(0.1 -0.1)">
      <defs>
       <path id="DejaVuSans-Oblique-46" d="M 1081 4666 
L 3756 4666 
L 3653 4134 
L 1606 4134 
L 1338 2759 
L 3188 2759 
L 3084 2228 
L 1234 2228 
L 800 0 
L 172 0 
L 1081 4666 
z
" transform="scale(0.015625)"/>
       <path id="DejaVuSans-Oblique-78" d="M 3841 3500 
L 2234 1784 
L 3219 0 
L 2559 0 
L 1819 1388 
L 531 0 
L -166 0 
L 1556 1844 
L 641 3500 
L 1300 3500 
L 1972 2234 
L 3144 3500 
L 3841 3500 
z
" transform="scale(0.015625)"/>
      </defs>
      <use xlink:href="#DejaVuSans-Oblique-46" transform="translate(0 0.09375)"/>
      <use xlink:href="#DejaVuSans-Oblique-78" transform="translate(57.519531 -16.3125)scale(0.7)"/>
     </g>
    </g>
    <g id="line2d_9">
     <path d="M 367.52 86.694399 
L 377.52 86.694399 
L 387.52 86.694399 
" style="fill: none; stroke: #ff7f0e; stroke-width: 1.5; stroke-linecap: square"/>
    </g>
    <g id="text_6">
     <!-- $F_y$ -->
     <g transform="translate(395.52 90.194399)scale(0.1 -0.1)">
      <defs>
       <path id="DejaVuSans-Oblique-79" d="M 1588 -325 
Q 1188 -997 936 -1164 
Q 684 -1331 294 -1331 
L -159 -1331 
L -63 -850 
L 269 -850 
Q 509 -850 678 -719 
Q 847 -588 1056 -206 
L 1234 128 
L 459 3500 
L 1069 3500 
L 1650 819 
L 3256 3500 
L 3859 3500 
L 1588 -325 
z
" transform="scale(0.015625)"/>
      </defs>
      <use xlink:href="#DejaVuSans-Oblique-46" transform="translate(0 0.09375)"/>
      <use xlink:href="#DejaVuSans-Oblique-79" transform="translate(57.519531 -16.3125)scale(0.7)"/>
     </g>
    </g>
   </g>
  </g>
  <g id="axes_2">
   <g id="patch_8">
    <path d="M 57.6 213.662118 
L 414.72 213.662118 
L 414.72 135.393882 
L 57.6 135.393882 
z
" style="fill: #ffffff"/>
   </g>
   <g id="matplotlib.axis_3"/>
   <g id="matplotlib.axis_4">
    <g id="ytick_4">
     <g id="line2d_10">
      <g>
       <use xlink:href="#mebb9c94a0b" x="57.6" y="213.662118" style="stroke: #000000; stroke-width: 0.8"/>
      </g>
     </g>
     <g id="text_7">
      <!-- 0 -->
      <g transform="translate(44.2375 217.461336)scale(0.1 -0.1)">
       <use xlink:href="#DejaVuSans-30"/>
      </g>
     </g>
    </g>
    <g id="ytick_5">
     <g id="line2d_11">
      <g>
       <use xlink:href="#mebb9c94a0b" x="57.6" y="174.528" style="stroke: #000000; stroke-width: 0.8"/>
      </g>
     </g>
     <g id="text_8">
      <!-- 10 -->
      <g transform="translate(37.875 178.327219)scale(0.1 -0.1)">
       <use xlink:href="#DejaVuSans-31"/>
       <use xlink:href="#DejaVuSans-30" x="63.623047"/>
      </g>
     </g>
    </g>
    <g id="ytick_6">
     <g id="line2d_12">
      <g>
       <use xlink:href="#mebb9c94a0b" x="57.6" y="135.393882" style="stroke: #000000; stroke-width: 0.8"/>
      </g>
     </g>
     <g id="text_9">
      <!-- 20 -->
      <g transform="translate(37.875 139.193101)scale(0.1 -0.1)">
       <use xlink:href="#DejaVuSans-32"/>
       <use xlink:href="#DejaVuSans-30" x="63.623047"/>
      </g>
     </g>
    </g>
    <g id="text_10">
     <!-- Force mag. [N] -->
     <g transform="translate(31.795312 211.568625)rotate(-90)scale(0.1 -0.1)">
      <defs>
       <path id="DejaVuSans-61" d="M 2194 1759 
Q 1497 1759 1228 1600 
Q 959 1441 959 1056 
Q 959 750 1161 570 
Q 1363 391 1709 391 
Q 2188 391 2477 730 
Q 2766 1069 2766 1631 
L 2766 1759 
L 2194 1759 
z
M 3341 1997 
L 3341 0 
L 2766 0 
L 2766 531 
Q 2569 213 2275 61 
Q 1981 -91 1556 -91 
Q 1019 -91 701 211 
Q 384 513 384 1019 
Q 384 1609 779 1909 
Q 1175 2209 1959 2209 
L 2766 2209 
L 2766 2266 
Q 2766 2663 2505 2880 
Q 2244 3097 1772 3097 
Q 1472 3097 1187 3025 
Q 903 2953 641 2809 
L 641 3341 
Q 956 3463 1253 3523 
Q 1550 3584 1831 3584 
Q 2591 3584 2966 3190 
Q 3341 2797 3341 1997 
z
" transform="scale(0.015625)"/>
       <path id="DejaVuSans-67" d="M 2906 1791 
Q 2906 2416 2648 2759 
Q 2391 3103 1925 3103 
Q 1463 3103 1205 2759 
Q 947 2416 947 1791 
Q 947 1169 1205 825 
Q 1463 481 1925 481 
Q 2391 481 2648 825 
Q 2906 1169 2906 1791 
z
M 3481 434 
Q 3481 -459 3084 -895 
Q 2688 -1331 1869 -1331 
Q 1566 -1331 1297 -1286 
Q 1028 -1241 775 -1147 
L 775 -588 
Q 1028 -725 1275 -790 
Q 1522 -856 1778 -856 
Q 2344 -856 2625 -561 
Q 2906 -266 2906 331 
L 2906 616 
Q 2728 306 2450 153 
Q 2172 0 1784 0 
Q 1141 0 747 490 
Q 353 981 353 1791 
Q 353 2603 747 3093 
Q 1141 3584 1784 3584 
Q 2172 3584 2450 3431 
Q 2728 3278 2906 2969 
L 2906 3500 
L 3481 3500 
L 3481 434 
z
" transform="scale(0.015625)"/>
       <path id="DejaVuSans-2e" d="M 684 794 
L 1344 794 
L 1344 0 
L 684 0 
L 684 794 
z
" transform="scale(0.015625)"/>
       <path id="DejaVuSans-5b" d="M 550 4863 
L 1875 4863 
L 1875 4416 
L 1125 4416 
L 1125 -397 
L 1875 -397 
L 1875 -844 
L 550 -844 
L 550 4863 
z
" transform="scale(0.015625)"/>
       <path id="DejaVuSans-4e" d="M 628 4666 
L 1478 4666 
L 3547 763 
L 3547 4666 
L 4159 4666 
L 4159 0 
L 3309 0 
L 1241 3903 
L 1241 0 
L 628 0 
L 628 4666 
z
" transform="scale(0.015625)"/>
       <path id="DejaVuSans-5d" d="M 1947 4863 
L 1947 -844 
L 622 -844 
L 622 -397 
L 1369 -397 
L 1369 4416 
L 622 4416 
L 622 4863 
L 1947 4863 
z
" transform="scale(0.015625)"/>
      </defs>
      <use xlink:href="#DejaVuSans-46"/>
      <use xlink:href="#DejaVuSans-6f" x="53.894531"/>
      <use xlink:href="#DejaVuSans-72" x="115.076172"/>
      <use xlink:href="#DejaVuSans-63" x="153.939453"/>
      <use xlink:href="#DejaVuSans-65" x="208.919922"/>
      <use xlink:href="#DejaVuSans-20" x="270.443359"/>
      <use xlink:href="#DejaVuSans-6d" x="302.230469"/>
      <use xlink:href="#DejaVuSans-61" x="399.642578"/>
      <use xlink:href="#DejaVuSans-67" x="460.921875"/>
      <use xlink:href="#DejaVuSans-2e" x="524.398438"/>
      <use xlink:href="#DejaVuSans-20" x="556.185547"/>
      <use xlink:href="#DejaVuSans-5b" x="587.972656"/>
      <use xlink:href="#DejaVuSans-4e" x="626.986328"/>
      <use xlink:href="#DejaVuSans-5d" x="701.791016"/>
     </g>
    </g>
   </g>
   <g id="line2d_13">
    <path d="M 57.6 143.220706 
L 61.207273 143.29946 
L 64.814545 143.534982 
L 68.421818 143.925042 
L 72.029091 144.46591 
L 75.636364 145.152334 
L 79.243636 145.977507 
L 82.850909 146.933026 
L 86.458182 148.008842 
L 90.065455 149.193205 
L 93.672727 150.472594 
L 97.28 151.831656 
L 100.887273 153.253137 
L 104.494545 154.717834 
L 108.101818 156.20457 
L 111.709091 157.690221 
L 115.316364 159.149822 
L 118.923636 160.556789 
L 122.530909 161.883297 
L 126.138182 163.100868 
L 129.745455 164.181191 
L 133.352727 165.097196 
L 136.96 165.824334 
L 140.567273 166.341975 
L 144.174545 166.634773 
L 147.781818 166.693789 
L 151.389091 166.517199 
L 154.996364 166.110439 
L 158.603636 165.485771 
L 162.210909 164.661343 
L 165.818182 163.659921 
L 169.425455 162.507485 
L 173.032727 161.231874 
L 176.64 159.861601 
L 180.247273 158.424905 
L 183.854545 156.94905 
L 187.461818 155.459847 
L 191.069091 153.981361 
L 194.676364 152.535749 
L 198.283636 151.143199 
L 201.890909 149.821937 
L 205.498182 148.588258 
L 209.105455 147.456591 
L 212.712727 146.439562 
L 216.32 145.548064 
L 219.927273 144.791316 
L 223.534545 144.176917 
L 227.141818 143.710892 
L 230.749091 143.397729 
L 234.356364 143.240406 
L 237.963636 143.240406 
L 241.570909 143.397729 
L 245.178182 143.710892 
L 248.785455 144.176917 
L 252.392727 144.791316 
L 256 145.548064 
L 259.607273 146.439562 
L 263.214545 147.456591 
L 266.821818 148.588258 
L 270.429091 149.821937 
L 274.036364 151.143199 
L 277.643636 152.535749 
L 281.250909 153.981361 
L 284.858182 155.459847 
L 288.465455 156.94905 
L 292.072727 158.424905 
L 295.68 159.861601 
L 299.287273 161.231874 
L 302.894545 162.507485 
L 306.501818 163.659921 
L 310.109091 164.661343 
L 313.716364 165.485771 
L 317.323636 166.110439 
L 320.930909 166.517199 
L 324.538182 166.693789 
L 328.145455 166.634773 
L 331.752727 166.341975 
L 335.36 165.824334 
L 338.967273 165.097196 
L 342.574545 164.181191 
L 346.181818 163.100868 
L 349.789091 161.883297 
L 353.396364 160.556789 
L 357.003636 159.149822 
L 360.610909 157.690221 
L 364.218182 156.20457 
L 367.825455 154.717834 
L 371.432727 153.253137 
L 375.04 151.831656 
L 378.647273 150.472594 
L 382.254545 149.193205 
L 385.861818 148.008842 
L 389.469091 146.933026 
L 393.076364 145.977507 
L 396.683636 145.152334 
L 400.290909 144.46591 
L 403.898182 143.925042 
L 407.505455 143.534982 
L 411.112727 143.29946 
L 414.72 143.220706 
" clip-path="url(#p785b930f41)" style="fill: none; stroke: #1f77b4; stroke-width: 1.5; stroke-linecap: square"/>
   </g>
   <g id="line2d_14">
    <path d="M 57.6 154.26093 
L 61.207273 154.26093 
L 64.814545 154.26093 
L 68.421818 154.26093 
L 72.029091 154.26093 
L 75.636364 154.26093 
L 79.243636 154.26093 
L 82.850909 154.26093 
L 86.458182 154.26093 
L 90.065455 154.26093 
L 93.672727 154.26093 
L 97.28 154.26093 
L 100.887273 154.26093 
L 104.494545 154.26093 
L 108.101818 154.26093 
L 111.709091 154.26093 
L 115.316364 154.26093 
L 118.923636 154.26093 
L 122.530909 154.26093 
L 126.138182 154.26093 
L 129.745455 154.26093 
L 133.352727 154.26093 
L 136.96 154.26093 
L 140.567273 154.26093 
L 144.174545 154.26093 
L 147.781818 154.26093 
L 151.389091 154.26093 
L 154.996364 154.26093 
L 158.603636 154.26093 
L 162.210909 154.26093 
L 165.818182 154.26093 
L 169.425455 154.26093 
L 173.032727 154.26093 
L 176.64 154.26093 
L 180.247273 154.26093 
L 183.854545 154.26093 
L 187.461818 154.26093 
L 191.069091 154.26093 
L 194.676364 154.26093 
L 198.283636 154.26093 
L 201.890909 154.26093 
L 205.498182 154.26093 
L 209.105455 154.26093 
L 212.712727 154.26093 
L 216.32 154.26093 
L 219.927273 154.26093 
L 223.534545 154.26093 
L 227.141818 154.26093 
L 230.749091 154.26093 
L 234.356364 154.26093 
L 237.963636 154.26093 
L 241.570909 154.26093 
L 245.178182 154.26093 
L 248.785455 154.26093 
L 252.392727 154.26093 
L 256 154.26093 
L 259.607273 154.26093 
L 263.214545 154.26093 
L 266.821818 154.26093 
L 270.429091 154.26093 
L 274.036364 154.26093 
L 277.643636 154.26093 
L 281.250909 154.26093 
L 284.858182 154.26093 
L 288.465455 154.26093 
L 292.072727 154.26093 
L 295.68 154.26093 
L 299.287273 154.26093 
L 302.894545 154.26093 
L 306.501818 154.26093 
L 310.109091 154.26093 
L 313.716364 154.26093 
L 317.323636 154.26093 
L 320.930909 154.26093 
L 324.538182 154.26093 
L 328.145455 154.26093 
L 331.752727 154.26093 
L 335.36 154.26093 
L 338.967273 154.26093 
L 342.574545 154.26093 
L 346.181818 154.26093 
L 349.789091 154.26093 
L 353.396364 154.26093 
L 357.003636 154.26093 
L 360.610909 154.26093 
L 364.218182 154.26093 
L 367.825455 154.26093 
L 371.432727 154.26093 
L 375.04 154.26093 
L 378.647273 154.26093 
L 382.254545 154.26093 
L 385.861818 154.26093 
L 389.469091 154.26093 
L 393.076364 154.26093 
L 396.683636 154.26093 
L 400.290909 154.26093 
L 403.898182 154.26093 
L 407.505455 154.26093 
L 411.112727 154.26093 
L 414.72 154.26093 
" clip-path="url(#p785b930f41)" style="fill: none; stroke-dasharray: 5.55,2.4; stroke-dashoffset: 0; stroke: #1f77b4; stroke-width: 1.5"/>
   </g>
   <g id="patch_9">
    <path d="M 57.6 213.662118 
L 57.6 135.393882 
" style="fill: none; stroke: #000000; stroke-width: 0.8; stroke-linejoin: miter; stroke-linecap: square"/>
   </g>
   <g id="patch_10">
    <path d="M 414.72 213.662118 
L 414.72 135.393882 
" style="fill: none; stroke: #000000; stroke-width: 0.8; stroke-linejoin: miter; stroke-linecap: square"/>
   </g>
   <g id="patch_11">
    <path d="M 57.6 213.662118 
L 414.72 213.662118 
" style="fill: none; stroke: #000000; stroke-width: 0.8; stroke-linejoin: miter; stroke-linecap: square"/>
   </g>
   <g id="patch_12">
    <path d="M 57.6 135.393882 
L 414.72 135.393882 
" style="fill: none; stroke: #000000; stroke-width: 0.8; stroke-linejoin: miter; stroke-linecap: square"/>
   </g>
  </g>
  <g id="axes_3">
   <g id="patch_13">
    <path d="M 57.6 307.584 
L 414.72 307.584 
L 414.72 229.315765 
L 57.6 229.315765 
z
" style="fill: #ffffff"/>
   </g>
   <g id="matplotlib.axis_5">
    <g id="xtick_1">
     <g id="line2d_15">
      <defs>
       <path id="m6c73df9282" d="M 0 0 
L 0 3.5 
" style="stroke: #000000; stroke-width: 0.8"/>
      </defs>
      <g>
       <use xlink:href="#m6c73df9282" x="57.6" y="307.584" style="stroke: #000000; stroke-width: 0.8"/>
      </g>
     </g>
     <g id="text_11">
      <!-- 0 -->
      <g transform="translate(54.41875 322.182437)scale(0.1 -0.1)">
       <use xlink:href="#DejaVuSans-30"/>
      </g>
     </g>
    </g>
    <g id="xtick_2">
     <g id="line2d_16">
      <g>
       <use xlink:href="#m6c73df9282" x="117.12" y="307.584" style="stroke: #000000; stroke-width: 0.8"/>
      </g>
     </g>
     <g id="text_12">
      <!-- 60 -->
      <g transform="translate(110.7575 322.182437)scale(0.1 -0.1)">
       <defs>
        <path id="DejaVuSans-36" d="M 2113 2584 
Q 1688 2584 1439 2293 
Q 1191 2003 1191 1497 
Q 1191 994 1439 701 
Q 1688 409 2113 409 
Q 2538 409 2786 701 
Q 3034 994 3034 1497 
Q 3034 2003 2786 2293 
Q 2538 2584 2113 2584 
z
M 3366 4563 
L 3366 3988 
Q 3128 4100 2886 4159 
Q 2644 4219 2406 4219 
Q 1781 4219 1451 3797 
Q 1122 3375 1075 2522 
Q 1259 2794 1537 2939 
Q 1816 3084 2150 3084 
Q 2853 3084 3261 2657 
Q 3669 2231 3669 1497 
Q 3669 778 3244 343 
Q 2819 -91 2113 -91 
Q 1303 -91 875 529 
Q 447 1150 447 2328 
Q 447 3434 972 4092 
Q 1497 4750 2381 4750 
Q 2619 4750 2861 4703 
Q 3103 4656 3366 4563 
z
" transform="scale(0.015625)"/>
       </defs>
       <use xlink:href="#DejaVuSans-36"/>
       <use xlink:href="#DejaVuSans-30" x="63.623047"/>
      </g>
     </g>
    </g>
    <g id="xtick_3">
     <g id="line2d_17">
      <g>
       <use xlink:href="#m6c73df9282" x="176.64" y="307.584" style="stroke: #000000; stroke-width: 0.8"/>
      </g>
     </g>
     <g id="text_13">
      <!-- 120 -->
      <g transform="translate(167.09625 322.182437)scale(0.1 -0.1)">
       <use xlink:href="#DejaVuSans-31"/>
       <use xlink:href="#DejaVuSans-32" x="63.623047"/>
       <use xlink:href="#DejaVuSans-30" x="127.246094"/>
      </g>
     </g>
    </g>
    <g id="xtick_4">
     <g id="line2d_18">
      <g>
       <use xlink:href="#m6c73df9282" x="236.16" y="307.584" style="stroke: #000000; stroke-width: 0.8"/>
      </g>
     </g>
     <g id="text_14">
      <!-- 180 -->
      <g transform="translate(226.61625 322.182437)scale(0.1 -0.1)">
       <defs>
        <path id="DejaVuSans-38" d="M 2034 2216 
Q 1584 2216 1326 1975 
Q 1069 1734 1069 1313 
Q 1069 891 1326 650 
Q 1584 409 2034 409 
Q 2484 409 2743 651 
Q 3003 894 3003 1313 
Q 3003 1734 2745 1975 
Q 2488 2216 2034 2216 
z
M 1403 2484 
Q 997 2584 770 2862 
Q 544 3141 544 3541 
Q 544 4100 942 4425 
Q 1341 4750 2034 4750 
Q 2731 4750 3128 4425 
Q 3525 4100 3525 3541 
Q 3525 3141 3298 2862 
Q 3072 2584 2669 2484 
Q 3125 2378 3379 2068 
Q 3634 1759 3634 1313 
Q 3634 634 3220 271 
Q 2806 -91 2034 -91 
Q 1263 -91 848 271 
Q 434 634 434 1313 
Q 434 1759 690 2068 
Q 947 2378 1403 2484 
z
M 1172 3481 
Q 1172 3119 1398 2916 
Q 1625 2713 2034 2713 
Q 2441 2713 2670 2916 
Q 2900 3119 2900 3481 
Q 2900 3844 2670 4047 
Q 2441 4250 2034 4250 
Q 1625 4250 1398 4047 
Q 1172 3844 1172 3481 
z
" transform="scale(0.015625)"/>
       </defs>
       <use xlink:href="#DejaVuSans-31"/>
       <use xlink:href="#DejaVuSans-38" x="63.623047"/>
       <use xlink:href="#DejaVuSans-30" x="127.246094"/>
      </g>
     </g>
    </g>
    <g id="xtick_5">
     <g id="line2d_19">
      <g>
       <use xlink:href="#m6c73df9282" x="295.68" y="307.584" style="stroke: #000000; stroke-width: 0.8"/>
      </g>
     </g>
     <g id="text_15">
      <!-- 240 -->
      <g transform="translate(286.13625 322.182437)scale(0.1 -0.1)">
       <defs>
        <path id="DejaVuSans-34" d="M 2419 4116 
L 825 1625 
L 2419 1625 
L 2419 4116 
z
M 2253 4666 
L 3047 4666 
L 3047 1625 
L 3713 1625 
L 3713 1100 
L 3047 1100 
L 3047 0 
L 2419 0 
L 2419 1100 
L 313 1100 
L 313 1709 
L 2253 4666 
z
" transform="scale(0.015625)"/>
       </defs>
       <use xlink:href="#DejaVuSans-32"/>
       <use xlink:href="#DejaVuSans-34" x="63.623047"/>
       <use xlink:href="#DejaVuSans-30" x="127.246094"/>
      </g>
     </g>
    </g>
    <g id="xtick_6">
     <g id="line2d_20">
      <g>
       <use xlink:href="#m6c73df9282" x="355.2" y="307.584" style="stroke: #000000; stroke-width: 0.8"/>
      </g>
     </g>
     <g id="text_16">
      <!-- 300 -->
      <g transform="translate(345.65625 322.182437)scale(0.1 -0.1)">
       <defs>
        <path id="DejaVuSans-33" d="M 2597 2516 
Q 3050 2419 3304 2112 
Q 3559 1806 3559 1356 
Q 3559 666 3084 287 
Q 2609 -91 1734 -91 
Q 1441 -91 1130 -33 
Q 819 25 488 141 
L 488 750 
Q 750 597 1062 519 
Q 1375 441 1716 441 
Q 2309 441 2620 675 
Q 2931 909 2931 1356 
Q 2931 1769 2642 2001 
Q 2353 2234 1838 2234 
L 1294 2234 
L 1294 2753 
L 1863 2753 
Q 2328 2753 2575 2939 
Q 2822 3125 2822 3475 
Q 2822 3834 2567 4026 
Q 2313 4219 1838 4219 
Q 1578 4219 1281 4162 
Q 984 4106 628 3988 
L 628 4550 
Q 988 4650 1302 4700 
Q 1616 4750 1894 4750 
Q 2613 4750 3031 4423 
Q 3450 4097 3450 3541 
Q 3450 3153 3228 2886 
Q 3006 2619 2597 2516 
z
" transform="scale(0.015625)"/>
       </defs>
       <use xlink:href="#DejaVuSans-33"/>
       <use xlink:href="#DejaVuSans-30" x="63.623047"/>
       <use xlink:href="#DejaVuSans-30" x="127.246094"/>
      </g>
     </g>
    </g>
    <g id="xtick_7">
     <g id="line2d_21">
      <g>
       <use xlink:href="#m6c73df9282" x="414.72" y="307.584" style="stroke: #000000; stroke-width: 0.8"/>
      </g>
     </g>
     <g id="text_17">
      <!-- 360 -->
      <g transform="translate(405.17625 322.182437)scale(0.1 -0.1)">
       <use xlink:href="#DejaVuSans-33"/>
       <use xlink:href="#DejaVuSans-36" x="63.623047"/>
       <use xlink:href="#DejaVuSans-30" x="127.246094"/>
      </g>
     </g>
    </g>
    <g id="text_18">
     <!-- Rotor angular position [deg] -->
     <g transform="translate(165.793594 335.860562)scale(0.1 -0.1)">
      <defs>
       <path id="DejaVuSans-52" d="M 2841 2188 
Q 3044 2119 3236 1894 
Q 3428 1669 3622 1275 
L 4263 0 
L 3584 0 
L 2988 1197 
Q 2756 1666 2539 1819 
Q 2322 1972 1947 1972 
L 1259 1972 
L 1259 0 
L 628 0 
L 628 4666 
L 2053 4666 
Q 2853 4666 3247 4331 
Q 3641 3997 3641 3322 
Q 3641 2881 3436 2590 
Q 3231 2300 2841 2188 
z
M 1259 4147 
L 1259 2491 
L 2053 2491 
Q 2509 2491 2742 2702 
Q 2975 2913 2975 3322 
Q 2975 3731 2742 3939 
Q 2509 4147 2053 4147 
L 1259 4147 
z
" transform="scale(0.015625)"/>
       <path id="DejaVuSans-75" d="M 544 1381 
L 544 3500 
L 1119 3500 
L 1119 1403 
Q 1119 906 1312 657 
Q 1506 409 1894 409 
Q 2359 409 2629 706 
Q 2900 1003 2900 1516 
L 2900 3500 
L 3475 3500 
L 3475 0 
L 2900 0 
L 2900 538 
Q 2691 219 2414 64 
Q 2138 -91 1772 -91 
Q 1169 -91 856 284 
Q 544 659 544 1381 
z
M 1991 3584 
L 1991 3584 
z
" transform="scale(0.015625)"/>
       <path id="DejaVuSans-6c" d="M 603 4863 
L 1178 4863 
L 1178 0 
L 603 0 
L 603 4863 
z
" transform="scale(0.015625)"/>
       <path id="DejaVuSans-69" d="M 603 3500 
L 1178 3500 
L 1178 0 
L 603 0 
L 603 3500 
z
M 603 4863 
L 1178 4863 
L 1178 4134 
L 603 4134 
L 603 4863 
z
" transform="scale(0.015625)"/>
       <path id="DejaVuSans-64" d="M 2906 2969 
L 2906 4863 
L 3481 4863 
L 3481 0 
L 2906 0 
L 2906 525 
Q 2725 213 2448 61 
Q 2172 -91 1784 -91 
Q 1150 -91 751 415 
Q 353 922 353 1747 
Q 353 2572 751 3078 
Q 1150 3584 1784 3584 
Q 2172 3584 2448 3432 
Q 2725 3281 2906 2969 
z
M 947 1747 
Q 947 1113 1208 752 
Q 1469 391 1925 391 
Q 2381 391 2643 752 
Q 2906 1113 2906 1747 
Q 2906 2381 2643 2742 
Q 2381 3103 1925 3103 
Q 1469 3103 1208 2742 
Q 947 2381 947 1747 
z
" transform="scale(0.015625)"/>
      </defs>
      <use xlink:href="#DejaVuSans-52"/>
      <use xlink:href="#DejaVuSans-6f" x="64.982422"/>
      <use xlink:href="#DejaVuSans-74" x="126.164062"/>
      <use xlink:href="#DejaVuSans-6f" x="165.373047"/>
      <use xlink:href="#DejaVuSans-72" x="226.554688"/>
      <use xlink:href="#DejaVuSans-20" x="267.667969"/>
      <use xlink:href="#DejaVuSans-61" x="299.455078"/>
      <use xlink:href="#DejaVuSans-6e" x="360.734375"/>
      <use xlink:href="#DejaVuSans-67" x="424.113281"/>
      <use xlink:href="#DejaVuSans-75" x="487.589844"/>
      <use xlink:href="#DejaVuSans-6c" x="550.96875"/>
      <use xlink:href="#DejaVuSans-61" x="578.751953"/>
      <use xlink:href="#DejaVuSans-72" x="640.03125"/>
      <use xlink:href="#DejaVuSans-20" x="681.144531"/>
      <use xlink:href="#DejaVuSans-70" x="712.931641"/>
      <use xlink:href="#DejaVuSans-6f" x="776.408203"/>
      <use xlink:href="#DejaVuSans-73" x="837.589844"/>
      <use xlink:href="#DejaVuSans-69" x="889.689453"/>
      <use xlink:href="#DejaVuSans-74" x="917.472656"/>
      <use xlink:href="#DejaVuSans-69" x="956.681641"/>
      <use xlink:href="#DejaVuSans-6f" x="984.464844"/>
      <use xlink:href="#DejaVuSans-6e" x="1045.646484"/>
      <use xlink:href="#DejaVuSans-20" x="1109.025391"/>
      <use xlink:href="#DejaVuSans-5b" x="1140.8125"/>
      <use xlink:href="#DejaVuSans-64" x="1179.826172"/>
      <use xlink:href="#DejaVuSans-65" x="1243.302734"/>
      <use xlink:href="#DejaVuSans-67" x="1304.826172"/>
      <use xlink:href="#DejaVuSans-5d" x="1368.302734"/>
     </g>
    </g>
   </g>
   <g id="matplotlib.axis_6">
    <g id="ytick_7">
     <g id="line2d_22">
      <g>
       <use xlink:href="#mebb9c94a0b" x="57.6" y="301.061647" style="stroke: #000000; stroke-width: 0.8"/>
      </g>
     </g>
     <g id="text_19">
      <!-- −50 -->
      <g transform="translate(29.495313 304.860866)scale(0.1 -0.1)">
       <defs>
        <path id="DejaVuSans-2212" d="M 678 2272 
L 4684 2272 
L 4684 1741 
L 678 1741 
L 678 2272 
z
" transform="scale(0.015625)"/>
        <path id="DejaVuSans-35" d="M 691 4666 
L 3169 4666 
L 3169 4134 
L 1269 4134 
L 1269 2991 
Q 1406 3038 1543 3061 
Q 1681 3084 1819 3084 
Q 2600 3084 3056 2656 
Q 3513 2228 3513 1497 
Q 3513 744 3044 326 
Q 2575 -91 1722 -91 
Q 1428 -91 1123 -41 
Q 819 9 494 109 
L 494 744 
Q 775 591 1075 516 
Q 1375 441 1709 441 
Q 2250 441 2565 725 
Q 2881 1009 2881 1497 
Q 2881 1984 2565 2268 
Q 2250 2553 1709 2553 
Q 1456 2553 1204 2497 
Q 953 2441 691 2322 
L 691 4666 
z
" transform="scale(0.015625)"/>
       </defs>
       <use xlink:href="#DejaVuSans-2212"/>
       <use xlink:href="#DejaVuSans-35" x="83.789062"/>
       <use xlink:href="#DejaVuSans-30" x="147.412109"/>
      </g>
     </g>
    </g>
    <g id="ytick_8">
     <g id="line2d_23">
      <g>
       <use xlink:href="#mebb9c94a0b" x="57.6" y="268.449882" style="stroke: #000000; stroke-width: 0.8"/>
      </g>
     </g>
     <g id="text_20">
      <!-- 0 -->
      <g transform="translate(44.2375 272.249101)scale(0.1 -0.1)">
       <use xlink:href="#DejaVuSans-30"/>
      </g>
     </g>
    </g>
    <g id="ytick_9">
     <g id="line2d_24">
      <g>
       <use xlink:href="#mebb9c94a0b" x="57.6" y="235.838118" style="stroke: #000000; stroke-width: 0.8"/>
      </g>
     </g>
     <g id="text_21">
      <!-- 50 -->
      <g transform="translate(37.875 239.637336)scale(0.1 -0.1)">
       <use xlink:href="#DejaVuSans-35"/>
       <use xlink:href="#DejaVuSans-30" x="63.623047"/>
      </g>
     </g>
    </g>
    <g id="text_22">
     <!-- Force angle [deg] -->
     <g transform="translate(23.415625 312.349882)rotate(-90)scale(0.1 -0.1)">
      <use xlink:href="#DejaVuSans-46"/>
      <use xlink:href="#DejaVuSans-6f" x="53.894531"/>
      <use xlink:href="#DejaVuSans-72" x="115.076172"/>
      <use xlink:href="#DejaVuSans-63" x="153.939453"/>
      <use xlink:href="#DejaVuSans-65" x="208.919922"/>
      <use xlink:href="#DejaVuSans-20" x="270.443359"/>
      <use xlink:href="#DejaVuSans-61" x="302.230469"/>
      <use xlink:href="#DejaVuSans-6e" x="363.509766"/>
      <use xlink:href="#DejaVuSans-67" x="426.888672"/>
      <use xlink:href="#DejaVuSans-6c" x="490.365234"/>
      <use xlink:href="#DejaVuSans-65" x="518.148438"/>
      <use xlink:href="#DejaVuSans-20" x="579.671875"/>
      <use xlink:href="#DejaVuSans-5b" x="611.458984"/>
      <use xlink:href="#DejaVuSans-64" x="650.472656"/>
      <use xlink:href="#DejaVuSans-65" x="713.949219"/>
      <use xlink:href="#DejaVuSans-67" x="775.472656"/>
      <use xlink:href="#DejaVuSans-5d" x="838.949219"/>
     </g>
    </g>
   </g>
   <g id="line2d_25">
    <path d="M 57.6 268.449882 
L 61.207273 267.660474 
L 64.814545 266.878162 
L 68.421818 266.110116 
L 72.029091 265.36366 
L 75.636364 264.646338 
L 79.243636 263.96599 
L 82.850909 263.33081 
L 86.458182 262.749402 
L 90.065455 262.23081 
L 93.672727 261.784537 
L 97.28 261.420507 
L 100.887273 261.148985 
L 104.494545 260.980417 
L 108.101818 260.925162 
L 111.709091 260.993097 
L 115.316364 261.193049 
L 118.923636 261.532058 
L 122.530909 262.014444 
L 126.138182 262.640743 
L 129.745455 263.406593 
L 133.352727 264.301742 
L 136.96 265.309405 
L 140.567273 266.406219 
L 144.174545 267.562984 
L 147.781818 268.74626 
L 151.389091 269.920643 
L 154.996364 271.051394 
L 158.603636 272.106945 
L 162.210909 273.060868 
L 165.818182 273.893048 
L 169.425455 274.590015 
L 173.032727 275.144571 
L 176.64 275.554939 
L 180.247273 275.823686 
L 183.854545 275.956618 
L 187.461818 275.961774 
L 191.069091 275.848586 
L 194.676364 275.627234 
L 198.283636 275.308158 
L 201.890909 274.901742 
L 205.498182 274.418094 
L 209.105455 273.866935 
L 212.712727 273.257538 
L 216.32 272.598725 
L 219.927273 271.89889 
L 223.534545 271.166041 
L 227.141818 270.407862 
L 230.749091 269.631779 
L 234.356364 268.845029 
L 237.963636 268.054736 
L 241.570909 267.267985 
L 245.178182 266.491902 
L 248.785455 265.733724 
L 252.392727 265.000875 
L 256 264.301039 
L 259.607273 263.642227 
L 263.214545 263.03283 
L 266.821818 262.481671 
L 270.429091 261.998023 
L 274.036364 261.591607 
L 277.643636 261.272531 
L 281.250909 261.051178 
L 284.858182 260.937991 
L 288.465455 260.943147 
L 292.072727 261.076079 
L 295.68 261.344826 
L 299.287273 261.755193 
L 302.894545 262.309749 
L 306.501818 263.006717 
L 310.109091 263.838897 
L 313.716364 264.79282 
L 317.323636 265.848371 
L 320.930909 266.979122 
L 324.538182 268.153505 
L 328.145455 269.336781 
L 331.752727 270.493546 
L 335.36 271.59036 
L 338.967273 272.598023 
L 342.574545 273.493172 
L 346.181818 274.259022 
L 349.789091 274.885321 
L 353.396364 275.367707 
L 357.003636 275.706715 
L 360.610909 275.906668 
L 364.218182 275.974602 
L 367.825455 275.919348 
L 371.432727 275.75078 
L 375.04 275.479258 
L 378.647273 275.115227 
L 382.254545 274.668954 
L 385.861818 274.150363 
L 389.469091 273.568954 
L 393.076364 272.933775 
L 396.683636 272.253427 
L 400.290909 271.536105 
L 403.898182 270.789649 
L 407.505455 270.021603 
L 411.112727 269.239291 
L 414.72 268.449882 
" clip-path="url(#p90a6e6f5e5)" style="fill: none; stroke: #1f77b4; stroke-width: 1.5; stroke-linecap: square"/>
   </g>
   <g id="line2d_26">
    <path d="M 57.6 268.449882 
L 61.207273 268.449882 
L 64.814545 268.449882 
L 68.421818 268.449882 
L 72.029091 268.449882 
L 75.636364 268.449882 
L 79.243636 268.449882 
L 82.850909 268.449882 
L 86.458182 268.449882 
L 90.065455 268.449882 
L 93.672727 268.449882 
L 97.28 268.449882 
L 100.887273 268.449882 
L 104.494545 268.449882 
L 108.101818 268.449882 
L 111.709091 268.449882 
L 115.316364 268.449882 
L 118.923636 268.449882 
L 122.530909 268.449882 
L 126.138182 268.449882 
L 129.745455 268.449882 
L 133.352727 268.449882 
L 136.96 268.449882 
L 140.567273 268.449882 
L 144.174545 268.449882 
L 147.781818 268.449882 
L 151.389091 268.449882 
L 154.996364 268.449882 
L 158.603636 268.449882 
L 162.210909 268.449882 
L 165.818182 268.449882 
L 169.425455 268.449882 
L 173.032727 268.449882 
L 176.64 268.449882 
L 180.247273 268.449882 
L 183.854545 268.449882 
L 187.461818 268.449882 
L 191.069091 268.449882 
L 194.676364 268.449882 
L 198.283636 268.449882 
L 201.890909 268.449882 
L 205.498182 268.449882 
L 209.105455 268.449882 
L 212.712727 268.449882 
L 216.32 268.449882 
L 219.927273 268.449882 
L 223.534545 268.449882 
L 227.141818 268.449882 
L 230.749091 268.449882 
L 234.356364 268.449882 
L 237.963636 268.449882 
L 241.570909 268.449882 
L 245.178182 268.449882 
L 248.785455 268.449882 
L 252.392727 268.449882 
L 256 268.449882 
L 259.607273 268.449882 
L 263.214545 268.449882 
L 266.821818 268.449882 
L 270.429091 268.449882 
L 274.036364 268.449882 
L 277.643636 268.449882 
L 281.250909 268.449882 
L 284.858182 268.449882 
L 288.465455 268.449882 
L 292.072727 268.449882 
L 295.68 268.449882 
L 299.287273 268.449882 
L 302.894545 268.449882 
L 306.501818 268.449882 
L 310.109091 268.449882 
L 313.716364 268.449882 
L 317.323636 268.449882 
L 320.930909 268.449882 
L 324.538182 268.449882 
L 328.145455 268.449882 
L 331.752727 268.449882 
L 335.36 268.449882 
L 338.967273 268.449882 
L 342.574545 268.449882 
L 346.181818 268.449882 
L 349.789091 268.449882 
L 353.396364 268.449882 
L 357.003636 268.449882 
L 360.610909 268.449882 
L 364.218182 268.449882 
L 367.825455 268.449882 
L 371.432727 268.449882 
L 375.04 268.449882 
L 378.647273 268.449882 
L 382.254545 268.449882 
L 385.861818 268.449882 
L 389.469091 268.449882 
L 393.076364 268.449882 
L 396.683636 268.449882 
L 400.290909 268.449882 
L 403.898182 268.449882 
L 407.505455 268.449882 
L 411.112727 268.449882 
L 414.72 268.449882 
" clip-path="url(#p90a6e6f5e5)" style="fill: none; stroke-dasharray: 5.55,2.4; stroke-dashoffset: 0; stroke: #1f77b4; stroke-width: 1.5"/>
   </g>
   <g id="patch_14">
    <path d="M 57.6 307.584 
L 57.6 229.315765 
" style="fill: none; stroke: #000000; stroke-width: 0.8; stroke-linejoin: miter; stroke-linecap: square"/>
   </g>
   <g id="patch_15">
    <path d="M 414.72 307.584 
L 414.72 229.315765 
" style="fill: none; stroke: #000000; stroke-width: 0.8; stroke-linejoin: miter; stroke-linecap: square"/>
   </g>
   <g id="patch_16">
    <path d="M 57.6 307.584 
L 414.72 307.584 
" style="fill: none; stroke: #000000; stroke-width: 0.8; stroke-linejoin: miter; stroke-linecap: square"/>
   </g>
   <g id="patch_17">
    <path d="M 57.6 229.315765 
L 414.72 229.315765 
" style="fill: none; stroke: #000000; stroke-width: 0.8; stroke-linejoin: miter; stroke-linecap: square"/>
   </g>
  </g>
 </g>
 <defs>
  <clipPath id="p622a3f7456">
   <rect x="57.6" y="41.472" width="357.12" height="78.268235"/>
  </clipPath>
  <clipPath id="p785b930f41">
   <rect x="57.6" y="135.393882" width="357.12" height="78.268235"/>
  </clipPath>
  <clipPath id="p90a6e6f5e5">
   <rect x="57.6" y="229.315765" width="357.12" height="78.268235"/>
  </clipPath>
 </defs>
</svg>
