<svg width="1888" height="1179" xmlns="http://www.w3.org/2000/svg" xmlns:xlink="http://www.w3.org/1999/xlink" xml:space="preserve" overflow="hidden"><defs><clipPath id="clip0"><rect x="1600" y="403" width="1888" height="1179"/></clipPath></defs><g clip-path="url(#clip0)" transform="translate(-1600 -403)"><path d="M1758.94 611.417 1758.94 1530.63 1752.06 1530.63 1752.06 611.417ZM1741.75 616 1755.5 588.5 1769.25 616ZM1769.25 1526.05 1755.5 1553.55 1741.75 1526.05Z"/><path d="M1749.5 1093.06 3436.59 1093.06 3436.59 1099.94 1749.5 1099.94ZM3432.01 1082.75 3459.51 1096.5 3432.01 1110.25Z"/><path d="M2040 1096C2040 1070.04 2061.04 1049 2087 1049 2112.96 1049 2134 1070.04 2134 1096 2134 1121.96 2112.96 1143 2087 1143 2061.04 1143 2040 1121.96 2040 1096Z" stroke="#FF7F0E" stroke-width="10.3125" stroke-miterlimit="8" fill="#FFFFFF" fill-rule="evenodd"/><path d="M3368.56 1142.07C3366.07 1142.07 3363.76 1143.18 3361.63 1145.4 3359.49 1147.61 3357.78 1150.61 3356.5 1154.39 3355.22 1158.18 3354.57 1162.05 3354.57 1166.02 3354.57 1168.75 3354.98 1170.78 3355.79 1172.1 3356.6 1173.43 3357.82 1174.09 3359.44 1174.09 3361.76 1174.09 3364.15 1172.72 3366.61 1170 3369.07 1167.27 3371.35 1163.47 3373.46 1158.61 3373.92 1155.8 3374.15 1153.31 3374.15 1151.15 3374.15 1148.07 3373.7 1145.79 3372.79 1144.3 3371.89 1142.82 3370.48 1142.07 3368.56 1142.07ZM3368.84 1138.87C3371.87 1138.87 3374.24 1139.82 3375.95 1141.71 3377.67 1143.6 3378.62 1146.37 3378.81 1150.02L3379.18 1149.98 3384.48 1139.52 3391.5 1139.52 3391.09 1141.59C3387.74 1146.13 3383.8 1151.7 3379.26 1158.32 3378.58 1163.48 3378.24 1167.13 3378.24 1169.27 3378.24 1171.05 3378.45 1172.33 3378.85 1173.1 3379.26 1173.87 3379.93 1174.25 3380.88 1174.25 3381.63 1174.25 3382.49 1173.93 3383.45 1173.3 3384.41 1172.66 3385.44 1171.68 3386.55 1170.36L3388.9 1172.55C3386.63 1174.98 3384.66 1176.65 3382.98 1177.55 3381.31 1178.46 3379.58 1178.91 3377.8 1178.91 3374.2 1178.91 3372.41 1176.29 3372.41 1171.05 3372.41 1169.89 3372.49 1168.6 3372.65 1167.2L3372.24 1167.2C3369.46 1171.36 3366.83 1174.35 3364.34 1176.18 3361.86 1178 3359.2 1178.91 3356.36 1178.91 3354.39 1178.91 3352.72 1178.34 3351.37 1177.21 3350.02 1176.07 3349.02 1174.57 3348.37 1172.69 3347.73 1170.81 3347.4 1168.77 3347.4 1166.55 3347.4 1161.71 3348.32 1157.13 3350.16 1152.79 3351.99 1148.46 3354.55 1145.05 3357.82 1142.58 3361.09 1140.11 3364.76 1138.87 3368.84 1138.87Z" fill-rule="evenodd"/><text fill="#000000" fill-opacity="0" font-family="Arial,Arial_MSFontService,sans-serif" font-size="40.041" x="3347.4" y="1173.91">ğ›¼</text><path d="M0 0 54.4659 48.0582" stroke="#FF7F0E" stroke-width="10.3125" stroke-miterlimit="8" fill="none" fill-rule="evenodd" transform="matrix(-1 0 0 1 2113.47 1071)"/><path d="M2113.47 1119.06 2059 1071" stroke="#FF7F0E" stroke-width="10.3125" stroke-miterlimit="8" fill="none" fill-rule="evenodd"/><path d="M2387 1096C2387 1070.04 2407.82 1049 2433.5 1049 2459.18 1049 2480 1070.04 2480 1096 2480 1121.96 2459.18 1143 2433.5 1143 2407.82 1143 2387 1121.96 2387 1096Z" stroke="#FF7F0E" stroke-width="10.3125" stroke-miterlimit="8" fill="#FFFFFF" fill-rule="evenodd"/><path d="M2410 1095.5C2410 1082.52 2420.52 1072 2433.5 1072 2446.48 1072 2457 1082.52 2457 1095.5 2457 1108.48 2446.48 1119 2433.5 1119 2420.52 1119 2410 1108.48 2410 1095.5Z" stroke="#FFFFFF" stroke-width="10.3125" stroke-miterlimit="8" fill="#FF7F0E" fill-rule="evenodd"/><path d="M1749 1243 2091.64 1243" stroke="#A6A6A6" stroke-width="10.3125" stroke-miterlimit="8" fill="none" fill-rule="evenodd"/><path d="M2087 775 2087 1237.88" stroke="#A6A6A6" stroke-width="10.3125" stroke-miterlimit="8" fill="none" fill-rule="evenodd"/><path d="M2088 780 2430.64 780" stroke="#A6A6A6" stroke-width="10.3125" stroke-miterlimit="8" fill="none" fill-rule="evenodd"/><path d="M2432 776 2432 1238.88" stroke="#A6A6A6" stroke-width="10.3125" stroke-miterlimit="8" fill="none" fill-rule="evenodd"/><path d="M2434 1243 3260.75 1243" stroke="#A6A6A6" stroke-width="10.3125" stroke-miterlimit="8" fill="none" fill-rule="evenodd"/><text font-family="Calibri,Calibri_MSFontService,sans-serif" font-weight="400" font-size="83" transform="matrix(1 0 0 1 2073.21 505)">Example Rolled Out Stator Coil</text><path d="M2664 710C2664 688.461 2681.46 671 2703 671 2724.54 671 2742 688.461 2742 710 2742 731.539 2724.54 749 2703 749 2681.46 749 2664 731.539 2664 710Z" stroke="#FF7F0E" stroke-width="10.3125" stroke-miterlimit="8" fill="#FFFFFF" fill-rule="evenodd"/><path d="M0 0 45.013 39.7177" stroke="#FF7F0E" stroke-width="10.3125" stroke-miterlimit="8" fill="none" fill-rule="evenodd" transform="matrix(-1 0 0 1 2725.01 689)"/><path d="M2725.01 728.718 2680 689" stroke="#FF7F0E" stroke-width="10.3125" stroke-miterlimit="8" fill="none" fill-rule="evenodd"/><path d="M2667 828.5C2667 807.237 2684.46 790 2706 790 2727.54 790 2745 807.237 2745 828.5 2745 849.763 2727.54 867 2706 867 2684.46 867 2667 849.763 2667 828.5Z" stroke="#FF7F0E" stroke-width="10.3125" stroke-miterlimit="8" fill="#FFFFFF" fill-rule="evenodd"/><path d="M2687 828C2687 817.506 2695.73 809 2706.5 809 2717.27 809 2726 817.506 2726 828 2726 838.493 2717.27 847 2706.5 847 2695.73 847 2687 838.493 2687 828Z" stroke="#FFFFFF" stroke-width="10.3125" stroke-miterlimit="8" fill="#FF7F0E" fill-rule="evenodd"/><text font-family="Calibri,Calibri_MSFontService,sans-serif" font-weight="400" font-size="83" transform="matrix(-1.83697e-16 -1 1 -1.83697e-16 1701.95 1185)">MMF</text><text font-family="Calibri,Calibri_MSFontService,sans-serif" font-weight="400" font-size="55" transform="matrix(1 0 0 1 2786.02 726)">Current going into page<tspan font-size="55" x="-0.000244141" y="119">Current coming out of page</tspan></text><path d="M2656 936 2757.56 936" stroke="#A6A6A6" stroke-width="10.3125" stroke-miterlimit="8" fill="none" fill-rule="evenodd"/><text font-family="Calibri,Calibri_MSFontService,sans-serif" font-weight="400" font-size="55" transform="matrix(1 0 0 1 2795.81 950)">MMF</text></g></svg>