<?xml version="1.0" encoding="utf-8" standalone="no"?>
<!DOCTYPE svg PUBLIC "-//W3C//DTD SVG 1.1//EN"
  "http://www.w3.org/Graphics/SVG/1.1/DTD/svg11.dtd">
<svg xmlns:xlink="http://www.w3.org/1999/xlink" width="416.480937pt" height="326.00825pt" viewBox="0 0 416.480937 326.00825" xmlns="http://www.w3.org/2000/svg" version="1.1">
 <metadata>
  <rdf:RDF xmlns:dc="http://purl.org/dc/elements/1.1/" xmlns:cc="http://creativecommons.org/ns#" xmlns:rdf="http://www.w3.org/1999/02/22-rdf-syntax-ns#">
   <cc:Work>
    <dc:type rdf:resource="http://purl.org/dc/dcmitype/StillImage"/>
    <dc:date>2022-08-09T20:05:20.086171</dc:date>
    <dc:format>image/svg+xml</dc:format>
    <dc:creator>
     <cc:Agent>
      <dc:title>Matplotlib v3.5.1, https://matplotlib.org/</dc:title>
     </cc:Agent>
    </dc:creator>
   </cc:Work>
  </rdf:RDF>
 </metadata>
 <defs>
  <style type="text/css">*{stroke-linejoin: round; stroke-linecap: butt}</style>
 </defs>
 <g id="figure_1">
  <g id="patch_1">
   <path d="M 0 326.00825 
L 416.480937 326.00825 
L 416.480937 0 
L 0 0 
z
" style="fill: #ffffff"/>
  </g>
  <g id="axes_1">
   <g id="patch_2">
    <path d="M 52.160938 288.430125 
L 409.280938 288.430125 
L 409.280938 22.318125 
L 52.160938 22.318125 
z
" style="fill: #ffffff"/>
   </g>
   <g id="matplotlib.axis_1">
    <g id="xtick_1">
     <g id="line2d_1">
      <path d="M 68.393665 288.430125 
L 68.393665 22.318125 
" clip-path="url(#p821d4377e9)" style="fill: none; stroke-dasharray: 3.2,0.8,0.5,0.8; stroke-dashoffset: 0; stroke: #a9a9a9; stroke-width: 0.5"/>
     </g>
     <g id="line2d_2">
      <defs>
       <path id="maf5d2c54e1" d="M 0 0 
L 0 3.5 
" style="stroke: #000000; stroke-width: 0.8"/>
      </defs>
      <g>
       <use xlink:href="#maf5d2c54e1" x="68.393665" y="288.430125" style="stroke: #000000; stroke-width: 0.8"/>
      </g>
     </g>
     <g id="text_1">
      <!-- 0 -->
      <g transform="translate(65.212415 303.028562)scale(0.1 -0.1)">
       <defs>
        <path id="DejaVuSans-30" d="M 2034 4250 
Q 1547 4250 1301 3770 
Q 1056 3291 1056 2328 
Q 1056 1369 1301 889 
Q 1547 409 2034 409 
Q 2525 409 2770 889 
Q 3016 1369 3016 2328 
Q 3016 3291 2770 3770 
Q 2525 4250 2034 4250 
z
M 2034 4750 
Q 2819 4750 3233 4129 
Q 3647 3509 3647 2328 
Q 3647 1150 3233 529 
Q 2819 -91 2034 -91 
Q 1250 -91 836 529 
Q 422 1150 422 2328 
Q 422 3509 836 4129 
Q 1250 4750 2034 4750 
z
" transform="scale(0.015625)"/>
       </defs>
       <use xlink:href="#DejaVuSans-30"/>
      </g>
     </g>
    </g>
    <g id="xtick_2">
     <g id="line2d_3">
      <path d="M 113.610175 288.430125 
L 113.610175 22.318125 
" clip-path="url(#p821d4377e9)" style="fill: none; stroke-dasharray: 3.2,0.8,0.5,0.8; stroke-dashoffset: 0; stroke: #a9a9a9; stroke-width: 0.5"/>
     </g>
     <g id="line2d_4">
      <g>
       <use xlink:href="#maf5d2c54e1" x="113.610175" y="288.430125" style="stroke: #000000; stroke-width: 0.8"/>
      </g>
     </g>
     <g id="text_2">
      <!-- 50 -->
      <g transform="translate(107.247675 303.028562)scale(0.1 -0.1)">
       <defs>
        <path id="DejaVuSans-35" d="M 691 4666 
L 3169 4666 
L 3169 4134 
L 1269 4134 
L 1269 2991 
Q 1406 3038 1543 3061 
Q 1681 3084 1819 3084 
Q 2600 3084 3056 2656 
Q 3513 2228 3513 1497 
Q 3513 744 3044 326 
Q 2575 -91 1722 -91 
Q 1428 -91 1123 -41 
Q 819 9 494 109 
L 494 744 
Q 775 591 1075 516 
Q 1375 441 1709 441 
Q 2250 441 2565 725 
Q 2881 1009 2881 1497 
Q 2881 1984 2565 2268 
Q 2250 2553 1709 2553 
Q 1456 2553 1204 2497 
Q 953 2441 691 2322 
L 691 4666 
z
" transform="scale(0.015625)"/>
       </defs>
       <use xlink:href="#DejaVuSans-35"/>
       <use xlink:href="#DejaVuSans-30" x="63.623047"/>
      </g>
     </g>
    </g>
    <g id="xtick_3">
     <g id="line2d_5">
      <path d="M 158.826686 288.430125 
L 158.826686 22.318125 
" clip-path="url(#p821d4377e9)" style="fill: none; stroke-dasharray: 3.2,0.8,0.5,0.8; stroke-dashoffset: 0; stroke: #a9a9a9; stroke-width: 0.5"/>
     </g>
     <g id="line2d_6">
      <g>
       <use xlink:href="#maf5d2c54e1" x="158.826686" y="288.430125" style="stroke: #000000; stroke-width: 0.8"/>
      </g>
     </g>
     <g id="text_3">
      <!-- 100 -->
      <g transform="translate(149.282936 303.028562)scale(0.1 -0.1)">
       <defs>
        <path id="DejaVuSans-31" d="M 794 531 
L 1825 531 
L 1825 4091 
L 703 3866 
L 703 4441 
L 1819 4666 
L 2450 4666 
L 2450 531 
L 3481 531 
L 3481 0 
L 794 0 
L 794 531 
z
" transform="scale(0.015625)"/>
       </defs>
       <use xlink:href="#DejaVuSans-31"/>
       <use xlink:href="#DejaVuSans-30" x="63.623047"/>
       <use xlink:href="#DejaVuSans-30" x="127.246094"/>
      </g>
     </g>
    </g>
    <g id="xtick_4">
     <g id="line2d_7">
      <path d="M 204.043196 288.430125 
L 204.043196 22.318125 
" clip-path="url(#p821d4377e9)" style="fill: none; stroke-dasharray: 3.2,0.8,0.5,0.8; stroke-dashoffset: 0; stroke: #a9a9a9; stroke-width: 0.5"/>
     </g>
     <g id="line2d_8">
      <g>
       <use xlink:href="#maf5d2c54e1" x="204.043196" y="288.430125" style="stroke: #000000; stroke-width: 0.8"/>
      </g>
     </g>
     <g id="text_4">
      <!-- 150 -->
      <g transform="translate(194.499446 303.028562)scale(0.1 -0.1)">
       <use xlink:href="#DejaVuSans-31"/>
       <use xlink:href="#DejaVuSans-35" x="63.623047"/>
       <use xlink:href="#DejaVuSans-30" x="127.246094"/>
      </g>
     </g>
    </g>
    <g id="xtick_5">
     <g id="line2d_9">
      <path d="M 249.259707 288.430125 
L 249.259707 22.318125 
" clip-path="url(#p821d4377e9)" style="fill: none; stroke-dasharray: 3.2,0.8,0.5,0.8; stroke-dashoffset: 0; stroke: #a9a9a9; stroke-width: 0.5"/>
     </g>
     <g id="line2d_10">
      <g>
       <use xlink:href="#maf5d2c54e1" x="249.259707" y="288.430125" style="stroke: #000000; stroke-width: 0.8"/>
      </g>
     </g>
     <g id="text_5">
      <!-- 200 -->
      <g transform="translate(239.715957 303.028562)scale(0.1 -0.1)">
       <defs>
        <path id="DejaVuSans-32" d="M 1228 531 
L 3431 531 
L 3431 0 
L 469 0 
L 469 531 
Q 828 903 1448 1529 
Q 2069 2156 2228 2338 
Q 2531 2678 2651 2914 
Q 2772 3150 2772 3378 
Q 2772 3750 2511 3984 
Q 2250 4219 1831 4219 
Q 1534 4219 1204 4116 
Q 875 4013 500 3803 
L 500 4441 
Q 881 4594 1212 4672 
Q 1544 4750 1819 4750 
Q 2544 4750 2975 4387 
Q 3406 4025 3406 3419 
Q 3406 3131 3298 2873 
Q 3191 2616 2906 2266 
Q 2828 2175 2409 1742 
Q 1991 1309 1228 531 
z
" transform="scale(0.015625)"/>
       </defs>
       <use xlink:href="#DejaVuSans-32"/>
       <use xlink:href="#DejaVuSans-30" x="63.623047"/>
       <use xlink:href="#DejaVuSans-30" x="127.246094"/>
      </g>
     </g>
    </g>
    <g id="xtick_6">
     <g id="line2d_11">
      <path d="M 294.476217 288.430125 
L 294.476217 22.318125 
" clip-path="url(#p821d4377e9)" style="fill: none; stroke-dasharray: 3.2,0.8,0.5,0.8; stroke-dashoffset: 0; stroke: #a9a9a9; stroke-width: 0.5"/>
     </g>
     <g id="line2d_12">
      <g>
       <use xlink:href="#maf5d2c54e1" x="294.476217" y="288.430125" style="stroke: #000000; stroke-width: 0.8"/>
      </g>
     </g>
     <g id="text_6">
      <!-- 250 -->
      <g transform="translate(284.932467 303.028562)scale(0.1 -0.1)">
       <use xlink:href="#DejaVuSans-32"/>
       <use xlink:href="#DejaVuSans-35" x="63.623047"/>
       <use xlink:href="#DejaVuSans-30" x="127.246094"/>
      </g>
     </g>
    </g>
    <g id="xtick_7">
     <g id="line2d_13">
      <path d="M 339.692728 288.430125 
L 339.692728 22.318125 
" clip-path="url(#p821d4377e9)" style="fill: none; stroke-dasharray: 3.2,0.8,0.5,0.8; stroke-dashoffset: 0; stroke: #a9a9a9; stroke-width: 0.5"/>
     </g>
     <g id="line2d_14">
      <g>
       <use xlink:href="#maf5d2c54e1" x="339.692728" y="288.430125" style="stroke: #000000; stroke-width: 0.8"/>
      </g>
     </g>
     <g id="text_7">
      <!-- 300 -->
      <g transform="translate(330.148978 303.028562)scale(0.1 -0.1)">
       <defs>
        <path id="DejaVuSans-33" d="M 2597 2516 
Q 3050 2419 3304 2112 
Q 3559 1806 3559 1356 
Q 3559 666 3084 287 
Q 2609 -91 1734 -91 
Q 1441 -91 1130 -33 
Q 819 25 488 141 
L 488 750 
Q 750 597 1062 519 
Q 1375 441 1716 441 
Q 2309 441 2620 675 
Q 2931 909 2931 1356 
Q 2931 1769 2642 2001 
Q 2353 2234 1838 2234 
L 1294 2234 
L 1294 2753 
L 1863 2753 
Q 2328 2753 2575 2939 
Q 2822 3125 2822 3475 
Q 2822 3834 2567 4026 
Q 2313 4219 1838 4219 
Q 1578 4219 1281 4162 
Q 984 4106 628 3988 
L 628 4550 
Q 988 4650 1302 4700 
Q 1616 4750 1894 4750 
Q 2613 4750 3031 4423 
Q 3450 4097 3450 3541 
Q 3450 3153 3228 2886 
Q 3006 2619 2597 2516 
z
" transform="scale(0.015625)"/>
       </defs>
       <use xlink:href="#DejaVuSans-33"/>
       <use xlink:href="#DejaVuSans-30" x="63.623047"/>
       <use xlink:href="#DejaVuSans-30" x="127.246094"/>
      </g>
     </g>
    </g>
    <g id="xtick_8">
     <g id="line2d_15">
      <path d="M 384.909238 288.430125 
L 384.909238 22.318125 
" clip-path="url(#p821d4377e9)" style="fill: none; stroke-dasharray: 3.2,0.8,0.5,0.8; stroke-dashoffset: 0; stroke: #a9a9a9; stroke-width: 0.5"/>
     </g>
     <g id="line2d_16">
      <g>
       <use xlink:href="#maf5d2c54e1" x="384.909238" y="288.430125" style="stroke: #000000; stroke-width: 0.8"/>
      </g>
     </g>
     <g id="text_8">
      <!-- 350 -->
      <g transform="translate(375.365488 303.028562)scale(0.1 -0.1)">
       <use xlink:href="#DejaVuSans-33"/>
       <use xlink:href="#DejaVuSans-35" x="63.623047"/>
       <use xlink:href="#DejaVuSans-30" x="127.246094"/>
      </g>
     </g>
    </g>
    <g id="text_9">
     <!-- $\alpha$ [deg] -->
     <g transform="translate(212.470938 316.70825)scale(0.1 -0.1)">
      <defs>
       <path id="DejaVuSans-Oblique-3b1" d="M 2619 1628 
L 2622 2350 
Q 2625 3088 2069 3091 
Q 1653 3094 1394 2747 
Q 1069 2319 959 1747 
Q 825 1059 994 731 
Q 1169 397 1547 397 
Q 1966 397 2319 1063 
L 2619 1628 
z
M 2166 3578 
Q 3141 3594 3128 2584 
Q 3128 2584 3616 3500 
L 4128 3500 
L 3119 1603 
L 3109 919 
Q 3109 766 3194 638 
Q 3291 488 3391 488 
L 3669 488 
L 3575 0 
L 3228 0 
Q 2934 0 2722 263 
Q 2622 394 2619 669 
Q 2416 334 2066 50 
Q 1900 -81 1453 -78 
Q 722 -72 456 397 
Q 184 884 353 1747 
Q 534 2675 1009 3097 
Q 1544 3569 2166 3578 
z
" transform="scale(0.015625)"/>
       <path id="DejaVuSans-20" transform="scale(0.015625)"/>
       <path id="DejaVuSans-5b" d="M 550 4863 
L 1875 4863 
L 1875 4416 
L 1125 4416 
L 1125 -397 
L 1875 -397 
L 1875 -844 
L 550 -844 
L 550 4863 
z
" transform="scale(0.015625)"/>
       <path id="DejaVuSans-64" d="M 2906 2969 
L 2906 4863 
L 3481 4863 
L 3481 0 
L 2906 0 
L 2906 525 
Q 2725 213 2448 61 
Q 2172 -91 1784 -91 
Q 1150 -91 751 415 
Q 353 922 353 1747 
Q 353 2572 751 3078 
Q 1150 3584 1784 3584 
Q 2172 3584 2448 3432 
Q 2725 3281 2906 2969 
z
M 947 1747 
Q 947 1113 1208 752 
Q 1469 391 1925 391 
Q 2381 391 2643 752 
Q 2906 1113 2906 1747 
Q 2906 2381 2643 2742 
Q 2381 3103 1925 3103 
Q 1469 3103 1208 2742 
Q 947 2381 947 1747 
z
" transform="scale(0.015625)"/>
       <path id="DejaVuSans-65" d="M 3597 1894 
L 3597 1613 
L 953 1613 
Q 991 1019 1311 708 
Q 1631 397 2203 397 
Q 2534 397 2845 478 
Q 3156 559 3463 722 
L 3463 178 
Q 3153 47 2828 -22 
Q 2503 -91 2169 -91 
Q 1331 -91 842 396 
Q 353 884 353 1716 
Q 353 2575 817 3079 
Q 1281 3584 2069 3584 
Q 2775 3584 3186 3129 
Q 3597 2675 3597 1894 
z
M 3022 2063 
Q 3016 2534 2758 2815 
Q 2500 3097 2075 3097 
Q 1594 3097 1305 2825 
Q 1016 2553 972 2059 
L 3022 2063 
z
" transform="scale(0.015625)"/>
       <path id="DejaVuSans-67" d="M 2906 1791 
Q 2906 2416 2648 2759 
Q 2391 3103 1925 3103 
Q 1463 3103 1205 2759 
Q 947 2416 947 1791 
Q 947 1169 1205 825 
Q 1463 481 1925 481 
Q 2391 481 2648 825 
Q 2906 1169 2906 1791 
z
M 3481 434 
Q 3481 -459 3084 -895 
Q 2688 -1331 1869 -1331 
Q 1566 -1331 1297 -1286 
Q 1028 -1241 775 -1147 
L 775 -588 
Q 1028 -725 1275 -790 
Q 1522 -856 1778 -856 
Q 2344 -856 2625 -561 
Q 2906 -266 2906 331 
L 2906 616 
Q 2728 306 2450 153 
Q 2172 0 1784 0 
Q 1141 0 747 490 
Q 353 981 353 1791 
Q 353 2603 747 3093 
Q 1141 3584 1784 3584 
Q 2172 3584 2450 3431 
Q 2728 3278 2906 2969 
L 2906 3500 
L 3481 3500 
L 3481 434 
z
" transform="scale(0.015625)"/>
       <path id="DejaVuSans-5d" d="M 1947 4863 
L 1947 -844 
L 622 -844 
L 622 -397 
L 1369 -397 
L 1369 4416 
L 622 4416 
L 622 4863 
L 1947 4863 
z
" transform="scale(0.015625)"/>
      </defs>
      <use xlink:href="#DejaVuSans-Oblique-3b1" transform="translate(0 0.015625)"/>
      <use xlink:href="#DejaVuSans-20" transform="translate(65.917969 0.015625)"/>
      <use xlink:href="#DejaVuSans-5b" transform="translate(97.705078 0.015625)"/>
      <use xlink:href="#DejaVuSans-64" transform="translate(136.71875 0.015625)"/>
      <use xlink:href="#DejaVuSans-65" transform="translate(200.195312 0.015625)"/>
      <use xlink:href="#DejaVuSans-67" transform="translate(261.71875 0.015625)"/>
      <use xlink:href="#DejaVuSans-5d" transform="translate(325.195312 0.015625)"/>
     </g>
    </g>
   </g>
   <g id="matplotlib.axis_2">
    <g id="ytick_1">
     <g id="line2d_17">
      <path d="M 52.160938 288.257353 
L 409.280938 288.257353 
" clip-path="url(#p821d4377e9)" style="fill: none; stroke-dasharray: 3.2,0.8,0.5,0.8; stroke-dashoffset: 0; stroke: #a9a9a9; stroke-width: 0.5"/>
     </g>
     <g id="line2d_18">
      <defs>
       <path id="mbe65031992" d="M 0 0 
L -3.5 0 
" style="stroke: #000000; stroke-width: 0.8"/>
      </defs>
      <g>
       <use xlink:href="#mbe65031992" x="52.160938" y="288.257353" style="stroke: #000000; stroke-width: 0.8"/>
      </g>
     </g>
     <g id="text_10">
      <!-- −0.8 -->
      <g transform="translate(20.878125 292.056572)scale(0.1 -0.1)">
       <defs>
        <path id="DejaVuSans-2212" d="M 678 2272 
L 4684 2272 
L 4684 1741 
L 678 1741 
L 678 2272 
z
" transform="scale(0.015625)"/>
        <path id="DejaVuSans-2e" d="M 684 794 
L 1344 794 
L 1344 0 
L 684 0 
L 684 794 
z
" transform="scale(0.015625)"/>
        <path id="DejaVuSans-38" d="M 2034 2216 
Q 1584 2216 1326 1975 
Q 1069 1734 1069 1313 
Q 1069 891 1326 650 
Q 1584 409 2034 409 
Q 2484 409 2743 651 
Q 3003 894 3003 1313 
Q 3003 1734 2745 1975 
Q 2488 2216 2034 2216 
z
M 1403 2484 
Q 997 2584 770 2862 
Q 544 3141 544 3541 
Q 544 4100 942 4425 
Q 1341 4750 2034 4750 
Q 2731 4750 3128 4425 
Q 3525 4100 3525 3541 
Q 3525 3141 3298 2862 
Q 3072 2584 2669 2484 
Q 3125 2378 3379 2068 
Q 3634 1759 3634 1313 
Q 3634 634 3220 271 
Q 2806 -91 2034 -91 
Q 1263 -91 848 271 
Q 434 634 434 1313 
Q 434 1759 690 2068 
Q 947 2378 1403 2484 
z
M 1172 3481 
Q 1172 3119 1398 2916 
Q 1625 2713 2034 2713 
Q 2441 2713 2670 2916 
Q 2900 3119 2900 3481 
Q 2900 3844 2670 4047 
Q 2441 4250 2034 4250 
Q 1625 4250 1398 4047 
Q 1172 3844 1172 3481 
z
" transform="scale(0.015625)"/>
       </defs>
       <use xlink:href="#DejaVuSans-2212"/>
       <use xlink:href="#DejaVuSans-30" x="83.789062"/>
       <use xlink:href="#DejaVuSans-2e" x="147.412109"/>
       <use xlink:href="#DejaVuSans-38" x="179.199219"/>
      </g>
     </g>
    </g>
    <g id="ytick_2">
     <g id="line2d_19">
      <path d="M 52.160938 255.036546 
L 409.280938 255.036546 
" clip-path="url(#p821d4377e9)" style="fill: none; stroke-dasharray: 3.2,0.8,0.5,0.8; stroke-dashoffset: 0; stroke: #a9a9a9; stroke-width: 0.5"/>
     </g>
     <g id="line2d_20">
      <g>
       <use xlink:href="#mbe65031992" x="52.160938" y="255.036546" style="stroke: #000000; stroke-width: 0.8"/>
      </g>
     </g>
     <g id="text_11">
      <!-- −0.6 -->
      <g transform="translate(20.878125 258.835765)scale(0.1 -0.1)">
       <defs>
        <path id="DejaVuSans-36" d="M 2113 2584 
Q 1688 2584 1439 2293 
Q 1191 2003 1191 1497 
Q 1191 994 1439 701 
Q 1688 409 2113 409 
Q 2538 409 2786 701 
Q 3034 994 3034 1497 
Q 3034 2003 2786 2293 
Q 2538 2584 2113 2584 
z
M 3366 4563 
L 3366 3988 
Q 3128 4100 2886 4159 
Q 2644 4219 2406 4219 
Q 1781 4219 1451 3797 
Q 1122 3375 1075 2522 
Q 1259 2794 1537 2939 
Q 1816 3084 2150 3084 
Q 2853 3084 3261 2657 
Q 3669 2231 3669 1497 
Q 3669 778 3244 343 
Q 2819 -91 2113 -91 
Q 1303 -91 875 529 
Q 447 1150 447 2328 
Q 447 3434 972 4092 
Q 1497 4750 2381 4750 
Q 2619 4750 2861 4703 
Q 3103 4656 3366 4563 
z
" transform="scale(0.015625)"/>
       </defs>
       <use xlink:href="#DejaVuSans-2212"/>
       <use xlink:href="#DejaVuSans-30" x="83.789062"/>
       <use xlink:href="#DejaVuSans-2e" x="147.412109"/>
       <use xlink:href="#DejaVuSans-36" x="179.199219"/>
      </g>
     </g>
    </g>
    <g id="ytick_3">
     <g id="line2d_21">
      <path d="M 52.160938 221.815739 
L 409.280938 221.815739 
" clip-path="url(#p821d4377e9)" style="fill: none; stroke-dasharray: 3.2,0.8,0.5,0.8; stroke-dashoffset: 0; stroke: #a9a9a9; stroke-width: 0.5"/>
     </g>
     <g id="line2d_22">
      <g>
       <use xlink:href="#mbe65031992" x="52.160938" y="221.815739" style="stroke: #000000; stroke-width: 0.8"/>
      </g>
     </g>
     <g id="text_12">
      <!-- −0.4 -->
      <g transform="translate(20.878125 225.614958)scale(0.1 -0.1)">
       <defs>
        <path id="DejaVuSans-34" d="M 2419 4116 
L 825 1625 
L 2419 1625 
L 2419 4116 
z
M 2253 4666 
L 3047 4666 
L 3047 1625 
L 3713 1625 
L 3713 1100 
L 3047 1100 
L 3047 0 
L 2419 0 
L 2419 1100 
L 313 1100 
L 313 1709 
L 2253 4666 
z
" transform="scale(0.015625)"/>
       </defs>
       <use xlink:href="#DejaVuSans-2212"/>
       <use xlink:href="#DejaVuSans-30" x="83.789062"/>
       <use xlink:href="#DejaVuSans-2e" x="147.412109"/>
       <use xlink:href="#DejaVuSans-34" x="179.199219"/>
      </g>
     </g>
    </g>
    <g id="ytick_4">
     <g id="line2d_23">
      <path d="M 52.160938 188.594932 
L 409.280938 188.594932 
" clip-path="url(#p821d4377e9)" style="fill: none; stroke-dasharray: 3.2,0.8,0.5,0.8; stroke-dashoffset: 0; stroke: #a9a9a9; stroke-width: 0.5"/>
     </g>
     <g id="line2d_24">
      <g>
       <use xlink:href="#mbe65031992" x="52.160938" y="188.594932" style="stroke: #000000; stroke-width: 0.8"/>
      </g>
     </g>
     <g id="text_13">
      <!-- −0.2 -->
      <g transform="translate(20.878125 192.394151)scale(0.1 -0.1)">
       <use xlink:href="#DejaVuSans-2212"/>
       <use xlink:href="#DejaVuSans-30" x="83.789062"/>
       <use xlink:href="#DejaVuSans-2e" x="147.412109"/>
       <use xlink:href="#DejaVuSans-32" x="179.199219"/>
      </g>
     </g>
    </g>
    <g id="ytick_5">
     <g id="line2d_25">
      <path d="M 52.160938 155.374125 
L 409.280938 155.374125 
" clip-path="url(#p821d4377e9)" style="fill: none; stroke-dasharray: 3.2,0.8,0.5,0.8; stroke-dashoffset: 0; stroke: #a9a9a9; stroke-width: 0.5"/>
     </g>
     <g id="line2d_26">
      <g>
       <use xlink:href="#mbe65031992" x="52.160938" y="155.374125" style="stroke: #000000; stroke-width: 0.8"/>
      </g>
     </g>
     <g id="text_14">
      <!-- 0.0 -->
      <g transform="translate(29.257812 159.173344)scale(0.1 -0.1)">
       <use xlink:href="#DejaVuSans-30"/>
       <use xlink:href="#DejaVuSans-2e" x="63.623047"/>
       <use xlink:href="#DejaVuSans-30" x="95.410156"/>
      </g>
     </g>
    </g>
    <g id="ytick_6">
     <g id="line2d_27">
      <path d="M 52.160938 122.153318 
L 409.280938 122.153318 
" clip-path="url(#p821d4377e9)" style="fill: none; stroke-dasharray: 3.2,0.8,0.5,0.8; stroke-dashoffset: 0; stroke: #a9a9a9; stroke-width: 0.5"/>
     </g>
     <g id="line2d_28">
      <g>
       <use xlink:href="#mbe65031992" x="52.160938" y="122.153318" style="stroke: #000000; stroke-width: 0.8"/>
      </g>
     </g>
     <g id="text_15">
      <!-- 0.2 -->
      <g transform="translate(29.257812 125.952537)scale(0.1 -0.1)">
       <use xlink:href="#DejaVuSans-30"/>
       <use xlink:href="#DejaVuSans-2e" x="63.623047"/>
       <use xlink:href="#DejaVuSans-32" x="95.410156"/>
      </g>
     </g>
    </g>
    <g id="ytick_7">
     <g id="line2d_29">
      <path d="M 52.160938 88.932511 
L 409.280938 88.932511 
" clip-path="url(#p821d4377e9)" style="fill: none; stroke-dasharray: 3.2,0.8,0.5,0.8; stroke-dashoffset: 0; stroke: #a9a9a9; stroke-width: 0.5"/>
     </g>
     <g id="line2d_30">
      <g>
       <use xlink:href="#mbe65031992" x="52.160938" y="88.932511" style="stroke: #000000; stroke-width: 0.8"/>
      </g>
     </g>
     <g id="text_16">
      <!-- 0.4 -->
      <g transform="translate(29.257812 92.73173)scale(0.1 -0.1)">
       <use xlink:href="#DejaVuSans-30"/>
       <use xlink:href="#DejaVuSans-2e" x="63.623047"/>
       <use xlink:href="#DejaVuSans-34" x="95.410156"/>
      </g>
     </g>
    </g>
    <g id="ytick_8">
     <g id="line2d_31">
      <path d="M 52.160938 55.711704 
L 409.280938 55.711704 
" clip-path="url(#p821d4377e9)" style="fill: none; stroke-dasharray: 3.2,0.8,0.5,0.8; stroke-dashoffset: 0; stroke: #a9a9a9; stroke-width: 0.5"/>
     </g>
     <g id="line2d_32">
      <g>
       <use xlink:href="#mbe65031992" x="52.160938" y="55.711704" style="stroke: #000000; stroke-width: 0.8"/>
      </g>
     </g>
     <g id="text_17">
      <!-- 0.6 -->
      <g transform="translate(29.257812 59.510922)scale(0.1 -0.1)">
       <use xlink:href="#DejaVuSans-30"/>
       <use xlink:href="#DejaVuSans-2e" x="63.623047"/>
       <use xlink:href="#DejaVuSans-36" x="95.410156"/>
      </g>
     </g>
    </g>
    <g id="ytick_9">
     <g id="line2d_33">
      <path d="M 52.160938 22.490897 
L 409.280938 22.490897 
" clip-path="url(#p821d4377e9)" style="fill: none; stroke-dasharray: 3.2,0.8,0.5,0.8; stroke-dashoffset: 0; stroke: #a9a9a9; stroke-width: 0.5"/>
     </g>
     <g id="line2d_34">
      <g>
       <use xlink:href="#mbe65031992" x="52.160938" y="22.490897" style="stroke: #000000; stroke-width: 0.8"/>
      </g>
     </g>
     <g id="text_18">
      <!-- 0.8 -->
      <g transform="translate(29.257812 26.290115)scale(0.1 -0.1)">
       <use xlink:href="#DejaVuSans-30"/>
       <use xlink:href="#DejaVuSans-2e" x="63.623047"/>
       <use xlink:href="#DejaVuSans-38" x="95.410156"/>
      </g>
     </g>
    </g>
    <g id="text_19">
     <!-- $B$ [T] -->
     <g transform="translate(14.798438 167.374125)rotate(-90)scale(0.1 -0.1)">
      <defs>
       <path id="DejaVuSans-Oblique-42" d="M 1081 4666 
L 2694 4666 
Q 3350 4666 3675 4422 
Q 4000 4178 4000 3688 
Q 4000 3238 3720 2911 
Q 3441 2584 2988 2516 
Q 3375 2428 3569 2181 
Q 3763 1934 3763 1522 
Q 3763 819 3242 409 
Q 2722 0 1819 0 
L 172 0 
L 1081 4666 
z
M 1234 2228 
L 903 519 
L 1919 519 
Q 2491 519 2800 781 
Q 3109 1044 3109 1522 
Q 3109 1891 2904 2059 
Q 2700 2228 2247 2228 
L 1234 2228 
z
M 1606 4147 
L 1331 2741 
L 2272 2741 
Q 2775 2741 3058 2959 
Q 3341 3178 3341 3566 
Q 3341 3869 3150 4008 
Q 2959 4147 2541 4147 
L 1606 4147 
z
" transform="scale(0.015625)"/>
       <path id="DejaVuSans-54" d="M -19 4666 
L 3928 4666 
L 3928 4134 
L 2272 4134 
L 2272 0 
L 1638 0 
L 1638 4134 
L -19 4134 
L -19 4666 
z
" transform="scale(0.015625)"/>
      </defs>
      <use xlink:href="#DejaVuSans-Oblique-42" transform="translate(0 0.015625)"/>
      <use xlink:href="#DejaVuSans-20" transform="translate(68.603516 0.015625)"/>
      <use xlink:href="#DejaVuSans-5b" transform="translate(100.390625 0.015625)"/>
      <use xlink:href="#DejaVuSans-54" transform="translate(139.404297 0.015625)"/>
      <use xlink:href="#DejaVuSans-5d" transform="translate(200.488281 0.015625)"/>
     </g>
    </g>
   </g>
   <g id="line2d_35">
    <path d="M 68.393665 82.868399 
L 69.297995 77.001925 
L 70.202325 71.934197 
L 71.106655 67.663414 
L 72.010986 64.121637 
L 72.915316 61.189839 
L 74.723976 56.552478 
L 79.245627 46.775388 
L 81.054288 43.226389 
L 81.958618 41.757967 
L 82.862948 40.565315 
L 83.767278 39.664033 
L 84.671609 39.032814 
L 85.575939 38.616916 
L 89.19326 37.513783 
L 91.00192 36.518862 
L 93.714911 34.853318 
L 94.619241 34.528244 
L 95.523571 34.414125 
L 96.427901 34.528244 
L 97.332231 34.853318 
L 99.140892 35.921725 
L 100.949552 37.06453 
L 102.758213 37.854425 
L 105.471203 38.616916 
L 106.375534 39.032814 
L 107.279864 39.664033 
L 108.184194 40.565315 
L 109.088524 41.757967 
L 109.992854 43.226389 
L 111.801515 46.775388 
L 116.323166 56.552478 
L 117.227496 58.718765 
L 118.131826 61.189839 
L 119.036157 64.121637 
L 119.940487 67.663414 
L 120.844817 71.934197 
L 121.749147 77.001925 
L 123.557808 89.462258 
L 125.366468 104.201761 
L 128.079459 126.647487 
L 129.888119 138.958968 
L 130.792449 143.786132 
L 131.696779 147.638128 
L 132.60111 150.539518 
L 133.50544 152.584875 
L 134.40977 153.930148 
L 135.3141 154.780266 
L 137.122761 155.967984 
L 138.027091 156.818102 
L 138.931421 158.163375 
L 139.835751 160.208732 
L 140.740082 163.110122 
L 141.644412 166.962118 
L 142.548742 171.789282 
L 143.453072 177.542428 
L 145.261733 191.280402 
L 148.879053 221.285992 
L 150.687714 233.746325 
L 151.592044 238.814053 
L 152.496374 243.084836 
L 153.400705 246.626613 
L 154.305035 249.558411 
L 156.113695 254.195772 
L 160.635346 263.972862 
L 162.444007 267.521861 
L 163.348337 268.990283 
L 164.252667 270.182935 
L 165.156997 271.084217 
L 166.061327 271.715436 
L 166.965658 272.131334 
L 170.582979 273.234467 
L 172.391639 274.229388 
L 175.10463 275.894932 
L 176.00896 276.220006 
L 176.91329 276.334125 
L 177.81762 276.220006 
L 178.72195 275.894932 
L 180.530611 274.826525 
L 182.339271 273.68372 
L 184.147932 272.893825 
L 186.860922 272.131334 
L 187.765253 271.715436 
L 188.669583 271.084217 
L 189.573913 270.182935 
L 190.478243 268.990283 
L 191.382573 267.521861 
L 193.191234 263.972862 
L 197.712885 254.195772 
L 198.617215 252.029485 
L 199.521545 249.558411 
L 200.425875 246.626613 
L 201.330206 243.084836 
L 202.234536 238.814053 
L 203.138866 233.746325 
L 204.947527 221.285992 
L 206.756187 206.546489 
L 209.469178 184.100763 
L 211.277838 171.789282 
L 212.182168 166.962118 
L 213.086498 163.110122 
L 213.990829 160.208732 
L 214.895159 158.163375 
L 215.799489 156.818102 
L 216.703819 155.967984 
L 218.51248 154.780266 
L 219.41681 153.930148 
L 220.32114 152.584875 
L 221.22547 150.539518 
L 222.129801 147.638128 
L 223.034131 143.786132 
L 223.938461 138.958968 
L 224.842791 133.205822 
L 226.651452 119.467848 
L 230.268772 89.462258 
L 232.077433 77.001925 
L 232.981763 71.934197 
L 233.886093 67.663414 
L 234.790423 64.121637 
L 235.694754 61.189839 
L 237.503414 56.552478 
L 242.025065 46.775388 
L 243.833726 43.226389 
L 244.738056 41.757967 
L 245.642386 40.565315 
L 246.546716 39.664033 
L 247.451046 39.032814 
L 248.355377 38.616916 
L 251.972697 37.513783 
L 253.781358 36.518862 
L 256.494348 34.853318 
L 257.398679 34.528244 
L 258.303009 34.414125 
L 259.207339 34.528244 
L 260.111669 34.853318 
L 261.92033 35.921725 
L 263.72899 37.06453 
L 265.537651 37.854425 
L 268.250641 38.616916 
L 269.154971 39.032814 
L 270.059302 39.664033 
L 270.963632 40.565315 
L 271.867962 41.757967 
L 272.772292 43.226389 
L 274.580953 46.775388 
L 279.102604 56.552478 
L 280.006934 58.718765 
L 280.911264 61.189839 
L 281.815594 64.121637 
L 282.719925 67.663414 
L 283.624255 71.934197 
L 284.528585 77.001925 
L 286.337245 89.462258 
L 288.145906 104.201761 
L 290.858896 126.647487 
L 292.667557 138.958968 
L 293.571887 143.786132 
L 294.476217 147.638128 
L 295.380548 150.539518 
L 296.284878 152.584875 
L 297.189208 153.930148 
L 298.093538 154.780266 
L 299.902199 155.967984 
L 300.806529 156.818102 
L 301.710859 158.163375 
L 302.615189 160.208732 
L 303.519519 163.110122 
L 304.42385 166.962118 
L 305.32818 171.789282 
L 306.23251 177.542428 
L 308.04117 191.280402 
L 311.658491 221.285992 
L 313.467152 233.746325 
L 314.371482 238.814053 
L 315.275812 243.084836 
L 316.180142 246.626613 
L 317.084473 249.558411 
L 318.893133 254.195772 
L 323.414784 263.972862 
L 325.223444 267.521861 
L 326.127775 268.990283 
L 327.032105 270.182935 
L 327.936435 271.084217 
L 328.840765 271.715436 
L 329.745096 272.131334 
L 333.362416 273.234467 
L 335.171077 274.229388 
L 337.884067 275.894932 
L 338.788398 276.220006 
L 339.692728 276.334125 
L 340.597058 276.220006 
L 341.501388 275.894932 
L 343.310049 274.826525 
L 345.118709 273.68372 
L 346.92737 272.893825 
L 349.64036 272.131334 
L 350.54469 271.715436 
L 351.449021 271.084217 
L 352.353351 270.182935 
L 353.257681 268.990283 
L 354.162011 267.521861 
L 355.970672 263.972862 
L 360.492323 254.195772 
L 361.396653 252.029485 
L 362.300983 249.558411 
L 363.205313 246.626613 
L 364.109644 243.084836 
L 365.013974 238.814053 
L 365.918304 233.746325 
L 367.726964 221.285992 
L 369.535625 206.546489 
L 372.248615 184.100763 
L 374.057276 171.789282 
L 374.961606 166.962118 
L 375.865936 163.110122 
L 376.770266 160.208732 
L 377.674597 158.163375 
L 378.578927 156.818102 
L 379.483257 155.967984 
L 381.291917 154.780266 
L 382.196248 153.930148 
L 383.100578 152.584875 
L 384.004908 150.539518 
L 384.909238 147.638128 
L 385.813569 143.786132 
L 386.717899 138.958968 
L 387.622229 133.205822 
L 389.430889 119.467848 
L 393.04821 89.462258 
L 393.04821 89.462258 
" clip-path="url(#p821d4377e9)" style="fill: none; stroke: #1f77b4; stroke-width: 1.5; stroke-linecap: square"/>
   </g>
   <g id="line2d_36">
    <path d="M 68.393665 178.353682 
L 69.297995 180.18616 
L 70.202325 181.502989 
L 71.106655 182.170558 
L 72.010986 182.108314 
L 72.915316 181.29809 
L 73.819646 179.786319 
L 74.723976 177.679369 
L 76.532637 172.338135 
L 78.341297 166.838181 
L 79.245627 164.537289 
L 80.149958 162.766282 
L 81.054288 161.651154 
L 81.958618 161.27054 
L 82.862948 161.651154 
L 83.767278 162.766282 
L 84.671609 164.537289 
L 85.575939 166.838181 
L 89.19326 177.679369 
L 90.09759 179.786319 
L 91.00192 181.29809 
L 91.90625 182.108314 
L 92.81058 182.170558 
L 93.714911 181.502989 
L 94.619241 180.18616 
L 95.523571 178.353682 
L 100.045222 167.592401 
L 100.949552 166.129711 
L 101.853883 165.031857 
L 102.758213 164.253171 
L 103.662543 163.710264 
L 106.375534 162.478466 
L 108.184194 161.249107 
L 111.801515 158.107071 
L 112.705845 157.546724 
L 113.610175 157.175383 
L 114.514505 156.993412 
L 116.323166 157.038193 
L 118.131826 157.166244 
L 119.036157 157.086551 
L 119.940487 156.854961 
L 120.844817 156.468386 
L 122.653477 155.374125 
L 124.462138 154.279864 
L 125.366468 153.893289 
L 126.270798 153.661699 
L 127.175128 153.582006 
L 130.792449 153.754838 
L 131.696779 153.572867 
L 132.60111 153.201526 
L 133.50544 152.641179 
L 135.3141 151.114363 
L 137.122761 149.499143 
L 138.931421 148.269784 
L 142.548742 146.495079 
L 143.453072 145.716393 
L 144.357402 144.618539 
L 145.261733 143.155849 
L 146.166063 141.333149 
L 147.974723 136.905071 
L 149.783384 132.394568 
L 150.687714 130.56209 
L 151.592044 129.245261 
L 152.496374 128.577692 
L 153.400705 128.639936 
L 154.305035 129.45016 
L 155.209365 130.961931 
L 156.113695 133.068881 
L 157.922356 138.410115 
L 159.731016 143.910069 
L 160.635346 146.210961 
L 161.539676 147.981968 
L 162.444007 149.097096 
L 163.348337 149.47771 
L 164.252667 149.097096 
L 165.156997 147.981968 
L 166.061327 146.210961 
L 166.965658 143.910069 
L 170.582979 133.068881 
L 171.487309 130.961931 
L 172.391639 129.45016 
L 173.295969 128.639936 
L 174.200299 128.577692 
L 175.10463 129.245261 
L 176.00896 130.56209 
L 176.91329 132.394568 
L 181.434941 143.155849 
L 182.339271 144.618539 
L 183.243601 145.716393 
L 184.147932 146.495079 
L 185.052262 147.037986 
L 187.765253 148.269784 
L 189.573913 149.499143 
L 193.191234 152.641179 
L 194.095564 153.201526 
L 194.999894 153.572867 
L 195.904224 153.754838 
L 197.712885 153.710057 
L 199.521545 153.582006 
L 200.425875 153.661699 
L 201.330206 153.893289 
L 202.234536 154.279864 
L 204.043196 155.374125 
L 205.851857 156.468386 
L 206.756187 156.854961 
L 207.660517 157.086551 
L 208.564847 157.166244 
L 212.182168 156.993412 
L 213.086498 157.175383 
L 213.990829 157.546724 
L 214.895159 158.107071 
L 216.703819 159.633887 
L 218.51248 161.249107 
L 220.32114 162.478466 
L 223.938461 164.253171 
L 224.842791 165.031857 
L 225.747121 166.129711 
L 226.651452 167.592401 
L 227.555782 169.415101 
L 229.364442 173.843179 
L 231.173103 178.353682 
L 232.077433 180.18616 
L 232.981763 181.502989 
L 233.886093 182.170558 
L 234.790423 182.108314 
L 235.694754 181.29809 
L 236.599084 179.786319 
L 237.503414 177.679369 
L 239.312074 172.338135 
L 241.120735 166.838181 
L 242.025065 164.537289 
L 242.929395 162.766282 
L 243.833726 161.651154 
L 244.738056 161.27054 
L 245.642386 161.651154 
L 246.546716 162.766282 
L 247.451046 164.537289 
L 248.355377 166.838181 
L 251.972697 177.679369 
L 252.877028 179.786319 
L 253.781358 181.29809 
L 254.685688 182.108314 
L 255.590018 182.170558 
L 256.494348 181.502989 
L 257.398679 180.18616 
L 258.303009 178.353682 
L 262.82466 167.592401 
L 263.72899 166.129711 
L 264.63332 165.031857 
L 265.537651 164.253171 
L 266.441981 163.710264 
L 269.154971 162.478466 
L 270.963632 161.249107 
L 274.580953 158.107071 
L 275.485283 157.546724 
L 276.389613 157.175383 
L 277.293943 156.993412 
L 279.102604 157.038193 
L 280.911264 157.166244 
L 281.815594 157.086551 
L 282.719925 156.854961 
L 283.624255 156.468386 
L 285.432915 155.374125 
L 287.241576 154.279864 
L 288.145906 153.893289 
L 289.050236 153.661699 
L 289.954566 153.582006 
L 293.571887 153.754838 
L 294.476217 153.572867 
L 295.380548 153.201526 
L 296.284878 152.641179 
L 298.093538 151.114363 
L 299.902199 149.499143 
L 301.710859 148.269784 
L 305.32818 146.495079 
L 306.23251 145.716393 
L 307.13684 144.618539 
L 308.04117 143.155849 
L 308.945501 141.333149 
L 310.754161 136.905071 
L 312.562822 132.394568 
L 313.467152 130.56209 
L 314.371482 129.245261 
L 315.275812 128.577692 
L 316.180142 128.639936 
L 317.084473 129.45016 
L 317.988803 130.961931 
L 318.893133 133.068881 
L 320.701793 138.410115 
L 322.510454 143.910069 
L 323.414784 146.210961 
L 324.319114 147.981968 
L 325.223444 149.097096 
L 326.127775 149.47771 
L 327.032105 149.097096 
L 327.936435 147.981968 
L 328.840765 146.210961 
L 329.745096 143.910069 
L 333.362416 133.068881 
L 334.266747 130.961931 
L 335.171077 129.45016 
L 336.075407 128.639936 
L 336.979737 128.577692 
L 337.884067 129.245261 
L 338.788398 130.56209 
L 339.692728 132.394568 
L 344.214379 143.155849 
L 345.118709 144.618539 
L 346.023039 145.716393 
L 346.92737 146.495079 
L 347.8317 147.037986 
L 350.54469 148.269784 
L 352.353351 149.499143 
L 355.970672 152.641179 
L 356.875002 153.201526 
L 357.779332 153.572867 
L 358.683662 153.754838 
L 360.492323 153.710057 
L 362.300983 153.582006 
L 363.205313 153.661699 
L 364.109644 153.893289 
L 365.013974 154.279864 
L 366.822634 155.374125 
L 368.631295 156.468386 
L 369.535625 156.854961 
L 370.439955 157.086551 
L 371.344285 157.166244 
L 374.961606 156.993412 
L 375.865936 157.175383 
L 376.770266 157.546724 
L 377.674597 158.107071 
L 379.483257 159.633887 
L 381.291917 161.249107 
L 383.100578 162.478466 
L 386.717899 164.253171 
L 387.622229 165.031857 
L 388.526559 166.129711 
L 389.430889 167.592401 
L 390.33522 169.415101 
L 392.14388 173.843179 
L 393.04821 176.176592 
L 393.04821 176.176592 
" clip-path="url(#p821d4377e9)" style="fill: none; stroke: #ff7f0e; stroke-width: 1.5; stroke-linecap: square"/>
   </g>
   <g id="patch_3">
    <path d="M 52.160938 288.430125 
L 52.160938 22.318125 
" style="fill: none; stroke: #000000; stroke-width: 0.8; stroke-linejoin: miter; stroke-linecap: square"/>
   </g>
   <g id="patch_4">
    <path d="M 409.280938 288.430125 
L 409.280938 22.318125 
" style="fill: none; stroke: #000000; stroke-width: 0.8; stroke-linejoin: miter; stroke-linecap: square"/>
   </g>
   <g id="patch_5">
    <path d="M 52.160938 288.430125 
L 409.280938 288.430125 
" style="fill: none; stroke: #000000; stroke-width: 0.8; stroke-linejoin: miter; stroke-linecap: square"/>
   </g>
   <g id="patch_6">
    <path d="M 52.160938 22.318125 
L 409.280938 22.318125 
" style="fill: none; stroke: #000000; stroke-width: 0.8; stroke-linejoin: miter; stroke-linecap: square"/>
   </g>
   <g id="text_20">
    <!-- Radial and Tangetial PM Fields -->
    <g transform="translate(140.485625 16.318125)scale(0.12 -0.12)">
     <defs>
      <path id="DejaVuSans-52" d="M 2841 2188 
Q 3044 2119 3236 1894 
Q 3428 1669 3622 1275 
L 4263 0 
L 3584 0 
L 2988 1197 
Q 2756 1666 2539 1819 
Q 2322 1972 1947 1972 
L 1259 1972 
L 1259 0 
L 628 0 
L 628 4666 
L 2053 4666 
Q 2853 4666 3247 4331 
Q 3641 3997 3641 3322 
Q 3641 2881 3436 2590 
Q 3231 2300 2841 2188 
z
M 1259 4147 
L 1259 2491 
L 2053 2491 
Q 2509 2491 2742 2702 
Q 2975 2913 2975 3322 
Q 2975 3731 2742 3939 
Q 2509 4147 2053 4147 
L 1259 4147 
z
" transform="scale(0.015625)"/>
      <path id="DejaVuSans-61" d="M 2194 1759 
Q 1497 1759 1228 1600 
Q 959 1441 959 1056 
Q 959 750 1161 570 
Q 1363 391 1709 391 
Q 2188 391 2477 730 
Q 2766 1069 2766 1631 
L 2766 1759 
L 2194 1759 
z
M 3341 1997 
L 3341 0 
L 2766 0 
L 2766 531 
Q 2569 213 2275 61 
Q 1981 -91 1556 -91 
Q 1019 -91 701 211 
Q 384 513 384 1019 
Q 384 1609 779 1909 
Q 1175 2209 1959 2209 
L 2766 2209 
L 2766 2266 
Q 2766 2663 2505 2880 
Q 2244 3097 1772 3097 
Q 1472 3097 1187 3025 
Q 903 2953 641 2809 
L 641 3341 
Q 956 3463 1253 3523 
Q 1550 3584 1831 3584 
Q 2591 3584 2966 3190 
Q 3341 2797 3341 1997 
z
" transform="scale(0.015625)"/>
      <path id="DejaVuSans-69" d="M 603 3500 
L 1178 3500 
L 1178 0 
L 603 0 
L 603 3500 
z
M 603 4863 
L 1178 4863 
L 1178 4134 
L 603 4134 
L 603 4863 
z
" transform="scale(0.015625)"/>
      <path id="DejaVuSans-6c" d="M 603 4863 
L 1178 4863 
L 1178 0 
L 603 0 
L 603 4863 
z
" transform="scale(0.015625)"/>
      <path id="DejaVuSans-6e" d="M 3513 2113 
L 3513 0 
L 2938 0 
L 2938 2094 
Q 2938 2591 2744 2837 
Q 2550 3084 2163 3084 
Q 1697 3084 1428 2787 
Q 1159 2491 1159 1978 
L 1159 0 
L 581 0 
L 581 3500 
L 1159 3500 
L 1159 2956 
Q 1366 3272 1645 3428 
Q 1925 3584 2291 3584 
Q 2894 3584 3203 3211 
Q 3513 2838 3513 2113 
z
" transform="scale(0.015625)"/>
      <path id="DejaVuSans-74" d="M 1172 4494 
L 1172 3500 
L 2356 3500 
L 2356 3053 
L 1172 3053 
L 1172 1153 
Q 1172 725 1289 603 
Q 1406 481 1766 481 
L 2356 481 
L 2356 0 
L 1766 0 
Q 1100 0 847 248 
Q 594 497 594 1153 
L 594 3053 
L 172 3053 
L 172 3500 
L 594 3500 
L 594 4494 
L 1172 4494 
z
" transform="scale(0.015625)"/>
      <path id="DejaVuSans-50" d="M 1259 4147 
L 1259 2394 
L 2053 2394 
Q 2494 2394 2734 2622 
Q 2975 2850 2975 3272 
Q 2975 3691 2734 3919 
Q 2494 4147 2053 4147 
L 1259 4147 
z
M 628 4666 
L 2053 4666 
Q 2838 4666 3239 4311 
Q 3641 3956 3641 3272 
Q 3641 2581 3239 2228 
Q 2838 1875 2053 1875 
L 1259 1875 
L 1259 0 
L 628 0 
L 628 4666 
z
" transform="scale(0.015625)"/>
      <path id="DejaVuSans-4d" d="M 628 4666 
L 1569 4666 
L 2759 1491 
L 3956 4666 
L 4897 4666 
L 4897 0 
L 4281 0 
L 4281 4097 
L 3078 897 
L 2444 897 
L 1241 4097 
L 1241 0 
L 628 0 
L 628 4666 
z
" transform="scale(0.015625)"/>
      <path id="DejaVuSans-46" d="M 628 4666 
L 3309 4666 
L 3309 4134 
L 1259 4134 
L 1259 2759 
L 3109 2759 
L 3109 2228 
L 1259 2228 
L 1259 0 
L 628 0 
L 628 4666 
z
" transform="scale(0.015625)"/>
      <path id="DejaVuSans-73" d="M 2834 3397 
L 2834 2853 
Q 2591 2978 2328 3040 
Q 2066 3103 1784 3103 
Q 1356 3103 1142 2972 
Q 928 2841 928 2578 
Q 928 2378 1081 2264 
Q 1234 2150 1697 2047 
L 1894 2003 
Q 2506 1872 2764 1633 
Q 3022 1394 3022 966 
Q 3022 478 2636 193 
Q 2250 -91 1575 -91 
Q 1294 -91 989 -36 
Q 684 19 347 128 
L 347 722 
Q 666 556 975 473 
Q 1284 391 1588 391 
Q 1994 391 2212 530 
Q 2431 669 2431 922 
Q 2431 1156 2273 1281 
Q 2116 1406 1581 1522 
L 1381 1569 
Q 847 1681 609 1914 
Q 372 2147 372 2553 
Q 372 3047 722 3315 
Q 1072 3584 1716 3584 
Q 2034 3584 2315 3537 
Q 2597 3491 2834 3397 
z
" transform="scale(0.015625)"/>
     </defs>
     <use xlink:href="#DejaVuSans-52"/>
     <use xlink:href="#DejaVuSans-61" x="67.232422"/>
     <use xlink:href="#DejaVuSans-64" x="128.511719"/>
     <use xlink:href="#DejaVuSans-69" x="191.988281"/>
     <use xlink:href="#DejaVuSans-61" x="219.771484"/>
     <use xlink:href="#DejaVuSans-6c" x="281.050781"/>
     <use xlink:href="#DejaVuSans-20" x="308.833984"/>
     <use xlink:href="#DejaVuSans-61" x="340.621094"/>
     <use xlink:href="#DejaVuSans-6e" x="401.900391"/>
     <use xlink:href="#DejaVuSans-64" x="465.279297"/>
     <use xlink:href="#DejaVuSans-20" x="528.755859"/>
     <use xlink:href="#DejaVuSans-54" x="560.542969"/>
     <use xlink:href="#DejaVuSans-61" x="605.126953"/>
     <use xlink:href="#DejaVuSans-6e" x="666.40625"/>
     <use xlink:href="#DejaVuSans-67" x="729.785156"/>
     <use xlink:href="#DejaVuSans-65" x="793.261719"/>
     <use xlink:href="#DejaVuSans-74" x="854.785156"/>
     <use xlink:href="#DejaVuSans-69" x="893.994141"/>
     <use xlink:href="#DejaVuSans-61" x="921.777344"/>
     <use xlink:href="#DejaVuSans-6c" x="983.056641"/>
     <use xlink:href="#DejaVuSans-20" x="1010.839844"/>
     <use xlink:href="#DejaVuSans-50" x="1042.626953"/>
     <use xlink:href="#DejaVuSans-4d" x="1102.929688"/>
     <use xlink:href="#DejaVuSans-20" x="1189.208984"/>
     <use xlink:href="#DejaVuSans-46" x="1220.996094"/>
     <use xlink:href="#DejaVuSans-69" x="1271.265625"/>
     <use xlink:href="#DejaVuSans-65" x="1299.048828"/>
     <use xlink:href="#DejaVuSans-6c" x="1360.572266"/>
     <use xlink:href="#DejaVuSans-64" x="1388.355469"/>
     <use xlink:href="#DejaVuSans-73" x="1451.832031"/>
    </g>
   </g>
   <g id="legend_1">
    <g id="patch_7">
     <path d="M 351.580938 59.674375 
L 402.280938 59.674375 
Q 404.280938 59.674375 404.280938 57.674375 
L 404.280938 29.318125 
Q 404.280938 27.318125 402.280938 27.318125 
L 351.580938 27.318125 
Q 349.580938 27.318125 349.580938 29.318125 
L 349.580938 57.674375 
Q 349.580938 59.674375 351.580938 59.674375 
z
" style="fill: #ffffff; opacity: 0.8; stroke: #cccccc; stroke-linejoin: miter"/>
    </g>
    <g id="line2d_37">
     <path d="M 353.580938 35.416562 
L 363.580938 35.416562 
L 373.580938 35.416562 
" style="fill: none; stroke: #1f77b4; stroke-width: 1.5; stroke-linecap: square"/>
    </g>
    <g id="text_21">
     <!-- $B_n$ -->
     <g transform="translate(381.580938 38.916562)scale(0.1 -0.1)">
      <defs>
       <path id="DejaVuSans-Oblique-6e" d="M 3566 2113 
L 3156 0 
L 2578 0 
L 2988 2091 
Q 3016 2238 3031 2350 
Q 3047 2463 3047 2528 
Q 3047 2791 2881 2937 
Q 2716 3084 2419 3084 
Q 1956 3084 1622 2776 
Q 1288 2469 1184 1941 
L 800 0 
L 225 0 
L 903 3500 
L 1478 3500 
L 1363 2950 
Q 1603 3253 1940 3418 
Q 2278 3584 2650 3584 
Q 3113 3584 3367 3334 
Q 3622 3084 3622 2631 
Q 3622 2519 3608 2391 
Q 3594 2263 3566 2113 
z
" transform="scale(0.015625)"/>
      </defs>
      <use xlink:href="#DejaVuSans-Oblique-42" transform="translate(0 0.09375)"/>
      <use xlink:href="#DejaVuSans-Oblique-6e" transform="translate(68.603516 -16.3125)scale(0.7)"/>
     </g>
    </g>
    <g id="line2d_38">
     <path d="M 353.580938 50.094687 
L 363.580938 50.094687 
L 373.580938 50.094687 
" style="fill: none; stroke: #ff7f0e; stroke-width: 1.5; stroke-linecap: square"/>
    </g>
    <g id="text_22">
     <!-- $B_{tan}$ -->
     <g transform="translate(381.580938 53.594687)scale(0.1 -0.1)">
      <defs>
       <path id="DejaVuSans-Oblique-74" d="M 2706 3500 
L 2619 3053 
L 1472 3053 
L 1100 1153 
Q 1081 1047 1072 975 
Q 1063 903 1063 863 
Q 1063 663 1183 572 
Q 1303 481 1569 481 
L 2150 481 
L 2053 0 
L 1503 0 
Q 991 0 739 200 
Q 488 400 488 806 
Q 488 878 497 964 
Q 506 1050 525 1153 
L 897 3053 
L 409 3053 
L 500 3500 
L 978 3500 
L 1172 4494 
L 1747 4494 
L 1556 3500 
L 2706 3500 
z
" transform="scale(0.015625)"/>
       <path id="DejaVuSans-Oblique-61" d="M 3438 1997 
L 3047 0 
L 2472 0 
L 2578 531 
Q 2325 219 2001 64 
Q 1678 -91 1281 -91 
Q 834 -91 548 182 
Q 263 456 263 884 
Q 263 1497 752 1853 
Q 1241 2209 2100 2209 
L 2900 2209 
L 2931 2363 
Q 2938 2388 2941 2417 
Q 2944 2447 2944 2509 
Q 2944 2788 2717 2942 
Q 2491 3097 2081 3097 
Q 1800 3097 1504 3025 
Q 1209 2953 897 2809 
L 997 3341 
Q 1322 3463 1633 3523 
Q 1944 3584 2234 3584 
Q 2853 3584 3176 3315 
Q 3500 3047 3500 2534 
Q 3500 2431 3484 2292 
Q 3469 2153 3438 1997 
z
M 2816 1759 
L 2241 1759 
Q 1534 1759 1195 1570 
Q 856 1381 856 984 
Q 856 709 1029 553 
Q 1203 397 1509 397 
Q 1978 397 2328 733 
Q 2678 1069 2791 1631 
L 2816 1759 
z
" transform="scale(0.015625)"/>
      </defs>
      <use xlink:href="#DejaVuSans-Oblique-42" transform="translate(0 0.09375)"/>
      <use xlink:href="#DejaVuSans-Oblique-74" transform="translate(68.603516 -16.3125)scale(0.7)"/>
      <use xlink:href="#DejaVuSans-Oblique-61" transform="translate(96.049805 -16.3125)scale(0.7)"/>
      <use xlink:href="#DejaVuSans-Oblique-6e" transform="translate(138.945312 -16.3125)scale(0.7)"/>
     </g>
    </g>
   </g>
  </g>
 </g>
 <defs>
  <clipPath id="p821d4377e9">
   <rect x="52.160938" y="22.318125" width="357.12" height="266.112"/>
  </clipPath>
 </defs>
</svg>
