<?xml version="1.0" encoding="utf-8" standalone="no"?>
<!DOCTYPE svg PUBLIC "-//W3C//DTD SVG 1.1//EN"
  "http://www.w3.org/Graphics/SVG/1.1/DTD/svg11.dtd">
<svg xmlns:xlink="http://www.w3.org/1999/xlink" width="460.8pt" height="345.6pt" viewBox="0 0 460.8 345.6" xmlns="http://www.w3.org/2000/svg" version="1.1">
 <metadata>
  <rdf:RDF xmlns:dc="http://purl.org/dc/elements/1.1/" xmlns:cc="http://creativecommons.org/ns#" xmlns:rdf="http://www.w3.org/1999/02/22-rdf-syntax-ns#">
   <cc:Work>
    <dc:type rdf:resource="http://purl.org/dc/dcmitype/StillImage"/>
    <dc:date>2023-03-23T19:27:02.174438</dc:date>
    <dc:format>image/svg+xml</dc:format>
    <dc:creator>
     <cc:Agent>
      <dc:title>Matplotlib v3.5.1, https://matplotlib.org/</dc:title>
     </cc:Agent>
    </dc:creator>
   </cc:Work>
  </rdf:RDF>
 </metadata>
 <defs>
  <style type="text/css">*{stroke-linejoin: round; stroke-linecap: butt}</style>
 </defs>
 <g id="figure_1">
  <g id="patch_1">
   <path d="M 0 345.6 
L 460.8 345.6 
L 460.8 0 
L 0 0 
z
" style="fill: #ffffff"/>
  </g>
  <g id="axes_1">
   <g id="patch_2">
    <path d="M 57.6 307.584 
L 414.72 307.584 
L 414.72 41.472 
L 57.6 41.472 
z
" style="fill: #ffffff"/>
   </g>
   <g id="matplotlib.axis_1">
    <g id="xtick_1">
     <g id="line2d_1">
      <path d="M 73.832727 307.584 
L 73.832727 41.472 
" clip-path="url(#peb5e690356)" style="fill: none; stroke-dasharray: 3.2,0.8,0.5,0.8; stroke-dashoffset: 0; stroke: #a9a9a9; stroke-width: 0.5"/>
     </g>
     <g id="line2d_2">
      <defs>
       <path id="m39ea4f10d0" d="M 0 0 
L 0 3.5 
" style="stroke: #000000; stroke-width: 0.8"/>
      </defs>
      <g>
       <use xlink:href="#m39ea4f10d0" x="73.832727" y="307.584" style="stroke: #000000; stroke-width: 0.8"/>
      </g>
     </g>
     <g id="text_1">
      <!-- 0 -->
      <g transform="translate(70.651477 322.182437)scale(0.1 -0.1)">
       <defs>
        <path id="DejaVuSans-30" d="M 2034 4250 
Q 1547 4250 1301 3770 
Q 1056 3291 1056 2328 
Q 1056 1369 1301 889 
Q 1547 409 2034 409 
Q 2525 409 2770 889 
Q 3016 1369 3016 2328 
Q 3016 3291 2770 3770 
Q 2525 4250 2034 4250 
z
M 2034 4750 
Q 2819 4750 3233 4129 
Q 3647 3509 3647 2328 
Q 3647 1150 3233 529 
Q 2819 -91 2034 -91 
Q 1250 -91 836 529 
Q 422 1150 422 2328 
Q 422 3509 836 4129 
Q 1250 4750 2034 4750 
z
" transform="scale(0.015625)"/>
       </defs>
       <use xlink:href="#DejaVuSans-30"/>
      </g>
     </g>
    </g>
    <g id="xtick_2">
     <g id="line2d_3">
      <path d="M 119.049238 307.584 
L 119.049238 41.472 
" clip-path="url(#peb5e690356)" style="fill: none; stroke-dasharray: 3.2,0.8,0.5,0.8; stroke-dashoffset: 0; stroke: #a9a9a9; stroke-width: 0.5"/>
     </g>
     <g id="line2d_4">
      <g>
       <use xlink:href="#m39ea4f10d0" x="119.049238" y="307.584" style="stroke: #000000; stroke-width: 0.8"/>
      </g>
     </g>
     <g id="text_2">
      <!-- 50 -->
      <g transform="translate(112.686738 322.182437)scale(0.1 -0.1)">
       <defs>
        <path id="DejaVuSans-35" d="M 691 4666 
L 3169 4666 
L 3169 4134 
L 1269 4134 
L 1269 2991 
Q 1406 3038 1543 3061 
Q 1681 3084 1819 3084 
Q 2600 3084 3056 2656 
Q 3513 2228 3513 1497 
Q 3513 744 3044 326 
Q 2575 -91 1722 -91 
Q 1428 -91 1123 -41 
Q 819 9 494 109 
L 494 744 
Q 775 591 1075 516 
Q 1375 441 1709 441 
Q 2250 441 2565 725 
Q 2881 1009 2881 1497 
Q 2881 1984 2565 2268 
Q 2250 2553 1709 2553 
Q 1456 2553 1204 2497 
Q 953 2441 691 2322 
L 691 4666 
z
" transform="scale(0.015625)"/>
       </defs>
       <use xlink:href="#DejaVuSans-35"/>
       <use xlink:href="#DejaVuSans-30" x="63.623047"/>
      </g>
     </g>
    </g>
    <g id="xtick_3">
     <g id="line2d_5">
      <path d="M 164.265748 307.584 
L 164.265748 41.472 
" clip-path="url(#peb5e690356)" style="fill: none; stroke-dasharray: 3.2,0.8,0.5,0.8; stroke-dashoffset: 0; stroke: #a9a9a9; stroke-width: 0.5"/>
     </g>
     <g id="line2d_6">
      <g>
       <use xlink:href="#m39ea4f10d0" x="164.265748" y="307.584" style="stroke: #000000; stroke-width: 0.8"/>
      </g>
     </g>
     <g id="text_3">
      <!-- 100 -->
      <g transform="translate(154.721998 322.182437)scale(0.1 -0.1)">
       <defs>
        <path id="DejaVuSans-31" d="M 794 531 
L 1825 531 
L 1825 4091 
L 703 3866 
L 703 4441 
L 1819 4666 
L 2450 4666 
L 2450 531 
L 3481 531 
L 3481 0 
L 794 0 
L 794 531 
z
" transform="scale(0.015625)"/>
       </defs>
       <use xlink:href="#DejaVuSans-31"/>
       <use xlink:href="#DejaVuSans-30" x="63.623047"/>
       <use xlink:href="#DejaVuSans-30" x="127.246094"/>
      </g>
     </g>
    </g>
    <g id="xtick_4">
     <g id="line2d_7">
      <path d="M 209.482259 307.584 
L 209.482259 41.472 
" clip-path="url(#peb5e690356)" style="fill: none; stroke-dasharray: 3.2,0.8,0.5,0.8; stroke-dashoffset: 0; stroke: #a9a9a9; stroke-width: 0.5"/>
     </g>
     <g id="line2d_8">
      <g>
       <use xlink:href="#m39ea4f10d0" x="209.482259" y="307.584" style="stroke: #000000; stroke-width: 0.8"/>
      </g>
     </g>
     <g id="text_4">
      <!-- 150 -->
      <g transform="translate(199.938509 322.182437)scale(0.1 -0.1)">
       <use xlink:href="#DejaVuSans-31"/>
       <use xlink:href="#DejaVuSans-35" x="63.623047"/>
       <use xlink:href="#DejaVuSans-30" x="127.246094"/>
      </g>
     </g>
    </g>
    <g id="xtick_5">
     <g id="line2d_9">
      <path d="M 254.698769 307.584 
L 254.698769 41.472 
" clip-path="url(#peb5e690356)" style="fill: none; stroke-dasharray: 3.2,0.8,0.5,0.8; stroke-dashoffset: 0; stroke: #a9a9a9; stroke-width: 0.5"/>
     </g>
     <g id="line2d_10">
      <g>
       <use xlink:href="#m39ea4f10d0" x="254.698769" y="307.584" style="stroke: #000000; stroke-width: 0.8"/>
      </g>
     </g>
     <g id="text_5">
      <!-- 200 -->
      <g transform="translate(245.155019 322.182437)scale(0.1 -0.1)">
       <defs>
        <path id="DejaVuSans-32" d="M 1228 531 
L 3431 531 
L 3431 0 
L 469 0 
L 469 531 
Q 828 903 1448 1529 
Q 2069 2156 2228 2338 
Q 2531 2678 2651 2914 
Q 2772 3150 2772 3378 
Q 2772 3750 2511 3984 
Q 2250 4219 1831 4219 
Q 1534 4219 1204 4116 
Q 875 4013 500 3803 
L 500 4441 
Q 881 4594 1212 4672 
Q 1544 4750 1819 4750 
Q 2544 4750 2975 4387 
Q 3406 4025 3406 3419 
Q 3406 3131 3298 2873 
Q 3191 2616 2906 2266 
Q 2828 2175 2409 1742 
Q 1991 1309 1228 531 
z
" transform="scale(0.015625)"/>
       </defs>
       <use xlink:href="#DejaVuSans-32"/>
       <use xlink:href="#DejaVuSans-30" x="63.623047"/>
       <use xlink:href="#DejaVuSans-30" x="127.246094"/>
      </g>
     </g>
    </g>
    <g id="xtick_6">
     <g id="line2d_11">
      <path d="M 299.91528 307.584 
L 299.91528 41.472 
" clip-path="url(#peb5e690356)" style="fill: none; stroke-dasharray: 3.2,0.8,0.5,0.8; stroke-dashoffset: 0; stroke: #a9a9a9; stroke-width: 0.5"/>
     </g>
     <g id="line2d_12">
      <g>
       <use xlink:href="#m39ea4f10d0" x="299.91528" y="307.584" style="stroke: #000000; stroke-width: 0.8"/>
      </g>
     </g>
     <g id="text_6">
      <!-- 250 -->
      <g transform="translate(290.37153 322.182437)scale(0.1 -0.1)">
       <use xlink:href="#DejaVuSans-32"/>
       <use xlink:href="#DejaVuSans-35" x="63.623047"/>
       <use xlink:href="#DejaVuSans-30" x="127.246094"/>
      </g>
     </g>
    </g>
    <g id="xtick_7">
     <g id="line2d_13">
      <path d="M 345.13179 307.584 
L 345.13179 41.472 
" clip-path="url(#peb5e690356)" style="fill: none; stroke-dasharray: 3.2,0.8,0.5,0.8; stroke-dashoffset: 0; stroke: #a9a9a9; stroke-width: 0.5"/>
     </g>
     <g id="line2d_14">
      <g>
       <use xlink:href="#m39ea4f10d0" x="345.13179" y="307.584" style="stroke: #000000; stroke-width: 0.8"/>
      </g>
     </g>
     <g id="text_7">
      <!-- 300 -->
      <g transform="translate(335.58804 322.182437)scale(0.1 -0.1)">
       <defs>
        <path id="DejaVuSans-33" d="M 2597 2516 
Q 3050 2419 3304 2112 
Q 3559 1806 3559 1356 
Q 3559 666 3084 287 
Q 2609 -91 1734 -91 
Q 1441 -91 1130 -33 
Q 819 25 488 141 
L 488 750 
Q 750 597 1062 519 
Q 1375 441 1716 441 
Q 2309 441 2620 675 
Q 2931 909 2931 1356 
Q 2931 1769 2642 2001 
Q 2353 2234 1838 2234 
L 1294 2234 
L 1294 2753 
L 1863 2753 
Q 2328 2753 2575 2939 
Q 2822 3125 2822 3475 
Q 2822 3834 2567 4026 
Q 2313 4219 1838 4219 
Q 1578 4219 1281 4162 
Q 984 4106 628 3988 
L 628 4550 
Q 988 4650 1302 4700 
Q 1616 4750 1894 4750 
Q 2613 4750 3031 4423 
Q 3450 4097 3450 3541 
Q 3450 3153 3228 2886 
Q 3006 2619 2597 2516 
z
" transform="scale(0.015625)"/>
       </defs>
       <use xlink:href="#DejaVuSans-33"/>
       <use xlink:href="#DejaVuSans-30" x="63.623047"/>
       <use xlink:href="#DejaVuSans-30" x="127.246094"/>
      </g>
     </g>
    </g>
    <g id="xtick_8">
     <g id="line2d_15">
      <path d="M 390.348301 307.584 
L 390.348301 41.472 
" clip-path="url(#peb5e690356)" style="fill: none; stroke-dasharray: 3.2,0.8,0.5,0.8; stroke-dashoffset: 0; stroke: #a9a9a9; stroke-width: 0.5"/>
     </g>
     <g id="line2d_16">
      <g>
       <use xlink:href="#m39ea4f10d0" x="390.348301" y="307.584" style="stroke: #000000; stroke-width: 0.8"/>
      </g>
     </g>
     <g id="text_8">
      <!-- 350 -->
      <g transform="translate(380.804551 322.182437)scale(0.1 -0.1)">
       <use xlink:href="#DejaVuSans-33"/>
       <use xlink:href="#DejaVuSans-35" x="63.623047"/>
       <use xlink:href="#DejaVuSans-30" x="127.246094"/>
      </g>
     </g>
    </g>
    <g id="text_9">
     <!-- $\alpha$ [deg] -->
     <g transform="translate(217.91 335.862125)scale(0.1 -0.1)">
      <defs>
       <path id="DejaVuSans-Oblique-3b1" d="M 2619 1628 
L 2622 2350 
Q 2625 3088 2069 3091 
Q 1653 3094 1394 2747 
Q 1069 2319 959 1747 
Q 825 1059 994 731 
Q 1169 397 1547 397 
Q 1966 397 2319 1063 
L 2619 1628 
z
M 2166 3578 
Q 3141 3594 3128 2584 
Q 3128 2584 3616 3500 
L 4128 3500 
L 3119 1603 
L 3109 919 
Q 3109 766 3194 638 
Q 3291 488 3391 488 
L 3669 488 
L 3575 0 
L 3228 0 
Q 2934 0 2722 263 
Q 2622 394 2619 669 
Q 2416 334 2066 50 
Q 1900 -81 1453 -78 
Q 722 -72 456 397 
Q 184 884 353 1747 
Q 534 2675 1009 3097 
Q 1544 3569 2166 3578 
z
" transform="scale(0.015625)"/>
       <path id="DejaVuSans-20" transform="scale(0.015625)"/>
       <path id="DejaVuSans-5b" d="M 550 4863 
L 1875 4863 
L 1875 4416 
L 1125 4416 
L 1125 -397 
L 1875 -397 
L 1875 -844 
L 550 -844 
L 550 4863 
z
" transform="scale(0.015625)"/>
       <path id="DejaVuSans-64" d="M 2906 2969 
L 2906 4863 
L 3481 4863 
L 3481 0 
L 2906 0 
L 2906 525 
Q 2725 213 2448 61 
Q 2172 -91 1784 -91 
Q 1150 -91 751 415 
Q 353 922 353 1747 
Q 353 2572 751 3078 
Q 1150 3584 1784 3584 
Q 2172 3584 2448 3432 
Q 2725 3281 2906 2969 
z
M 947 1747 
Q 947 1113 1208 752 
Q 1469 391 1925 391 
Q 2381 391 2643 752 
Q 2906 1113 2906 1747 
Q 2906 2381 2643 2742 
Q 2381 3103 1925 3103 
Q 1469 3103 1208 2742 
Q 947 2381 947 1747 
z
" transform="scale(0.015625)"/>
       <path id="DejaVuSans-65" d="M 3597 1894 
L 3597 1613 
L 953 1613 
Q 991 1019 1311 708 
Q 1631 397 2203 397 
Q 2534 397 2845 478 
Q 3156 559 3463 722 
L 3463 178 
Q 3153 47 2828 -22 
Q 2503 -91 2169 -91 
Q 1331 -91 842 396 
Q 353 884 353 1716 
Q 353 2575 817 3079 
Q 1281 3584 2069 3584 
Q 2775 3584 3186 3129 
Q 3597 2675 3597 1894 
z
M 3022 2063 
Q 3016 2534 2758 2815 
Q 2500 3097 2075 3097 
Q 1594 3097 1305 2825 
Q 1016 2553 972 2059 
L 3022 2063 
z
" transform="scale(0.015625)"/>
       <path id="DejaVuSans-67" d="M 2906 1791 
Q 2906 2416 2648 2759 
Q 2391 3103 1925 3103 
Q 1463 3103 1205 2759 
Q 947 2416 947 1791 
Q 947 1169 1205 825 
Q 1463 481 1925 481 
Q 2391 481 2648 825 
Q 2906 1169 2906 1791 
z
M 3481 434 
Q 3481 -459 3084 -895 
Q 2688 -1331 1869 -1331 
Q 1566 -1331 1297 -1286 
Q 1028 -1241 775 -1147 
L 775 -588 
Q 1028 -725 1275 -790 
Q 1522 -856 1778 -856 
Q 2344 -856 2625 -561 
Q 2906 -266 2906 331 
L 2906 616 
Q 2728 306 2450 153 
Q 2172 0 1784 0 
Q 1141 0 747 490 
Q 353 981 353 1791 
Q 353 2603 747 3093 
Q 1141 3584 1784 3584 
Q 2172 3584 2450 3431 
Q 2728 3278 2906 2969 
L 2906 3500 
L 3481 3500 
L 3481 434 
z
" transform="scale(0.015625)"/>
       <path id="DejaVuSans-5d" d="M 1947 4863 
L 1947 -844 
L 622 -844 
L 622 -397 
L 1369 -397 
L 1369 4416 
L 622 4416 
L 622 4863 
L 1947 4863 
z
" transform="scale(0.015625)"/>
      </defs>
      <use xlink:href="#DejaVuSans-Oblique-3b1" transform="translate(0 0.015625)"/>
      <use xlink:href="#DejaVuSans-20" transform="translate(65.917969 0.015625)"/>
      <use xlink:href="#DejaVuSans-5b" transform="translate(97.705078 0.015625)"/>
      <use xlink:href="#DejaVuSans-64" transform="translate(136.71875 0.015625)"/>
      <use xlink:href="#DejaVuSans-65" transform="translate(200.195312 0.015625)"/>
      <use xlink:href="#DejaVuSans-67" transform="translate(261.71875 0.015625)"/>
      <use xlink:href="#DejaVuSans-5d" transform="translate(325.195312 0.015625)"/>
     </g>
    </g>
   </g>
   <g id="matplotlib.axis_2">
    <g id="ytick_1">
     <g id="line2d_17">
      <path d="M 57.6 307.411228 
L 414.72 307.411228 
" clip-path="url(#peb5e690356)" style="fill: none; stroke-dasharray: 3.2,0.8,0.5,0.8; stroke-dashoffset: 0; stroke: #a9a9a9; stroke-width: 0.5"/>
     </g>
     <g id="line2d_18">
      <defs>
       <path id="m562054f8dd" d="M 0 0 
L -3.5 0 
" style="stroke: #000000; stroke-width: 0.8"/>
      </defs>
      <g>
       <use xlink:href="#m562054f8dd" x="57.6" y="307.411228" style="stroke: #000000; stroke-width: 0.8"/>
      </g>
     </g>
     <g id="text_10">
      <!-- −0.8 -->
      <g transform="translate(26.317187 311.210447)scale(0.1 -0.1)">
       <defs>
        <path id="DejaVuSans-2212" d="M 678 2272 
L 4684 2272 
L 4684 1741 
L 678 1741 
L 678 2272 
z
" transform="scale(0.015625)"/>
        <path id="DejaVuSans-2e" d="M 684 794 
L 1344 794 
L 1344 0 
L 684 0 
L 684 794 
z
" transform="scale(0.015625)"/>
        <path id="DejaVuSans-38" d="M 2034 2216 
Q 1584 2216 1326 1975 
Q 1069 1734 1069 1313 
Q 1069 891 1326 650 
Q 1584 409 2034 409 
Q 2484 409 2743 651 
Q 3003 894 3003 1313 
Q 3003 1734 2745 1975 
Q 2488 2216 2034 2216 
z
M 1403 2484 
Q 997 2584 770 2862 
Q 544 3141 544 3541 
Q 544 4100 942 4425 
Q 1341 4750 2034 4750 
Q 2731 4750 3128 4425 
Q 3525 4100 3525 3541 
Q 3525 3141 3298 2862 
Q 3072 2584 2669 2484 
Q 3125 2378 3379 2068 
Q 3634 1759 3634 1313 
Q 3634 634 3220 271 
Q 2806 -91 2034 -91 
Q 1263 -91 848 271 
Q 434 634 434 1313 
Q 434 1759 690 2068 
Q 947 2378 1403 2484 
z
M 1172 3481 
Q 1172 3119 1398 2916 
Q 1625 2713 2034 2713 
Q 2441 2713 2670 2916 
Q 2900 3119 2900 3481 
Q 2900 3844 2670 4047 
Q 2441 4250 2034 4250 
Q 1625 4250 1398 4047 
Q 1172 3844 1172 3481 
z
" transform="scale(0.015625)"/>
       </defs>
       <use xlink:href="#DejaVuSans-2212"/>
       <use xlink:href="#DejaVuSans-30" x="83.789062"/>
       <use xlink:href="#DejaVuSans-2e" x="147.412109"/>
       <use xlink:href="#DejaVuSans-38" x="179.199219"/>
      </g>
     </g>
    </g>
    <g id="ytick_2">
     <g id="line2d_19">
      <path d="M 57.6 274.190421 
L 414.72 274.190421 
" clip-path="url(#peb5e690356)" style="fill: none; stroke-dasharray: 3.2,0.8,0.5,0.8; stroke-dashoffset: 0; stroke: #a9a9a9; stroke-width: 0.5"/>
     </g>
     <g id="line2d_20">
      <g>
       <use xlink:href="#m562054f8dd" x="57.6" y="274.190421" style="stroke: #000000; stroke-width: 0.8"/>
      </g>
     </g>
     <g id="text_11">
      <!-- −0.6 -->
      <g transform="translate(26.317187 277.98964)scale(0.1 -0.1)">
       <defs>
        <path id="DejaVuSans-36" d="M 2113 2584 
Q 1688 2584 1439 2293 
Q 1191 2003 1191 1497 
Q 1191 994 1439 701 
Q 1688 409 2113 409 
Q 2538 409 2786 701 
Q 3034 994 3034 1497 
Q 3034 2003 2786 2293 
Q 2538 2584 2113 2584 
z
M 3366 4563 
L 3366 3988 
Q 3128 4100 2886 4159 
Q 2644 4219 2406 4219 
Q 1781 4219 1451 3797 
Q 1122 3375 1075 2522 
Q 1259 2794 1537 2939 
Q 1816 3084 2150 3084 
Q 2853 3084 3261 2657 
Q 3669 2231 3669 1497 
Q 3669 778 3244 343 
Q 2819 -91 2113 -91 
Q 1303 -91 875 529 
Q 447 1150 447 2328 
Q 447 3434 972 4092 
Q 1497 4750 2381 4750 
Q 2619 4750 2861 4703 
Q 3103 4656 3366 4563 
z
" transform="scale(0.015625)"/>
       </defs>
       <use xlink:href="#DejaVuSans-2212"/>
       <use xlink:href="#DejaVuSans-30" x="83.789062"/>
       <use xlink:href="#DejaVuSans-2e" x="147.412109"/>
       <use xlink:href="#DejaVuSans-36" x="179.199219"/>
      </g>
     </g>
    </g>
    <g id="ytick_3">
     <g id="line2d_21">
      <path d="M 57.6 240.969614 
L 414.72 240.969614 
" clip-path="url(#peb5e690356)" style="fill: none; stroke-dasharray: 3.2,0.8,0.5,0.8; stroke-dashoffset: 0; stroke: #a9a9a9; stroke-width: 0.5"/>
     </g>
     <g id="line2d_22">
      <g>
       <use xlink:href="#m562054f8dd" x="57.6" y="240.969614" style="stroke: #000000; stroke-width: 0.8"/>
      </g>
     </g>
     <g id="text_12">
      <!-- −0.4 -->
      <g transform="translate(26.317187 244.768833)scale(0.1 -0.1)">
       <defs>
        <path id="DejaVuSans-34" d="M 2419 4116 
L 825 1625 
L 2419 1625 
L 2419 4116 
z
M 2253 4666 
L 3047 4666 
L 3047 1625 
L 3713 1625 
L 3713 1100 
L 3047 1100 
L 3047 0 
L 2419 0 
L 2419 1100 
L 313 1100 
L 313 1709 
L 2253 4666 
z
" transform="scale(0.015625)"/>
       </defs>
       <use xlink:href="#DejaVuSans-2212"/>
       <use xlink:href="#DejaVuSans-30" x="83.789062"/>
       <use xlink:href="#DejaVuSans-2e" x="147.412109"/>
       <use xlink:href="#DejaVuSans-34" x="179.199219"/>
      </g>
     </g>
    </g>
    <g id="ytick_4">
     <g id="line2d_23">
      <path d="M 57.6 207.748807 
L 414.72 207.748807 
" clip-path="url(#peb5e690356)" style="fill: none; stroke-dasharray: 3.2,0.8,0.5,0.8; stroke-dashoffset: 0; stroke: #a9a9a9; stroke-width: 0.5"/>
     </g>
     <g id="line2d_24">
      <g>
       <use xlink:href="#m562054f8dd" x="57.6" y="207.748807" style="stroke: #000000; stroke-width: 0.8"/>
      </g>
     </g>
     <g id="text_13">
      <!-- −0.2 -->
      <g transform="translate(26.317187 211.548026)scale(0.1 -0.1)">
       <use xlink:href="#DejaVuSans-2212"/>
       <use xlink:href="#DejaVuSans-30" x="83.789062"/>
       <use xlink:href="#DejaVuSans-2e" x="147.412109"/>
       <use xlink:href="#DejaVuSans-32" x="179.199219"/>
      </g>
     </g>
    </g>
    <g id="ytick_5">
     <g id="line2d_25">
      <path d="M 57.6 174.528 
L 414.72 174.528 
" clip-path="url(#peb5e690356)" style="fill: none; stroke-dasharray: 3.2,0.8,0.5,0.8; stroke-dashoffset: 0; stroke: #a9a9a9; stroke-width: 0.5"/>
     </g>
     <g id="line2d_26">
      <g>
       <use xlink:href="#m562054f8dd" x="57.6" y="174.528" style="stroke: #000000; stroke-width: 0.8"/>
      </g>
     </g>
     <g id="text_14">
      <!-- 0.0 -->
      <g transform="translate(34.696875 178.327219)scale(0.1 -0.1)">
       <use xlink:href="#DejaVuSans-30"/>
       <use xlink:href="#DejaVuSans-2e" x="63.623047"/>
       <use xlink:href="#DejaVuSans-30" x="95.410156"/>
      </g>
     </g>
    </g>
    <g id="ytick_6">
     <g id="line2d_27">
      <path d="M 57.6 141.307193 
L 414.72 141.307193 
" clip-path="url(#peb5e690356)" style="fill: none; stroke-dasharray: 3.2,0.8,0.5,0.8; stroke-dashoffset: 0; stroke: #a9a9a9; stroke-width: 0.5"/>
     </g>
     <g id="line2d_28">
      <g>
       <use xlink:href="#m562054f8dd" x="57.6" y="141.307193" style="stroke: #000000; stroke-width: 0.8"/>
      </g>
     </g>
     <g id="text_15">
      <!-- 0.2 -->
      <g transform="translate(34.696875 145.106412)scale(0.1 -0.1)">
       <use xlink:href="#DejaVuSans-30"/>
       <use xlink:href="#DejaVuSans-2e" x="63.623047"/>
       <use xlink:href="#DejaVuSans-32" x="95.410156"/>
      </g>
     </g>
    </g>
    <g id="ytick_7">
     <g id="line2d_29">
      <path d="M 57.6 108.086386 
L 414.72 108.086386 
" clip-path="url(#peb5e690356)" style="fill: none; stroke-dasharray: 3.2,0.8,0.5,0.8; stroke-dashoffset: 0; stroke: #a9a9a9; stroke-width: 0.5"/>
     </g>
     <g id="line2d_30">
      <g>
       <use xlink:href="#m562054f8dd" x="57.6" y="108.086386" style="stroke: #000000; stroke-width: 0.8"/>
      </g>
     </g>
     <g id="text_16">
      <!-- 0.4 -->
      <g transform="translate(34.696875 111.885605)scale(0.1 -0.1)">
       <use xlink:href="#DejaVuSans-30"/>
       <use xlink:href="#DejaVuSans-2e" x="63.623047"/>
       <use xlink:href="#DejaVuSans-34" x="95.410156"/>
      </g>
     </g>
    </g>
    <g id="ytick_8">
     <g id="line2d_31">
      <path d="M 57.6 74.865579 
L 414.72 74.865579 
" clip-path="url(#peb5e690356)" style="fill: none; stroke-dasharray: 3.2,0.8,0.5,0.8; stroke-dashoffset: 0; stroke: #a9a9a9; stroke-width: 0.5"/>
     </g>
     <g id="line2d_32">
      <g>
       <use xlink:href="#m562054f8dd" x="57.6" y="74.865579" style="stroke: #000000; stroke-width: 0.8"/>
      </g>
     </g>
     <g id="text_17">
      <!-- 0.6 -->
      <g transform="translate(34.696875 78.664797)scale(0.1 -0.1)">
       <use xlink:href="#DejaVuSans-30"/>
       <use xlink:href="#DejaVuSans-2e" x="63.623047"/>
       <use xlink:href="#DejaVuSans-36" x="95.410156"/>
      </g>
     </g>
    </g>
    <g id="ytick_9">
     <g id="line2d_33">
      <path d="M 57.6 41.644772 
L 414.72 41.644772 
" clip-path="url(#peb5e690356)" style="fill: none; stroke-dasharray: 3.2,0.8,0.5,0.8; stroke-dashoffset: 0; stroke: #a9a9a9; stroke-width: 0.5"/>
     </g>
     <g id="line2d_34">
      <g>
       <use xlink:href="#m562054f8dd" x="57.6" y="41.644772" style="stroke: #000000; stroke-width: 0.8"/>
      </g>
     </g>
     <g id="text_18">
      <!-- 0.8 -->
      <g transform="translate(34.696875 45.44399)scale(0.1 -0.1)">
       <use xlink:href="#DejaVuSans-30"/>
       <use xlink:href="#DejaVuSans-2e" x="63.623047"/>
       <use xlink:href="#DejaVuSans-38" x="95.410156"/>
      </g>
     </g>
    </g>
    <g id="text_19">
     <!-- $B$ [T] -->
     <g transform="translate(20.2375 186.528)rotate(-90)scale(0.1 -0.1)">
      <defs>
       <path id="DejaVuSans-Oblique-42" d="M 1081 4666 
L 2694 4666 
Q 3350 4666 3675 4422 
Q 4000 4178 4000 3688 
Q 4000 3238 3720 2911 
Q 3441 2584 2988 2516 
Q 3375 2428 3569 2181 
Q 3763 1934 3763 1522 
Q 3763 819 3242 409 
Q 2722 0 1819 0 
L 172 0 
L 1081 4666 
z
M 1234 2228 
L 903 519 
L 1919 519 
Q 2491 519 2800 781 
Q 3109 1044 3109 1522 
Q 3109 1891 2904 2059 
Q 2700 2228 2247 2228 
L 1234 2228 
z
M 1606 4147 
L 1331 2741 
L 2272 2741 
Q 2775 2741 3058 2959 
Q 3341 3178 3341 3566 
Q 3341 3869 3150 4008 
Q 2959 4147 2541 4147 
L 1606 4147 
z
" transform="scale(0.015625)"/>
       <path id="DejaVuSans-54" d="M -19 4666 
L 3928 4666 
L 3928 4134 
L 2272 4134 
L 2272 0 
L 1638 0 
L 1638 4134 
L -19 4134 
L -19 4666 
z
" transform="scale(0.015625)"/>
      </defs>
      <use xlink:href="#DejaVuSans-Oblique-42" transform="translate(0 0.015625)"/>
      <use xlink:href="#DejaVuSans-20" transform="translate(68.603516 0.015625)"/>
      <use xlink:href="#DejaVuSans-5b" transform="translate(100.390625 0.015625)"/>
      <use xlink:href="#DejaVuSans-54" transform="translate(139.404297 0.015625)"/>
      <use xlink:href="#DejaVuSans-5d" transform="translate(200.488281 0.015625)"/>
     </g>
    </g>
   </g>
   <g id="line2d_35">
    <path d="M 73.832727 247.033726 
L 75.641388 233.261113 
L 79.258709 203.254638 
L 81.067369 190.943157 
L 81.971699 186.115993 
L 82.876029 182.263997 
L 83.78036 179.362607 
L 84.68469 177.31725 
L 85.58902 175.971977 
L 86.49335 175.121859 
L 88.302011 173.934141 
L 89.206341 173.084023 
L 90.110671 171.73875 
L 91.015001 169.693393 
L 91.919331 166.792003 
L 92.823662 162.940007 
L 93.727992 158.112843 
L 94.632322 152.359697 
L 96.440983 138.621723 
L 100.058303 108.616133 
L 101.866964 96.1558 
L 102.771294 91.088072 
L 103.675624 86.817289 
L 104.579954 83.275512 
L 105.484285 80.343714 
L 107.292945 75.706353 
L 111.814596 65.929263 
L 113.623257 62.380264 
L 114.527587 60.911842 
L 115.431917 59.71919 
L 116.336247 58.817908 
L 117.240577 58.186689 
L 118.144908 57.770791 
L 121.762228 56.667658 
L 123.570889 55.672737 
L 126.283879 54.007193 
L 127.18821 53.682119 
L 128.09254 53.568 
L 128.99687 53.682119 
L 129.9012 54.007193 
L 131.709861 55.0756 
L 133.518521 56.218405 
L 135.327182 57.0083 
L 138.040172 57.770791 
L 138.944502 58.186689 
L 139.848833 58.817908 
L 140.753163 59.71919 
L 141.657493 60.911842 
L 142.561823 62.380264 
L 144.370484 65.929263 
L 148.892135 75.706353 
L 149.796465 77.87264 
L 150.700795 80.343714 
L 151.605125 83.275512 
L 152.509456 86.817289 
L 153.413786 91.088072 
L 154.318116 96.1558 
L 156.126776 108.616133 
L 157.935437 123.355636 
L 160.648427 145.801362 
L 162.457088 158.112843 
L 163.361418 162.940007 
L 164.265748 166.792003 
L 165.170079 169.693393 
L 166.074409 171.73875 
L 166.978739 173.084023 
L 167.883069 173.934141 
L 169.69173 175.121859 
L 170.59606 175.971977 
L 171.50039 177.31725 
L 172.40472 179.362607 
L 173.30905 182.263997 
L 174.213381 186.115993 
L 175.117711 190.943157 
L 176.022041 196.696303 
L 177.830701 210.434277 
L 181.448022 240.439867 
L 183.256683 252.9002 
L 184.161013 257.967928 
L 185.065343 262.238711 
L 185.969673 265.780488 
L 186.874004 268.712286 
L 188.682664 273.349647 
L 193.204315 283.126737 
L 195.012975 286.675736 
L 195.917306 288.144158 
L 196.821636 289.33681 
L 197.725966 290.238092 
L 198.630296 290.869311 
L 199.534626 291.285209 
L 203.151947 292.388342 
L 204.960608 293.383263 
L 207.673598 295.048807 
L 208.577929 295.373881 
L 209.482259 295.488 
L 210.386589 295.373881 
L 211.290919 295.048807 
L 213.09958 293.9804 
L 214.90824 292.837595 
L 216.7169 292.0477 
L 219.429891 291.285209 
L 220.334221 290.869311 
L 221.238552 290.238092 
L 222.142882 289.33681 
L 223.047212 288.144158 
L 223.951542 286.675736 
L 225.760203 283.126737 
L 230.281854 273.349647 
L 231.186184 271.18336 
L 232.090514 268.712286 
L 232.994844 265.780488 
L 233.899174 262.238711 
L 234.803505 257.967928 
L 235.707835 252.9002 
L 237.516495 240.439867 
L 239.325156 225.700364 
L 242.038146 203.254638 
L 243.846807 190.943157 
L 244.751137 186.115993 
L 245.655467 182.263997 
L 246.559797 179.362607 
L 247.464128 177.31725 
L 248.368458 175.971977 
L 249.272788 175.121859 
L 251.081448 173.934141 
L 251.985779 173.084023 
L 252.890109 171.73875 
L 253.794439 169.693393 
L 254.698769 166.792003 
L 255.6031 162.940007 
L 256.50743 158.112843 
L 257.41176 152.359697 
L 259.22042 138.621723 
L 262.837741 108.616133 
L 264.646402 96.1558 
L 265.550732 91.088072 
L 266.455062 86.817289 
L 267.359392 83.275512 
L 268.263722 80.343714 
L 270.072383 75.706353 
L 274.594034 65.929263 
L 276.402694 62.380264 
L 277.307025 60.911842 
L 278.211355 59.71919 
L 279.115685 58.817908 
L 280.020015 58.186689 
L 280.924345 57.770791 
L 284.541666 56.667658 
L 286.350327 55.672737 
L 289.063317 54.007193 
L 289.967648 53.682119 
L 290.871978 53.568 
L 291.776308 53.682119 
L 292.680638 54.007193 
L 294.489299 55.0756 
L 296.297959 56.218405 
L 298.106619 57.0083 
L 300.81961 57.770791 
L 301.72394 58.186689 
L 302.62827 58.817908 
L 303.532601 59.71919 
L 304.436931 60.911842 
L 305.341261 62.380264 
L 307.149921 65.929263 
L 311.671573 75.706353 
L 312.575903 77.87264 
L 313.480233 80.343714 
L 314.384563 83.275512 
L 315.288893 86.817289 
L 316.193224 91.088072 
L 317.097554 96.1558 
L 318.906214 108.616133 
L 320.714875 123.355636 
L 323.427865 145.801362 
L 325.236526 158.112843 
L 326.140856 162.940007 
L 327.045186 166.792003 
L 327.949516 169.693393 
L 328.853847 171.73875 
L 329.758177 173.084023 
L 330.662507 173.934141 
L 332.471167 175.121859 
L 333.375498 175.971977 
L 334.279828 177.31725 
L 335.184158 179.362607 
L 336.088488 182.263997 
L 336.992818 186.115993 
L 337.897149 190.943157 
L 338.801479 196.696303 
L 340.610139 210.434277 
L 344.22746 240.439867 
L 346.036121 252.9002 
L 346.940451 257.967928 
L 347.844781 262.238711 
L 348.749111 265.780488 
L 349.653441 268.712286 
L 351.462102 273.349647 
L 355.983753 283.126737 
L 357.792413 286.675736 
L 358.696743 288.144158 
L 359.601074 289.33681 
L 360.505404 290.238092 
L 361.409734 290.869311 
L 362.314064 291.285209 
L 365.931385 292.388342 
L 367.740046 293.383263 
L 370.453036 295.048807 
L 371.357366 295.373881 
L 372.261697 295.488 
L 373.166027 295.373881 
L 374.070357 295.048807 
L 375.879017 293.9804 
L 377.687678 292.837595 
L 379.496338 292.0477 
L 382.209329 291.285209 
L 383.113659 290.869311 
L 384.017989 290.238092 
L 384.92232 289.33681 
L 385.82665 288.144158 
L 386.73098 286.675736 
L 388.53964 283.126737 
L 393.061291 273.349647 
L 393.965622 271.18336 
L 394.869952 268.712286 
L 395.774282 265.780488 
L 396.678612 262.238711 
L 397.582943 257.967928 
L 398.487273 252.9002 
L 398.487273 252.9002 
" clip-path="url(#peb5e690356)" style="fill: none; stroke: #1f77b4; stroke-width: 1.5; stroke-linecap: square"/>
   </g>
   <g id="line2d_36">
    <path d="M 73.832727 197.507557 
L 74.737057 199.340035 
L 75.641388 200.656864 
L 76.545718 201.324433 
L 77.450048 201.262189 
L 78.354378 200.451965 
L 79.258709 198.940194 
L 80.163039 196.833244 
L 81.971699 191.49201 
L 83.78036 185.992056 
L 84.68469 183.691164 
L 85.58902 181.920157 
L 86.49335 180.805029 
L 87.39768 180.424415 
L 88.302011 180.805029 
L 89.206341 181.920157 
L 90.110671 183.691164 
L 91.015001 185.992056 
L 94.632322 196.833244 
L 95.536652 198.940194 
L 96.440983 200.451965 
L 97.345313 201.262189 
L 98.249643 201.324433 
L 99.153973 200.656864 
L 100.058303 199.340035 
L 100.962634 197.507557 
L 105.484285 186.746276 
L 106.388615 185.283586 
L 107.292945 184.185732 
L 108.197275 183.407046 
L 109.101605 182.864139 
L 111.814596 181.632341 
L 113.623257 180.402982 
L 117.240577 177.260946 
L 118.144908 176.700599 
L 119.049238 176.329258 
L 119.953568 176.147287 
L 121.762228 176.192068 
L 123.570889 176.320119 
L 124.475219 176.240426 
L 125.379549 176.008836 
L 126.283879 175.622261 
L 128.09254 174.528 
L 129.9012 173.433739 
L 130.805531 173.047164 
L 131.709861 172.815574 
L 132.614191 172.735881 
L 136.231512 172.908713 
L 137.135842 172.726742 
L 138.040172 172.355401 
L 138.944502 171.795054 
L 140.753163 170.268238 
L 142.561823 168.653018 
L 144.370484 167.423659 
L 147.987805 165.648954 
L 148.892135 164.870268 
L 149.796465 163.772414 
L 150.700795 162.309724 
L 151.605125 160.487024 
L 153.413786 156.058946 
L 155.222446 151.548443 
L 156.126776 149.715965 
L 157.031107 148.399136 
L 157.935437 147.731567 
L 158.839767 147.793811 
L 159.744097 148.604035 
L 160.648427 150.115806 
L 161.552758 152.222756 
L 163.361418 157.56399 
L 165.170079 163.063944 
L 166.074409 165.364836 
L 166.978739 167.135843 
L 167.883069 168.250971 
L 168.787399 168.631585 
L 169.69173 168.250971 
L 170.59606 167.135843 
L 171.50039 165.364836 
L 172.40472 163.063944 
L 176.022041 152.222756 
L 176.926371 150.115806 
L 177.830701 148.604035 
L 178.735032 147.793811 
L 179.639362 147.731567 
L 180.543692 148.399136 
L 181.448022 149.715965 
L 182.352352 151.548443 
L 186.874004 162.309724 
L 187.778334 163.772414 
L 188.682664 164.870268 
L 189.586994 165.648954 
L 190.491324 166.191861 
L 193.204315 167.423659 
L 195.012975 168.653018 
L 198.630296 171.795054 
L 199.534626 172.355401 
L 200.438957 172.726742 
L 201.343287 172.908713 
L 203.151947 172.863932 
L 204.960608 172.735881 
L 205.864938 172.815574 
L 206.769268 173.047164 
L 207.673598 173.433739 
L 209.482259 174.528 
L 211.290919 175.622261 
L 212.195249 176.008836 
L 213.09958 176.240426 
L 214.00391 176.320119 
L 217.621231 176.147287 
L 218.525561 176.329258 
L 219.429891 176.700599 
L 220.334221 177.260946 
L 222.142882 178.787762 
L 223.951542 180.402982 
L 225.760203 181.632341 
L 229.377523 183.407046 
L 230.281854 184.185732 
L 231.186184 185.283586 
L 232.090514 186.746276 
L 232.994844 188.568976 
L 234.803505 192.997054 
L 236.612165 197.507557 
L 237.516495 199.340035 
L 238.420826 200.656864 
L 239.325156 201.324433 
L 240.229486 201.262189 
L 241.133816 200.451965 
L 242.038146 198.940194 
L 242.942477 196.833244 
L 244.751137 191.49201 
L 246.559797 185.992056 
L 247.464128 183.691164 
L 248.368458 181.920157 
L 249.272788 180.805029 
L 250.177118 180.424415 
L 251.081448 180.805029 
L 251.985779 181.920157 
L 252.890109 183.691164 
L 253.794439 185.992056 
L 257.41176 196.833244 
L 258.31609 198.940194 
L 259.22042 200.451965 
L 260.124751 201.262189 
L 261.029081 201.324433 
L 261.933411 200.656864 
L 262.837741 199.340035 
L 263.742071 197.507557 
L 268.263722 186.746276 
L 269.168053 185.283586 
L 270.072383 184.185732 
L 270.976713 183.407046 
L 271.881043 182.864139 
L 274.594034 181.632341 
L 276.402694 180.402982 
L 280.020015 177.260946 
L 280.924345 176.700599 
L 281.828676 176.329258 
L 282.733006 176.147287 
L 284.541666 176.192068 
L 286.350327 176.320119 
L 287.254657 176.240426 
L 288.158987 176.008836 
L 289.063317 175.622261 
L 290.871978 174.528 
L 292.680638 173.433739 
L 293.584968 173.047164 
L 294.489299 172.815574 
L 295.393629 172.735881 
L 299.01095 172.908713 
L 299.91528 172.726742 
L 300.81961 172.355401 
L 301.72394 171.795054 
L 303.532601 170.268238 
L 305.341261 168.653018 
L 307.149921 167.423659 
L 310.767242 165.648954 
L 311.671573 164.870268 
L 312.575903 163.772414 
L 313.480233 162.309724 
L 314.384563 160.487024 
L 316.193224 156.058946 
L 318.001884 151.548443 
L 318.906214 149.715965 
L 319.810544 148.399136 
L 320.714875 147.731567 
L 321.619205 147.793811 
L 322.523535 148.604035 
L 323.427865 150.115806 
L 324.332195 152.222756 
L 326.140856 157.56399 
L 327.949516 163.063944 
L 328.853847 165.364836 
L 329.758177 167.135843 
L 330.662507 168.250971 
L 331.566837 168.631585 
L 332.471167 168.250971 
L 333.375498 167.135843 
L 334.279828 165.364836 
L 335.184158 163.063944 
L 338.801479 152.222756 
L 339.705809 150.115806 
L 340.610139 148.604035 
L 341.514469 147.793811 
L 342.4188 147.731567 
L 343.32313 148.399136 
L 344.22746 149.715965 
L 345.13179 151.548443 
L 349.653441 162.309724 
L 350.557772 163.772414 
L 351.462102 164.870268 
L 352.366432 165.648954 
L 353.270762 166.191861 
L 355.983753 167.423659 
L 357.792413 168.653018 
L 361.409734 171.795054 
L 362.314064 172.355401 
L 363.218395 172.726742 
L 364.122725 172.908713 
L 365.931385 172.863932 
L 367.740046 172.735881 
L 368.644376 172.815574 
L 369.548706 173.047164 
L 370.453036 173.433739 
L 372.261697 174.528 
L 374.070357 175.622261 
L 374.974687 176.008836 
L 375.879017 176.240426 
L 376.783348 176.320119 
L 380.400669 176.147287 
L 381.304999 176.329258 
L 382.209329 176.700599 
L 383.113659 177.260946 
L 384.92232 178.787762 
L 386.73098 180.402982 
L 388.53964 181.632341 
L 392.156961 183.407046 
L 393.061291 184.185732 
L 393.965622 185.283586 
L 394.869952 186.746276 
L 395.774282 188.568976 
L 397.582943 192.997054 
L 398.487273 195.330467 
L 398.487273 195.330467 
" clip-path="url(#peb5e690356)" style="fill: none; stroke: #ff7f0e; stroke-width: 1.5; stroke-linecap: square"/>
   </g>
   <g id="patch_3">
    <path d="M 57.6 307.584 
L 57.6 41.472 
" style="fill: none; stroke: #000000; stroke-width: 0.8; stroke-linejoin: miter; stroke-linecap: square"/>
   </g>
   <g id="patch_4">
    <path d="M 414.72 307.584 
L 414.72 41.472 
" style="fill: none; stroke: #000000; stroke-width: 0.8; stroke-linejoin: miter; stroke-linecap: square"/>
   </g>
   <g id="patch_5">
    <path d="M 57.6 307.584 
L 414.72 307.584 
" style="fill: none; stroke: #000000; stroke-width: 0.8; stroke-linejoin: miter; stroke-linecap: square"/>
   </g>
   <g id="patch_6">
    <path d="M 57.6 41.472 
L 414.72 41.472 
" style="fill: none; stroke: #000000; stroke-width: 0.8; stroke-linejoin: miter; stroke-linecap: square"/>
   </g>
   <g id="text_20">
    <!-- Radial and Tangetial PM Fields -->
    <g transform="translate(145.924688 35.472)scale(0.12 -0.12)">
     <defs>
      <path id="DejaVuSans-52" d="M 2841 2188 
Q 3044 2119 3236 1894 
Q 3428 1669 3622 1275 
L 4263 0 
L 3584 0 
L 2988 1197 
Q 2756 1666 2539 1819 
Q 2322 1972 1947 1972 
L 1259 1972 
L 1259 0 
L 628 0 
L 628 4666 
L 2053 4666 
Q 2853 4666 3247 4331 
Q 3641 3997 3641 3322 
Q 3641 2881 3436 2590 
Q 3231 2300 2841 2188 
z
M 1259 4147 
L 1259 2491 
L 2053 2491 
Q 2509 2491 2742 2702 
Q 2975 2913 2975 3322 
Q 2975 3731 2742 3939 
Q 2509 4147 2053 4147 
L 1259 4147 
z
" transform="scale(0.015625)"/>
      <path id="DejaVuSans-61" d="M 2194 1759 
Q 1497 1759 1228 1600 
Q 959 1441 959 1056 
Q 959 750 1161 570 
Q 1363 391 1709 391 
Q 2188 391 2477 730 
Q 2766 1069 2766 1631 
L 2766 1759 
L 2194 1759 
z
M 3341 1997 
L 3341 0 
L 2766 0 
L 2766 531 
Q 2569 213 2275 61 
Q 1981 -91 1556 -91 
Q 1019 -91 701 211 
Q 384 513 384 1019 
Q 384 1609 779 1909 
Q 1175 2209 1959 2209 
L 2766 2209 
L 2766 2266 
Q 2766 2663 2505 2880 
Q 2244 3097 1772 3097 
Q 1472 3097 1187 3025 
Q 903 2953 641 2809 
L 641 3341 
Q 956 3463 1253 3523 
Q 1550 3584 1831 3584 
Q 2591 3584 2966 3190 
Q 3341 2797 3341 1997 
z
" transform="scale(0.015625)"/>
      <path id="DejaVuSans-69" d="M 603 3500 
L 1178 3500 
L 1178 0 
L 603 0 
L 603 3500 
z
M 603 4863 
L 1178 4863 
L 1178 4134 
L 603 4134 
L 603 4863 
z
" transform="scale(0.015625)"/>
      <path id="DejaVuSans-6c" d="M 603 4863 
L 1178 4863 
L 1178 0 
L 603 0 
L 603 4863 
z
" transform="scale(0.015625)"/>
      <path id="DejaVuSans-6e" d="M 3513 2113 
L 3513 0 
L 2938 0 
L 2938 2094 
Q 2938 2591 2744 2837 
Q 2550 3084 2163 3084 
Q 1697 3084 1428 2787 
Q 1159 2491 1159 1978 
L 1159 0 
L 581 0 
L 581 3500 
L 1159 3500 
L 1159 2956 
Q 1366 3272 1645 3428 
Q 1925 3584 2291 3584 
Q 2894 3584 3203 3211 
Q 3513 2838 3513 2113 
z
" transform="scale(0.015625)"/>
      <path id="DejaVuSans-74" d="M 1172 4494 
L 1172 3500 
L 2356 3500 
L 2356 3053 
L 1172 3053 
L 1172 1153 
Q 1172 725 1289 603 
Q 1406 481 1766 481 
L 2356 481 
L 2356 0 
L 1766 0 
Q 1100 0 847 248 
Q 594 497 594 1153 
L 594 3053 
L 172 3053 
L 172 3500 
L 594 3500 
L 594 4494 
L 1172 4494 
z
" transform="scale(0.015625)"/>
      <path id="DejaVuSans-50" d="M 1259 4147 
L 1259 2394 
L 2053 2394 
Q 2494 2394 2734 2622 
Q 2975 2850 2975 3272 
Q 2975 3691 2734 3919 
Q 2494 4147 2053 4147 
L 1259 4147 
z
M 628 4666 
L 2053 4666 
Q 2838 4666 3239 4311 
Q 3641 3956 3641 3272 
Q 3641 2581 3239 2228 
Q 2838 1875 2053 1875 
L 1259 1875 
L 1259 0 
L 628 0 
L 628 4666 
z
" transform="scale(0.015625)"/>
      <path id="DejaVuSans-4d" d="M 628 4666 
L 1569 4666 
L 2759 1491 
L 3956 4666 
L 4897 4666 
L 4897 0 
L 4281 0 
L 4281 4097 
L 3078 897 
L 2444 897 
L 1241 4097 
L 1241 0 
L 628 0 
L 628 4666 
z
" transform="scale(0.015625)"/>
      <path id="DejaVuSans-46" d="M 628 4666 
L 3309 4666 
L 3309 4134 
L 1259 4134 
L 1259 2759 
L 3109 2759 
L 3109 2228 
L 1259 2228 
L 1259 0 
L 628 0 
L 628 4666 
z
" transform="scale(0.015625)"/>
      <path id="DejaVuSans-73" d="M 2834 3397 
L 2834 2853 
Q 2591 2978 2328 3040 
Q 2066 3103 1784 3103 
Q 1356 3103 1142 2972 
Q 928 2841 928 2578 
Q 928 2378 1081 2264 
Q 1234 2150 1697 2047 
L 1894 2003 
Q 2506 1872 2764 1633 
Q 3022 1394 3022 966 
Q 3022 478 2636 193 
Q 2250 -91 1575 -91 
Q 1294 -91 989 -36 
Q 684 19 347 128 
L 347 722 
Q 666 556 975 473 
Q 1284 391 1588 391 
Q 1994 391 2212 530 
Q 2431 669 2431 922 
Q 2431 1156 2273 1281 
Q 2116 1406 1581 1522 
L 1381 1569 
Q 847 1681 609 1914 
Q 372 2147 372 2553 
Q 372 3047 722 3315 
Q 1072 3584 1716 3584 
Q 2034 3584 2315 3537 
Q 2597 3491 2834 3397 
z
" transform="scale(0.015625)"/>
     </defs>
     <use xlink:href="#DejaVuSans-52"/>
     <use xlink:href="#DejaVuSans-61" x="67.232422"/>
     <use xlink:href="#DejaVuSans-64" x="128.511719"/>
     <use xlink:href="#DejaVuSans-69" x="191.988281"/>
     <use xlink:href="#DejaVuSans-61" x="219.771484"/>
     <use xlink:href="#DejaVuSans-6c" x="281.050781"/>
     <use xlink:href="#DejaVuSans-20" x="308.833984"/>
     <use xlink:href="#DejaVuSans-61" x="340.621094"/>
     <use xlink:href="#DejaVuSans-6e" x="401.900391"/>
     <use xlink:href="#DejaVuSans-64" x="465.279297"/>
     <use xlink:href="#DejaVuSans-20" x="528.755859"/>
     <use xlink:href="#DejaVuSans-54" x="560.542969"/>
     <use xlink:href="#DejaVuSans-61" x="605.126953"/>
     <use xlink:href="#DejaVuSans-6e" x="666.40625"/>
     <use xlink:href="#DejaVuSans-67" x="729.785156"/>
     <use xlink:href="#DejaVuSans-65" x="793.261719"/>
     <use xlink:href="#DejaVuSans-74" x="854.785156"/>
     <use xlink:href="#DejaVuSans-69" x="893.994141"/>
     <use xlink:href="#DejaVuSans-61" x="921.777344"/>
     <use xlink:href="#DejaVuSans-6c" x="983.056641"/>
     <use xlink:href="#DejaVuSans-20" x="1010.839844"/>
     <use xlink:href="#DejaVuSans-50" x="1042.626953"/>
     <use xlink:href="#DejaVuSans-4d" x="1102.929688"/>
     <use xlink:href="#DejaVuSans-20" x="1189.208984"/>
     <use xlink:href="#DejaVuSans-46" x="1220.996094"/>
     <use xlink:href="#DejaVuSans-69" x="1271.265625"/>
     <use xlink:href="#DejaVuSans-65" x="1299.048828"/>
     <use xlink:href="#DejaVuSans-6c" x="1360.572266"/>
     <use xlink:href="#DejaVuSans-64" x="1388.355469"/>
     <use xlink:href="#DejaVuSans-73" x="1451.832031"/>
    </g>
   </g>
   <g id="legend_1">
    <g id="patch_7">
     <path d="M 357.02 78.82825 
L 407.72 78.82825 
Q 409.72 78.82825 409.72 76.82825 
L 409.72 48.472 
Q 409.72 46.472 407.72 46.472 
L 357.02 46.472 
Q 355.02 46.472 355.02 48.472 
L 355.02 76.82825 
Q 355.02 78.82825 357.02 78.82825 
z
" style="fill: #ffffff; opacity: 0.8; stroke: #cccccc; stroke-linejoin: miter"/>
    </g>
    <g id="line2d_37">
     <path d="M 359.02 54.570437 
L 369.02 54.570437 
L 379.02 54.570437 
" style="fill: none; stroke: #1f77b4; stroke-width: 1.5; stroke-linecap: square"/>
    </g>
    <g id="text_21">
     <!-- $B_n$ -->
     <g transform="translate(387.02 58.070437)scale(0.1 -0.1)">
      <defs>
       <path id="DejaVuSans-Oblique-6e" d="M 3566 2113 
L 3156 0 
L 2578 0 
L 2988 2091 
Q 3016 2238 3031 2350 
Q 3047 2463 3047 2528 
Q 3047 2791 2881 2937 
Q 2716 3084 2419 3084 
Q 1956 3084 1622 2776 
Q 1288 2469 1184 1941 
L 800 0 
L 225 0 
L 903 3500 
L 1478 3500 
L 1363 2950 
Q 1603 3253 1940 3418 
Q 2278 3584 2650 3584 
Q 3113 3584 3367 3334 
Q 3622 3084 3622 2631 
Q 3622 2519 3608 2391 
Q 3594 2263 3566 2113 
z
" transform="scale(0.015625)"/>
      </defs>
      <use xlink:href="#DejaVuSans-Oblique-42" transform="translate(0 0.09375)"/>
      <use xlink:href="#DejaVuSans-Oblique-6e" transform="translate(68.603516 -16.3125)scale(0.7)"/>
     </g>
    </g>
    <g id="line2d_38">
     <path d="M 359.02 69.248562 
L 369.02 69.248562 
L 379.02 69.248562 
" style="fill: none; stroke: #ff7f0e; stroke-width: 1.5; stroke-linecap: square"/>
    </g>
    <g id="text_22">
     <!-- $B_{tan}$ -->
     <g transform="translate(387.02 72.748562)scale(0.1 -0.1)">
      <defs>
       <path id="DejaVuSans-Oblique-74" d="M 2706 3500 
L 2619 3053 
L 1472 3053 
L 1100 1153 
Q 1081 1047 1072 975 
Q 1063 903 1063 863 
Q 1063 663 1183 572 
Q 1303 481 1569 481 
L 2150 481 
L 2053 0 
L 1503 0 
Q 991 0 739 200 
Q 488 400 488 806 
Q 488 878 497 964 
Q 506 1050 525 1153 
L 897 3053 
L 409 3053 
L 500 3500 
L 978 3500 
L 1172 4494 
L 1747 4494 
L 1556 3500 
L 2706 3500 
z
" transform="scale(0.015625)"/>
       <path id="DejaVuSans-Oblique-61" d="M 3438 1997 
L 3047 0 
L 2472 0 
L 2578 531 
Q 2325 219 2001 64 
Q 1678 -91 1281 -91 
Q 834 -91 548 182 
Q 263 456 263 884 
Q 263 1497 752 1853 
Q 1241 2209 2100 2209 
L 2900 2209 
L 2931 2363 
Q 2938 2388 2941 2417 
Q 2944 2447 2944 2509 
Q 2944 2788 2717 2942 
Q 2491 3097 2081 3097 
Q 1800 3097 1504 3025 
Q 1209 2953 897 2809 
L 997 3341 
Q 1322 3463 1633 3523 
Q 1944 3584 2234 3584 
Q 2853 3584 3176 3315 
Q 3500 3047 3500 2534 
Q 3500 2431 3484 2292 
Q 3469 2153 3438 1997 
z
M 2816 1759 
L 2241 1759 
Q 1534 1759 1195 1570 
Q 856 1381 856 984 
Q 856 709 1029 553 
Q 1203 397 1509 397 
Q 1978 397 2328 733 
Q 2678 1069 2791 1631 
L 2816 1759 
z
" transform="scale(0.015625)"/>
      </defs>
      <use xlink:href="#DejaVuSans-Oblique-42" transform="translate(0 0.09375)"/>
      <use xlink:href="#DejaVuSans-Oblique-74" transform="translate(68.603516 -16.3125)scale(0.7)"/>
      <use xlink:href="#DejaVuSans-Oblique-61" transform="translate(96.049805 -16.3125)scale(0.7)"/>
      <use xlink:href="#DejaVuSans-Oblique-6e" transform="translate(138.945312 -16.3125)scale(0.7)"/>
     </g>
    </g>
   </g>
  </g>
 </g>
 <defs>
  <clipPath id="peb5e690356">
   <rect x="57.6" y="41.472" width="357.12" height="266.112"/>
  </clipPath>
 </defs>
</svg>
