<?xml version="1.0" encoding="utf-8" standalone="no"?>
<!DOCTYPE svg PUBLIC "-//W3C//DTD SVG 1.1//EN"
  "http://www.w3.org/Graphics/SVG/1.1/DTD/svg11.dtd">
<svg xmlns:xlink="http://www.w3.org/1999/xlink" width="460.8pt" height="345.6pt" viewBox="0 0 460.8 345.6" xmlns="http://www.w3.org/2000/svg" version="1.1">
 <metadata>
  <rdf:RDF xmlns:dc="http://purl.org/dc/elements/1.1/" xmlns:cc="http://creativecommons.org/ns#" xmlns:rdf="http://www.w3.org/1999/02/22-rdf-syntax-ns#">
   <cc:Work>
    <dc:type rdf:resource="http://purl.org/dc/dcmitype/StillImage"/>
    <dc:date>2023-03-25T13:56:10.746638</dc:date>
    <dc:format>image/svg+xml</dc:format>
    <dc:creator>
     <cc:Agent>
      <dc:title>Matplotlib v3.5.1, https://matplotlib.org/</dc:title>
     </cc:Agent>
    </dc:creator>
   </cc:Work>
  </rdf:RDF>
 </metadata>
 <defs>
  <style type="text/css">*{stroke-linejoin: round; stroke-linecap: butt}</style>
 </defs>
 <g id="figure_1">
  <g id="patch_1">
   <path d="M 0 345.6 
L 460.8 345.6 
L 460.8 0 
L 0 0 
z
" style="fill: #ffffff"/>
  </g>
  <g id="axes_1">
   <g id="patch_2">
    <path d="M 57.6 307.584 
L 414.72 307.584 
L 414.72 41.472 
L 57.6 41.472 
z
" style="fill: #ffffff"/>
   </g>
   <g id="matplotlib.axis_1">
    <g id="xtick_1">
     <g id="line2d_1">
      <path d="M 73.832727 307.584 
L 73.832727 41.472 
" clip-path="url(#p70c52637d0)" style="fill: none; stroke-dasharray: 3.2,0.8,0.5,0.8; stroke-dashoffset: 0; stroke: #a9a9a9; stroke-width: 0.5"/>
     </g>
     <g id="line2d_2">
      <defs>
       <path id="meb318c8196" d="M 0 0 
L 0 3.5 
" style="stroke: #000000; stroke-width: 0.8"/>
      </defs>
      <g>
       <use xlink:href="#meb318c8196" x="73.832727" y="307.584" style="stroke: #000000; stroke-width: 0.8"/>
      </g>
     </g>
     <g id="text_1">
      <!-- 0 -->
      <g transform="translate(70.651477 322.182437)scale(0.1 -0.1)">
       <defs>
        <path id="DejaVuSans-30" d="M 2034 4250 
Q 1547 4250 1301 3770 
Q 1056 3291 1056 2328 
Q 1056 1369 1301 889 
Q 1547 409 2034 409 
Q 2525 409 2770 889 
Q 3016 1369 3016 2328 
Q 3016 3291 2770 3770 
Q 2525 4250 2034 4250 
z
M 2034 4750 
Q 2819 4750 3233 4129 
Q 3647 3509 3647 2328 
Q 3647 1150 3233 529 
Q 2819 -91 2034 -91 
Q 1250 -91 836 529 
Q 422 1150 422 2328 
Q 422 3509 836 4129 
Q 1250 4750 2034 4750 
z
" transform="scale(0.015625)"/>
       </defs>
       <use xlink:href="#DejaVuSans-30"/>
      </g>
     </g>
    </g>
    <g id="xtick_2">
     <g id="line2d_3">
      <path d="M 125.647032 307.584 
L 125.647032 41.472 
" clip-path="url(#p70c52637d0)" style="fill: none; stroke-dasharray: 3.2,0.8,0.5,0.8; stroke-dashoffset: 0; stroke: #a9a9a9; stroke-width: 0.5"/>
     </g>
     <g id="line2d_4">
      <g>
       <use xlink:href="#meb318c8196" x="125.647032" y="307.584" style="stroke: #000000; stroke-width: 0.8"/>
      </g>
     </g>
     <g id="text_2">
      <!-- 1 -->
      <g transform="translate(122.465782 322.182437)scale(0.1 -0.1)">
       <defs>
        <path id="DejaVuSans-31" d="M 794 531 
L 1825 531 
L 1825 4091 
L 703 3866 
L 703 4441 
L 1819 4666 
L 2450 4666 
L 2450 531 
L 3481 531 
L 3481 0 
L 794 0 
L 794 531 
z
" transform="scale(0.015625)"/>
       </defs>
       <use xlink:href="#DejaVuSans-31"/>
      </g>
     </g>
    </g>
    <g id="xtick_3">
     <g id="line2d_5">
      <path d="M 177.461336 307.584 
L 177.461336 41.472 
" clip-path="url(#p70c52637d0)" style="fill: none; stroke-dasharray: 3.2,0.8,0.5,0.8; stroke-dashoffset: 0; stroke: #a9a9a9; stroke-width: 0.5"/>
     </g>
     <g id="line2d_6">
      <g>
       <use xlink:href="#meb318c8196" x="177.461336" y="307.584" style="stroke: #000000; stroke-width: 0.8"/>
      </g>
     </g>
     <g id="text_3">
      <!-- 2 -->
      <g transform="translate(174.280086 322.182437)scale(0.1 -0.1)">
       <defs>
        <path id="DejaVuSans-32" d="M 1228 531 
L 3431 531 
L 3431 0 
L 469 0 
L 469 531 
Q 828 903 1448 1529 
Q 2069 2156 2228 2338 
Q 2531 2678 2651 2914 
Q 2772 3150 2772 3378 
Q 2772 3750 2511 3984 
Q 2250 4219 1831 4219 
Q 1534 4219 1204 4116 
Q 875 4013 500 3803 
L 500 4441 
Q 881 4594 1212 4672 
Q 1544 4750 1819 4750 
Q 2544 4750 2975 4387 
Q 3406 4025 3406 3419 
Q 3406 3131 3298 2873 
Q 3191 2616 2906 2266 
Q 2828 2175 2409 1742 
Q 1991 1309 1228 531 
z
" transform="scale(0.015625)"/>
       </defs>
       <use xlink:href="#DejaVuSans-32"/>
      </g>
     </g>
    </g>
    <g id="xtick_4">
     <g id="line2d_7">
      <path d="M 229.27564 307.584 
L 229.27564 41.472 
" clip-path="url(#p70c52637d0)" style="fill: none; stroke-dasharray: 3.2,0.8,0.5,0.8; stroke-dashoffset: 0; stroke: #a9a9a9; stroke-width: 0.5"/>
     </g>
     <g id="line2d_8">
      <g>
       <use xlink:href="#meb318c8196" x="229.27564" y="307.584" style="stroke: #000000; stroke-width: 0.8"/>
      </g>
     </g>
     <g id="text_4">
      <!-- 3 -->
      <g transform="translate(226.09439 322.182437)scale(0.1 -0.1)">
       <defs>
        <path id="DejaVuSans-33" d="M 2597 2516 
Q 3050 2419 3304 2112 
Q 3559 1806 3559 1356 
Q 3559 666 3084 287 
Q 2609 -91 1734 -91 
Q 1441 -91 1130 -33 
Q 819 25 488 141 
L 488 750 
Q 750 597 1062 519 
Q 1375 441 1716 441 
Q 2309 441 2620 675 
Q 2931 909 2931 1356 
Q 2931 1769 2642 2001 
Q 2353 2234 1838 2234 
L 1294 2234 
L 1294 2753 
L 1863 2753 
Q 2328 2753 2575 2939 
Q 2822 3125 2822 3475 
Q 2822 3834 2567 4026 
Q 2313 4219 1838 4219 
Q 1578 4219 1281 4162 
Q 984 4106 628 3988 
L 628 4550 
Q 988 4650 1302 4700 
Q 1616 4750 1894 4750 
Q 2613 4750 3031 4423 
Q 3450 4097 3450 3541 
Q 3450 3153 3228 2886 
Q 3006 2619 2597 2516 
z
" transform="scale(0.015625)"/>
       </defs>
       <use xlink:href="#DejaVuSans-33"/>
      </g>
     </g>
    </g>
    <g id="xtick_5">
     <g id="line2d_9">
      <path d="M 281.089945 307.584 
L 281.089945 41.472 
" clip-path="url(#p70c52637d0)" style="fill: none; stroke-dasharray: 3.2,0.8,0.5,0.8; stroke-dashoffset: 0; stroke: #a9a9a9; stroke-width: 0.5"/>
     </g>
     <g id="line2d_10">
      <g>
       <use xlink:href="#meb318c8196" x="281.089945" y="307.584" style="stroke: #000000; stroke-width: 0.8"/>
      </g>
     </g>
     <g id="text_5">
      <!-- 4 -->
      <g transform="translate(277.908695 322.182437)scale(0.1 -0.1)">
       <defs>
        <path id="DejaVuSans-34" d="M 2419 4116 
L 825 1625 
L 2419 1625 
L 2419 4116 
z
M 2253 4666 
L 3047 4666 
L 3047 1625 
L 3713 1625 
L 3713 1100 
L 3047 1100 
L 3047 0 
L 2419 0 
L 2419 1100 
L 313 1100 
L 313 1709 
L 2253 4666 
z
" transform="scale(0.015625)"/>
       </defs>
       <use xlink:href="#DejaVuSans-34"/>
      </g>
     </g>
    </g>
    <g id="xtick_6">
     <g id="line2d_11">
      <path d="M 332.904249 307.584 
L 332.904249 41.472 
" clip-path="url(#p70c52637d0)" style="fill: none; stroke-dasharray: 3.2,0.8,0.5,0.8; stroke-dashoffset: 0; stroke: #a9a9a9; stroke-width: 0.5"/>
     </g>
     <g id="line2d_12">
      <g>
       <use xlink:href="#meb318c8196" x="332.904249" y="307.584" style="stroke: #000000; stroke-width: 0.8"/>
      </g>
     </g>
     <g id="text_6">
      <!-- 5 -->
      <g transform="translate(329.722999 322.182437)scale(0.1 -0.1)">
       <defs>
        <path id="DejaVuSans-35" d="M 691 4666 
L 3169 4666 
L 3169 4134 
L 1269 4134 
L 1269 2991 
Q 1406 3038 1543 3061 
Q 1681 3084 1819 3084 
Q 2600 3084 3056 2656 
Q 3513 2228 3513 1497 
Q 3513 744 3044 326 
Q 2575 -91 1722 -91 
Q 1428 -91 1123 -41 
Q 819 9 494 109 
L 494 744 
Q 775 591 1075 516 
Q 1375 441 1709 441 
Q 2250 441 2565 725 
Q 2881 1009 2881 1497 
Q 2881 1984 2565 2268 
Q 2250 2553 1709 2553 
Q 1456 2553 1204 2497 
Q 953 2441 691 2322 
L 691 4666 
z
" transform="scale(0.015625)"/>
       </defs>
       <use xlink:href="#DejaVuSans-35"/>
      </g>
     </g>
    </g>
    <g id="xtick_7">
     <g id="line2d_13">
      <path d="M 384.718553 307.584 
L 384.718553 41.472 
" clip-path="url(#p70c52637d0)" style="fill: none; stroke-dasharray: 3.2,0.8,0.5,0.8; stroke-dashoffset: 0; stroke: #a9a9a9; stroke-width: 0.5"/>
     </g>
     <g id="line2d_14">
      <g>
       <use xlink:href="#meb318c8196" x="384.718553" y="307.584" style="stroke: #000000; stroke-width: 0.8"/>
      </g>
     </g>
     <g id="text_7">
      <!-- 6 -->
      <g transform="translate(381.537303 322.182437)scale(0.1 -0.1)">
       <defs>
        <path id="DejaVuSans-36" d="M 2113 2584 
Q 1688 2584 1439 2293 
Q 1191 2003 1191 1497 
Q 1191 994 1439 701 
Q 1688 409 2113 409 
Q 2538 409 2786 701 
Q 3034 994 3034 1497 
Q 3034 2003 2786 2293 
Q 2538 2584 2113 2584 
z
M 3366 4563 
L 3366 3988 
Q 3128 4100 2886 4159 
Q 2644 4219 2406 4219 
Q 1781 4219 1451 3797 
Q 1122 3375 1075 2522 
Q 1259 2794 1537 2939 
Q 1816 3084 2150 3084 
Q 2853 3084 3261 2657 
Q 3669 2231 3669 1497 
Q 3669 778 3244 343 
Q 2819 -91 2113 -91 
Q 1303 -91 875 529 
Q 447 1150 447 2328 
Q 447 3434 972 4092 
Q 1497 4750 2381 4750 
Q 2619 4750 2861 4703 
Q 3103 4656 3366 4563 
z
" transform="scale(0.015625)"/>
       </defs>
       <use xlink:href="#DejaVuSans-36"/>
      </g>
     </g>
    </g>
    <g id="text_8">
     <!-- $\alpha$ [deg] -->
     <g transform="translate(217.91 335.862125)scale(0.1 -0.1)">
      <defs>
       <path id="DejaVuSans-Oblique-3b1" d="M 2619 1628 
L 2622 2350 
Q 2625 3088 2069 3091 
Q 1653 3094 1394 2747 
Q 1069 2319 959 1747 
Q 825 1059 994 731 
Q 1169 397 1547 397 
Q 1966 397 2319 1063 
L 2619 1628 
z
M 2166 3578 
Q 3141 3594 3128 2584 
Q 3128 2584 3616 3500 
L 4128 3500 
L 3119 1603 
L 3109 919 
Q 3109 766 3194 638 
Q 3291 488 3391 488 
L 3669 488 
L 3575 0 
L 3228 0 
Q 2934 0 2722 263 
Q 2622 394 2619 669 
Q 2416 334 2066 50 
Q 1900 -81 1453 -78 
Q 722 -72 456 397 
Q 184 884 353 1747 
Q 534 2675 1009 3097 
Q 1544 3569 2166 3578 
z
" transform="scale(0.015625)"/>
       <path id="DejaVuSans-20" transform="scale(0.015625)"/>
       <path id="DejaVuSans-5b" d="M 550 4863 
L 1875 4863 
L 1875 4416 
L 1125 4416 
L 1125 -397 
L 1875 -397 
L 1875 -844 
L 550 -844 
L 550 4863 
z
" transform="scale(0.015625)"/>
       <path id="DejaVuSans-64" d="M 2906 2969 
L 2906 4863 
L 3481 4863 
L 3481 0 
L 2906 0 
L 2906 525 
Q 2725 213 2448 61 
Q 2172 -91 1784 -91 
Q 1150 -91 751 415 
Q 353 922 353 1747 
Q 353 2572 751 3078 
Q 1150 3584 1784 3584 
Q 2172 3584 2448 3432 
Q 2725 3281 2906 2969 
z
M 947 1747 
Q 947 1113 1208 752 
Q 1469 391 1925 391 
Q 2381 391 2643 752 
Q 2906 1113 2906 1747 
Q 2906 2381 2643 2742 
Q 2381 3103 1925 3103 
Q 1469 3103 1208 2742 
Q 947 2381 947 1747 
z
" transform="scale(0.015625)"/>
       <path id="DejaVuSans-65" d="M 3597 1894 
L 3597 1613 
L 953 1613 
Q 991 1019 1311 708 
Q 1631 397 2203 397 
Q 2534 397 2845 478 
Q 3156 559 3463 722 
L 3463 178 
Q 3153 47 2828 -22 
Q 2503 -91 2169 -91 
Q 1331 -91 842 396 
Q 353 884 353 1716 
Q 353 2575 817 3079 
Q 1281 3584 2069 3584 
Q 2775 3584 3186 3129 
Q 3597 2675 3597 1894 
z
M 3022 2063 
Q 3016 2534 2758 2815 
Q 2500 3097 2075 3097 
Q 1594 3097 1305 2825 
Q 1016 2553 972 2059 
L 3022 2063 
z
" transform="scale(0.015625)"/>
       <path id="DejaVuSans-67" d="M 2906 1791 
Q 2906 2416 2648 2759 
Q 2391 3103 1925 3103 
Q 1463 3103 1205 2759 
Q 947 2416 947 1791 
Q 947 1169 1205 825 
Q 1463 481 1925 481 
Q 2391 481 2648 825 
Q 2906 1169 2906 1791 
z
M 3481 434 
Q 3481 -459 3084 -895 
Q 2688 -1331 1869 -1331 
Q 1566 -1331 1297 -1286 
Q 1028 -1241 775 -1147 
L 775 -588 
Q 1028 -725 1275 -790 
Q 1522 -856 1778 -856 
Q 2344 -856 2625 -561 
Q 2906 -266 2906 331 
L 2906 616 
Q 2728 306 2450 153 
Q 2172 0 1784 0 
Q 1141 0 747 490 
Q 353 981 353 1791 
Q 353 2603 747 3093 
Q 1141 3584 1784 3584 
Q 2172 3584 2450 3431 
Q 2728 3278 2906 2969 
L 2906 3500 
L 3481 3500 
L 3481 434 
z
" transform="scale(0.015625)"/>
       <path id="DejaVuSans-5d" d="M 1947 4863 
L 1947 -844 
L 622 -844 
L 622 -397 
L 1369 -397 
L 1369 4416 
L 622 4416 
L 622 4863 
L 1947 4863 
z
" transform="scale(0.015625)"/>
      </defs>
      <use xlink:href="#DejaVuSans-Oblique-3b1" transform="translate(0 0.015625)"/>
      <use xlink:href="#DejaVuSans-20" transform="translate(65.917969 0.015625)"/>
      <use xlink:href="#DejaVuSans-5b" transform="translate(97.705078 0.015625)"/>
      <use xlink:href="#DejaVuSans-64" transform="translate(136.71875 0.015625)"/>
      <use xlink:href="#DejaVuSans-65" transform="translate(200.195312 0.015625)"/>
      <use xlink:href="#DejaVuSans-67" transform="translate(261.71875 0.015625)"/>
      <use xlink:href="#DejaVuSans-5d" transform="translate(325.195312 0.015625)"/>
     </g>
    </g>
   </g>
   <g id="matplotlib.axis_2">
    <g id="ytick_1">
     <g id="line2d_15">
      <path d="M 57.6 294.906767 
L 414.72 294.906767 
" clip-path="url(#p70c52637d0)" style="fill: none; stroke-dasharray: 3.2,0.8,0.5,0.8; stroke-dashoffset: 0; stroke: #a9a9a9; stroke-width: 0.5"/>
     </g>
     <g id="line2d_16">
      <defs>
       <path id="mb44bb4325d" d="M 0 0 
L -3.5 0 
" style="stroke: #000000; stroke-width: 0.8"/>
      </defs>
      <g>
       <use xlink:href="#mb44bb4325d" x="57.6" y="294.906767" style="stroke: #000000; stroke-width: 0.8"/>
      </g>
     </g>
     <g id="text_9">
      <!-- −0.6 -->
      <g transform="translate(26.317187 298.705986)scale(0.1 -0.1)">
       <defs>
        <path id="DejaVuSans-2212" d="M 678 2272 
L 4684 2272 
L 4684 1741 
L 678 1741 
L 678 2272 
z
" transform="scale(0.015625)"/>
        <path id="DejaVuSans-2e" d="M 684 794 
L 1344 794 
L 1344 0 
L 684 0 
L 684 794 
z
" transform="scale(0.015625)"/>
       </defs>
       <use xlink:href="#DejaVuSans-2212"/>
       <use xlink:href="#DejaVuSans-30" x="83.789062"/>
       <use xlink:href="#DejaVuSans-2e" x="147.412109"/>
       <use xlink:href="#DejaVuSans-36" x="179.199219"/>
      </g>
     </g>
    </g>
    <g id="ytick_2">
     <g id="line2d_17">
      <path d="M 57.6 254.826917 
L 414.72 254.826917 
" clip-path="url(#p70c52637d0)" style="fill: none; stroke-dasharray: 3.2,0.8,0.5,0.8; stroke-dashoffset: 0; stroke: #a9a9a9; stroke-width: 0.5"/>
     </g>
     <g id="line2d_18">
      <g>
       <use xlink:href="#mb44bb4325d" x="57.6" y="254.826917" style="stroke: #000000; stroke-width: 0.8"/>
      </g>
     </g>
     <g id="text_10">
      <!-- −0.4 -->
      <g transform="translate(26.317187 258.626136)scale(0.1 -0.1)">
       <use xlink:href="#DejaVuSans-2212"/>
       <use xlink:href="#DejaVuSans-30" x="83.789062"/>
       <use xlink:href="#DejaVuSans-2e" x="147.412109"/>
       <use xlink:href="#DejaVuSans-34" x="179.199219"/>
      </g>
     </g>
    </g>
    <g id="ytick_3">
     <g id="line2d_19">
      <path d="M 57.6 214.747067 
L 414.72 214.747067 
" clip-path="url(#p70c52637d0)" style="fill: none; stroke-dasharray: 3.2,0.8,0.5,0.8; stroke-dashoffset: 0; stroke: #a9a9a9; stroke-width: 0.5"/>
     </g>
     <g id="line2d_20">
      <g>
       <use xlink:href="#mb44bb4325d" x="57.6" y="214.747067" style="stroke: #000000; stroke-width: 0.8"/>
      </g>
     </g>
     <g id="text_11">
      <!-- −0.2 -->
      <g transform="translate(26.317187 218.546286)scale(0.1 -0.1)">
       <use xlink:href="#DejaVuSans-2212"/>
       <use xlink:href="#DejaVuSans-30" x="83.789062"/>
       <use xlink:href="#DejaVuSans-2e" x="147.412109"/>
       <use xlink:href="#DejaVuSans-32" x="179.199219"/>
      </g>
     </g>
    </g>
    <g id="ytick_4">
     <g id="line2d_21">
      <path d="M 57.6 174.667217 
L 414.72 174.667217 
" clip-path="url(#p70c52637d0)" style="fill: none; stroke-dasharray: 3.2,0.8,0.5,0.8; stroke-dashoffset: 0; stroke: #a9a9a9; stroke-width: 0.5"/>
     </g>
     <g id="line2d_22">
      <g>
       <use xlink:href="#mb44bb4325d" x="57.6" y="174.667217" style="stroke: #000000; stroke-width: 0.8"/>
      </g>
     </g>
     <g id="text_12">
      <!-- 0.0 -->
      <g transform="translate(34.696875 178.466436)scale(0.1 -0.1)">
       <use xlink:href="#DejaVuSans-30"/>
       <use xlink:href="#DejaVuSans-2e" x="63.623047"/>
       <use xlink:href="#DejaVuSans-30" x="95.410156"/>
      </g>
     </g>
    </g>
    <g id="ytick_5">
     <g id="line2d_23">
      <path d="M 57.6 134.587367 
L 414.72 134.587367 
" clip-path="url(#p70c52637d0)" style="fill: none; stroke-dasharray: 3.2,0.8,0.5,0.8; stroke-dashoffset: 0; stroke: #a9a9a9; stroke-width: 0.5"/>
     </g>
     <g id="line2d_24">
      <g>
       <use xlink:href="#mb44bb4325d" x="57.6" y="134.587367" style="stroke: #000000; stroke-width: 0.8"/>
      </g>
     </g>
     <g id="text_13">
      <!-- 0.2 -->
      <g transform="translate(34.696875 138.386586)scale(0.1 -0.1)">
       <use xlink:href="#DejaVuSans-30"/>
       <use xlink:href="#DejaVuSans-2e" x="63.623047"/>
       <use xlink:href="#DejaVuSans-32" x="95.410156"/>
      </g>
     </g>
    </g>
    <g id="ytick_6">
     <g id="line2d_25">
      <path d="M 57.6 94.507517 
L 414.72 94.507517 
" clip-path="url(#p70c52637d0)" style="fill: none; stroke-dasharray: 3.2,0.8,0.5,0.8; stroke-dashoffset: 0; stroke: #a9a9a9; stroke-width: 0.5"/>
     </g>
     <g id="line2d_26">
      <g>
       <use xlink:href="#mb44bb4325d" x="57.6" y="94.507517" style="stroke: #000000; stroke-width: 0.8"/>
      </g>
     </g>
     <g id="text_14">
      <!-- 0.4 -->
      <g transform="translate(34.696875 98.306736)scale(0.1 -0.1)">
       <use xlink:href="#DejaVuSans-30"/>
       <use xlink:href="#DejaVuSans-2e" x="63.623047"/>
       <use xlink:href="#DejaVuSans-34" x="95.410156"/>
      </g>
     </g>
    </g>
    <g id="ytick_7">
     <g id="line2d_27">
      <path d="M 57.6 54.427667 
L 414.72 54.427667 
" clip-path="url(#p70c52637d0)" style="fill: none; stroke-dasharray: 3.2,0.8,0.5,0.8; stroke-dashoffset: 0; stroke: #a9a9a9; stroke-width: 0.5"/>
     </g>
     <g id="line2d_28">
      <g>
       <use xlink:href="#mb44bb4325d" x="57.6" y="54.427667" style="stroke: #000000; stroke-width: 0.8"/>
      </g>
     </g>
     <g id="text_15">
      <!-- 0.6 -->
      <g transform="translate(34.696875 58.226886)scale(0.1 -0.1)">
       <use xlink:href="#DejaVuSans-30"/>
       <use xlink:href="#DejaVuSans-2e" x="63.623047"/>
       <use xlink:href="#DejaVuSans-36" x="95.410156"/>
      </g>
     </g>
    </g>
    <g id="text_16">
     <!-- $B$ [T] -->
     <g transform="translate(20.2375 186.528)rotate(-90)scale(0.1 -0.1)">
      <defs>
       <path id="DejaVuSans-Oblique-42" d="M 1081 4666 
L 2694 4666 
Q 3350 4666 3675 4422 
Q 4000 4178 4000 3688 
Q 4000 3238 3720 2911 
Q 3441 2584 2988 2516 
Q 3375 2428 3569 2181 
Q 3763 1934 3763 1522 
Q 3763 819 3242 409 
Q 2722 0 1819 0 
L 172 0 
L 1081 4666 
z
M 1234 2228 
L 903 519 
L 1919 519 
Q 2491 519 2800 781 
Q 3109 1044 3109 1522 
Q 3109 1891 2904 2059 
Q 2700 2228 2247 2228 
L 1234 2228 
z
M 1606 4147 
L 1331 2741 
L 2272 2741 
Q 2775 2741 3058 2959 
Q 3341 3178 3341 3566 
Q 3341 3869 3150 4008 
Q 2959 4147 2541 4147 
L 1606 4147 
z
" transform="scale(0.015625)"/>
       <path id="DejaVuSans-54" d="M -19 4666 
L 3928 4666 
L 3928 4134 
L 2272 4134 
L 2272 0 
L 1638 0 
L 1638 4134 
L -19 4134 
L -19 4666 
z
" transform="scale(0.015625)"/>
      </defs>
      <use xlink:href="#DejaVuSans-Oblique-42" transform="translate(0 0.015625)"/>
      <use xlink:href="#DejaVuSans-20" transform="translate(68.603516 0.015625)"/>
      <use xlink:href="#DejaVuSans-5b" transform="translate(100.390625 0.015625)"/>
      <use xlink:href="#DejaVuSans-54" transform="translate(139.404297 0.015625)"/>
      <use xlink:href="#DejaVuSans-5d" transform="translate(200.488281 0.015625)"/>
     </g>
    </g>
   </g>
   <g id="line2d_29">
    <path d="M 73.832727 142.866894 
L 77.450048 121.086838 
L 80.163039 105.836816 
L 82.876029 92.041843 
L 84.68469 83.845512 
L 86.49335 76.554951 
L 88.302011 70.236165 
L 90.110671 64.9324 
L 91.919331 60.663822 
L 92.823662 58.917777 
L 93.727992 57.427796 
L 94.632322 56.190127 
L 95.536652 55.199724 
L 96.440983 54.450307 
L 97.345313 53.934424 
L 98.249643 53.643517 
L 99.153973 53.568 
L 100.058303 53.697338 
L 100.962634 54.020135 
L 101.866964 54.524222 
L 102.771294 55.196755 
L 104.579954 56.992973 
L 106.388615 59.296234 
L 108.197275 61.98957 
L 110.910266 66.503104 
L 117.240577 77.309431 
L 119.049238 80.037974 
L 120.857898 82.471473 
L 122.666559 84.560507 
L 124.475219 86.272286 
L 126.283879 87.591016 
L 128.09254 88.517788 
L 129.9012 89.07 
L 131.709861 89.28035 
L 133.518521 89.195429 
L 135.327182 88.873983 
L 138.040172 88.101187 
L 142.561823 86.703844 
L 144.370484 86.353797 
L 146.179144 86.249766 
L 147.987805 86.471358 
L 149.796465 87.091877 
L 151.605125 88.17646 
L 153.413786 89.780505 
L 155.222446 91.948407 
L 157.031107 94.71265 
L 158.839767 98.093242 
L 160.648427 102.097511 
L 162.457088 106.720248 
L 164.265748 111.944178 
L 166.074409 117.740724 
L 168.787399 127.421724 
L 171.50039 138.133939 
L 175.117711 153.668038 
L 179.639362 174.335276 
L 187.778334 211.816724 
L 191.395655 227.417629 
L 194.108645 238.359313 
L 196.821636 248.521922 
L 199.534626 257.818037 
L 202.247617 266.182182 
L 204.960608 273.565844 
L 206.769268 277.92502 
L 208.577929 281.822737 
L 210.386589 285.250531 
L 212.195249 288.200148 
L 214.00391 290.66321 
L 215.81257 292.631032 
L 217.621231 294.094612 
L 218.525561 294.63445 
L 219.429891 295.044798 
L 220.334221 295.324545 
L 221.238552 295.472616 
L 222.142882 295.488 
L 223.047212 295.369765 
L 223.951542 295.117081 
L 224.855872 294.729249 
L 225.760203 294.205721 
L 227.568863 292.750313 
L 229.377523 290.750574 
L 231.186184 288.21043 
L 232.994844 285.138894 
L 234.803505 281.550883 
L 236.612165 277.467941 
L 238.420826 272.918821 
L 241.133816 265.30276 
L 243.846807 256.877176 
L 247.464128 244.724765 
L 257.41176 210.470865 
L 260.124751 202.203181 
L 261.933411 197.212558 
L 263.742071 192.718767 
L 265.550732 188.780479 
L 267.359392 185.445756 
L 269.168053 182.750554 
L 270.976713 180.717474 
L 271.881043 179.952401 
L 272.785374 179.354817 
L 273.689704 178.923425 
L 274.594034 178.65598 
L 275.498364 178.549289 
L 276.402694 178.599221 
L 277.307025 178.800719 
L 278.211355 179.147823 
L 279.115685 179.633695 
L 280.924345 180.990219 
L 282.733006 182.799484 
L 284.541666 184.979415 
L 287.254657 188.742238 
L 294.489299 199.236311 
L 296.297959 201.40498 
L 298.106619 203.200414 
L 299.91528 204.54218 
L 300.81961 205.021209 
L 301.72394 205.362524 
L 302.62827 205.55998 
L 303.532601 205.60847 
L 304.436931 205.503967 
L 305.341261 205.243563 
L 306.245591 204.825502 
L 307.149921 204.2492 
L 308.054252 203.515264 
L 309.862912 201.582904 
L 311.671573 199.057169 
L 313.480233 195.9855 
L 315.288893 192.433114 
L 318.001884 186.385626 
L 321.619205 177.515645 
L 326.140856 166.461473 
L 327.949516 162.453749 
L 329.758177 158.868698 
L 331.566837 155.821839 
L 333.375498 153.41809 
L 334.279828 152.486499 
L 335.184158 151.748658 
L 336.088488 151.213364 
L 336.992818 150.888228 
L 337.897149 150.779604 
L 338.801479 150.892539 
L 339.705809 151.230714 
L 340.610139 151.79641 
L 341.514469 152.590471 
L 342.4188 153.612282 
L 343.32313 154.859752 
L 344.22746 156.329313 
L 346.036121 159.913074 
L 347.844781 164.305842 
L 349.653441 169.427502 
L 351.462102 175.177047 
L 354.175092 184.71194 
L 358.696743 201.831261 
L 362.314064 215.186995 
L 364.122725 221.293558 
L 365.931385 226.803317 
L 367.740046 231.565213 
L 369.548706 235.441345 
L 370.453036 237.008589 
L 371.357366 238.310333 
L 372.261697 239.334477 
L 373.166027 240.070298 
L 374.070357 240.508522 
L 374.974687 240.641378 
L 375.879017 240.462653 
L 376.783348 239.967722 
L 377.687678 239.153586 
L 378.592008 238.01889 
L 379.496338 236.563929 
L 380.400669 234.790654 
L 381.304999 232.702657 
L 383.113659 227.604947 
L 384.92232 221.331387 
L 386.73098 213.966558 
L 388.53964 205.617057 
L 390.348301 196.408983 
L 393.061291 181.302781 
L 396.678612 159.58807 
L 398.487273 148.438889 
L 398.487273 148.438889 
" clip-path="url(#p70c52637d0)" style="fill: none; stroke: #1f77b4; stroke-width: 1.5; stroke-linecap: square"/>
   </g>
   <g id="line2d_30">
    <path d="M 73.832727 148.699844 
L 75.641388 149.160198 
L 77.450048 149.992161 
L 79.258709 151.169957 
L 81.067369 152.66053 
L 82.876029 154.42448 
L 85.58902 157.484147 
L 89.206341 162.073252 
L 95.536652 170.329293 
L 98.249643 173.522021 
L 100.962634 176.304818 
L 102.771294 177.880601 
L 104.579954 179.206653 
L 106.388615 180.268767 
L 108.197275 181.06027 
L 110.005936 181.581974 
L 111.814596 181.841935 
L 113.623257 181.855026 
L 115.431917 181.642329 
L 117.240577 181.230384 
L 119.953568 180.307944 
L 122.666559 179.127065 
L 130.805531 175.324768 
L 133.518521 174.377903 
L 135.327182 173.923654 
L 137.135842 173.63611 
L 138.944502 173.530839 
L 140.753163 173.617807 
L 142.561823 173.901275 
L 144.370484 174.379858 
L 146.179144 175.046736 
L 147.987805 175.890018 
L 150.700795 177.448551 
L 153.413786 179.294302 
L 157.031107 182.051331 
L 165.170079 188.382427 
L 167.883069 190.208083 
L 170.59606 191.767036 
L 173.30905 193.008315 
L 175.117711 193.642484 
L 176.926371 194.115532 
L 178.735032 194.425931 
L 180.543692 194.575454 
L 182.352352 194.568848 
L 185.065343 194.282813 
L 187.778334 193.695598 
L 190.491324 192.847259 
L 193.204315 191.780911 
L 196.821636 190.09303 
L 201.343287 187.678386 
L 206.769268 184.495715 
L 213.09958 180.519241 
L 219.429891 176.288519 
L 228.473193 169.911414 
L 233.899174 166.178996 
L 237.516495 163.93389 
L 240.229486 162.471973 
L 242.942477 161.266962 
L 245.655467 160.376837 
L 247.464128 159.984128 
L 249.272788 159.767071 
L 251.081448 159.735554 
L 252.890109 159.896188 
L 254.698769 160.251867 
L 256.50743 160.801414 
L 258.31609 161.539336 
L 260.124751 162.455692 
L 262.837741 164.132121 
L 265.550732 166.110123 
L 269.168053 169.065667 
L 276.402694 175.114585 
L 279.115685 177.07853 
L 281.828676 178.706786 
L 283.637336 179.560641 
L 285.445996 180.203604 
L 287.254657 180.619388 
L 289.063317 180.797356 
L 290.871978 180.732959 
L 292.680638 180.428015 
L 294.489299 179.890824 
L 296.297959 179.136096 
L 298.106619 178.184709 
L 300.81961 176.448555 
L 304.436931 173.734935 
L 310.767242 168.798433 
L 313.480233 166.987043 
L 315.288893 165.983915 
L 317.097554 165.186193 
L 318.906214 164.624325 
L 320.714875 164.322909 
L 322.523535 164.299897 
L 324.332195 164.565967 
L 326.140856 165.12408 
L 327.949516 165.969236 
L 329.758177 167.088443 
L 331.566837 168.460896 
L 333.375498 170.058378 
L 336.088488 172.798233 
L 339.705809 176.864271 
L 345.13179 183.025852 
L 347.844781 185.743183 
L 349.653441 187.301637 
L 351.462102 188.603563 
L 353.270762 189.608507 
L 355.079423 190.282459 
L 356.888083 190.598804 
L 358.696743 190.539092 
L 360.505404 190.093592 
L 362.314064 189.26164 
L 364.122725 188.051749 
L 365.931385 186.481481 
L 367.740046 184.577094 
L 369.548706 182.372961 
L 372.261697 178.597711 
L 374.974687 174.409612 
L 384.017989 159.972245 
L 386.73098 156.264888 
L 388.53964 154.120162 
L 390.348301 152.286551 
L 392.156961 150.798526 
L 393.965622 149.682515 
L 395.774282 148.956332 
L 397.582943 148.628841 
L 398.487273 148.614896 
L 398.487273 148.614896 
" clip-path="url(#p70c52637d0)" style="fill: none; stroke: #ff7f0e; stroke-width: 1.5; stroke-linecap: square"/>
   </g>
   <g id="patch_3">
    <path d="M 57.6 307.584 
L 57.6 41.472 
" style="fill: none; stroke: #000000; stroke-width: 0.8; stroke-linejoin: miter; stroke-linecap: square"/>
   </g>
   <g id="patch_4">
    <path d="M 414.72 307.584 
L 414.72 41.472 
" style="fill: none; stroke: #000000; stroke-width: 0.8; stroke-linejoin: miter; stroke-linecap: square"/>
   </g>
   <g id="patch_5">
    <path d="M 57.6 307.584 
L 414.72 307.584 
" style="fill: none; stroke: #000000; stroke-width: 0.8; stroke-linejoin: miter; stroke-linecap: square"/>
   </g>
   <g id="patch_6">
    <path d="M 57.6 41.472 
L 414.72 41.472 
" style="fill: none; stroke: #000000; stroke-width: 0.8; stroke-linejoin: miter; stroke-linecap: square"/>
   </g>
   <g id="text_17">
    <!-- $B_n$ and $B_{tan}$ across airgap -->
    <g transform="translate(160.62 35.472)scale(0.12 -0.12)">
     <defs>
      <path id="DejaVuSans-Oblique-6e" d="M 3566 2113 
L 3156 0 
L 2578 0 
L 2988 2091 
Q 3016 2238 3031 2350 
Q 3047 2463 3047 2528 
Q 3047 2791 2881 2937 
Q 2716 3084 2419 3084 
Q 1956 3084 1622 2776 
Q 1288 2469 1184 1941 
L 800 0 
L 225 0 
L 903 3500 
L 1478 3500 
L 1363 2950 
Q 1603 3253 1940 3418 
Q 2278 3584 2650 3584 
Q 3113 3584 3367 3334 
Q 3622 3084 3622 2631 
Q 3622 2519 3608 2391 
Q 3594 2263 3566 2113 
z
" transform="scale(0.015625)"/>
      <path id="DejaVuSans-61" d="M 2194 1759 
Q 1497 1759 1228 1600 
Q 959 1441 959 1056 
Q 959 750 1161 570 
Q 1363 391 1709 391 
Q 2188 391 2477 730 
Q 2766 1069 2766 1631 
L 2766 1759 
L 2194 1759 
z
M 3341 1997 
L 3341 0 
L 2766 0 
L 2766 531 
Q 2569 213 2275 61 
Q 1981 -91 1556 -91 
Q 1019 -91 701 211 
Q 384 513 384 1019 
Q 384 1609 779 1909 
Q 1175 2209 1959 2209 
L 2766 2209 
L 2766 2266 
Q 2766 2663 2505 2880 
Q 2244 3097 1772 3097 
Q 1472 3097 1187 3025 
Q 903 2953 641 2809 
L 641 3341 
Q 956 3463 1253 3523 
Q 1550 3584 1831 3584 
Q 2591 3584 2966 3190 
Q 3341 2797 3341 1997 
z
" transform="scale(0.015625)"/>
      <path id="DejaVuSans-6e" d="M 3513 2113 
L 3513 0 
L 2938 0 
L 2938 2094 
Q 2938 2591 2744 2837 
Q 2550 3084 2163 3084 
Q 1697 3084 1428 2787 
Q 1159 2491 1159 1978 
L 1159 0 
L 581 0 
L 581 3500 
L 1159 3500 
L 1159 2956 
Q 1366 3272 1645 3428 
Q 1925 3584 2291 3584 
Q 2894 3584 3203 3211 
Q 3513 2838 3513 2113 
z
" transform="scale(0.015625)"/>
      <path id="DejaVuSans-Oblique-74" d="M 2706 3500 
L 2619 3053 
L 1472 3053 
L 1100 1153 
Q 1081 1047 1072 975 
Q 1063 903 1063 863 
Q 1063 663 1183 572 
Q 1303 481 1569 481 
L 2150 481 
L 2053 0 
L 1503 0 
Q 991 0 739 200 
Q 488 400 488 806 
Q 488 878 497 964 
Q 506 1050 525 1153 
L 897 3053 
L 409 3053 
L 500 3500 
L 978 3500 
L 1172 4494 
L 1747 4494 
L 1556 3500 
L 2706 3500 
z
" transform="scale(0.015625)"/>
      <path id="DejaVuSans-Oblique-61" d="M 3438 1997 
L 3047 0 
L 2472 0 
L 2578 531 
Q 2325 219 2001 64 
Q 1678 -91 1281 -91 
Q 834 -91 548 182 
Q 263 456 263 884 
Q 263 1497 752 1853 
Q 1241 2209 2100 2209 
L 2900 2209 
L 2931 2363 
Q 2938 2388 2941 2417 
Q 2944 2447 2944 2509 
Q 2944 2788 2717 2942 
Q 2491 3097 2081 3097 
Q 1800 3097 1504 3025 
Q 1209 2953 897 2809 
L 997 3341 
Q 1322 3463 1633 3523 
Q 1944 3584 2234 3584 
Q 2853 3584 3176 3315 
Q 3500 3047 3500 2534 
Q 3500 2431 3484 2292 
Q 3469 2153 3438 1997 
z
M 2816 1759 
L 2241 1759 
Q 1534 1759 1195 1570 
Q 856 1381 856 984 
Q 856 709 1029 553 
Q 1203 397 1509 397 
Q 1978 397 2328 733 
Q 2678 1069 2791 1631 
L 2816 1759 
z
" transform="scale(0.015625)"/>
      <path id="DejaVuSans-63" d="M 3122 3366 
L 3122 2828 
Q 2878 2963 2633 3030 
Q 2388 3097 2138 3097 
Q 1578 3097 1268 2742 
Q 959 2388 959 1747 
Q 959 1106 1268 751 
Q 1578 397 2138 397 
Q 2388 397 2633 464 
Q 2878 531 3122 666 
L 3122 134 
Q 2881 22 2623 -34 
Q 2366 -91 2075 -91 
Q 1284 -91 818 406 
Q 353 903 353 1747 
Q 353 2603 823 3093 
Q 1294 3584 2113 3584 
Q 2378 3584 2631 3529 
Q 2884 3475 3122 3366 
z
" transform="scale(0.015625)"/>
      <path id="DejaVuSans-72" d="M 2631 2963 
Q 2534 3019 2420 3045 
Q 2306 3072 2169 3072 
Q 1681 3072 1420 2755 
Q 1159 2438 1159 1844 
L 1159 0 
L 581 0 
L 581 3500 
L 1159 3500 
L 1159 2956 
Q 1341 3275 1631 3429 
Q 1922 3584 2338 3584 
Q 2397 3584 2469 3576 
Q 2541 3569 2628 3553 
L 2631 2963 
z
" transform="scale(0.015625)"/>
      <path id="DejaVuSans-6f" d="M 1959 3097 
Q 1497 3097 1228 2736 
Q 959 2375 959 1747 
Q 959 1119 1226 758 
Q 1494 397 1959 397 
Q 2419 397 2687 759 
Q 2956 1122 2956 1747 
Q 2956 2369 2687 2733 
Q 2419 3097 1959 3097 
z
M 1959 3584 
Q 2709 3584 3137 3096 
Q 3566 2609 3566 1747 
Q 3566 888 3137 398 
Q 2709 -91 1959 -91 
Q 1206 -91 779 398 
Q 353 888 353 1747 
Q 353 2609 779 3096 
Q 1206 3584 1959 3584 
z
" transform="scale(0.015625)"/>
      <path id="DejaVuSans-73" d="M 2834 3397 
L 2834 2853 
Q 2591 2978 2328 3040 
Q 2066 3103 1784 3103 
Q 1356 3103 1142 2972 
Q 928 2841 928 2578 
Q 928 2378 1081 2264 
Q 1234 2150 1697 2047 
L 1894 2003 
Q 2506 1872 2764 1633 
Q 3022 1394 3022 966 
Q 3022 478 2636 193 
Q 2250 -91 1575 -91 
Q 1294 -91 989 -36 
Q 684 19 347 128 
L 347 722 
Q 666 556 975 473 
Q 1284 391 1588 391 
Q 1994 391 2212 530 
Q 2431 669 2431 922 
Q 2431 1156 2273 1281 
Q 2116 1406 1581 1522 
L 1381 1569 
Q 847 1681 609 1914 
Q 372 2147 372 2553 
Q 372 3047 722 3315 
Q 1072 3584 1716 3584 
Q 2034 3584 2315 3537 
Q 2597 3491 2834 3397 
z
" transform="scale(0.015625)"/>
      <path id="DejaVuSans-69" d="M 603 3500 
L 1178 3500 
L 1178 0 
L 603 0 
L 603 3500 
z
M 603 4863 
L 1178 4863 
L 1178 4134 
L 603 4134 
L 603 4863 
z
" transform="scale(0.015625)"/>
      <path id="DejaVuSans-70" d="M 1159 525 
L 1159 -1331 
L 581 -1331 
L 581 3500 
L 1159 3500 
L 1159 2969 
Q 1341 3281 1617 3432 
Q 1894 3584 2278 3584 
Q 2916 3584 3314 3078 
Q 3713 2572 3713 1747 
Q 3713 922 3314 415 
Q 2916 -91 2278 -91 
Q 1894 -91 1617 61 
Q 1341 213 1159 525 
z
M 3116 1747 
Q 3116 2381 2855 2742 
Q 2594 3103 2138 3103 
Q 1681 3103 1420 2742 
Q 1159 2381 1159 1747 
Q 1159 1113 1420 752 
Q 1681 391 2138 391 
Q 2594 391 2855 752 
Q 3116 1113 3116 1747 
z
" transform="scale(0.015625)"/>
     </defs>
     <use xlink:href="#DejaVuSans-Oblique-42" transform="translate(0 0.015625)"/>
     <use xlink:href="#DejaVuSans-Oblique-6e" transform="translate(68.603516 -16.390625)scale(0.7)"/>
     <use xlink:href="#DejaVuSans-20" transform="translate(115.703125 0.015625)"/>
     <use xlink:href="#DejaVuSans-61" transform="translate(147.490234 0.015625)"/>
     <use xlink:href="#DejaVuSans-6e" transform="translate(208.769531 0.015625)"/>
     <use xlink:href="#DejaVuSans-64" transform="translate(272.148438 0.015625)"/>
     <use xlink:href="#DejaVuSans-20" transform="translate(335.625 0.015625)"/>
     <use xlink:href="#DejaVuSans-Oblique-42" transform="translate(367.412109 0.015625)"/>
     <use xlink:href="#DejaVuSans-Oblique-74" transform="translate(436.015625 -16.390625)scale(0.7)"/>
     <use xlink:href="#DejaVuSans-Oblique-61" transform="translate(463.461914 -16.390625)scale(0.7)"/>
     <use xlink:href="#DejaVuSans-Oblique-6e" transform="translate(506.357422 -16.390625)scale(0.7)"/>
     <use xlink:href="#DejaVuSans-20" transform="translate(553.457031 0.015625)"/>
     <use xlink:href="#DejaVuSans-61" transform="translate(585.244141 0.015625)"/>
     <use xlink:href="#DejaVuSans-63" transform="translate(646.523438 0.015625)"/>
     <use xlink:href="#DejaVuSans-72" transform="translate(701.503906 0.015625)"/>
     <use xlink:href="#DejaVuSans-6f" transform="translate(742.617188 0.015625)"/>
     <use xlink:href="#DejaVuSans-73" transform="translate(803.798828 0.015625)"/>
     <use xlink:href="#DejaVuSans-73" transform="translate(855.898438 0.015625)"/>
     <use xlink:href="#DejaVuSans-20" transform="translate(907.998047 0.015625)"/>
     <use xlink:href="#DejaVuSans-61" transform="translate(939.785156 0.015625)"/>
     <use xlink:href="#DejaVuSans-69" transform="translate(1001.064453 0.015625)"/>
     <use xlink:href="#DejaVuSans-72" transform="translate(1028.847656 0.015625)"/>
     <use xlink:href="#DejaVuSans-67" transform="translate(1069.960938 0.015625)"/>
     <use xlink:href="#DejaVuSans-61" transform="translate(1133.4375 0.015625)"/>
     <use xlink:href="#DejaVuSans-70" transform="translate(1194.716797 0.015625)"/>
    </g>
   </g>
   <g id="legend_1">
    <g id="patch_7">
     <path d="M 368.56 71.357 
L 409.12 71.357 
Q 410.72 71.357 410.72 69.757 
L 410.72 47.072 
Q 410.72 45.472 409.12 45.472 
L 368.56 45.472 
Q 366.96 45.472 366.96 47.072 
L 366.96 69.757 
Q 366.96 71.357 368.56 71.357 
z
" style="fill: #ffffff; opacity: 0.8; stroke: #cccccc; stroke-linejoin: miter"/>
    </g>
    <g id="line2d_31">
     <path d="M 370.16 51.95075 
L 378.16 51.95075 
L 386.16 51.95075 
" style="fill: none; stroke: #1f77b4; stroke-width: 1.5; stroke-linecap: square"/>
    </g>
    <g id="text_18">
     <!-- $B_n$ -->
     <g transform="translate(392.56 54.75075)scale(0.08 -0.08)">
      <use xlink:href="#DejaVuSans-Oblique-42" transform="translate(0 0.09375)"/>
      <use xlink:href="#DejaVuSans-Oblique-6e" transform="translate(68.603516 -16.3125)scale(0.7)"/>
     </g>
    </g>
    <g id="line2d_32">
     <path d="M 370.16 63.69325 
L 378.16 63.69325 
L 386.16 63.69325 
" style="fill: none; stroke: #ff7f0e; stroke-width: 1.5; stroke-linecap: square"/>
    </g>
    <g id="text_19">
     <!-- $B_{tan}$ -->
     <g transform="translate(392.56 66.49325)scale(0.08 -0.08)">
      <use xlink:href="#DejaVuSans-Oblique-42" transform="translate(0 0.09375)"/>
      <use xlink:href="#DejaVuSans-Oblique-74" transform="translate(68.603516 -16.3125)scale(0.7)"/>
      <use xlink:href="#DejaVuSans-Oblique-61" transform="translate(96.049805 -16.3125)scale(0.7)"/>
      <use xlink:href="#DejaVuSans-Oblique-6e" transform="translate(138.945312 -16.3125)scale(0.7)"/>
     </g>
    </g>
   </g>
  </g>
 </g>
 <defs>
  <clipPath id="p70c52637d0">
   <rect x="57.6" y="41.472" width="357.12" height="266.112"/>
  </clipPath>
 </defs>
</svg>
