<?xml version="1.0" encoding="utf-8" standalone="no"?>
<!DOCTYPE svg PUBLIC "-//W3C//DTD SVG 1.1//EN"
  "http://www.w3.org/Graphics/SVG/1.1/DTD/svg11.dtd">
<!-- Created with matplotlib (https://matplotlib.org/) -->
<svg height="288pt" version="1.1" viewBox="0 0 432 288" width="432pt" xmlns="http://www.w3.org/2000/svg" xmlns:xlink="http://www.w3.org/1999/xlink">
 <metadata>
  <rdf:RDF xmlns:cc="http://creativecommons.org/ns#" xmlns:dc="http://purl.org/dc/elements/1.1/" xmlns:rdf="http://www.w3.org/1999/02/22-rdf-syntax-ns#">
   <cc:Work>
    <dc:type rdf:resource="http://purl.org/dc/dcmitype/StillImage"/>
    <dc:date>2022-06-07T11:02:27.871115</dc:date>
    <dc:format>image/svg+xml</dc:format>
    <dc:creator>
     <cc:Agent>
      <dc:title>Matplotlib v3.3.2, https://matplotlib.org/</dc:title>
     </cc:Agent>
    </dc:creator>
   </cc:Work>
  </rdf:RDF>
 </metadata>
 <defs>
  <style type="text/css">*{stroke-linecap:butt;stroke-linejoin:round;}</style>
 </defs>
 <g id="figure_1">
  <g id="patch_1">
   <path d="M 0 288 
L 432 288 
L 432 0 
L 0 0 
z
" style="fill:#ffffff;"/>
  </g>
  <g id="axes_1">
   <g id="patch_2">
    <path d="M 54 133.396364 
L 388.8 133.396364 
L 388.8 34.56 
L 54 34.56 
z
" style="fill:#ffffff;"/>
   </g>
   <g id="matplotlib.axis_1"/>
   <g id="matplotlib.axis_2">
    <g id="ytick_1">
     <g id="line2d_1">
      <defs>
       <path d="M 0 0 
L -3.5 0 
" id="me5e3122ce3" style="stroke:#000000;stroke-width:0.8;"/>
      </defs>
      <g>
       <use style="stroke:#000000;stroke-width:0.8;" x="54" xlink:href="#me5e3122ce3" y="128.903802"/>
      </g>
     </g>
     <g id="text_1">
      <!-- 0.0 -->
      <g transform="translate(31.096875 132.70302)scale(0.1 -0.1)">
       <defs>
        <path d="M 31.78125 66.40625 
Q 24.171875 66.40625 20.328125 58.90625 
Q 16.5 51.421875 16.5 36.375 
Q 16.5 21.390625 20.328125 13.890625 
Q 24.171875 6.390625 31.78125 6.390625 
Q 39.453125 6.390625 43.28125 13.890625 
Q 47.125 21.390625 47.125 36.375 
Q 47.125 51.421875 43.28125 58.90625 
Q 39.453125 66.40625 31.78125 66.40625 
z
M 31.78125 74.21875 
Q 44.046875 74.21875 50.515625 64.515625 
Q 56.984375 54.828125 56.984375 36.375 
Q 56.984375 17.96875 50.515625 8.265625 
Q 44.046875 -1.421875 31.78125 -1.421875 
Q 19.53125 -1.421875 13.0625 8.265625 
Q 6.59375 17.96875 6.59375 36.375 
Q 6.59375 54.828125 13.0625 64.515625 
Q 19.53125 74.21875 31.78125 74.21875 
z
" id="DejaVuSans-48"/>
        <path d="M 10.6875 12.40625 
L 21 12.40625 
L 21 0 
L 10.6875 0 
z
" id="DejaVuSans-46"/>
       </defs>
       <use xlink:href="#DejaVuSans-48"/>
       <use x="63.623047" xlink:href="#DejaVuSans-46"/>
       <use x="95.410156" xlink:href="#DejaVuSans-48"/>
      </g>
     </g>
    </g>
    <g id="ytick_2">
     <g id="line2d_2">
      <g>
       <use style="stroke:#000000;stroke-width:0.8;" x="54" xlink:href="#me5e3122ce3" y="98.053506"/>
      </g>
     </g>
     <g id="text_2">
      <!-- 0.5 -->
      <g transform="translate(31.096875 101.852725)scale(0.1 -0.1)">
       <defs>
        <path d="M 10.796875 72.90625 
L 49.515625 72.90625 
L 49.515625 64.59375 
L 19.828125 64.59375 
L 19.828125 46.734375 
Q 21.96875 47.46875 24.109375 47.828125 
Q 26.265625 48.1875 28.421875 48.1875 
Q 40.625 48.1875 47.75 41.5 
Q 54.890625 34.8125 54.890625 23.390625 
Q 54.890625 11.625 47.5625 5.09375 
Q 40.234375 -1.421875 26.90625 -1.421875 
Q 22.3125 -1.421875 17.546875 -0.640625 
Q 12.796875 0.140625 7.71875 1.703125 
L 7.71875 11.625 
Q 12.109375 9.234375 16.796875 8.0625 
Q 21.484375 6.890625 26.703125 6.890625 
Q 35.15625 6.890625 40.078125 11.328125 
Q 45.015625 15.765625 45.015625 23.390625 
Q 45.015625 31 40.078125 35.4375 
Q 35.15625 39.890625 26.703125 39.890625 
Q 22.75 39.890625 18.8125 39.015625 
Q 14.890625 38.140625 10.796875 36.28125 
z
" id="DejaVuSans-53"/>
       </defs>
       <use xlink:href="#DejaVuSans-48"/>
       <use x="63.623047" xlink:href="#DejaVuSans-46"/>
       <use x="95.410156" xlink:href="#DejaVuSans-53"/>
      </g>
     </g>
    </g>
    <g id="ytick_3">
     <g id="line2d_3">
      <g>
       <use style="stroke:#000000;stroke-width:0.8;" x="54" xlink:href="#me5e3122ce3" y="67.203211"/>
      </g>
     </g>
     <g id="text_3">
      <!-- 1.0 -->
      <g transform="translate(31.096875 71.002429)scale(0.1 -0.1)">
       <defs>
        <path d="M 12.40625 8.296875 
L 28.515625 8.296875 
L 28.515625 63.921875 
L 10.984375 60.40625 
L 10.984375 69.390625 
L 28.421875 72.90625 
L 38.28125 72.90625 
L 38.28125 8.296875 
L 54.390625 8.296875 
L 54.390625 0 
L 12.40625 0 
z
" id="DejaVuSans-49"/>
       </defs>
       <use xlink:href="#DejaVuSans-49"/>
       <use x="63.623047" xlink:href="#DejaVuSans-46"/>
       <use x="95.410156" xlink:href="#DejaVuSans-48"/>
      </g>
     </g>
    </g>
    <g id="ytick_4">
     <g id="line2d_4">
      <g>
       <use style="stroke:#000000;stroke-width:0.8;" x="54" xlink:href="#me5e3122ce3" y="36.352915"/>
      </g>
     </g>
     <g id="text_4">
      <!-- 1.5 -->
      <g transform="translate(31.096875 40.152134)scale(0.1 -0.1)">
       <use xlink:href="#DejaVuSans-49"/>
       <use x="63.623047" xlink:href="#DejaVuSans-46"/>
       <use x="95.410156" xlink:href="#DejaVuSans-53"/>
      </g>
     </g>
    </g>
    <g id="text_5">
     <!-- Radial Stress [Pa] -->
     <g transform="translate(25.017187 127.717244)rotate(-90)scale(0.1 -0.1)">
      <defs>
       <path d="M 44.390625 34.1875 
Q 47.5625 33.109375 50.5625 29.59375 
Q 53.5625 26.078125 56.59375 19.921875 
L 66.609375 0 
L 56 0 
L 46.6875 18.703125 
Q 43.0625 26.03125 39.671875 28.421875 
Q 36.28125 30.8125 30.421875 30.8125 
L 19.671875 30.8125 
L 19.671875 0 
L 9.8125 0 
L 9.8125 72.90625 
L 32.078125 72.90625 
Q 44.578125 72.90625 50.734375 67.671875 
Q 56.890625 62.453125 56.890625 51.90625 
Q 56.890625 45.015625 53.6875 40.46875 
Q 50.484375 35.9375 44.390625 34.1875 
z
M 19.671875 64.796875 
L 19.671875 38.921875 
L 32.078125 38.921875 
Q 39.203125 38.921875 42.84375 42.21875 
Q 46.484375 45.515625 46.484375 51.90625 
Q 46.484375 58.296875 42.84375 61.546875 
Q 39.203125 64.796875 32.078125 64.796875 
z
" id="DejaVuSans-82"/>
       <path d="M 34.28125 27.484375 
Q 23.390625 27.484375 19.1875 25 
Q 14.984375 22.515625 14.984375 16.5 
Q 14.984375 11.71875 18.140625 8.90625 
Q 21.296875 6.109375 26.703125 6.109375 
Q 34.1875 6.109375 38.703125 11.40625 
Q 43.21875 16.703125 43.21875 25.484375 
L 43.21875 27.484375 
z
M 52.203125 31.203125 
L 52.203125 0 
L 43.21875 0 
L 43.21875 8.296875 
Q 40.140625 3.328125 35.546875 0.953125 
Q 30.953125 -1.421875 24.3125 -1.421875 
Q 15.921875 -1.421875 10.953125 3.296875 
Q 6 8.015625 6 15.921875 
Q 6 25.140625 12.171875 29.828125 
Q 18.359375 34.515625 30.609375 34.515625 
L 43.21875 34.515625 
L 43.21875 35.40625 
Q 43.21875 41.609375 39.140625 45 
Q 35.0625 48.390625 27.6875 48.390625 
Q 23 48.390625 18.546875 47.265625 
Q 14.109375 46.140625 10.015625 43.890625 
L 10.015625 52.203125 
Q 14.9375 54.109375 19.578125 55.046875 
Q 24.21875 56 28.609375 56 
Q 40.484375 56 46.34375 49.84375 
Q 52.203125 43.703125 52.203125 31.203125 
z
" id="DejaVuSans-97"/>
       <path d="M 45.40625 46.390625 
L 45.40625 75.984375 
L 54.390625 75.984375 
L 54.390625 0 
L 45.40625 0 
L 45.40625 8.203125 
Q 42.578125 3.328125 38.25 0.953125 
Q 33.9375 -1.421875 27.875 -1.421875 
Q 17.96875 -1.421875 11.734375 6.484375 
Q 5.515625 14.40625 5.515625 27.296875 
Q 5.515625 40.1875 11.734375 48.09375 
Q 17.96875 56 27.875 56 
Q 33.9375 56 38.25 53.625 
Q 42.578125 51.265625 45.40625 46.390625 
z
M 14.796875 27.296875 
Q 14.796875 17.390625 18.875 11.75 
Q 22.953125 6.109375 30.078125 6.109375 
Q 37.203125 6.109375 41.296875 11.75 
Q 45.40625 17.390625 45.40625 27.296875 
Q 45.40625 37.203125 41.296875 42.84375 
Q 37.203125 48.484375 30.078125 48.484375 
Q 22.953125 48.484375 18.875 42.84375 
Q 14.796875 37.203125 14.796875 27.296875 
z
" id="DejaVuSans-100"/>
       <path d="M 9.421875 54.6875 
L 18.40625 54.6875 
L 18.40625 0 
L 9.421875 0 
z
M 9.421875 75.984375 
L 18.40625 75.984375 
L 18.40625 64.59375 
L 9.421875 64.59375 
z
" id="DejaVuSans-105"/>
       <path d="M 9.421875 75.984375 
L 18.40625 75.984375 
L 18.40625 0 
L 9.421875 0 
z
" id="DejaVuSans-108"/>
       <path id="DejaVuSans-32"/>
       <path d="M 53.515625 70.515625 
L 53.515625 60.890625 
Q 47.90625 63.578125 42.921875 64.890625 
Q 37.9375 66.21875 33.296875 66.21875 
Q 25.25 66.21875 20.875 63.09375 
Q 16.5 59.96875 16.5 54.203125 
Q 16.5 49.359375 19.40625 46.890625 
Q 22.3125 44.4375 30.421875 42.921875 
L 36.375 41.703125 
Q 47.40625 39.59375 52.65625 34.296875 
Q 57.90625 29 57.90625 20.125 
Q 57.90625 9.515625 50.796875 4.046875 
Q 43.703125 -1.421875 29.984375 -1.421875 
Q 24.8125 -1.421875 18.96875 -0.25 
Q 13.140625 0.921875 6.890625 3.21875 
L 6.890625 13.375 
Q 12.890625 10.015625 18.65625 8.296875 
Q 24.421875 6.59375 29.984375 6.59375 
Q 38.421875 6.59375 43.015625 9.90625 
Q 47.609375 13.234375 47.609375 19.390625 
Q 47.609375 24.75 44.3125 27.78125 
Q 41.015625 30.8125 33.5 32.328125 
L 27.484375 33.5 
Q 16.453125 35.6875 11.515625 40.375 
Q 6.59375 45.0625 6.59375 53.421875 
Q 6.59375 63.09375 13.40625 68.65625 
Q 20.21875 74.21875 32.171875 74.21875 
Q 37.3125 74.21875 42.625 73.28125 
Q 47.953125 72.359375 53.515625 70.515625 
z
" id="DejaVuSans-83"/>
       <path d="M 18.3125 70.21875 
L 18.3125 54.6875 
L 36.8125 54.6875 
L 36.8125 47.703125 
L 18.3125 47.703125 
L 18.3125 18.015625 
Q 18.3125 11.328125 20.140625 9.421875 
Q 21.96875 7.515625 27.59375 7.515625 
L 36.8125 7.515625 
L 36.8125 0 
L 27.59375 0 
Q 17.1875 0 13.234375 3.875 
Q 9.28125 7.765625 9.28125 18.015625 
L 9.28125 47.703125 
L 2.6875 47.703125 
L 2.6875 54.6875 
L 9.28125 54.6875 
L 9.28125 70.21875 
z
" id="DejaVuSans-116"/>
       <path d="M 41.109375 46.296875 
Q 39.59375 47.171875 37.8125 47.578125 
Q 36.03125 48 33.890625 48 
Q 26.265625 48 22.1875 43.046875 
Q 18.109375 38.09375 18.109375 28.8125 
L 18.109375 0 
L 9.078125 0 
L 9.078125 54.6875 
L 18.109375 54.6875 
L 18.109375 46.1875 
Q 20.953125 51.171875 25.484375 53.578125 
Q 30.03125 56 36.53125 56 
Q 37.453125 56 38.578125 55.875 
Q 39.703125 55.765625 41.0625 55.515625 
z
" id="DejaVuSans-114"/>
       <path d="M 56.203125 29.59375 
L 56.203125 25.203125 
L 14.890625 25.203125 
Q 15.484375 15.921875 20.484375 11.0625 
Q 25.484375 6.203125 34.421875 6.203125 
Q 39.59375 6.203125 44.453125 7.46875 
Q 49.3125 8.734375 54.109375 11.28125 
L 54.109375 2.78125 
Q 49.265625 0.734375 44.1875 -0.34375 
Q 39.109375 -1.421875 33.890625 -1.421875 
Q 20.796875 -1.421875 13.15625 6.1875 
Q 5.515625 13.8125 5.515625 26.8125 
Q 5.515625 40.234375 12.765625 48.109375 
Q 20.015625 56 32.328125 56 
Q 43.359375 56 49.78125 48.890625 
Q 56.203125 41.796875 56.203125 29.59375 
z
M 47.21875 32.234375 
Q 47.125 39.59375 43.09375 43.984375 
Q 39.0625 48.390625 32.421875 48.390625 
Q 24.90625 48.390625 20.390625 44.140625 
Q 15.875 39.890625 15.1875 32.171875 
z
" id="DejaVuSans-101"/>
       <path d="M 44.28125 53.078125 
L 44.28125 44.578125 
Q 40.484375 46.53125 36.375 47.5 
Q 32.28125 48.484375 27.875 48.484375 
Q 21.1875 48.484375 17.84375 46.4375 
Q 14.5 44.390625 14.5 40.28125 
Q 14.5 37.15625 16.890625 35.375 
Q 19.28125 33.59375 26.515625 31.984375 
L 29.59375 31.296875 
Q 39.15625 29.25 43.1875 25.515625 
Q 47.21875 21.78125 47.21875 15.09375 
Q 47.21875 7.46875 41.1875 3.015625 
Q 35.15625 -1.421875 24.609375 -1.421875 
Q 20.21875 -1.421875 15.453125 -0.5625 
Q 10.6875 0.296875 5.421875 2 
L 5.421875 11.28125 
Q 10.40625 8.6875 15.234375 7.390625 
Q 20.0625 6.109375 24.8125 6.109375 
Q 31.15625 6.109375 34.5625 8.28125 
Q 37.984375 10.453125 37.984375 14.40625 
Q 37.984375 18.0625 35.515625 20.015625 
Q 33.0625 21.96875 24.703125 23.78125 
L 21.578125 24.515625 
Q 13.234375 26.265625 9.515625 29.90625 
Q 5.8125 33.546875 5.8125 39.890625 
Q 5.8125 47.609375 11.28125 51.796875 
Q 16.75 56 26.8125 56 
Q 31.78125 56 36.171875 55.265625 
Q 40.578125 54.546875 44.28125 53.078125 
z
" id="DejaVuSans-115"/>
       <path d="M 8.59375 75.984375 
L 29.296875 75.984375 
L 29.296875 69 
L 17.578125 69 
L 17.578125 -6.203125 
L 29.296875 -6.203125 
L 29.296875 -13.1875 
L 8.59375 -13.1875 
z
" id="DejaVuSans-91"/>
       <path d="M 19.671875 64.796875 
L 19.671875 37.40625 
L 32.078125 37.40625 
Q 38.96875 37.40625 42.71875 40.96875 
Q 46.484375 44.53125 46.484375 51.125 
Q 46.484375 57.671875 42.71875 61.234375 
Q 38.96875 64.796875 32.078125 64.796875 
z
M 9.8125 72.90625 
L 32.078125 72.90625 
Q 44.34375 72.90625 50.609375 67.359375 
Q 56.890625 61.8125 56.890625 51.125 
Q 56.890625 40.328125 50.609375 34.8125 
Q 44.34375 29.296875 32.078125 29.296875 
L 19.671875 29.296875 
L 19.671875 0 
L 9.8125 0 
z
" id="DejaVuSans-80"/>
       <path d="M 30.421875 75.984375 
L 30.421875 -13.1875 
L 9.71875 -13.1875 
L 9.71875 -6.203125 
L 21.390625 -6.203125 
L 21.390625 69 
L 9.71875 69 
L 9.71875 75.984375 
z
" id="DejaVuSans-93"/>
      </defs>
      <use xlink:href="#DejaVuSans-82"/>
      <use x="67.232422" xlink:href="#DejaVuSans-97"/>
      <use x="128.511719" xlink:href="#DejaVuSans-100"/>
      <use x="191.988281" xlink:href="#DejaVuSans-105"/>
      <use x="219.771484" xlink:href="#DejaVuSans-97"/>
      <use x="281.050781" xlink:href="#DejaVuSans-108"/>
      <use x="308.833984" xlink:href="#DejaVuSans-32"/>
      <use x="340.621094" xlink:href="#DejaVuSans-83"/>
      <use x="404.097656" xlink:href="#DejaVuSans-116"/>
      <use x="443.306641" xlink:href="#DejaVuSans-114"/>
      <use x="482.169922" xlink:href="#DejaVuSans-101"/>
      <use x="543.693359" xlink:href="#DejaVuSans-115"/>
      <use x="595.792969" xlink:href="#DejaVuSans-115"/>
      <use x="647.892578" xlink:href="#DejaVuSans-32"/>
      <use x="679.679688" xlink:href="#DejaVuSans-91"/>
      <use x="718.693359" xlink:href="#DejaVuSans-80"/>
      <use x="774.496094" xlink:href="#DejaVuSans-97"/>
      <use x="835.775391" xlink:href="#DejaVuSans-93"/>
     </g>
    </g>
    <g id="text_6">
     <!-- 1e7 -->
     <g transform="translate(54 31.56)scale(0.1 -0.1)">
      <defs>
       <path d="M 8.203125 72.90625 
L 55.078125 72.90625 
L 55.078125 68.703125 
L 28.609375 0 
L 18.3125 0 
L 43.21875 64.59375 
L 8.203125 64.59375 
z
" id="DejaVuSans-55"/>
      </defs>
      <use xlink:href="#DejaVuSans-49"/>
      <use x="63.623047" xlink:href="#DejaVuSans-101"/>
      <use x="125.146484" xlink:href="#DejaVuSans-55"/>
     </g>
    </g>
   </g>
   <g id="line2d_5">
    <path clip-path="url(#pe1f3f898f6)" d="M 69.218182 39.052562 
L 70.44786 39.054046 
L 71.677538 39.05844 
L 72.907217 39.065744 
L 74.136895 39.075957 
L 75.366573 39.089081 
L 76.596251 39.105115 
L 77.82593 39.124059 
L 79.055608 39.145913 
L 80.285286 39.170677 
L 81.514965 39.198352 
L 82.744643 39.228936 
L 83.974321 39.26243 
L 85.203999 39.298834 
L 86.433678 39.338148 
L 87.663356 39.380372 
L 88.893034 39.425507 
L 90.122713 39.473551 
L 91.352391 39.524505 
L 92.582069 39.57837 
L 93.811747 39.635144 
L 95.041426 39.694828 
L 96.271104 39.757423 
L 97.500782 39.822927 
L 98.73046 39.891342 
L 99.960139 39.962666 
L 101.189817 40.036901 
L 102.419495 40.114045 
L 103.649174 40.1941 
L 104.878852 40.277065 
L 106.10853 40.362939 
L 107.338208 40.451724 
L 108.567887 40.543419 
L 109.797565 40.638023 
L 111.027243 40.735538 
L 112.256922 40.835963 
L 113.4866 40.939298 
L 114.716278 41.045543 
L 115.945956 41.154698 
L 117.175635 41.266762 
L 118.405313 41.381737 
L 119.634991 41.499622 
L 120.864669 41.620417 
L 122.094348 41.744122 
L 123.324026 41.870737 
L 124.553704 42.000263 
L 125.783383 42.132698 
L 127.013061 42.268043 
L 128.242739 42.406298 
L 129.472417 42.547463 
L 130.702096 42.691538 
L 131.931774 42.838524 
L 133.161452 42.988419 
L 134.391131 43.141224 
L 135.620809 43.29694 
L 136.850487 43.455565 
L 138.080165 43.6171 
L 139.309844 43.781546 
L 140.539522 43.948901 
L 141.7692 44.119167 
L 142.998879 44.292342 
L 144.228557 44.468428 
L 145.458235 44.647423 
L 146.687913 44.829329 
L 147.917592 45.014145 
L 149.14727 45.20187 
L 150.376948 45.392506 
L 151.606626 45.586052 
L 152.836305 45.782508 
L 154.065983 45.981873 
L 155.295661 46.184149 
L 156.52534 46.389335 
L 157.755018 46.597431 
L 158.984696 46.808437 
L 160.214374 47.022353 
L 161.444053 47.239179 
L 162.673731 47.458915 
L 163.903409 47.681561 
L 165.133088 47.907117 
L 166.362766 48.135583 
L 167.592444 48.366959 
L 168.822122 48.601245 
L 170.051801 48.838441 
L 171.281479 49.078547 
L 172.511157 49.321563 
L 173.740835 49.56749 
L 174.970514 49.816326 
L 176.200192 50.068072 
L 177.42987 50.322728 
L 178.659549 50.580295 
L 179.889227 50.840771 
L 181.118905 51.104158 
L 182.348583 51.370454 
L 183.578262 51.639661 
L 184.80794 51.911777 
L 186.037618 52.186804 
L 187.267297 52.46474 
L 188.496975 52.745587 
L 189.726653 53.029343 
L 190.956331 53.31601 
" style="fill:none;stroke:#1f77b4;stroke-linecap:square;stroke-width:1.5;"/>
   </g>
   <g id="line2d_6">
    <path clip-path="url(#pe1f3f898f6)" d="M 190.956331 53.31601 
L 192.309113 53.677792 
L 193.661894 54.041311 
L 195.014675 54.406641 
L 196.367457 54.77385 
L 197.720238 55.143002 
L 199.07302 55.514158 
L 200.425801 55.887377 
L 201.778582 56.262714 
L 203.131364 56.640221 
L 204.484145 57.019949 
L 205.836927 57.401944 
L 207.189708 57.786253 
L 208.542489 58.172917 
L 209.895271 58.561977 
L 211.248052 58.953474 
L 212.600833 59.347443 
L 213.953615 59.74392 
L 215.306396 60.142938 
L 216.659178 60.544531 
L 218.011959 60.948728 
L 219.36474 61.35556 
L 220.717522 61.765054 
L 222.070303 62.177236 
L 223.423085 62.592134 
L 224.775866 63.00977 
L 226.128647 63.430169 
L 227.481429 63.853353 
L 228.83421 64.279344 
L 230.186991 64.708163 
L 231.539773 65.139828 
L 232.892554 65.57436 
L 234.245336 66.011776 
L 235.598117 66.452093 
L 236.950898 66.89533 
L 238.30368 67.3415 
L 239.656461 67.790621 
L 241.009243 68.242707 
L 242.362024 68.697772 
L 243.714805 69.15583 
L 245.067587 69.616894 
L 246.420368 70.080976 
L 247.773149 70.54809 
L 249.125931 71.018247 
L 250.478712 71.491457 
L 251.831494 71.967733 
L 253.184275 72.447084 
L 254.537056 72.929521 
L 255.889838 73.415053 
L 257.242619 73.903689 
L 258.595401 74.39544 
L 259.948182 74.890313 
L 261.300963 75.388318 
L 262.653745 75.889461 
L 264.006526 76.393751 
L 265.359307 76.901197 
L 266.712089 77.411804 
L 268.06487 77.92558 
L 269.417652 78.442532 
L 270.770433 78.962667 
L 272.123214 79.48599 
L 273.475996 80.012509 
L 274.828777 80.542229 
L 276.181559 81.075156 
L 277.53434 81.611295 
L 278.887121 82.150652 
L 280.239903 82.693233 
L 281.592684 83.239041 
L 282.945465 83.788083 
L 284.298247 84.340363 
L 285.651028 84.895886 
L 287.00381 85.454655 
L 288.356591 86.016676 
L 289.709372 86.581953 
L 291.062154 87.150489 
L 292.414935 87.722289 
L 293.767717 88.297356 
L 295.120498 88.875695 
L 296.473279 89.457308 
L 297.826061 90.0422 
L 299.178842 90.630374 
L 300.531623 91.221832 
L 301.884405 91.816579 
L 303.237186 92.414617 
L 304.589968 93.01595 
L 305.942749 93.62058 
L 307.29553 94.22851 
L 308.648312 94.839743 
L 310.001093 95.454281 
L 311.353875 96.072128 
L 312.706656 96.693286 
L 314.059437 97.317757 
L 315.412219 97.945544 
L 316.765 98.576649 
L 318.117781 99.211074 
L 319.470563 99.848822 
L 320.823344 100.489895 
L 322.176126 101.134294 
L 323.528907 101.782022 
L 324.881688 102.433082 
" style="fill:none;stroke:#ff7f0e;stroke-linecap:square;stroke-width:1.5;"/>
   </g>
   <g id="line2d_7">
    <path clip-path="url(#pe1f3f898f6)" d="M 324.881688 102.433082 
L 325.373609 102.686737 
L 325.865529 102.940636 
L 326.35745 103.19478 
L 326.84937 103.44917 
L 327.341291 103.703807 
L 327.833211 103.958693 
L 328.325132 104.21383 
L 328.817052 104.469218 
L 329.308973 104.724859 
L 329.800893 104.980754 
L 330.292814 105.236905 
L 330.784734 105.493313 
L 331.276655 105.749978 
L 331.768575 106.006903 
L 332.260496 106.264089 
L 332.752416 106.521536 
L 333.244337 106.779246 
L 333.736257 107.037221 
L 334.228178 107.295461 
L 334.720098 107.553968 
L 335.212019 107.812742 
L 335.703939 108.071785 
L 336.19586 108.331099 
L 336.68778 108.590684 
L 337.179701 108.850541 
L 337.671621 109.110672 
L 338.163542 109.371078 
L 338.655462 109.631759 
L 339.147383 109.892717 
L 339.639303 110.153953 
L 340.131224 110.415468 
L 340.623144 110.677264 
L 341.115065 110.93934 
L 341.606985 111.201699 
L 342.098906 111.464341 
L 342.590826 111.727267 
L 343.082747 111.990479 
L 343.574667 112.253976 
L 344.066588 112.517761 
L 344.558508 112.781835 
L 345.050429 113.046198 
L 345.542349 113.310851 
L 346.03427 113.575795 
L 346.526191 113.841031 
L 347.018111 114.106561 
L 347.510032 114.372384 
L 348.001952 114.638503 
L 348.493873 114.904917 
L 348.985793 115.171629 
L 349.477714 115.438638 
L 349.969634 115.705946 
L 350.461555 115.973553 
L 350.953475 116.241461 
L 351.445396 116.50967 
L 351.937316 116.778181 
L 352.429237 117.046996 
L 352.921157 117.316114 
L 353.413078 117.585537 
L 353.904998 117.855265 
L 354.396919 118.1253 
L 354.888839 118.395643 
L 355.38076 118.666293 
L 355.87268 118.937252 
L 356.364601 119.208521 
L 356.856521 119.4801 
L 357.348442 119.751991 
L 357.840362 120.024193 
L 358.332283 120.296709 
L 358.824203 120.569538 
L 359.316124 120.842681 
L 359.808044 121.11614 
L 360.299965 121.389914 
L 360.791885 121.664005 
L 361.283806 121.938414 
L 361.775726 122.21314 
L 362.267647 122.488185 
L 362.759567 122.76355 
L 363.251488 123.039235 
L 363.743408 123.315241 
L 364.235329 123.591569 
L 364.727249 123.868219 
L 365.21917 124.145192 
L 365.71109 124.422489 
L 366.203011 124.70011 
L 366.694931 124.978056 
L 367.186852 125.256328 
L 367.678772 125.534927 
L 368.170693 125.813852 
L 368.662613 126.093105 
L 369.154534 126.372687 
L 369.646454 126.652597 
L 370.138375 126.932838 
L 370.630295 127.213408 
L 371.122216 127.49431 
L 371.614136 127.775542 
L 372.106057 128.057108 
L 372.597977 128.339005 
L 373.089898 128.621237 
L 373.581818 128.903802 
" style="fill:none;stroke:#2ca02c;stroke-linecap:square;stroke-width:1.5;"/>
   </g>
   <g id="patch_3">
    <path d="M 54 133.396364 
L 54 34.56 
" style="fill:none;stroke:#000000;stroke-linecap:square;stroke-linejoin:miter;stroke-width:0.8;"/>
   </g>
   <g id="patch_4">
    <path d="M 388.8 133.396364 
L 388.8 34.56 
" style="fill:none;stroke:#000000;stroke-linecap:square;stroke-linejoin:miter;stroke-width:0.8;"/>
   </g>
   <g id="patch_5">
    <path d="M 54 133.396364 
L 388.8 133.396364 
" style="fill:none;stroke:#000000;stroke-linecap:square;stroke-linejoin:miter;stroke-width:0.8;"/>
   </g>
   <g id="patch_6">
    <path d="M 54 34.56 
L 388.8 34.56 
" style="fill:none;stroke:#000000;stroke-linecap:square;stroke-linejoin:miter;stroke-width:0.8;"/>
   </g>
  </g>
  <g id="axes_2">
   <g id="patch_7">
    <path d="M 54 252 
L 388.8 252 
L 388.8 153.163636 
L 54 153.163636 
z
" style="fill:#ffffff;"/>
   </g>
   <g id="matplotlib.axis_3">
    <g id="xtick_1">
     <g id="line2d_8">
      <defs>
       <path d="M 0 0 
L 0 3.5 
" id="m694a9f193e" style="stroke:#000000;stroke-width:0.8;"/>
      </defs>
      <g>
       <use style="stroke:#000000;stroke-width:0.8;" x="69.206007" xlink:href="#m694a9f193e" y="252"/>
      </g>
     </g>
     <g id="text_7">
      <!-- 0.000 -->
      <g transform="translate(54.891944 266.598437)scale(0.1 -0.1)">
       <use xlink:href="#DejaVuSans-48"/>
       <use x="63.623047" xlink:href="#DejaVuSans-46"/>
       <use x="95.410156" xlink:href="#DejaVuSans-48"/>
       <use x="159.033203" xlink:href="#DejaVuSans-48"/>
       <use x="222.65625" xlink:href="#DejaVuSans-48"/>
      </g>
     </g>
    </g>
    <g id="xtick_2">
     <g id="line2d_9">
      <g>
       <use style="stroke:#000000;stroke-width:0.8;" x="117.906137" xlink:href="#m694a9f193e" y="252"/>
      </g>
     </g>
     <g id="text_8">
      <!-- 0.002 -->
      <g transform="translate(103.592074 266.598437)scale(0.1 -0.1)">
       <defs>
        <path d="M 19.1875 8.296875 
L 53.609375 8.296875 
L 53.609375 0 
L 7.328125 0 
L 7.328125 8.296875 
Q 12.9375 14.109375 22.625 23.890625 
Q 32.328125 33.6875 34.8125 36.53125 
Q 39.546875 41.84375 41.421875 45.53125 
Q 43.3125 49.21875 43.3125 52.78125 
Q 43.3125 58.59375 39.234375 62.25 
Q 35.15625 65.921875 28.609375 65.921875 
Q 23.96875 65.921875 18.8125 64.3125 
Q 13.671875 62.703125 7.8125 59.421875 
L 7.8125 69.390625 
Q 13.765625 71.78125 18.9375 73 
Q 24.125 74.21875 28.421875 74.21875 
Q 39.75 74.21875 46.484375 68.546875 
Q 53.21875 62.890625 53.21875 53.421875 
Q 53.21875 48.921875 51.53125 44.890625 
Q 49.859375 40.875 45.40625 35.40625 
Q 44.1875 33.984375 37.640625 27.21875 
Q 31.109375 20.453125 19.1875 8.296875 
z
" id="DejaVuSans-50"/>
       </defs>
       <use xlink:href="#DejaVuSans-48"/>
       <use x="63.623047" xlink:href="#DejaVuSans-46"/>
       <use x="95.410156" xlink:href="#DejaVuSans-48"/>
       <use x="159.033203" xlink:href="#DejaVuSans-48"/>
       <use x="222.65625" xlink:href="#DejaVuSans-50"/>
      </g>
     </g>
    </g>
    <g id="xtick_3">
     <g id="line2d_10">
      <g>
       <use style="stroke:#000000;stroke-width:0.8;" x="166.606266" xlink:href="#m694a9f193e" y="252"/>
      </g>
     </g>
     <g id="text_9">
      <!-- 0.004 -->
      <g transform="translate(152.292204 266.598437)scale(0.1 -0.1)">
       <defs>
        <path d="M 37.796875 64.3125 
L 12.890625 25.390625 
L 37.796875 25.390625 
z
M 35.203125 72.90625 
L 47.609375 72.90625 
L 47.609375 25.390625 
L 58.015625 25.390625 
L 58.015625 17.1875 
L 47.609375 17.1875 
L 47.609375 0 
L 37.796875 0 
L 37.796875 17.1875 
L 4.890625 17.1875 
L 4.890625 26.703125 
z
" id="DejaVuSans-52"/>
       </defs>
       <use xlink:href="#DejaVuSans-48"/>
       <use x="63.623047" xlink:href="#DejaVuSans-46"/>
       <use x="95.410156" xlink:href="#DejaVuSans-48"/>
       <use x="159.033203" xlink:href="#DejaVuSans-48"/>
       <use x="222.65625" xlink:href="#DejaVuSans-52"/>
      </g>
     </g>
    </g>
    <g id="xtick_4">
     <g id="line2d_11">
      <g>
       <use style="stroke:#000000;stroke-width:0.8;" x="215.306396" xlink:href="#m694a9f193e" y="252"/>
      </g>
     </g>
     <g id="text_10">
      <!-- 0.006 -->
      <g transform="translate(200.992334 266.598437)scale(0.1 -0.1)">
       <defs>
        <path d="M 33.015625 40.375 
Q 26.375 40.375 22.484375 35.828125 
Q 18.609375 31.296875 18.609375 23.390625 
Q 18.609375 15.53125 22.484375 10.953125 
Q 26.375 6.390625 33.015625 6.390625 
Q 39.65625 6.390625 43.53125 10.953125 
Q 47.40625 15.53125 47.40625 23.390625 
Q 47.40625 31.296875 43.53125 35.828125 
Q 39.65625 40.375 33.015625 40.375 
z
M 52.59375 71.296875 
L 52.59375 62.3125 
Q 48.875 64.0625 45.09375 64.984375 
Q 41.3125 65.921875 37.59375 65.921875 
Q 27.828125 65.921875 22.671875 59.328125 
Q 17.53125 52.734375 16.796875 39.40625 
Q 19.671875 43.65625 24.015625 45.921875 
Q 28.375 48.1875 33.59375 48.1875 
Q 44.578125 48.1875 50.953125 41.515625 
Q 57.328125 34.859375 57.328125 23.390625 
Q 57.328125 12.15625 50.6875 5.359375 
Q 44.046875 -1.421875 33.015625 -1.421875 
Q 20.359375 -1.421875 13.671875 8.265625 
Q 6.984375 17.96875 6.984375 36.375 
Q 6.984375 53.65625 15.1875 63.9375 
Q 23.390625 74.21875 37.203125 74.21875 
Q 40.921875 74.21875 44.703125 73.484375 
Q 48.484375 72.75 52.59375 71.296875 
z
" id="DejaVuSans-54"/>
       </defs>
       <use xlink:href="#DejaVuSans-48"/>
       <use x="63.623047" xlink:href="#DejaVuSans-46"/>
       <use x="95.410156" xlink:href="#DejaVuSans-48"/>
       <use x="159.033203" xlink:href="#DejaVuSans-48"/>
       <use x="222.65625" xlink:href="#DejaVuSans-54"/>
      </g>
     </g>
    </g>
    <g id="xtick_5">
     <g id="line2d_12">
      <g>
       <use style="stroke:#000000;stroke-width:0.8;" x="264.006526" xlink:href="#m694a9f193e" y="252"/>
      </g>
     </g>
     <g id="text_11">
      <!-- 0.008 -->
      <g transform="translate(249.692464 266.598437)scale(0.1 -0.1)">
       <defs>
        <path d="M 31.78125 34.625 
Q 24.75 34.625 20.71875 30.859375 
Q 16.703125 27.09375 16.703125 20.515625 
Q 16.703125 13.921875 20.71875 10.15625 
Q 24.75 6.390625 31.78125 6.390625 
Q 38.8125 6.390625 42.859375 10.171875 
Q 46.921875 13.96875 46.921875 20.515625 
Q 46.921875 27.09375 42.890625 30.859375 
Q 38.875 34.625 31.78125 34.625 
z
M 21.921875 38.8125 
Q 15.578125 40.375 12.03125 44.71875 
Q 8.5 49.078125 8.5 55.328125 
Q 8.5 64.0625 14.71875 69.140625 
Q 20.953125 74.21875 31.78125 74.21875 
Q 42.671875 74.21875 48.875 69.140625 
Q 55.078125 64.0625 55.078125 55.328125 
Q 55.078125 49.078125 51.53125 44.71875 
Q 48 40.375 41.703125 38.8125 
Q 48.828125 37.15625 52.796875 32.3125 
Q 56.78125 27.484375 56.78125 20.515625 
Q 56.78125 9.90625 50.3125 4.234375 
Q 43.84375 -1.421875 31.78125 -1.421875 
Q 19.734375 -1.421875 13.25 4.234375 
Q 6.78125 9.90625 6.78125 20.515625 
Q 6.78125 27.484375 10.78125 32.3125 
Q 14.796875 37.15625 21.921875 38.8125 
z
M 18.3125 54.390625 
Q 18.3125 48.734375 21.84375 45.5625 
Q 25.390625 42.390625 31.78125 42.390625 
Q 38.140625 42.390625 41.71875 45.5625 
Q 45.3125 48.734375 45.3125 54.390625 
Q 45.3125 60.0625 41.71875 63.234375 
Q 38.140625 66.40625 31.78125 66.40625 
Q 25.390625 66.40625 21.84375 63.234375 
Q 18.3125 60.0625 18.3125 54.390625 
z
" id="DejaVuSans-56"/>
       </defs>
       <use xlink:href="#DejaVuSans-48"/>
       <use x="63.623047" xlink:href="#DejaVuSans-46"/>
       <use x="95.410156" xlink:href="#DejaVuSans-48"/>
       <use x="159.033203" xlink:href="#DejaVuSans-48"/>
       <use x="222.65625" xlink:href="#DejaVuSans-56"/>
      </g>
     </g>
    </g>
    <g id="xtick_6">
     <g id="line2d_13">
      <g>
       <use style="stroke:#000000;stroke-width:0.8;" x="312.706656" xlink:href="#m694a9f193e" y="252"/>
      </g>
     </g>
     <g id="text_12">
      <!-- 0.010 -->
      <g transform="translate(298.392593 266.598437)scale(0.1 -0.1)">
       <use xlink:href="#DejaVuSans-48"/>
       <use x="63.623047" xlink:href="#DejaVuSans-46"/>
       <use x="95.410156" xlink:href="#DejaVuSans-48"/>
       <use x="159.033203" xlink:href="#DejaVuSans-49"/>
       <use x="222.65625" xlink:href="#DejaVuSans-48"/>
      </g>
     </g>
    </g>
    <g id="xtick_7">
     <g id="line2d_14">
      <g>
       <use style="stroke:#000000;stroke-width:0.8;" x="361.406786" xlink:href="#m694a9f193e" y="252"/>
      </g>
     </g>
     <g id="text_13">
      <!-- 0.012 -->
      <g transform="translate(347.092723 266.598437)scale(0.1 -0.1)">
       <use xlink:href="#DejaVuSans-48"/>
       <use x="63.623047" xlink:href="#DejaVuSans-46"/>
       <use x="95.410156" xlink:href="#DejaVuSans-48"/>
       <use x="159.033203" xlink:href="#DejaVuSans-49"/>
       <use x="222.65625" xlink:href="#DejaVuSans-50"/>
      </g>
     </g>
    </g>
    <g id="text_14">
     <!-- Radial Position [m] -->
     <g transform="translate(174.54375 280.276562)scale(0.1 -0.1)">
      <defs>
       <path d="M 30.609375 48.390625 
Q 23.390625 48.390625 19.1875 42.75 
Q 14.984375 37.109375 14.984375 27.296875 
Q 14.984375 17.484375 19.15625 11.84375 
Q 23.34375 6.203125 30.609375 6.203125 
Q 37.796875 6.203125 41.984375 11.859375 
Q 46.1875 17.53125 46.1875 27.296875 
Q 46.1875 37.015625 41.984375 42.703125 
Q 37.796875 48.390625 30.609375 48.390625 
z
M 30.609375 56 
Q 42.328125 56 49.015625 48.375 
Q 55.71875 40.765625 55.71875 27.296875 
Q 55.71875 13.875 49.015625 6.21875 
Q 42.328125 -1.421875 30.609375 -1.421875 
Q 18.84375 -1.421875 12.171875 6.21875 
Q 5.515625 13.875 5.515625 27.296875 
Q 5.515625 40.765625 12.171875 48.375 
Q 18.84375 56 30.609375 56 
z
" id="DejaVuSans-111"/>
       <path d="M 54.890625 33.015625 
L 54.890625 0 
L 45.90625 0 
L 45.90625 32.71875 
Q 45.90625 40.484375 42.875 44.328125 
Q 39.84375 48.1875 33.796875 48.1875 
Q 26.515625 48.1875 22.3125 43.546875 
Q 18.109375 38.921875 18.109375 30.90625 
L 18.109375 0 
L 9.078125 0 
L 9.078125 54.6875 
L 18.109375 54.6875 
L 18.109375 46.1875 
Q 21.34375 51.125 25.703125 53.5625 
Q 30.078125 56 35.796875 56 
Q 45.21875 56 50.046875 50.171875 
Q 54.890625 44.34375 54.890625 33.015625 
z
" id="DejaVuSans-110"/>
       <path d="M 52 44.1875 
Q 55.375 50.25 60.0625 53.125 
Q 64.75 56 71.09375 56 
Q 79.640625 56 84.28125 50.015625 
Q 88.921875 44.046875 88.921875 33.015625 
L 88.921875 0 
L 79.890625 0 
L 79.890625 32.71875 
Q 79.890625 40.578125 77.09375 44.375 
Q 74.3125 48.1875 68.609375 48.1875 
Q 61.625 48.1875 57.5625 43.546875 
Q 53.515625 38.921875 53.515625 30.90625 
L 53.515625 0 
L 44.484375 0 
L 44.484375 32.71875 
Q 44.484375 40.625 41.703125 44.40625 
Q 38.921875 48.1875 33.109375 48.1875 
Q 26.21875 48.1875 22.15625 43.53125 
Q 18.109375 38.875 18.109375 30.90625 
L 18.109375 0 
L 9.078125 0 
L 9.078125 54.6875 
L 18.109375 54.6875 
L 18.109375 46.1875 
Q 21.1875 51.21875 25.484375 53.609375 
Q 29.78125 56 35.6875 56 
Q 41.65625 56 45.828125 52.96875 
Q 50 49.953125 52 44.1875 
z
" id="DejaVuSans-109"/>
      </defs>
      <use xlink:href="#DejaVuSans-82"/>
      <use x="67.232422" xlink:href="#DejaVuSans-97"/>
      <use x="128.511719" xlink:href="#DejaVuSans-100"/>
      <use x="191.988281" xlink:href="#DejaVuSans-105"/>
      <use x="219.771484" xlink:href="#DejaVuSans-97"/>
      <use x="281.050781" xlink:href="#DejaVuSans-108"/>
      <use x="308.833984" xlink:href="#DejaVuSans-32"/>
      <use x="340.621094" xlink:href="#DejaVuSans-80"/>
      <use x="397.298828" xlink:href="#DejaVuSans-111"/>
      <use x="458.480469" xlink:href="#DejaVuSans-115"/>
      <use x="510.580078" xlink:href="#DejaVuSans-105"/>
      <use x="538.363281" xlink:href="#DejaVuSans-116"/>
      <use x="577.572266" xlink:href="#DejaVuSans-105"/>
      <use x="605.355469" xlink:href="#DejaVuSans-111"/>
      <use x="666.537109" xlink:href="#DejaVuSans-110"/>
      <use x="729.916016" xlink:href="#DejaVuSans-32"/>
      <use x="761.703125" xlink:href="#DejaVuSans-91"/>
      <use x="800.716797" xlink:href="#DejaVuSans-109"/>
      <use x="898.128906" xlink:href="#DejaVuSans-93"/>
     </g>
    </g>
   </g>
   <g id="matplotlib.axis_4">
    <g id="ytick_5">
     <g id="line2d_15">
      <g>
       <use style="stroke:#000000;stroke-width:0.8;" x="54" xlink:href="#me5e3122ce3" y="235.749745"/>
      </g>
     </g>
     <g id="text_15">
      <!-- 0.5 -->
      <g transform="translate(31.096875 239.548964)scale(0.1 -0.1)">
       <use xlink:href="#DejaVuSans-48"/>
       <use x="63.623047" xlink:href="#DejaVuSans-46"/>
       <use x="95.410156" xlink:href="#DejaVuSans-53"/>
      </g>
     </g>
    </g>
    <g id="ytick_6">
     <g id="line2d_16">
      <g>
       <use style="stroke:#000000;stroke-width:0.8;" x="54" xlink:href="#me5e3122ce3" y="194.916348"/>
      </g>
     </g>
     <g id="text_16">
      <!-- 1.0 -->
      <g transform="translate(31.096875 198.715566)scale(0.1 -0.1)">
       <use xlink:href="#DejaVuSans-49"/>
       <use x="63.623047" xlink:href="#DejaVuSans-46"/>
       <use x="95.410156" xlink:href="#DejaVuSans-48"/>
      </g>
     </g>
    </g>
    <g id="ytick_7">
     <g id="line2d_17">
      <g>
       <use style="stroke:#000000;stroke-width:0.8;" x="54" xlink:href="#me5e3122ce3" y="154.08295"/>
      </g>
     </g>
     <g id="text_17">
      <!-- 1.5 -->
      <g transform="translate(31.096875 157.882169)scale(0.1 -0.1)">
       <use xlink:href="#DejaVuSans-49"/>
       <use x="63.623047" xlink:href="#DejaVuSans-46"/>
       <use x="95.410156" xlink:href="#DejaVuSans-53"/>
      </g>
     </g>
    </g>
    <g id="text_18">
     <!-- Tangential Stress [Pa] -->
     <g transform="translate(25.017187 256.562287)rotate(-90)scale(0.1 -0.1)">
      <defs>
       <path d="M -0.296875 72.90625 
L 61.375 72.90625 
L 61.375 64.59375 
L 35.5 64.59375 
L 35.5 0 
L 25.59375 0 
L 25.59375 64.59375 
L -0.296875 64.59375 
z
" id="DejaVuSans-84"/>
       <path d="M 45.40625 27.984375 
Q 45.40625 37.75 41.375 43.109375 
Q 37.359375 48.484375 30.078125 48.484375 
Q 22.859375 48.484375 18.828125 43.109375 
Q 14.796875 37.75 14.796875 27.984375 
Q 14.796875 18.265625 18.828125 12.890625 
Q 22.859375 7.515625 30.078125 7.515625 
Q 37.359375 7.515625 41.375 12.890625 
Q 45.40625 18.265625 45.40625 27.984375 
z
M 54.390625 6.78125 
Q 54.390625 -7.171875 48.1875 -13.984375 
Q 42 -20.796875 29.203125 -20.796875 
Q 24.46875 -20.796875 20.265625 -20.09375 
Q 16.0625 -19.390625 12.109375 -17.921875 
L 12.109375 -9.1875 
Q 16.0625 -11.328125 19.921875 -12.34375 
Q 23.78125 -13.375 27.78125 -13.375 
Q 36.625 -13.375 41.015625 -8.765625 
Q 45.40625 -4.15625 45.40625 5.171875 
L 45.40625 9.625 
Q 42.625 4.78125 38.28125 2.390625 
Q 33.9375 0 27.875 0 
Q 17.828125 0 11.671875 7.65625 
Q 5.515625 15.328125 5.515625 27.984375 
Q 5.515625 40.671875 11.671875 48.328125 
Q 17.828125 56 27.875 56 
Q 33.9375 56 38.28125 53.609375 
Q 42.625 51.21875 45.40625 46.390625 
L 45.40625 54.6875 
L 54.390625 54.6875 
z
" id="DejaVuSans-103"/>
      </defs>
      <use xlink:href="#DejaVuSans-84"/>
      <use x="44.583984" xlink:href="#DejaVuSans-97"/>
      <use x="105.863281" xlink:href="#DejaVuSans-110"/>
      <use x="169.242188" xlink:href="#DejaVuSans-103"/>
      <use x="232.71875" xlink:href="#DejaVuSans-101"/>
      <use x="294.242188" xlink:href="#DejaVuSans-110"/>
      <use x="357.621094" xlink:href="#DejaVuSans-116"/>
      <use x="396.830078" xlink:href="#DejaVuSans-105"/>
      <use x="424.613281" xlink:href="#DejaVuSans-97"/>
      <use x="485.892578" xlink:href="#DejaVuSans-108"/>
      <use x="513.675781" xlink:href="#DejaVuSans-32"/>
      <use x="545.462891" xlink:href="#DejaVuSans-83"/>
      <use x="608.939453" xlink:href="#DejaVuSans-116"/>
      <use x="648.148438" xlink:href="#DejaVuSans-114"/>
      <use x="687.011719" xlink:href="#DejaVuSans-101"/>
      <use x="748.535156" xlink:href="#DejaVuSans-115"/>
      <use x="800.634766" xlink:href="#DejaVuSans-115"/>
      <use x="852.734375" xlink:href="#DejaVuSans-32"/>
      <use x="884.521484" xlink:href="#DejaVuSans-91"/>
      <use x="923.535156" xlink:href="#DejaVuSans-80"/>
      <use x="979.337891" xlink:href="#DejaVuSans-97"/>
      <use x="1040.617188" xlink:href="#DejaVuSans-93"/>
     </g>
    </g>
    <g id="text_19">
     <!-- 1e7 -->
     <g transform="translate(54 150.163636)scale(0.1 -0.1)">
      <use xlink:href="#DejaVuSans-49"/>
      <use x="63.623047" xlink:href="#DejaVuSans-101"/>
      <use x="125.146484" xlink:href="#DejaVuSans-55"/>
     </g>
    </g>
   </g>
   <g id="line2d_18">
    <path clip-path="url(#p0b72d86382)" d="M 69.218182 157.656198 
L 70.44786 157.657508 
L 71.677538 157.661385 
L 72.907217 157.66783 
L 74.136895 157.676842 
L 75.366573 157.688423 
L 76.596251 157.702571 
L 77.82593 157.719288 
L 79.055608 157.738572 
L 80.285286 157.760423 
L 81.514965 157.784843 
L 82.744643 157.81183 
L 83.974321 157.841385 
L 85.203999 157.873508 
L 86.433678 157.908199 
L 87.663356 157.945458 
L 88.893034 157.985284 
L 90.122713 158.027679 
L 91.352391 158.072641 
L 92.582069 158.12017 
L 93.811747 158.170268 
L 95.041426 158.222933 
L 96.271104 158.278167 
L 97.500782 158.335968 
L 98.73046 158.396337 
L 99.960139 158.459273 
L 101.189817 158.524778 
L 102.419495 158.59285 
L 103.649174 158.66349 
L 104.878852 158.736698 
L 106.10853 158.812474 
L 107.338208 158.890817 
L 108.567887 158.971729 
L 109.797565 159.055208 
L 111.027243 159.141255 
L 112.256922 159.229869 
L 113.4866 159.321052 
L 114.716278 159.414802 
L 115.945956 159.51112 
L 117.175635 159.610006 
L 118.405313 159.71146 
L 119.634991 159.815482 
L 120.864669 159.922071 
L 122.094348 160.031228 
L 123.324026 160.142953 
L 124.553704 160.257246 
L 125.783383 160.374106 
L 127.013061 160.493535 
L 128.242739 160.615531 
L 129.472417 160.740095 
L 130.702096 160.867227 
L 131.931774 160.996927 
L 133.161452 161.129194 
L 134.391131 161.264029 
L 135.620809 161.401432 
L 136.850487 161.541403 
L 138.080165 161.683942 
L 139.309844 161.829048 
L 140.539522 161.976722 
L 141.7692 162.126965 
L 142.998879 162.279774 
L 144.228557 162.435152 
L 145.458235 162.593098 
L 146.687913 162.753611 
L 147.917592 162.916692 
L 149.14727 163.082341 
L 150.376948 163.250558 
L 151.606626 163.421342 
L 152.836305 163.594694 
L 154.065983 163.770615 
L 155.295661 163.949102 
L 156.52534 164.130158 
L 157.755018 164.313782 
L 158.984696 164.499973 
L 160.214374 164.688732 
L 161.444053 164.880059 
L 162.673731 165.073954 
L 163.903409 165.270417 
L 165.133088 165.469447 
L 166.362766 165.671045 
L 167.592444 165.875211 
L 168.822122 166.081945 
L 170.051801 166.291247 
L 171.281479 166.503116 
L 172.511157 166.717553 
L 173.740835 166.934558 
L 174.970514 167.154131 
L 176.200192 167.376272 
L 177.42987 167.60098 
L 178.659549 167.828256 
L 179.889227 168.0581 
L 181.118905 168.290512 
L 182.348583 168.525492 
L 183.578262 168.763039 
L 184.80794 169.003155 
L 186.037618 169.245838 
L 187.267297 169.491089 
L 188.496975 169.738907 
L 189.726653 169.989294 
L 190.956331 170.242248 
" style="fill:none;stroke:#1f77b4;stroke-linecap:square;stroke-width:1.5;"/>
   </g>
   <g id="line2d_19">
    <path clip-path="url(#p0b72d86382)" d="M 190.956331 176.711801 
L 192.309113 176.916402 
L 193.661894 177.126255 
L 195.014675 177.341263 
L 196.367457 177.561337 
L 197.720238 177.786392 
L 199.07302 178.016344 
L 200.425801 178.251119 
L 201.778582 178.490642 
L 203.131364 178.734845 
L 204.484145 178.98366 
L 205.836927 179.237026 
L 207.189708 179.494883 
L 208.542489 179.757174 
L 209.895271 180.023844 
L 211.248052 180.294843 
L 212.600833 180.570121 
L 213.953615 180.849631 
L 215.306396 181.133329 
L 216.659178 181.421172 
L 218.011959 181.713119 
L 219.36474 182.009132 
L 220.717522 182.309173 
L 222.070303 182.613207 
L 223.423085 182.9212 
L 224.775866 183.23312 
L 226.128647 183.548935 
L 227.481429 183.868615 
L 228.83421 184.192132 
L 230.186991 184.519459 
L 231.539773 184.85057 
L 232.892554 185.185439 
L 234.245336 185.524042 
L 235.598117 185.866357 
L 236.950898 186.21236 
L 238.30368 186.562032 
L 239.656461 186.91535 
L 241.009243 187.272296 
L 242.362024 187.632851 
L 243.714805 187.996997 
L 245.067587 188.364716 
L 246.420368 188.735991 
L 247.773149 189.110806 
L 249.125931 189.489145 
L 250.478712 189.870995 
L 251.831494 190.256339 
L 253.184275 190.645165 
L 254.537056 191.037459 
L 255.889838 191.433207 
L 257.242619 191.832399 
L 258.595401 192.23502 
L 259.948182 192.641061 
L 261.300963 193.050509 
L 262.653745 193.463354 
L 264.006526 193.879586 
L 265.359307 194.299195 
L 266.712089 194.72217 
L 268.06487 195.148502 
L 269.417652 195.578183 
L 270.770433 196.011204 
L 272.123214 196.447555 
L 273.475996 196.88723 
L 274.828777 197.330219 
L 276.181559 197.776516 
L 277.53434 198.226113 
L 278.887121 198.679002 
L 280.239903 199.135178 
L 281.592684 199.594632 
L 282.945465 200.057359 
L 284.298247 200.523352 
L 285.651028 200.992605 
L 287.00381 201.465112 
L 288.356591 201.940868 
L 289.709372 202.419866 
L 291.062154 202.902102 
L 292.414935 203.387571 
L 293.767717 203.876266 
L 295.120498 204.368183 
L 296.473279 204.863318 
L 297.826061 205.361666 
L 299.178842 205.863222 
L 300.531623 206.367982 
L 301.884405 206.875942 
L 303.237186 207.387097 
L 304.589968 207.901444 
L 305.942749 208.418978 
L 307.29553 208.939697 
L 308.648312 209.463595 
L 310.001093 209.99067 
L 311.353875 210.520918 
L 312.706656 211.054336 
L 314.059437 211.590921 
L 315.412219 212.130669 
L 316.765 212.673577 
L 318.117781 213.219642 
L 319.470563 213.768861 
L 320.823344 214.321232 
L 322.176126 214.876751 
L 323.528907 215.435416 
L 324.881688 215.997225 
" style="fill:none;stroke:#ff7f0e;stroke-linecap:square;stroke-width:1.5;"/>
   </g>
   <g id="line2d_20">
    <path clip-path="url(#p0b72d86382)" d="M 324.881688 232.064743 
L 325.373609 232.195006 
L 325.865529 232.325843 
L 326.35745 232.457252 
L 326.84937 232.58923 
L 327.341291 232.721777 
L 327.833211 232.854889 
L 328.325132 232.988567 
L 328.817052 233.122807 
L 329.308973 233.257608 
L 329.800893 233.392968 
L 330.292814 233.528886 
L 330.784734 233.66536 
L 331.276655 233.802388 
L 331.768575 233.939968 
L 332.260496 234.078099 
L 332.752416 234.21678 
L 333.244337 234.356008 
L 333.736257 234.495782 
L 334.228178 234.6361 
L 334.720098 234.776961 
L 335.212019 234.918363 
L 335.703939 235.060306 
L 336.19586 235.202786 
L 336.68778 235.345803 
L 337.179701 235.489355 
L 337.671621 235.63344 
L 338.163542 235.778058 
L 338.655462 235.923207 
L 339.147383 236.068885 
L 339.639303 236.21509 
L 340.131224 236.361822 
L 340.623144 236.509079 
L 341.115065 236.65686 
L 341.606985 236.805163 
L 342.098906 236.953986 
L 342.590826 237.103329 
L 343.082747 237.25319 
L 343.574667 237.403568 
L 344.066588 237.554462 
L 344.558508 237.705869 
L 345.050429 237.85779 
L 345.542349 238.010221 
L 346.03427 238.163163 
L 346.526191 238.316615 
L 347.018111 238.470573 
L 347.510032 238.625039 
L 348.001952 238.780009 
L 348.493873 238.935484 
L 348.985793 239.091461 
L 349.477714 239.24794 
L 349.969634 239.40492 
L 350.461555 239.562398 
L 350.953475 239.720375 
L 351.445396 239.878849 
L 351.937316 240.037818 
L 352.429237 240.197282 
L 352.921157 240.35724 
L 353.413078 240.51769 
L 353.904998 240.678631 
L 354.396919 240.840062 
L 354.888839 241.001982 
L 355.38076 241.164391 
L 355.87268 241.327286 
L 356.364601 241.490667 
L 356.856521 241.654533 
L 357.348442 241.818882 
L 357.840362 241.983715 
L 358.332283 242.149029 
L 358.824203 242.314823 
L 359.316124 242.481097 
L 359.808044 242.64785 
L 360.299965 242.815081 
L 360.791885 242.982788 
L 361.283806 243.150971 
L 361.775726 243.319628 
L 362.267647 243.48876 
L 362.759567 243.658364 
L 363.251488 243.82844 
L 363.743408 243.998986 
L 364.235329 244.170003 
L 364.727249 244.341489 
L 365.21917 244.513443 
L 365.71109 244.685865 
L 366.203011 244.858752 
L 366.694931 245.032105 
L 367.186852 245.205923 
L 367.678772 245.380204 
L 368.170693 245.554948 
L 368.662613 245.730154 
L 369.154534 245.905822 
L 369.646454 246.081949 
L 370.138375 246.258536 
L 370.630295 246.435581 
L 371.122216 246.613084 
L 371.614136 246.791045 
L 372.106057 246.969461 
L 372.597977 247.148332 
L 373.089898 247.327658 
L 373.581818 247.507438 
" style="fill:none;stroke:#2ca02c;stroke-linecap:square;stroke-width:1.5;"/>
   </g>
   <g id="patch_8">
    <path d="M 54 252 
L 54 153.163636 
" style="fill:none;stroke:#000000;stroke-linecap:square;stroke-linejoin:miter;stroke-width:0.8;"/>
   </g>
   <g id="patch_9">
    <path d="M 388.8 252 
L 388.8 153.163636 
" style="fill:none;stroke:#000000;stroke-linecap:square;stroke-linejoin:miter;stroke-width:0.8;"/>
   </g>
   <g id="patch_10">
    <path d="M 54 252 
L 388.8 252 
" style="fill:none;stroke:#000000;stroke-linecap:square;stroke-linejoin:miter;stroke-width:0.8;"/>
   </g>
   <g id="patch_11">
    <path d="M 54 153.163636 
L 388.8 153.163636 
" style="fill:none;stroke:#000000;stroke-linecap:square;stroke-linejoin:miter;stroke-width:0.8;"/>
   </g>
  </g>
 </g>
 <defs>
  <clipPath id="pe1f3f898f6">
   <rect height="98.836364" width="334.8" x="54" y="34.56"/>
  </clipPath>
  <clipPath id="p0b72d86382">
   <rect height="98.836364" width="334.8" x="54" y="153.163636"/>
  </clipPath>
 </defs>
</svg>
